<?xml version="1.0" encoding="UTF-8"?>
<!-- Created with Inkscape (http://www.inkscape.org/) -->
<svg width="64" height="64" version="1.1" viewBox="0 0 16.933 16.933" xmlns="http://www.w3.org/2000/svg"><g stroke="#000"><path d="m5.0256 1.0659s1.2125-0.3435 3.4441-0.3435c2.2316 0 3.4441 0.3435 3.4441 0.3435v15.145h-6.8881z" fill="none" stroke-width=".052917"/><path d="m5.0229 2.3961s1.0966-0.31981 3.4467-0.31981 3.4467 0.31981 3.4467 0.31981v12.237s-1.1487 0.28324-3.4467 0.28324c-2.298 0-3.4467-0.28324-3.4467-0.28324z" fill="#3c3c0f" stroke-width=".047584"/><path d="m4.999 1.0431s1.1266 0.25466 3.4409 0.25466c2.3143 0 3.4409-0.24282 3.4409-0.24282" fill="none" stroke-width=".052917"/><path d="m5.0223 2.4036s1.5441 0.24669 3.4117 0.25631c1.8676 0.00963 3.4532-0.26443 3.4532-0.26443" fill="none" stroke-width=".052917"/></g><g transform="rotate(63.632 10.858 -1.4438)" fill="none" stroke="#000" stroke-width=".079375"><path d="m12.5 2.2126h1.6079v1.5671h-1.6079z"/><path d="m12.759 1.7802 1.5609-0.00322-0.21478 0.37352-1.5724-0.014999z"/><path d="m14.101 2.2036 0.24376-0.34066 0.01243 1.3914-0.25105 0.5318z"/></g><g transform="rotate(-36.136 16.92 10.675)"><g transform="rotate(43.853 15.747 2.8126)" fill="none" stroke="#000" stroke-width=".079375"><path d="m12.5 2.2126h1.6079v1.5671h-1.6079z"/><path d="m12.759 1.7802 1.5609-0.00322-0.21478 0.37352-1.5724-0.014999z"/><path d="m14.101 2.2036 0.24376-0.34066 0.01243 1.3914-0.25105 0.5318z"/></g></g><g transform="rotate(93.947 8.9649 .50252)" fill="none" stroke="#000" stroke-width=".079375"><path d="m12.5 2.2126h1.6079v1.5671h-1.6079z"/><path d="m12.759 1.7802 1.5609-0.00322-0.21478 0.37352-1.5724-0.014999z"/><path d="m14.101 2.2036 0.24376-0.34066 0.01243 1.3914-0.25105 0.5318z"/></g><g transform="rotate(-36.136 12.029 7.707)" fill="none" stroke="#000" stroke-width=".079375"><path d="m12.5 2.2126h1.6079v1.5671h-1.6079z"/><path d="m12.759 1.7802 1.5609-0.00322-0.21478 0.37352-1.5724-0.014999z"/><path d="m14.101 2.2036 0.24376-0.34066 0.01243 1.3914-0.25105 0.5318z"/></g><g transform="rotate(21.923 9.7326 -15.189)" fill="none" stroke="#000" stroke-width=".079375"><path d="m12.5 2.2126h1.6079v1.5671h-1.6079z"/><path d="m12.759 1.7802 1.5609-0.00322-0.21478 0.37352-1.5724-0.014999z"/><path d="m14.101 2.2036 0.24376-0.34066 0.01243 1.3914-0.25105 0.5318z"/></g><g fill="#fff"><path d="m11.643 6.3305h0.14059v6.439h-0.14059z" stroke-width=".045847"/><g stroke-width=".0093113"><path d="m10.563 2.0556 0.09427-0.08056 0.1724 0.24877-0.09427 0.080559z"/><path d="m8.6391 1.8646 0.09427-0.08056 0.1724 0.24877-0.09427 0.080559z"/><path d="m6.3852 1.9523 0.047231-0.11466 0.26679 0.14295-0.047231 0.11466z"/></g></g></svg>
