<?xml version="1.0" encoding="UTF-8"?>
<!-- Created with Inkscape (http://www.inkscape.org/) -->
<svg width="64" height="64" version="1.1" viewBox="0 0 16.933 16.933" xmlns="http://www.w3.org/2000/svg"><g transform="translate(.069548 -.4744)"><g stroke="#000"><g><rect x="7.7536" y="1.0216" width="1.2774" height="1.6675" rx=".28531" ry=".3615" fill="#b1b166" stroke-width=".057513"/><path d="m9.2197 2.0151s-0.1619 1.9891 1.5655 3.3794c0.62083 0.4997 1.395 0.75968 1.9501 1.3148 1.1102 1.1102 1.7969 2.644 1.7969 4.3382 0 3.3883-2.7468 6.1351-6.1351 6.1351-3.3883 0-6.1351-2.7468-6.1351-6.1351 0-1.6942 0.68669-3.2279 1.7969-4.3382 0.55512-0.55512 1.3041-0.84815 1.9501-1.3148 1.9532-1.4109 1.5633-3.3785 1.5633-3.3785" fill="none" stroke-width=".086269"/><rect x="7.1454" y="1.279" width="2.5034" height=".7363" rx=".35767" ry=".35767" fill="none" stroke-width=".086269"/></g><path d="m13.875 11.195c0 3.018-2.4466 5.4645-5.4645 5.4645-3.018 0-5.4645-2.4466-5.4645-5.4645 0-0.75449 0.05706-1.5227 0.42943-2.127 1.1077-1.7978 1.6925-1.7914 3.6823-1.0184 2.0115 0.78146 4.5415-1.4835 5.2168-0.71859 0.46281 0.52417 0.89458 1.0832 1.1711 1.737 0.27652 0.65377 0.42943 1.3725 0.42943 2.127z" fill="#ced61b" stroke-width=".086269"/></g><path d="m13.212 12.177c-0.11416 0.31214-0.37746 0.87493-0.67737 0.73169-0.32017-0.15292 0.03468-0.7189 0.15308-1.0534 0.10306-0.29112 0.17368-0.87146 0.47326-0.79648 0.36194 0.0906 0.17918 0.76775 0.05103 1.1182z" fill="#fff" stroke-width=".059136"/><path d="m12.253 14.212c-0.18401 0.27678-0.57163 0.76238-0.82972 0.55296-0.27552-0.22356 0.20186-0.69085 0.39521-0.98835 0.16829-0.25894 0.37269-0.80667 0.64642-0.66369 0.33071 0.17274-0.0053 0.78837-0.21191 1.0991z" fill="#fff" stroke-width=".059136"/><g stroke="#000" stroke-width=".057513"><rect x="7.3904" y=".68523" width="2.0037" height=".58932" rx=".28627" ry=".28627" fill="#b1b166"/><path d="m7.7774 2.6172s0.05082 0.51952-0.21532 1.2229c-0.24474 0.64685-0.93238 1.3718-0.93238 1.3718" fill="none"/><path d="m9.0541 2.6172s-0.050821 0.51952 0.21532 1.2229c0.24474 0.64685 0.93238 1.3718 0.93238 1.3718" fill="none"/></g></g></svg>
