<?xml version="1.0" encoding="UTF-8"?>
<!-- Created with Inkscape (http://www.inkscape.org/) -->
<svg width="64" height="64" version="1.1" viewBox="0 0 16.933 16.933" xmlns="http://www.w3.org/2000/svg"><g transform="matrix(1.0869 0 0 1.0869 -.79546 -1.5061)"><g stroke="#000"><g><rect x="7.9298" y="1.8892" width="1.1753" height="1.5343" rx=".26251" ry=".33261" fill="#b1b166" stroke-width=".052917"/><path d="m9.2788 2.8032s-0.14896 1.8301 1.4404 3.1093c0.57121 0.45976 1.2835 0.69897 1.7943 1.2097 1.0215 1.0215 1.6533 2.4327 1.6533 3.9915 0 3.1175-2.5273 5.6448-5.6448 5.6448-3.1175 0-5.6448-2.5273-5.6448-5.6448 0-1.5588 0.63181-2.97 1.6533-3.9915 0.51075-0.51075 1.1999-0.78037 1.7943-1.2097 1.7971-1.2981 1.4384-3.1085 1.4384-3.1085" fill="none" stroke-width=".079375"/><rect x="7.3703" y="2.126" width="2.3033" height=".67745" rx=".32908" ry=".32908" fill="none" stroke-width=".079375"/></g><path d="m13.562 11.249c0 2.7768-2.251 5.0278-5.0278 5.0278s-5.0278-2.251-5.0278-5.0278c0-0.6942 0.0525-1.401 0.39511-1.9571 1.0192-1.6541 1.5572-1.6482 3.388-0.93699 1.8508 0.71901 4.1786-1.3649 4.7999-0.66116 0.42582 0.48228 0.82308 0.99663 1.0775 1.5982 0.25442 0.60152 0.39511 1.2629 0.39511 1.9571z" fill="#9e0f0f" stroke-width=".079375"/></g><path d="m12.952 12.153c-0.10504 0.2872-0.3473 0.80501-0.62324 0.67321-0.29458-0.1407 0.03191-0.66144 0.14085-0.96919 0.09482-0.26786 0.1598-0.80182 0.43544-0.73282 0.33302 0.08336 0.16486 0.7064 0.04695 1.0288z" fill="#fff" stroke-width=".05441"/><path d="m12.07 14.025c-0.1693 0.25466-0.52595 0.70145-0.76341 0.50877-0.2535-0.2057 0.18573-0.63564 0.36363-0.90936 0.15484-0.23825 0.34291-0.7422 0.59476-0.61065 0.30428 0.15894-0.0049 0.72536-0.19498 1.0112z" fill="#fff" stroke-width=".05441"/><g stroke="#000" stroke-width=".052917"><rect x="7.5957" y="1.5797" width="1.8436" height=".54223" rx=".26339" ry=".26339" fill="#b1b166"/><path d="m7.9517 3.3573s0.046759 0.47801-0.19811 1.1252c-0.22518 0.59516-0.85786 1.2622-0.85786 1.2622" fill="none"/><path d="m9.1264 3.3573s-0.046759 0.47801 0.19811 1.1252c0.22518 0.59516 0.85786 1.2622 0.85786 1.2622" fill="none"/></g></g></svg>
