<?xml version="1.0" encoding="UTF-8"?>
<!-- Created with Inkscape (http://www.inkscape.org/) -->
<svg width="64" height="64" version="1.1" viewBox="0 0 16.933 16.933" xml:space="preserve" xmlns="http://www.w3.org/2000/svg"><g><g transform="translate(-.55323 .55142)"><path d="m9.1517 0.82424c0.78885 0.57503 1.6529 2.0866 2.6353 3.6154 0 0-3.7513 0.66119-5.3212 0.11171 1.7337-2.582 1.9627-3.3457 2.6859-3.7271z" fill="#252a39" stroke="#000" stroke-width=".10643"/><path d="m5.6493 5.317 6.4723-0.079249 2.1502 11.973h-9.1686z" fill="#252a39" stroke="#000" stroke-width=".13229"/><g><g stroke="#000"><g><path d="m5.7415 5.1871s-0.26974 2.0721-0.11371 3.177c0.10965 0.77643 0.50761 1.4925 0.6253 2.2678 0.16411 1.081 0.10585 5.8861 0.10585 5.8861l-0.47906 1.6061c1.4512 0.08628 4.8932 0.17449 6.6115 0.07022l-0.64602-1.6942s-0.08801-4.7864 0.08823-5.8548c0.12755-0.77324 0.5498-1.4759 0.69437-2.2462 0.20705-1.1032-0.01828-3.0055-0.01828-3.0055z" fill="#51524a" stroke-width=".069715"/><rect x="8.2591" y="3.8363" width="1.6633" height="1.4332" fill="#52401f" stroke-width=".026458"/><path d="m6.9601 14.637h4.5623" fill="#78d5d5" stroke-width=".023128"/><rect x="6.4239" y="13.375" width="5.6002" height="3.4734" fill="#222" stroke-width=".029903"/><rect x="6.967" y="12.993" width="4.3055" height=".83903" fill="#4d2e08" stroke-width=".026458"/></g><path d="m7.277 4.7598c0.19855 0.00485 0.38127 0.024776 0.54915 0.045984 0.67151 0.084834 1.1041 0.18652 1.1041 0.18652l-2.153 12.082-3.0546-0.17825s-1.0818-9.6561 1.3205-11.381c0.90087-0.64674 1.6382-0.76992 2.2338-0.75538z" fill="#264756" stroke-width=".05614"/></g><path d="m8.0496 2.7154c0.13918-0.06079 0.2213-0.11785 0.32901-0.10478 0.10798 0.013331 0.24183 0.096517 0.31355 0.16611-0.14131 0.086919-0.23943 0.13518-0.33328 0.12984-0.09412-0.00533-0.18397-0.063989-0.30928-0.19117z" fill="#fffbfb"/></g><g transform="translate(.67453 -.59544)"><path d="m7.8277 3.3554a0.10932 0.10932 0 0 1-0.10931 0.10932 0.10932 0.10932 0 0 1-0.10932-0.10932 0.10932 0.10932 0 0 1 0.10932-0.10932 0.10932 0.10932 0 0 1 0.10931 0.10932" fill="#20486b" stroke-width=".070544"/><circle transform="scale(-1,1)" cx="-7.7184" cy="3.3554" r=".058076"/></g><path d="m10.084 2.7305c-0.13918-0.06079-0.2213-0.11785-0.32901-0.10478-0.10798 0.013331-0.24183 0.096517-0.31355 0.16611 0.14131 0.086919 0.23943 0.13518 0.33328 0.12984 0.09412-0.00533 0.18397-0.063989 0.30928-0.19117z" fill="#fffbfb"/><g transform="translate(2.0273 -.60067)"><path d="m7.8277 3.3554a0.10932 0.10932 0 0 1-0.10931 0.10932 0.10932 0.10932 0 0 1-0.10932-0.10932 0.10932 0.10932 0 0 1 0.10932-0.10932 0.10932 0.10932 0 0 1 0.10931 0.10932" fill="#20486b" stroke-width=".070544"/><circle transform="scale(-1,1)" cx="-7.7184" cy="3.3554" r=".058076"/></g><g><path d="m8.6579 0.10333-0.76603 0.66668s-0.52591 1.22-0.53311 1.3802c-0.03466 0.05412-0.02758-0.013247-0.12196 0.013953-0.04026 0.11411-0.08955 0.37215-0.12661 0.5116 0.11198 0.17144 0.25563 0.46258 0.38654 0.62735 0.07013 0.06186 0.0978 0.024382 0.14366 0.00465l0.05064 0.010335c0.10146 0.11125 0.20698 0.21886 0.31574 0.32298 0.04799 0.25276 0.11593 0.54359 0.17725 0.77928 0.50738 0.29009 0.84701 0.37454 0.90434 0.37827l0.92191-0.39688c0.06052-0.29622 0.10074-0.44012 0.15193-0.73794 0.12771-0.12105 0.20806-0.21237 0.32298-0.34675 0.04346 0.013332 0.16481 0.023471 0.19947-0.025321 0.13784-0.1949 0.25211-0.42005 0.37982-0.62322-0.03786-0.14504-0.08799-0.37771-0.10852-0.52142-0.05332 0.01334-0.13503 0.046663-0.18862 0.066663 0.09377-0.48264-0.3607-1.3741-0.3607-1.3741zm1.0937 2.5483c0.05297-0.0085 0.10866-0.0025 0.16056 0.011087 0.04473 0.011711 0.07136 0.035922 0.1253 0.059483-0.11101 0.11267-0.21318 0.12783-0.29645 0.13255-0.08326 0.00472-0.17048-0.00129-0.29566-0.078289 0.07039-0.068295 0.1974-0.10737 0.30625-0.12483zm-1.459-0.00324c0.02789 3.021e-4 0.05569 0.00212 0.0832 0.00465 0.11292 0.010385 0.24506 0.054435 0.31678 0.12402-0.14131 0.086919-0.21958 0.091154-0.33331 0.080098-0.11278-0.010965-0.18371-0.014416-0.30902-0.1416 0.07483-0.054622 0.15871-0.068086 0.24236-0.067179z" fill="#52401f" stroke="#000" stroke-width=".026458"/><path d="m8.658 0.10351c0.69668-0.27329 1.7485 0.73641 1.7485 0.73641l0.36074 1.3739-0.29382 0.072521-0.11278-0.10665c-0.04799-0.24902-0.11945-0.61296-0.14744-0.85959-0.38607 0.087452-0.79515 0.10135-1.1779 0.10438-0.38277 0.00304-0.68693-0.01791-1.0412-0.12491-0.08185 0.33834-0.30395 0.99503-0.30395 0.99503l-0.25568 0.27995s0.01866-0.1845 0.024-0.27809l-0.01253-0.03173c-0.04266-0.03386-0.08692-0.11465-0.08692-0.11465-3.15e-4 -0.04373 0.56235-1.3508 0.56235-1.3508l0.73663-0.69578z" fill="#1d1a0e" stroke="#000" stroke-width=".070544"/><path d="m9.0193 2.9222c0-0.10265-0.01409 0.00829 0.01471-0.091158 0.03386 0.057324 8e-3 0.69608 0.0045 0.84779 0.07092-0.047992 0.31284-0.099143 0.33977-0.133l0.0136-0.086652 0.02533-0.014131c0.055772 0.1709-0.31455 0.27439-0.38857 0.31266-0.12844-0.037215-0.37135-0.13136-0.35269-0.29027l0.02026-0.00613c0.0248 0.031995 0.02053 0.052525 0.02266 0.095451 0.05599 0.053857 0.18321 0.11239 0.26696 0.11733 0.04079-0.077854 0.03346-0.60312 0.03346-0.75189z" fill="#232323" stroke-width=".070544"/><path d="m8.1578 2.3878c0.10557 7.75e-5 0.50361 0.053291 0.63893 0.06901 0.0044 0.070604 0.0061 0.13827 0.0097 0.20854-0.0434-0.0027-0.09979-0.011925-0.14403-0.018411-0.25128-0.025842-0.44985-0.025246-0.69056-0.045157 0.05895-0.07422 0.12344-0.14303 0.18598-0.21399" fill="#1d1a0e" stroke-width=".05665"/></g><path d="m9.0166 2.8828-0.17104 0.76161s0.13155 0.032278 0.13902 0.030678c8e-3 -0.0016 0.0072-0.02053 0.01014-0.033061 0.0027-0.012798 0.0037-0.024529 8e-3 -0.05759 0.0037-0.031461 0.0067-0.10292 0.0093-0.18504 0.0027-0.082119 0.0019-0.16717 0.0019-0.16717z" fill-opacity=".1495"/><path d="m7.4753 3.1408-0.018992-0.16855-0.13057-0.12345" fill="none" stroke="#000" stroke-width=".026458"/><path d="m10.658 3.1279 0.01899-0.16855 0.13057-0.12345" fill="none" stroke="#000" stroke-width=".026458"/><g><path d="m10.763 4.7841c-0.19855 0.00485-0.38127 0.024776-0.54915 0.045984-0.67151 0.084834-1.1041 0.18652-1.1041 0.18652l2.153 12.082 3.0546-0.17825s1.0818-9.6561-1.3205-11.381c-0.90087-0.64674-1.6382-0.76992-2.2338-0.75538z" fill="#264756" stroke="#000" stroke-width=".05614"/><path d="m9.1272-0.09769c-1.623 0.29366-2.2892 3.2924-2.9154 5.0293 0.4661 0.25213 1.3686 0.35477 2.9722 0.34506 1.5649-0.00948 2.4046-0.096231 2.8197-0.27854-0.35178-0.96167-1.0061-4.8265-2.8765-5.0958zm0.02429 1.0253c0.78885 0.57503 1.0808 1.9427 2.0631 3.4715 0 0-0.18486 0.042086-0.49056 0.088429-0.3057 0.046343-0.40717 0.034428-1.1343 0.214-0.44686 0.11035-1.3924-0.018268-1.8566-0.087455-0.45315-0.067537-0.38987-0.022227-0.69442-0.14076 1.7337-2.582 1.3896-3.1643 2.1128-3.5457z" fill="#264756" stroke="#000" stroke-width=".079375"/><path d="m9.9817 2.3878c-0.10557 7.75e-5 -0.50361 0.053291-0.63893 0.06901-0.0044 0.070604-0.0062 0.13827-0.0097 0.20854 0.0434-0.0027 0.09979-0.011925 0.14403-0.018411 0.25128-0.025842 0.44985-0.025246 0.69056-0.045157-0.05895-0.07422-0.12344-0.14303-0.18598-0.21399" fill="#1d1a0e" stroke-width=".05665"/></g><path d="m8.0498 3.8021 0.14211 0.61133s0.5526 0.31061 0.89814 0.38292c0.27945-0.12067 0.91054-0.40101 0.91054-0.40101l0.12144-0.57723-0.23823 0.10594-0.27595 0.03669-0.25528-0.15245-0.24303 0.011028-0.03013 0.025497-0.03602-0.022914-0.21172-0.00844-0.25322 0.15606-0.29662-0.083199zm1.0397 0.16588 0.49299 0.088883-0.02274 0.17932-0.35037 0.031524-0.07441-0.05736-0.08733 0.00258-0.06511 0.059944-0.3483-0.030489-0.03204-0.15968z" fill="#1d1a0e" stroke-width=".026458"/><path d="m8.7518 4.1832c0.04608-0.014746 0.30689-0.015491 0.48854-0.043199s0.28413-0.082379 0.31948-0.072687c-0.0518 0.014584-0.1581 0.082593-0.33754 0.11088-0.17944 0.028284-0.43204 0.016843-0.47051 0.00482" fill="#161515" stroke-width=".050297"/><g fill="#1b343d"><path d="m7.316 7.6117s-1.3365 1.4991-1.7283 2.1556c-0.39179 0.65651-0.38523 0.48272-0.71093 1.6983-0.3257 1.2156-0.71093 5.6502-0.71093 5.6502h-0.31869s0.30054-1.3899 0.42901-2.3406c0.12848-0.95078 0.08698-2.4938 0.29418-3.364 0.2072-0.87022 0.29074-1.1926 0.73545-1.8507 0.4447-0.65818 2.0102-1.9487 2.0102-1.9487z"/><path d="m7.9657 8.4826s-1.5467 1.7603-2.047 2.5039-0.78521 4.5308-1.1032 7.0002h-0.31869s0.30054-1.3899 0.42901-2.3406c0.4957-1.4987-0.02102-3.432 0.78448-4.8337 0.4447-0.65818 2.2554-2.3298 2.2554-2.3298z"/><path d="m10.49 7.4787s1.5467 1.7603 2.047 2.5039c0.50029 0.74366 0.78521 4.5308 1.1032 7.0002h0.31869s-0.238-0.8219-0.42901-2.3406c-0.19101-1.5187 0.02102-3.432-0.78448-4.8337-0.4447-0.65818-2.2554-2.3298-2.2554-2.3298z"/><path d="m10.713 8.8223s0.58749 0.95845 1.0878 1.7021c0.50029 0.74367 0.78521 4.5308 1.1032 7.0002h0.31869s-0.27281-1.6324-0.38693-2.234c-0.11412-0.6016-0.02106-3.5387-0.82656-4.9404-0.4447-0.65818-1.2962-1.5279-1.2962-1.5279z"/></g></g></g><style>
				.filled {
					cursor: pointer;
					transition: fill 0.3s;
				}

				.filled:hover {
					fill: #7711AA;
				}

				.filled.built {
					fill: #7711AA;
				}

				.filled.built:hover {
					fill: inherit;
				}
			</style></svg>
