<?xml version="1.0" encoding="UTF-8"?>
<!-- Created with Inkscape (http://www.inkscape.org/) -->
<svg width="64" height="64" version="1.1" viewBox="0 0 16.933 16.933" xml:space="preserve" xmlns="http://www.w3.org/2000/svg"><g><g transform="translate(-.10054)"><path d="m8.4731 1.0828c0.78885 0.57503 1.2697 2.2608 2.252 3.7896 0 0-2.9588 0.56538-4.5286 0.0159 1.7337-2.582 1.5533-3.4241 2.2766-3.8055z" fill="#252a39" stroke="#000" stroke-width=".10643"/><path d="m5.147 5.8236 6.296-0.32732 1.6735 11.94-8.6918 0.03326z" fill="#252a39" stroke="#000" stroke-width=".13229"/><g stroke="#000"><g><g><path d="m5.2457 5.6545s-0.45253 1.8632-0.29649 2.9681c0.10965 0.77643 0.50761 1.4925 0.6253 2.2678 0.16411 1.081 0.10585 5.8861 0.10585 5.8861l-0.47906 1.6061c1.4512 0.08628 4.8931 0.17449 6.6115 0.07022l-0.64602-1.6942s-0.08801-4.7864 0.08823-5.8548c0.12755-0.77324 0.5498-1.4759 0.69437-2.2462 0.20705-1.1032-0.01828-3.0055-0.01828-3.0055z" fill="#51524a" stroke-width=".069715"/><path d="m6.2815 14.895h4.5623" fill="#78d5d5" stroke-width=".023128"/><rect x="5.7453" y="13.634" width="5.6002" height="3.4734" fill="#222" stroke-width=".029903"/><rect x="6.2885" y="13.251" width="4.3055" height=".83903" fill="#4d2e08" stroke-width=".026458"/></g><path d="m7.019 4.9082c0.17638 0.00485 0.3387 0.02478 0.48783 0.045992 0.59652 0.084849 0.98082 0.18655 0.98082 0.18655l-1.9125 12.084-2.7135-0.17828s-0.961-9.6578 1.1731-11.383c0.80027-0.64685 1.4553-0.77005 1.9844-0.75551z" fill="#264756" stroke-width=".052917"/></g><path d="m9.4148 3.1002c0.049718 0 0.68186 0.054048 0.68186 0.054048l-0.17085 1.7368s-0.16445 0.98225-0.71152-0.00813c-0.54707-0.99039 0.15078-1.7827 0.20051-1.7827z" fill="#b96e14" stroke-width=".010645"/><path d="m6.9043 3.2236c0.049718 0 0.49282-0.30163 0.49282-0.30163l0.36958 2.2752c-0.97766 0.16839-0.53354 0.24049-0.70501-0.54057-0.21605-0.84553-0.18225-1.433-0.15739-1.433z" fill="#b96e14" stroke-width=".010645"/><path d="m7.2197 3.7626c-0.034963 0.048217-0.16355 0.02469-0.22318-0.057029-0.03282-0.070859-0.073957-0.3588-0.055532-0.53822 0.011356-0.11057 0.00796-0.27941 0.10083-0.31664 0.086699-0.034746 0.14749-0.045593 0.16486 0.15469 0.010592 0.12213 0.065377 0.68498 0.013015 0.7572z" fill="#e1e295" stroke-width=".019459"/><path d="m9.6068 3.7021c0.032532 0.05002 0.16212 0.033386 0.22569-0.045044 0.03626-0.069015 0.09152-0.35439 0.08194-0.53455-0.0059-0.11103 0.0058-0.27947-0.08511-0.32161-0.08488-0.039327-0.14505-0.053404-0.17227 0.14569-0.016586 0.12141-0.098998 0.68059-0.05026 0.75551z" fill="#e1e295" stroke-width=".019459"/><path d="m9.6886 3.6082c-0.077145 0.25212-0.091141 0.29151-0.21132 0.46429-0.14314 0.47277-0.32837 0.95233-0.59806 1.0826-0.15401 0.074404-0.3048 0.16512-0.46459 0.21068-0.50629-0.18442-0.87939-0.47357-1.0492-1.2458-0.10994-0.17485-0.18611-0.31002-0.18611-0.55438 0-0.24436 0.026444-0.51838 0.088653-0.73011 0.06221-0.21174 0.044218-0.47311 0.15545-0.63325 0.11123-0.16014 0.16808-0.38987 0.31516-0.47943 0.14708-0.089557 0.30367-0.35496 0.76772-0.3508 0.46405 0.00415 0.42847 0.16754 0.57555 0.25709 0.14708 0.089558 0.26908 0.30999 0.38032 0.47013 0.28621 0.4348 0.3712 1.0359 0.22645 1.509z" fill="#eceebe" stroke-width=".027966"/></g><path d="m8.3626 3.3633 0.01893 0.83512 0.060035 0.025702" fill="none" stroke="#000" stroke-width=".019144"/><path d="m8.2037 4.0247 0.00504 0.091186 0.22831 0.16609 0.21326-0.15306 0.00504-0.11398" fill="none" stroke="#000" stroke-width=".019189"/><g><path d="m8.8955 4.571c-0.15847 0.019679-0.83536 0.011479-0.94394 0 0.12358-0.00878 0.22105-0.02896 0.32974-0.048006 0.056465-0.00113 0.12445 0.022335 0.12445 0.022335s0.065326-0.018379 0.14124-0.01908c0.05917-5.465e-4 0.21912 0.036987 0.34851 0.04475z" fill="#e8a9a8" stroke="#000" stroke-width=".0084787"/><path d="m8.6385 4.8104c-0.071282 0.022203-0.35081 0.057553-0.40415-0.017018 0.058441-0.00136 0.38706-0.024021 0.40415 0.017018z" fill="#d1d75f"/><g stroke="#000"><path d="m7.5867 2.8892s0.078618-0.00136 0.31717 0.076364c0.23855 0.077719 0.31016 0.10864 0.31016 0.10864l0.00388 0.13867s-0.26572-0.11491-0.40814-0.16729c-0.14241-0.052383-0.14186-0.051312-0.23264-0.064932-0.090782-0.013618-0.2039 7.413e-4 -0.2039 7.413e-4z" fill="#e28719" stroke-width=".0091936"/><path d="m8.124 3.3246c-0.01828-0.011066-0.069242 0.0033-0.11572 0.035509-0.051022 0.035356-0.070571 0.051733-0.20013 0.04829-0.12956-0.00344-0.1563-0.053671-0.20749-0.098152-0.023531-0.020443-0.043346-0.048002-0.071732-0.072402-0.028386-0.024401-0.075095-0.012153-0.075095-0.012153 0.09181-0.022227 0.07629-0.015069 0.15758-0.037982 0.08129-0.022915 0.10462-0.033101 0.19428-0.033101 0.089661 0 0.16536 0.035383 0.21118 0.077772 0.067104 0.062079 0.06642 0.052647 0.10713 0.09222z" fill="#fff" stroke-width=".016677"/><path d="m7.8254 3.162c-0.029403 0-0.053162 0.00182-0.074051 0.00498-0.027344 0.024345-0.043088 0.059931-0.04309 0.097394-8.36e-5 0.070766 0.054932 0.12821 0.12289 0.1283 0.068079 8.72e-5 0.12329-0.057407 0.12321-0.1283-4.18e-5 -0.032787-0.01215-0.064311-0.033834-0.088083-0.029083-0.00886-0.061115-0.014293-0.095118-0.014292z" fill="#33a679" stroke-width=".010457"/></g><ellipse cx="7.8313" cy="3.2634" rx=".067164" ry=".069942"/></g><path d="m7.8879 3.2276 0.029502 0.048792-0.018985 0.012448-0.029502-0.048792z" fill="#fff" stroke-width=".0046344"/><g><path d="m8.7186 3.3225c0.01873-0.011338 0.070947 0.00338 0.11857 0.036383 0.052277 0.036226 0.096146 0.050644 0.20428 0.051451 0.10813 8.052e-4 0.16092-0.056964 0.21337-0.10254 0.024103-0.020947 0.044406-0.049184 0.073498-0.074186 0.029085-0.025001 0.085547-0.021412 0.085547-0.021412-0.15622-0.026757-0.12029-0.020814-0.17006-0.03145-0.06151-0.013144-0.10719-0.033915-0.19906-0.033915-0.091868 0-0.16943 0.037748-0.21637 0.08118-0.041336 0.03824-0.088615 0.072162-0.10977 0.094491z" fill="#fff" stroke="#000" stroke-width=".017087"/><path d="m9.0494 3.1559c0.030123 0 0.054467 0.00187 0.075874 0.00511a0.12608 0.1313 0 0 1 0.04415 0.099782 0.12608 0.1313 0 0 1-0.12591 0.13146 0.12608 0.1313 0 0 1-0.12624-0.13146 0.12608 0.1313 0 0 1 0.034668-0.090251c0.0298-0.00908 0.062617-0.014645 0.097458-0.014645z" fill="#33a679" stroke="#000" stroke-width=".010714"/><ellipse transform="scale(-1,1)" cx="-9.0433" cy="3.2598" rx=".068817" ry=".071664"/></g><path d="m9.0949 3.2148 0.030229 0.049993-0.019453 0.012754-0.030228-0.049993z" fill="#fff" stroke-width=".0047485"/><g><path transform="matrix(.78852 0 0 .82113 1.527 .21952)" d="m9.365 0.69193c-0.024728 0.088842 1.1386 1.9876 0.92278 2.1616-0.14217-0.13154-0.45582-0.23991-0.6539-0.49699s-0.44964-0.91119-0.81844-0.9093c-0.42116 0.057884-0.58318 0.66283-0.84355 0.9997-0.11498 0.11039-0.60699 0.55616-0.75747 0.78008-0.079309 0.11801-0.27695 1.0347-0.34402 1.1267s-0.36907 0.35859-0.65646 0.87725 0.306 0.33206 0.052761 0.6035 0.12422-2.3169 0.19502-2.6611c0.19784-0.96198 0.57591-2.1078 1.6377-2.8007 0.15422-0.090359 0.33749-0.16358 0.60484-0.12658s0.30498 0.055258 0.43601 0.15756 0.24952 0.19919 0.22472 0.28831z" fill="#e28719" stroke="#000" stroke-width=".013229"/><path d="m8.4921 1.4014 9.025e-4 -0.24149" fill="#4d2e08" stroke="#000" stroke-width=".018521"/><path d="m7.6628 2.0966c-0.34411 0.4196-0.5233 0.57385-0.66595 0.75677-0.14265 0.18291-0.12355 0.35537-0.32146 0.88959 0.24361-0.39161 0.18372-0.57925 0.3462-0.82171 0.16247-0.24245 0.42211-0.50061 0.64121-0.82465z" fill="#c3c312"/><g stroke="#000"><path d="m10.115 4.9325c-0.17638 0.00485-0.3387 0.02478-0.48783 0.045992-0.59652 0.084849-0.98082 0.18655-0.98082 0.18655l1.9125 12.084 2.7135-0.17828s0.961-9.6578-1.1731-11.383c-0.80027-0.64685-1.4553-0.77005-1.9844-0.75551z" fill="#264756" stroke-width=".052917"/><path d="m8.4392 0.44113c-1.5813 0.01233-2.037 3.0125-2.5966 4.7511 0.41653 0.25238 1.2114 0.45966 2.6444 0.44994 1.3985-0.0094854 2.176-0.45406 2.5469-0.63655-0.54554-0.95109-1.0134-4.5768-2.5947-4.5645zm0.03042 0.74318c0.7921 0.2974 0.96584 1.9445 1.8437 3.4748 0 0-0.1652 0.042127-0.43839 0.088514-0.27319 0.046389-0.36386 0.034462-1.0137 0.21421-0.39934 0.11046-1.2443-0.018285-1.6592-0.08754-0.40496-0.067602-0.34841-0.022249-0.62056-0.1409 1.5493-2.5845 1.0588-3.3333 1.8881-3.5491z" fill="#264756" stroke-width=".075072"/><path d="m9.2786 2.8903s-0.078618-0.00136-0.31717 0.076364c-0.23855 0.077719-0.31016 0.10864-0.31016 0.10864l-0.00388 0.13867s0.26572-0.11491 0.40814-0.16729c0.14241-0.052383 0.14186-0.051312 0.23264-0.064932 0.090782-0.013619 0.2039 7.413e-4 0.2039 7.413e-4z" fill="#e28719" stroke-width=".0091936"/></g></g><g fill="#1b343d"><path d="m7.1103 7.6329s-1.1873 1.4993-1.5353 2.1559c-0.34804 0.65663-0.34221 0.48281-0.63154 1.6986-0.28933 1.2158-0.63154 5.6512-0.63154 5.6512h-0.2831s0.26697-1.3901 0.3811-2.3411 0.077267-2.4942 0.26133-3.3646c0.18406-0.87037 0.25827-1.1928 0.65332-1.8511 0.39504-0.6583 1.7857-1.9491 1.7857-1.9491z"/><path d="m7.6874 8.504s-1.374 1.7606-1.8184 2.5044-0.69753 4.5315-0.97998 7.0014h-0.2831s0.26697-1.3901 0.3811-2.3411c0.44034-1.499-0.018672-3.4326 0.69687-4.8346 0.39504-0.6583 2.0035-2.3302 2.0035-2.3302z"/><path d="m9.9294 7.4999s1.374 1.7606 1.8184 2.5044c0.44442 0.7438 0.69752 4.5315 0.97998 7.0014h0.2831s-0.21142-0.82204-0.3811-2.3411 0.01867-3.4326-0.69687-4.8346c-0.39504-0.6583-2.0035-2.3302-2.0035-2.3302z"/><path d="m10.128 8.8438s0.52189 0.95862 0.9663 1.7024c0.44442 0.7438 0.69752 4.5315 0.97998 7.0014h0.2831s-0.24234-1.6327-0.34372-2.2344c-0.10138-0.6017-0.01871-3.5393-0.73426-4.9412-0.39504-0.6583-1.1514-1.5282-1.1514-1.5282z"/></g></g></g><style>
				.filled {
					cursor: pointer;
					transition: fill 0.3s;
				}

				.filled:hover {
					fill: #7711AA;
				}

				.filled.built {
					fill: #7711AA;
				}

				.filled.built:hover {
					fill: inherit;
				}
			</style></svg>
