<?xml version="1.0" encoding="UTF-8"?>
<!-- Created with Inkscape (http://www.inkscape.org/) -->
<svg width="64" height="64" version="1.1" viewBox="0 0 16.933 16.933" xml:space="preserve" xmlns="http://www.w3.org/2000/svg"><g><g stroke="#000"><path d="m7.0045 1.8559 3.0576-0.012968-0.1411 5.6775-2.7461-0.012962z" fill="#afbc1e" stroke-width=".052917"/><path d="m6.5661 6.3348 0.93827-0.00479 0.25665-0.70296h1.6199l0.19003 0.70775h0.85546v8.6482h-3.8603z" fill="#9cd79f" stroke-width=".058525"/><path d="m10 4.6774s-0.18316 0.23293-0.33163 0.38832c-0.2086 0.33434-0.51387 1.0141-0.58215 1.0853-0.12276 0.12804-0.36344 0.26339-0.56831 0.25676-0.20334-0.0065787-0.43177-0.15218-0.5493-0.29086-0.072461-0.085492-0.24011-0.57957-0.49661-0.95665-0.11475-0.1687-0.42069-0.35045-0.42069-0.35045s-0.11539 0.075628-0.15195 0.0355c-0.20646-0.22662-0.56817-1.3036-0.61483-1.6905 0.29923 0.30317 0.34823 0.43338 0.40992 0.20368 0.061696-0.22969-0.12953-0.66902-0.019221-0.84274 0.11031-0.17372 0.9717-0.15199 1.1176-0.24915 0.14586-0.097152 0.30116-0.38506 0.76137-0.38055 0.46021 0.0045 0.42493 0.18174 0.57079 0.2789 0.14586 0.097153 1.0283-0.10067 1.1346 0.076003 0.14192 0.23584-0.0651 1.2208-0.0651 1.2208s0.31966-0.29815 0.4221-0.32437c0 0-0.18193 1.519-0.45699 1.6859-0.06459-0.0059115-0.15958-0.14584-0.15958-0.14584z" fill="#9cd79f" stroke-width=".029007"/></g><g transform="matrix(.99173 0 0 1.0848 .06985 -.17516)" fill="none" stroke="#000"><path d="m8.4185 3.9816 0.016918 0.83588 0.053649 0.025725" stroke-width=".018106"/><path d="m8.2765 4.6436 0.00447 0.091268 0.20405 0.16624 0.19059-0.1532 0.00447-0.11408" stroke-width=".018149"/></g><g><path d="m8.8884 5.4438c-0.12817 0.021437-0.67559 0.012505-0.7634 0 0.099942-0.00956 0.17877-0.031548 0.26668-0.052295 0.045661-0.00123 0.10064 0.024331 0.10064 0.024331s0.052835-0.020021 0.11423-0.020784c0.047853-5.953e-4 0.17721 0.04029 0.28185 0.048748z" fill="#e8a9a8" stroke="#000" stroke-width=".0079582"/><path d="m8.6853 5.6992c-0.07069 0.024085-0.34791 0.062434-0.40081-0.018461 0.057957-0.00147 0.38386-0.026058 0.40081 0.018461z" fill="#6ec470"/><path d="m7.6037 3.699s0.07797-0.00147 0.31455 0.082839c0.23658 0.08431 0.3076 0.11785 0.3076 0.11785l0.00387 0.15043s-0.26352-0.12466-0.40476-0.18148c-0.14124-0.056824-0.14069-0.055663-0.23072-0.070437-0.090029-0.014774-0.20222 8.041e-4 -0.20222 8.041e-4z" fill="#afbc1e" stroke="#000" stroke-width=".0095358"/></g><g transform="matrix(.99173 0 0 1.0848 .020295 -.14119)"><g><path d="m8.1728 3.9754c-0.01828-0.011066-0.06924 0.0033-0.11572 0.035509-0.05102 0.035356-0.07057 0.051733-0.20012 0.04829-0.12956-0.00344-0.1563-0.053671-0.20749-0.098152-0.02353-0.020443-0.04335-0.048002-0.07173-0.072402-0.02839-0.024401-0.0751-0.012153-0.0751-0.012153 0.09181-0.022227 0.07629-0.015069 0.15758-0.037982 0.08129-0.022915 0.10462-0.033101 0.19428-0.033101 0.08966 0 0.16536 0.035383 0.21118 0.077772 0.0671 0.062079 0.06642 0.052647 0.10713 0.09222z" fill="#fff" stroke="#000" stroke-width=".016677"/><path d="m7.8742 3.8128c-0.0294 0-0.05316 0.00182-0.07405 0.00498-0.02734 0.024345-0.04309 0.059931-0.04309 0.097394-8.4e-5 0.070766 0.05493 0.12821 0.12289 0.1283 0.06808 8.72e-5 0.12329-0.057407 0.1232-0.1283-4.1e-5 -0.032787-0.01215-0.064311-0.03383-0.088083-0.02908-0.00886-0.06112-0.014293-0.09512-0.014292z" fill="#33a679" stroke="#000" stroke-width=".010457"/><ellipse cx="7.8801" cy="3.9142" rx=".067164" ry=".069942"/></g><path d="m7.9367 3.8783 0.0295 0.048792-0.01899 0.012448-0.0295-0.048792z" fill="#fff" stroke-width=".0046344"/></g><g transform="matrix(.99173 0 0 1.0848 .088776 -.14119)"><g><path d="m8.7674 3.9732c0.01873-0.011338 0.07095 0.00338 0.11857 0.036383 0.05228 0.036226 0.09615 0.050644 0.20428 0.051451 0.10813 8.052e-4 0.16092-0.056964 0.21337-0.10254 0.0241-0.020947 0.04441-0.049184 0.0735-0.074186 0.02909-0.025001 0.08555-0.021412 0.08555-0.021412-0.15622-0.026757-0.12029-0.020814-0.17006-0.03145-0.06151-0.013144-0.10719-0.033915-0.19906-0.033915-0.09187 0-0.16943 0.037748-0.21637 0.08118-0.04134 0.03824-0.08862 0.072162-0.10976 0.094491z" fill="#fff" stroke="#000" stroke-width=".017087"/><path d="m9.0982 3.8066c0.03012 0 0.05447 0.00187 0.07587 0.00511a0.12608 0.1313 0 0 1 0.04415 0.099782 0.12608 0.1313 0 0 1-0.12591 0.13146 0.12608 0.1313 0 0 1-0.12624-0.13146 0.12608 0.1313 0 0 1 0.03467-0.090251c0.0298-0.00908 0.06262-0.014645 0.09746-0.014645z" fill="#33a679" stroke="#000" stroke-width=".010714"/><ellipse transform="scale(-1,1)" cx="-9.0921" cy="3.9105" rx=".068817" ry=".071664"/></g><path d="m9.1437 3.8656 0.03023 0.049993-0.01945 0.012754-0.03023-0.049993z" fill="#fff" stroke-width=".0047485"/></g><g stroke="#000"><path d="m9.3318 3.7002s-0.07797-0.00147-0.31455 0.082839c-0.23658 0.08431-0.3076 0.11785-0.3076 0.11785l-0.00387 0.15043s0.26352-0.12466 0.40476-0.18148c0.14124-0.056826 0.14068-0.055663 0.23071-0.070439 0.090029-0.014774 0.20222 8.042e-4 0.20222 8.042e-4z" fill="#afbc1e" stroke-width=".0095358"/><path d="m6.1441 8.3368s-0.16014 3.389-0.66726 4.7088c-0.18513 0.74369-0.29525 4.5271-0.29525 4.5271l-1.6698 0.0016 0.14403-2.8936s0.099747-1.6376 0.30759-3.3748c0.20784-1.7372 0.52377-3.5742 0.69725-4.0274 0.34695-0.90637 1.7063-0.6794 1.7063-0.6794z" fill="#1f1f1f" stroke-width=".063676"/><path d="m10.767 8.4089s0.16014 3.389 0.66726 4.7088c0.18513 0.74369 0.29525 4.527 0.29525 4.527l1.6698 0.0016-0.14403-2.8936s-0.07293-1.6165-0.28077-3.3538c-0.20784-1.7372-0.55059-3.5952-0.72406-4.0484-0.34695-0.90637-1.7063-0.67939-1.7063-0.67939z" fill="#1f1f1f" stroke-width=".063676"/></g><path d="m6.519 6.325 0.99805-0.13053s-0.03879 0.87204 0.95399 0.90609c0.99278 0.034058 1.0441-0.84215 1.0441-0.84215l0.85872 0.072605 0.43242 11.381h-4.6201z" fill="#11240f" stroke="#000" stroke-width=".057093"/><path d="m5.5203 6.6144 1.022-0.30282 2.0615 1.7684 1.8023-1.7439 1.3055 0.44534-0.62339 2.5545-0.23676 6.9213h-4.7856l-0.14761-6.7125z" fill="#41310c" stroke="#000" stroke-width=".057093"/><g stroke="#000"><path d="m8.573 8.045v8.1784" fill="#c9cba5" stroke-width=".058525"/><ellipse cx="8.3533" cy="9.401" rx=".14192" ry=".14956" fill="#8d6d1b" stroke-width=".029262"/><ellipse cx="8.3533" cy="10.329" rx=".14192" ry=".14956" fill="#8d6d1b" stroke-width=".029262"/></g><path d="m9.7142 6.2712 0.6046 0.049873-4.2564 9.1235-0.032494-0.98019z" fill="#2f2409" stroke="#000" stroke-width=".058525"/><g fill="#8d6d1b" stroke="#000" stroke-width=".029262"><ellipse cx="8.3533" cy="8.471" rx=".14192" ry=".14956"/><ellipse cx="8.3533" cy="11.261" rx=".14192" ry=".14956"/><ellipse cx="8.3533" cy="12.191" rx=".14192" ry=".14956"/><ellipse cx="8.3533" cy="13.121" rx=".14192" ry=".14956"/><ellipse cx="8.3533" cy="14.067" rx=".14192" ry=".14956"/><ellipse cx="8.3533" cy="14.997" rx=".14192" ry=".14956"/></g><path d="m6.0681 16.195h4.8221v2.2881h-4.8221z" fill="#3c372c" stroke="#000" stroke-width=".057093"/><path d="m6.0665 15.518 4.8159-0.0068 0.0067 0.67683h-4.8226z" fill="#2f2409" stroke="#000" stroke-width=".054691"/><g><rect x="8.1594" y="15.539" width=".8271" height=".61947" rx=".071013" ry=".086248" fill="#2f2409" stroke="#aba906" stroke-width=".093913"/><rect x="8.229" y="15.797" width=".15982" height=".10474" rx=".027014" ry=".028467" fill="#aba906"/><path d="m8.6846 0.88097c0.41545 0.014837 1.1434 0.21129 1.4554 0.69874 0.27498 0.42961 0.15224 1.4361 0.13202 1.5944l-0.32001 0.18372c-0.048957-0.30696-0.25694-0.66075-0.2855-0.96475-0.39386 0.1078-0.78553 0.12456-1.175 0.25121-0.36448-0.11941-0.72742-0.14461-1.0888-0.27651-0.083501 0.41706-0.44042 1.0381-0.44042 1.0381l-0.20775-0.18095c-0.11785-0.25378-0.14399-1.0123 0.072522-1.3997 0.084922-0.15195 0.21611-0.25945 0.31472-0.40304 0.13054-0.19008-0.18354-0.34084-0.18354-0.34084s0.46435-0.1732 1.047-0.13694c0.15991 0.009955 0.26393-0.078268 0.67938-0.063429z" fill="#afbc1e" stroke="#000" stroke-width=".052917"/><path d="m6.3037 3.1852s0.24413 0.30839 0.3281 0.30679c0.1014-0.10885 0.06471-0.25947 0.086107-0.27491 0.13113 0.08458 0.25121 0.23959 0.25121 0.23959l0.16931 1.0746 0.48601 0.48881 0.4191 0.99352 0.45435 0.27408 0.00275 0.11452c-0.26065-0.041826-0.33691-0.10842-0.54563-0.324-0.080516-0.1757-0.32779-0.72441-0.49215-0.9454-0.21197-0.2018-0.2395-0.23658-0.40972-0.34209-0.070398 0.054362-0.1269 0.058798-0.1269 0.058798-0.15686-0.048295-0.59076-1.2247-0.62253-1.6643z" fill="#6fc575"/></g><path d="m10.308 2.261s0.03109 0.13333 0.01979 0.46478-0.03957 0.44441-0.03957 0.44441h-3.585s-0.05693-0.28442-0.051237-0.5068c0.00569-0.22238 0.048132-0.40239 0.048132-0.40239z" fill="#78301f" stroke="#000" stroke-width=".0657"/><g fill="#afbc1e" stroke="#000"><path d="m8.4059 2.1521s-0.54323 0.15761-0.59211 0.50437l-0.048324-0.50437" stroke-width=".030352"/><path d="m8.9704 2.1521s0.46354 0.19493 0.59211 0.50437l0.048325-0.50437s0.16288 0.25207 0.33472 0.40667c-0.039852-0.20136 0.039841-0.45643 0.039841-0.45643" stroke-width=".030352"/><path d="m7.4583 1.6682s-0.16653-0.28369-0.55765-0.22351l0.36227-0.20529" stroke-width=".035792"/></g><path d="m3.5963 14.714 1.7499 0.10773-0.14594 2.5732-1.8387-0.054408z" fill="#0d200f" stroke="#000" stroke-width=".087859"/><path d="m13.323 14.728-1.7827 0.27979 0.1389 2.0342 1.8919 0.04883z" fill="#0d200f" stroke="#000" stroke-width=".087859"/><path d="m6.5212 3.5721c0.061537 0.069288 0.14387 0.20491 0.19343 0.28897l-0.00168 0.032508c-0.11225 0.32838-0.10883 0.099827-0.0039728 0.41474-0.050707-0.05451-0.089742-0.1123-0.13333-0.17404 0.033045-0.084392 0.067805-0.16419 0.10199-0.2476-0.06353-0.10836-0.12307-0.1898-0.15668-0.31491zm3.8576 0.62621-0.01938 0.01806c-0.0091 0.00887-0.0339 0.039405-0.04728 0.032838-0.0148-0.022331 0.04529-0.10508 0.03788-0.13299-0.04558-0.17141-0.16265-0.14811 0.04663-0.48366 8e-3 -0.010172 0.06353-0.094242 0.08062-0.071586 0.0023 0.022658-0.13608 0.2712-0.16201 0.3175l-0.0086 0.014778c0.03152 0.071148 0.06494 0.14109 0.10028 0.20983-0.01909 0.042688-0.01966 0.04663-0.02848 0.095229" fill="#424242" stroke-width=".080924"/></g><style>
				.filled {
					cursor: pointer;
					transition: fill 0.3s;
				}

				.filled:hover {
					fill: #7711AA;
				}

				.filled.built {
					fill: #7711AA;
				}

				.filled.built:hover {
					fill: inherit;
				}
			</style></svg>
