<?xml version="1.0" encoding="UTF-8"?>
<!-- Created with Inkscape (http://www.inkscape.org/) -->
<svg width="64" height="64" version="1.1" viewBox="0 0 16.933 16.933" xml:space="preserve" xmlns="http://www.w3.org/2000/svg"><g><g transform="translate(-.00050289)"><g stroke="#000"><path d="m6.0263 8.3375s-0.1683 3.3885-0.70128 4.7081c-0.19457 0.74357-0.3103 4.5263-0.3103 4.5263l-1.7549 0.0016 0.15137-2.8931s0.10483-1.6373 0.32327-3.3743c0.21843-1.737 0.55047-3.5736 0.73279-4.0267 0.36463-0.90623 1.7933-0.67929 1.7933-0.67929z" fill="#1f1f1f" stroke-width=".065274"/><path d="m10.884 8.4096s0.1683 3.3885 0.70128 4.7081c0.19457 0.74357 0.3103 4.5263 0.3103 4.5263l1.7549 0.0016-0.15137-2.8931s-0.07665-1.6163-0.29508-3.3533c-0.21843-1.737-0.57865-3.5946-0.76097-4.0477-0.36463-0.90623-1.7933-0.67929-1.7933-0.67929z" fill="#1f1f1f" stroke-width=".065274"/><path d="m6.5666 6.3348 0.90828-0.00479 0.016703-0.70296h2.0598l0.020071 0.70775h0.85546v8.6482h-3.8603z" fill="#9cd79f" stroke-width=".058525"/></g><path d="m6.4202 6.326 1.0489-0.13051s-0.040767 0.8719 1.0026 0.90595c1.0434 0.034053 1.0973-0.84201 1.0973-0.84201l0.90249 0.072594 0.45446 11.379h-4.8556z" fill="#11240f" stroke="#000" stroke-width=".058525"/><path d="m5.3706 6.6153 1.0741-0.30277 2.1666 1.7681 1.8942-1.7436 1.372 0.44527-0.65517 2.5541-0.24882 6.9202h-5.0295l-0.15514-6.7114z" fill="#41310c" stroke="#000" stroke-width=".058525"/><g stroke="#000"><path d="m8.5735 8.045v8.1784" fill="#c9cba5" stroke-width=".058525"/><ellipse cx="8.3538" cy="9.401" rx=".14192" ry=".14956" fill="#8d6d1b" stroke-width=".029262"/><ellipse cx="8.3538" cy="10.329" rx=".14192" ry=".14956" fill="#8d6d1b" stroke-width=".029262"/></g><path d="m9.7147 6.2712 0.6046 0.049873-4.3683 9.1235-0.047935-0.98019z" fill="#2f2409" stroke="#000" stroke-width=".058525"/><g fill="#8d6d1b" stroke="#000" stroke-width=".029262"><ellipse cx="8.3538" cy="8.471" rx=".14192" ry=".14956"/><ellipse cx="8.3538" cy="11.261" rx=".14192" ry=".14956"/><ellipse cx="8.3538" cy="12.191" rx=".14192" ry=".14956"/><ellipse cx="8.3538" cy="13.121" rx=".14192" ry=".14956"/><ellipse cx="8.3538" cy="14.067" rx=".14192" ry=".14956"/><ellipse cx="8.3538" cy="14.997" rx=".14192" ry=".14956"/></g><path d="m5.9463 16.194h5.0679v2.2877h-5.0679z" fill="#3c372c" stroke="#000" stroke-width=".058525"/><path d="m5.9447 15.518 5.0613-0.0068 7e-3 0.67672h-5.0683z" fill="#2f2409" stroke="#000" stroke-width=".056063"/><g><rect x="8.1599" y="15.539" width=".8271" height=".61947" rx=".071013" ry=".086248" fill="#2f2409" stroke="#aba906" stroke-width=".093913"/><rect x="8.2295" y="15.797" width=".15982" height=".10474" rx=".027014" ry=".028467" fill="#aba906"/><path d="m7.5147 5.7666s0.17221 0.39081 0.29964 0.55019c0.13837 0.13907 0.70782 0.36138 0.70782 0.36138l0.70988-0.41139 0.2981-0.51951 0.00102 0.059985c-0.15757 0.54666-0.34883 0.70102-1.0621 1.1268-0.35254-0.19534-0.93432-0.75074-0.95437-0.92376z" fill="#6fc575"/><path d="m8.1269 1.2089c0.75034-0.075229 1.7819 0.64171 1.8853 0.75186 0.31128 0.33046 0.38409 1.1213 0.31747 1.5399 0.05772-0.023608 0.27083-0.22622 0.32826-0.24197 0.02212 0.16964-0.12916 1.2843-0.41699 1.5144-0.03732 0.057594-0.16799 0.04532-0.21479 0.029584-0.12376 0.15862-0.21077 0.26688-0.34832 0.40977-0.055133 0.35154-0.29957 0.74473-0.48693 1.0543-0.17547 0.19018-0.66945 0.36818-0.66945 0.36818-0.061745-0.0044051-0.49397-0.1704-0.6842-0.34615-0.10137-0.093647-0.42911-0.80474-0.4808-1.1031-0.11713-0.12291-0.23044-0.25013-0.33971-0.38144l-0.054562-0.011958c-0.049392 0.023289-0.079538 0.067036-0.15507-0.0059846-0.14099-0.1945-0.60902-1.4139-0.56566-1.5486 0.10165-0.032107 0.38015 0.25161 0.41749 0.18772 0.0077572-0.18915 0.41178-1.6831 0.41178-1.6831z" fill="#9cd79f" stroke="#000" stroke-width=".07954"/><path d="m6.2628 3.2654 0.40089 0.21282 0.038331-1.0049 0.6288-0.099101-0.25132 1.5492 0.46085 1.0044 0.45462 1.1488 0.46062 0.37672 0.053987 0.13794c-0.26283-0.038556-0.4603-0.15041-0.67075-0.34913-0.22979-0.31078-0.46664-1.0698-0.46664-1.0698l-0.38088-0.42717-0.12269 0.057452c-0.071346 0.021626-0.57377-1.132-0.60582-1.5373z" fill="#6fc575"/><path d="m8.687 1.0963c0.41891 0.013677 1.1529 0.19478 1.4675 0.64412 0.27727 0.39602 0.15351 1.3239 0.13312 1.4697l-0.32268 0.16936c-0.049365-0.28297-0.25908-0.6091-0.28788-0.88933-0.39714 0.099371-0.79208 0.11483-1.1848 0.23157-0.36752-0.11008-0.73348-0.13331-1.0979-0.2549-0.084197 0.38446-0.44409 0.95694-0.44409 0.95694l-0.20948-0.16681c-0.11883-0.23394-0.14519-0.93313 0.073127-1.2903 0.085629-0.14007 0.21791-0.23917 0.31734-0.37153 0.13163-0.17522-0.18507-0.31419-0.18507-0.31419s0.46822-0.15966 1.0558-0.12624c0.16125 0.00918 0.26613-0.072149 0.68504-0.05847z" fill="#afbc1e" stroke="#000" stroke-width=".058525"/></g><g><path d="m6.5202 3.5257c0.062046 0.063872 0.14506 0.18889 0.19505 0.26638l-0.00172 0.029967c-0.11318 0.30271-0.10973 0.092022-0.0039901 0.38232-0.051133-0.050249-0.09049-0.10353-0.13444-0.16043 0.033324-0.077796 0.068371-0.15135 0.10284-0.22824-0.064061-0.099892-0.12409-0.17496-0.15799-0.29029zm3.8897 0.57726-0.01954 0.016648c-0.0092 0.00818-0.03418 0.036325-0.04768 0.030271-0.01493-0.020585 0.04567-0.096866 0.0382-0.1226-0.04596-0.15801-0.16401-0.13653 0.04702-0.44585 0.0081-0.00938 0.06406-0.086875 0.08129-0.06599 0.0023 0.020887-0.13722 0.25-0.16336 0.29268l-0.0086 0.013622c0.03179 0.065586 0.06548 0.13006 0.10111 0.19343-0.01924 0.039351-0.01982 0.042985-0.02872 0.087785" fill="#424242" stroke-width=".07802"/><path d="m7.4029 3.9819c0.14995-0.069017 0.23842-0.1338 0.35447-0.11896 0.11634 0.015135 0.26054 0.10958 0.33781 0.18859-0.15225 0.098682-0.26171 0.10594-0.36283 0.099882-0.1014-0.0060514-0.19445-0.025114-0.32946-0.1695z" fill="#fffbfb" stroke="#000" stroke-width=".03901"/><path d="m8.1891 5.5192c0.072613-0.023969 0.5717-0.035818 0.62354 0.010865-0.081264 0.020772-0.56739 0.044211-0.62354-0.011172" fill="#161515" stroke-width=".055017"/></g><path d="m8.2868 5.9614c0.051896-0.086406 0.47491-0.028801 0.47491-0.028801s-0.25169 0.11427-0.47491 0.028801z" fill="#6fc575"/><g transform="matrix(1.2031 0 0 1.6723 -1.5611 -2.239)"><path d="m8.318 3.868c0-0.062973-0.0072-0.11352 0.010472-0.17453 0.020772 0.035167 0.013576 0.56872 0.011448 0.66179 0.043508-0.029442 0.1549-0.08391 0.17142-0.10468l0.00834-0.053159 0.015539-0.00867c0.034186 0.10485-0.13707 0.15048-0.21149 0.19873-0.078022-0.053977-0.19628-0.087508-0.18483-0.18499l0.012429-0.00376c0.015214 0.019628 0.012595 0.032223 0.013901 0.058557 0.034349 0.03304 0.094706 0.057412 0.13609 0.085055 0.025024-0.047762 0.016681-0.38307 0.016681-0.47434z" fill="#424242" stroke-width=".043277"/><path d="m8.3198 3.7337-0.073768 0.57657s0.050704 0.032877 0.055287 0.031896c0.00491-9.816e-4 0.00442-0.012595 0.00622-0.020282 0.00166-0.00785 0.00227-0.015048 0.00491-0.03533 0.00227-0.019301 0.00411-0.063137 0.00571-0.11352 0.00166-0.050378 0.00117-0.10256 0.00117-0.10256z" fill-opacity=".1495"/></g><g transform="matrix(.87106 0 0 .91791 1.0849 .89073)"><path d="m7.7654 3.3963a0.10932 0.10932 0 0 1-0.10931 0.10932 0.10932 0.10932 0 0 1-0.10932-0.10932 0.10932 0.10932 0 0 1 0.10932-0.10932 0.10932 0.10932 0 0 1 0.10931 0.10932" fill="#20486b" stroke-width=".070544"/><circle transform="scale(-1,1)" cx="-7.6561" cy="3.3963" r=".058076"/></g><path d="m10.324 2.3685s0.03135 0.1229 0.01996 0.42845c-0.0114 0.30554-0.0399 0.40967-0.0399 0.40967h-3.6148s-0.057404-0.26219-0.051664-0.46718c0.00574-0.205 0.048533-0.37094 0.048533-0.37094z" fill="#78301f" stroke="#000" stroke-width=".063342"/><g fill="#afbc1e" stroke="#000"><path d="m8.4061 2.2681s-0.54776 0.14529-0.59704 0.46494l-0.048727-0.46494" stroke-width=".029262"/><path d="m8.9752 2.2681s0.4674 0.17969 0.59704 0.46494l0.048728-0.46494s0.16424 0.23237 0.33751 0.37488c-0.040184-0.18561 0.040174-0.42075 0.040174-0.42075" stroke-width=".029262"/><path d="m7.4506 1.822s-0.16791-0.26151-0.5623-0.20603l0.36529-0.18924" stroke-width=".034507"/><path d="m7.4462 3.7019c0.14076 0.00976 0.66356 0.09006 0.84166 0.11541-0.00463 0.058504-0.012358 0.11435-0.0181 0.1725-0.057457-0.0062-0.13128-0.01897-0.1893-0.028366-0.33121-0.044322-0.59606-0.06205-0.91405-0.10052z" stroke-width=".029262"/></g><path d="m9.5592 3.9909c-0.14995-0.069017-0.23842-0.1338-0.35447-0.11896-0.11634 0.015135-0.26054 0.10958-0.33781 0.18859 0.15225 0.098682 0.26171 0.10594 0.36283 0.099882 0.1014-0.00605 0.19445-0.025114 0.32946-0.1695z" fill="#fffbfb" stroke="#000" stroke-width=".03901"/><g transform="matrix(-.87106 0 0 .91791 15.877 .89979)"><path d="m7.7654 3.3963a0.10932 0.10932 0 0 1-0.10931 0.10932 0.10932 0.10932 0 0 1-0.10932-0.10932 0.10932 0.10932 0 0 1 0.10932-0.10932 0.10932 0.10932 0 0 1 0.10931 0.10932" fill="#20486b" stroke-width=".070544"/><circle transform="scale(-1,1)" cx="-7.6561" cy="3.3963" r=".058076"/></g><g stroke="#000"><path d="m9.5899 3.6978c-0.14076 0.00976-0.66356 0.09006-0.84166 0.11541 0.00463 0.058503 0.012358 0.11435 0.0181 0.1725 0.057457-0.0062 0.13128-0.018971 0.1893-0.028367 0.33121-0.044322 0.59606-0.06205 0.91405-0.10052z" fill="#afbc1e" stroke-width=".029262"/><path d="m3.3485 14.714 1.8391 0.10771-0.15338 2.5728-1.9324-0.0544z" fill="#0d200f" stroke-width=".090063"/><path d="m13.571 14.728-1.8735 0.27975 0.14598 2.0339 1.9883 0.04882z" fill="#0d200f" stroke-width=".090063"/></g></g></g><style>
				.filled {
					cursor: pointer;
					transition: fill 0.3s;
				}

				.filled:hover {
					fill: #7711AA;
				}

				.filled.built {
					fill: #7711AA;
				}

				.filled.built:hover {
					fill: inherit;
				}
			</style></svg>
