<?xml version="1.0" encoding="UTF-8"?>
<!-- Created with Inkscape (http://www.inkscape.org/) -->
<svg width="64" height="64" version="1.1" viewBox="0 0 16.933 16.933" xml:space="preserve" xmlns="http://www.w3.org/2000/svg"><g><path d="m12.293 17.901c-1.3604 8e-3 -6.0212 0.15353-7.0298-1e-3 -2.7938-0.42806-1.3492-10.333-1.3492-10.333l9.1114-0.62279c1.3315 7.1766-0.19659 10.957-0.73248 10.957z" fill="#121212" stroke="#000" stroke-width=".054104"/><path d="m8.8153 1.8602c0.99054 0.21392 1.2692 1.2305 2.1886 2.6615-0.64397 0.6088-1.5904 1.8532-2.4591 1.7916-0.86868-0.061524-1.9958-0.951-2.3134-1.8983 0.25286-0.83807 0.2174-1.6717 0.65241-2.0748 0.43501-0.40315 1.3405-0.3758 1.9313-0.48001z" fill="#121212" stroke="#000" stroke-width=".099619"/><path d="m8.328 2.1441s-1.7046 1.1915-1.8903 1.6533c-0.092878 0.23091-0.2345 0.44369-0.20033 0.48828 0.034173 0.044592 0.24855-0.19805 0.36505-0.32245 0.22016-0.2351 0.96126-0.81272 1.1787-0.83867 0.42608-0.16652 0.50198-0.10349 0.77669-0.049415 0.27472 0.054072 0.71093-0.061804 1.1316 0.099446 0.21376 0.081937 0.78316 0.66843 0.95659 0.71915 0.17344 0.050721-0.04908-0.43433-0.04769-0.47745 0.003544-0.11013-1.6104-0.82695-1.6104-0.82695z" fill-opacity=".1495"/><g stroke="#000"><rect x="5.9416" y="15.595" width="5.1553" height="1.274" fill="#291b07" stroke-width=".063111"/><path d="m5.225 6.7578s-0.11002 2.2429 0.03625 3.348c0.10279 0.7766 0.47584 1.4928 0.58617 2.2683 0.15384 1.0813 0.099225 3.2792 0.099225 3.2792l-0.44908 1.6065s0.51861-0.53385 1.1439-0.96964c0.62534-0.4358 1.4434-0.65018 1.4434-0.65018l0.87213-0.0011s0.78508 0.26189 1.4733 0.68585c0.68821 0.42396 1.265 1.0053 1.265 1.0053l-0.60559-1.6945s-0.0825-2.1793 0.08271-3.2479c0.11957-0.7734 0.51539-1.4763 0.65091-2.2466 0.1941-1.1034 0.22472-3.3594 0.22472-3.3594z" fill="#1f1f1f" stroke-width=".067505"/><path d="m4.6987 9.8941s0.88091 0.85186 2.0763 0.84262c1.1954-0.0092 1.7178-0.39757 1.7178-0.39757s0.54623 0.38908 1.7109 0.38908c1.1646 0 1.9166-0.89358 1.9166-0.89358" fill="#1f1f1f" stroke-width=".03843"/><path d="m8.458 6.8216s-0.041025 1.299-0.041025 1.9485c0 0.6495 0.062694 0.73725 0.070654 1.3867 0.00796 0.6495-0.029629 2.5102-0.029629 2.5102v1.9485" fill="#202020" stroke-width=".051239"/></g><path d="m8.4927 10.541s-0.83471 0.54115-1.7009 0.5544c-0.86615 0.01323-0.83852-0.47278-0.80648-0.53425 0.032034-0.06145 0.312-0.37191 0.7432-0.20784 0.4312 0.16406 1.5828-0.23028 1.7866-0.19452 0.6547-0.43596 1.164 0.22719 1.5371 0.27217 0.37303 0.04499 0.86811-0.23007 0.83421 0.01395-0.03632 0.26138-0.21622 0.64606-0.79272 0.65616-0.57651 0.01007-1.6011-0.56007-1.6011-0.56007z" fill-opacity=".1495"/><g stroke="#000"><path d="m5.2925 6.8514s1.0243 0.70972 1.5223 1.135l1.6578 1.2758c0.49801 0.42525 0.77058 0.75522 1.2643 1.2039 0.49374 0.44866 1.588 1.2755 1.588 1.2755l-0.19731 0.69649s-1.0099-0.75408-1.4873-1.2019c-0.47738-0.44784-0.71191-0.70593-1.1951-1.1303l-1.6287-1.2732c-0.4832-0.42439-1.4873-1.1324-1.4873-1.1324z" fill="#1a1a1a" stroke-width=".059192"/><path d="m12.972 6.8481c-2.4279-0.69581-1.9712 1.2547-1.9712 1.2547l1.174 5.0412 0.34926 3.1297 1.9346 0.0014-0.1317-2.5488z" fill="#1f1f1f" stroke-width=".057148"/><path d="m14.424 14.025-2.1097 1.0547 0.29193 1.7991 1.9717 0.01533z" fill="#452d0c" stroke-width=".07085"/><path d="m5.9327 8.1028-1.174 5.0412-0.34926 3.1297-1.9346 0.001401 0.1317-2.5488s0.4108-5.6103 1.2775-6.4155z" fill="#1f1f1f" stroke-width=".057148"/><path d="m2.5092 14.025 2.1097 1.0547-0.29193 1.7991-1.9717 0.01533z" fill="#452d0c" stroke-width=".07085"/><path d="m3.9578 6.6856c0.8665-0.89644 2.2297-1.233 3.0122-0.91382 0.39128 0.15961 1.4482 0.48498 1.4482 0.48498s1.2343-0.56134 1.8637-0.666 2.5078 0.35011 3.1569 1.7798c0.87764 1.933 0.73431 5.5211 0.73431 5.5211-1.6909-1.7375-2.7096-1.5988-3.7747-2.2356-1.0651-0.63682-1.9211-4.0139-1.9211-4.0139s-0.88808 3.0982-2.0447 3.9465c-1.1566 0.84836-3.1847 1.822-3.8373 3.2194 0 0-0.34773-5.3533 1.3623-7.1224z" fill="#303030" stroke-width=".057148"/></g><g fill="#726552" stroke="#000"><path d="m6.9993 4.0635c-0.013323 0.066592-0.14598 0.00858-0.19097-0.084872-0.04499-0.093455-0.11383-0.37468-0.10812-0.567 0.00394-0.13282 0.00772-0.34103 0.097771-0.38647 0.08407-0.042408 0.14301-0.055647 0.15987 0.18881 0.022586 0.30788 0.058375 0.54251 0.041455 0.84953z" stroke-width=".021169"/><path d="m9.9123 4.0355c0.00316 0.067838 0.14303 0.030419 0.20155-0.055212 0.05852-0.085633 0.16884-0.35332 0.1921-0.54431 0.0161-0.1319 0.04363-0.33831-0.03859-0.39677-0.07674-0.05456-0.13303-0.076506-0.18642 0.16264-0.0686 0.30099-0.13923 0.52758-0.16864 0.83365z" stroke-width=".021169"/><path d="m9.9796 3.7945c-0.092089 0.30706-0.10879 0.35504-0.25225 0.56548-0.21905 0.73817-0.40024 1.2396-1.2685 1.4922-0.60435-0.22462-1.0497-0.4938-1.2524-1.4343-0.13124-0.21296-0.22216-0.37758-0.22216-0.6752 0-0.29762 0.031567-0.63135 0.10583-0.88924 0.074261-0.25789 0.052783-0.57622 0.18556-0.77126 0.13278-0.19504 0.20064-0.47485 0.3762-0.58392 0.17557-0.10908 0.36249-0.43232 0.91643-0.42726 0.55394 0.0050612 0.51146 0.20405 0.68703 0.31313 0.17557 0.10908 0.3212 0.37755 0.45398 0.57259 0.34165 0.52956 0.4431 1.2617 0.27031 1.8379z" stroke-width=".033721"/></g><path d="m8.3392 3.2267 0.02271 1.277 0.07202 0.039301" fill="none" stroke="#000" stroke-width=".025928"/><path d="m8.1008 4.3027 0.0076 0.11036 0.34442 0.20101 0.32171-0.18524 0.0076-0.13795" fill="none" stroke="#000" stroke-width=".025928"/><g><path d="m9.0591 5.0225c-0.19281 0.037815-1.0164 0.022057-1.1485 0 0.15035-0.016866 0.26894-0.055648 0.40119-0.092245 0.0687-0.00218 0.15141 0.042919 0.15141 0.042919s0.07948-0.035315 0.17184-0.036662c0.07199-0.00105 0.26659 0.071072 0.42402 0.085988z" fill="#732625" stroke="#000" stroke-width=".012964"/><path d="m8.842 5.2576c-0.12624 0.039322-0.62129 0.10193-0.71577-0.03014 0.1035-0.00241 0.6855-0.042542 0.71577 0.03014z" fill="#5a5248"/><path d="m8.0909 3.3693c-0.030318-0.018355-0.18006 0.10427-0.40879 0.073342-0.1002-0.013548-0.23165-0.067516-0.28252-0.092885s-0.065741-0.031731-0.10843-0.05016c-0.042687-0.018428-0.10225-0.023272-0.10225-0.023272 0.12501-0.030264 0.11109-0.021456 0.22178-0.052656 0.11068-0.0312 0.21511-0.027348 0.26453-0.018487 0.087939 0.015764 0.32252 0.065775 0.41568 0.16412z" fill="#fff" stroke="#000" stroke-width=".022707"/><path d="m7.3419 2.9532s0.1034-0.00183 0.41715 0.10292c0.31375 0.10475 0.40793 0.14643 0.40793 0.14643l0.0051 0.18691s-0.34948-0.15488-0.53679-0.22548c-0.1873-0.070603-0.18657-0.069159-0.30597-0.087517-0.1194-0.018356-0.26818 9.992e-4 -0.26818 9.992e-4z" fill="#353511" stroke="#000" stroke-width=".012241"/></g><g stroke="#000"><path d="m7.5908 3.1988a0.16755 0.17448 0 0 0-0.049093 0.12351 0.16755 0.17448 0 0 0 0.025838 0.093534c0.038754 0.012046 0.078846 0.022021 0.11472 0.026872 0.05403 0.00731 0.10363 0.00595 0.14831 0a0.16755 0.17448 0 0 0 0.045993-0.12041 0.16755 0.17448 0 0 0-0.014986-0.072347c-0.074464-0.023111-0.14559-0.037708-0.18604-0.044958-0.020157-0.00361-0.049604-0.00629-0.084749-0.0062z" fill="#181a8c" stroke-width=".014238"/><path d="m9.7679 5.3801c-0.67693 0.21778-1.2579 0.55419-1.3022 0.73662-0.044246 0.18242 0.26816 0.1785 0.26816 0.1785s0.82689-0.13451 1.1808-0.36882c0.35389-0.23431 0.73238-0.79779 0.71856-0.9762-0.0081-0.10442-0.39901 0.27989-0.86531 0.42991z" fill="#272727" stroke-width=".026458"/><path d="m7.3182 5.3197c0.39295 0.15639 1.1949 0.78845 1.1338 0.81308-0.26068 0.10499-0.41183 0.045484-0.41183 0.045484s-0.47339-0.15496-0.82728-0.38927c-0.35389-0.23431-0.56767-0.61999-0.55386-0.7984 0.0080899-0.10442 0.25938 0.17 0.65916 0.32911z" fill="#272727" stroke-width=".026458"/></g><path d="m8.2614 2.1948s-1.3775 0.7135-1.5633 1.1753c-0.092878 0.23091-0.56152 0.92164-0.52735 0.96623 0.034173 0.04459 0.57557-0.676 0.69207-0.8004 0.22016-0.2351 1.2816-0.6285 1.499-0.65444 0.066771 0.030239 0.17404 0.041946 0.44875 0.096014 0.27472 0.05407 0.39154 0.086486 0.81222 0.24774 0.21376 0.08194 0.54932 0.63706 0.72276 0.68778 0.17344 0.05072-0.04908-0.43433-0.04769-0.47745 0.0035-0.11013-1.3766-0.79558-1.3766-0.79558z" fill-opacity=".1495"/><g><rect x="5.9329" y="14.624" width="5.1502" height=".94873" fill="#452d0c" stroke="#000" stroke-width=".021639"/><rect x="7.8752" y="14.619" width="1.2656" height=".95978" rx=".10866" ry=".13363" fill="#452d0c" stroke="#aba906" stroke-width=".1446"/><rect x="7.9817" y="15.018" width=".24456" height=".16228" rx=".041337" ry=".044106" fill="#aba906"/></g><g transform="matrix(.84797 0 0 1.0035 1.6366 .78315)" fill="#452d0c" stroke="#000" stroke-width=".065325"><rect x="9.0761" y="13.54" width="1.0324" height="1.4512" rx=".16331" ry=".16331"/><rect x="9.098" y="13.54" width=".98863" height=".77195" rx=".16331" ry=".16331"/></g><rect transform="rotate(90)" x="14.906" y="-9.8234" width=".16986" height=".10563" rx=".028711" ry=".028711" fill="#aba906"/><g transform="matrix(.84797 0 0 1.0035 2.5963 .78315)" fill="#452d0c" stroke="#000" stroke-width=".065325"><rect x="9.0761" y="13.54" width="1.0324" height="1.4512" rx=".16331" ry=".16331"/><rect x="9.098" y="13.54" width=".98863" height=".77195" rx=".16331" ry=".16331"/></g><rect transform="rotate(90)" x="14.906" y="-10.783" width=".16986" height=".10563" rx=".028711" ry=".028711" fill="#aba906"/><g transform="matrix(.84797 0 0 1.0035 -.86961 .78315)" fill="#452d0c" stroke="#000" stroke-width=".065325"><rect x="9.0761" y="13.54" width="1.0324" height="1.4512" rx=".16331" ry=".16331"/><rect x="9.098" y="13.54" width=".98863" height=".77195" rx=".16331" ry=".16331"/></g><rect transform="rotate(90)" x="14.906" y="-7.3172" width=".16986" height=".10563" rx=".028711" ry=".028711" fill="#aba906"/><g transform="matrix(.84797 0 0 1.0035 -1.8216 .78315)" fill="#452d0c" stroke="#000" stroke-width=".065325"><rect x="9.0761" y="13.54" width="1.0324" height="1.4512" rx=".16331" ry=".16331"/><rect x="9.098" y="13.54" width=".98863" height=".77195" rx=".16331" ry=".16331"/></g><rect transform="rotate(90)" x="14.906" y="-6.3652" width=".16986" height=".10563" rx=".028711" ry=".028711" fill="#aba906"/><g fill="#202020"><path d="m10.685 6.7778-2.2344-0.2474 2.1988 0.089261 1.4793 0.40594z" stroke-width=".16468"/><path d="m10.211 7.0538-1.8902-0.51038 1.8858 0.41699 1.4649 0.67062z" stroke-width=".073217"/><path d="m7.1539 6.6095 1.2445-0.079074-1.2799-0.041193-2.3943 0.77626z" stroke-width=".16468"/><path d="m6.5907 7.1674 2.324-0.60717-2.367 0.51378-0.98374 0.57384z" stroke-width=".073217"/></g><circle cx="7.7091" cy="3.3232" r=".081875"/><g transform="translate(-.075597)"><path d="m8.805 3.3726c0.030318-0.018355 0.18006 0.10427 0.40879 0.073342 0.1002-0.013549 0.23165-0.067516 0.28252-0.092885 0.050871-0.025369 0.065741-0.031731 0.10843-0.05016 0.042687-0.018428 0.10225-0.023273 0.10225-0.023273-0.12501-0.030264-0.11109-0.021456-0.22178-0.052656-0.11068-0.0312-0.21511-0.027348-0.26453-0.018487-0.087939 0.015764-0.32252 0.065775-0.41568 0.16412z" fill="#fff" stroke="#000" stroke-width=".022707"/><path d="m9.3125 3.1988a0.16755 0.17448 0 0 1 0.049093 0.12351 0.16755 0.17448 0 0 1-0.025838 0.093534c-0.038754 0.012046-0.078846 0.022021-0.11472 0.026872-0.05403 0.00731-0.10363 0.00595-0.14831 0a0.16755 0.17448 0 0 1-0.045992-0.12041 0.16755 0.17448 0 0 1 0.014986-0.072347c0.074463-0.023111 0.14559-0.037708 0.18604-0.044958 0.020157-0.00361 0.049604-0.00629 0.084749-0.0062z" fill="#181a8c" stroke="#000" stroke-width=".014238"/><circle transform="scale(-1,1)" cx="-9.1942" cy="3.3232" r=".081875"/></g><g stroke="#000"><path d="m9.4788 2.9264s-0.1034-0.00183-0.41715 0.10292c-0.31375 0.10475-0.40793 0.14643-0.40793 0.14643l-0.0051 0.18691s0.34948-0.15488 0.53679-0.22548c0.1873-0.070603 0.18657-0.069159 0.30597-0.087517 0.1194-0.018356 0.26818 9.992e-4 0.26818 9.992e-4z" fill="#353511" stroke-width=".012241"/><g><path d="m7.2327 4.5067s1.0679-0.311 1.1825-0.311 1.2391 0.36516 1.2391 0.36516l-0.28078 0.75959s-0.39308 0.35644-0.88326 0.51734c-0.37398-0.063744-1.0003-0.56868-1.0003-0.56868z" fill="#1f1212" stroke-width=".030715"/><path d="m8.424 0.997c-2.0658-0.0016265-3.2643 4.6404-2.8801 4.8167 0.91764 0.42112 1.5892 0.69641 2.9168 0.5589 1.5247 0.30697 3.0624-0.65857 3.0624-0.65857-0.58519-1.4504-1.0333-4.7154-3.0992-4.7171zm-0.072211 1.7699c0.27743 0.088729 1.0707 0.2732 1.3712 0.471 0.23005 0.15143 0.39129 0.46054 0.47194 0.77874 0.08065 0.3182 0.31336 0.50744 0.29606 0.71598-0.03117 0.37568 0.24295 0.77083-0.72534 1.1775-0.96829 0.40663-1.1955 0.28796-1.2934 0.21594-0.095615 0.14275-0.3273 0.057783-1.1895-0.36405-0.43112-0.21091-0.53483-0.50759-0.59104-0.68905-0.038357-0.4478-0.17627-0.90801 0.10121-1.2791 0.14306-0.21909 0.30705-0.35803 0.43525-0.4944 0.33655-0.358 0.8517-0.45295 1.1237-0.5325z" fill="#303030" stroke-width=".026458"/><circle cx="8.4167" cy="6.5068" r=".3915" fill="#5f610a" stroke-width=".017135"/></g></g></g><style>
				.filled {
					cursor: pointer;
					transition: fill 0.3s;
				}

				.filled:hover {
					fill: #7711AA;
				}

				.filled.built {
					fill: #7711AA;
				}

				.filled.built:hover {
					fill: inherit;
				}
			</style></svg>
