<?xml version="1.0" encoding="UTF-8"?>
<!-- Created with Inkscape (http://www.inkscape.org/) -->
<svg width="64" height="64" version="1.1" viewBox="0 0 16.933 16.933" xml:space="preserve" xmlns="http://www.w3.org/2000/svg"><g><g transform="translate(.2593)"><path d="m12.033 17.901c-1.3604 8e-3 -6.0212 0.15353-7.0298-1e-3 -2.7938-0.42806-1.3492-10.333-1.3492-10.333l9.1114-0.62279c1.3315 7.1766-0.19659 10.957-0.73248 10.957z" fill="#121212" stroke="#000" stroke-width=".054104"/><path d="m8.556 1.8602c0.99054 0.21392 1.2692 1.2305 2.1886 2.6615-0.64397 0.6088-1.5904 1.8532-2.4591 1.7916s-1.9958-0.951-2.3134-1.8983c0.25286-0.83807 0.2174-1.6717 0.65241-2.0748 0.43501-0.40315 1.3405-0.3758 1.9313-0.48001z" fill="#121212" stroke="#000" stroke-width=".099619"/><path d="m6.8911 3.3964c0.16157-0.070569 0.34797 0.00713 0.47302 0.022296 0.16375 0.026273 0.23994 0.052798 0.38087 0.12985-0.16404 0.1009-0.25189 0.17412-0.36085 0.16792-0.10926-0.0061527-0.34756-0.17243-0.49304-0.32007z" fill="#fffbfb"/><g transform="matrix(1.1609 0 0 1.1609 -1.3218 -.076651)"><path d="m7.5662 3.0769a0.093812 0.093812 0 0 1-0.093812 0.093812 0.093812 0.093812 0 0 1-0.093812-0.093812 0.093812 0.093812 0 0 1 0.093812-0.093812 0.093812 0.093812 0 0 1 0.093812 0.093812" fill="#452d0c" stroke-width=".060539"/><circle transform="scale(-1,1)" cx="-7.4724" cy="3.0769" r=".049839"/></g><path d="m9.3482 3.3738c-0.16157-0.07057-0.34797 0.0071278-0.47302 0.022296-0.16375 0.026273-0.23994 0.052798-0.38087 0.12985 0.16404 0.1009 0.25189 0.17412 0.36085 0.16792 0.10926-0.0061528 0.34756-0.17243 0.49304-0.32007z" fill="#fffbfb"/><g transform="matrix(1.1609 0 0 1.1609 .19378 -.090994)"><path d="m7.5662 3.0769a0.093812 0.093812 0 0 1-0.093812 0.093812 0.093812 0.093812 0 0 1-0.093812-0.093812 0.093812 0.093812 0 0 1 0.093812-0.093812 0.093812 0.093812 0 0 1 0.093812 0.093812" fill="#452d0c" stroke-width=".060539"/><circle transform="scale(-1,1)" cx="-7.4724" cy="3.0769" r=".049839"/></g><g><path d="m6.1887 2.8285c-0.040238 0.062827-0.032608-0.015379-0.14218 0.016197-0.046736 0.13247-0.10395 0.43203-0.14698 0.5939 0.13 0.19902 0.29675 0.537 0.44873 0.72828 0.081404 0.071847 0.11354 0.028304 0.16677 0.00539l0.05879 0.011998c0.11778 0.12915 0.24029 0.25407 0.36654 0.37494 0.055712 0.29342 0.13458 0.81161 0.20577 1.0852 0.58901 0.33675 0.9859 0.28239 1.0524 0.28673l1.0676-0.30832c0.070262-0.34387 0.11695-0.6915 0.17637-1.0372 0.14826-0.14052 0.24214-0.24654 0.37554-0.40253 0.050451 0.015475 0.19073 0.027244 0.23096-0.029395 0.16002-0.22626 0.29221-0.63673 0.29221-0.63673l-0.19622-0.61467s-0.98726-0.52435-1.9753-0.56605c-0.98804-0.041699-1.9769 0.39925-1.9811 0.49226zm1.006 0.5909c0.050662-0.00133 0.095754-0.0013 0.16077 0.00659 0.16375 0.026273 0.3114 0.057324 0.35994 0.092386-0.034025 0.01208-0.22045 0.085366-0.36414 0.077987-0.14369-0.0073796-0.17719-0.054183-0.35034-0.17577 0.086863 0.00305 0.14311 1.265e-4 0.19377-0.0012zm1.8592-0.013918c0.054906 0.0027 0.10534 2.376e-4 0.17954 0.010819-0.082132 0.046834-0.21791 0.14126-0.34146 0.15025-0.12356 0.00898-0.29922-0.021692-0.35049-0.05056 0.050864-0.028096 0.16522-0.083532 0.3313-0.1145 0.072514-0.00282 0.1262 0.00129 0.18111 0.00399z" fill="#726552" stroke="#000" stroke-width=".030715"/><path d="m8.1158 3.7247c0-0.11916-0.013619-0.2148 0.01981-0.33025 0.039308 0.066542 0.02569 1.0762 0.021666 1.2523 0.082333-0.055713 0.29311-0.15878 0.32438-0.19809l0.015788-0.10059 0.029405-0.016403c0.064683 0.1984-0.25938 0.28475-0.40021 0.37606-0.14764-0.10214-0.37142-0.16559-0.34975-0.35006l0.023525-0.00708c0.028784 0.037149 0.023833 0.060969 0.026308 0.11081 0.064999 0.062523 0.17921 0.10864 0.25752 0.16095 0.047355-0.090376 0.031569-0.72489 0.031569-0.8976z" fill="#424242" stroke-width=".081893"/><path d="m7.0101 3.1308c0.15068 0.020627 0.71729 0.14637 0.90999 0.18697 0.00433 0.06484 0.00491 0.12651 0.00797 0.19088-0.061853-0.010869-0.14209-0.030244-0.20505-0.044738-0.35792-0.072353-0.64135-0.11049-0.98435-0.17541 0.086206-0.055784 0.1802-0.10558 0.27144-0.1577" fill="#201a05" stroke-width=".064564"/></g><path d="m8.1192 3.4706-0.13959 1.091s0.09595 0.062212 0.10462 0.060356c0.00929-0.00186 0.00836-0.023833 0.011766-0.03838 0.00309-0.014857 0.00433-0.028475 0.00929-0.066855 0.00433-0.036523 0.00774-0.11947 0.010831-0.2148 0.00309-0.095332 0.00217-0.19407 0.00217-0.19407z" fill-opacity=".1495"/><path d="m8.0687 2.1441s-1.7046 1.1915-1.8903 1.6533c-0.092878 0.23091-0.2345 0.44369-0.20033 0.48828 0.034173 0.044592 0.24855-0.19805 0.36505-0.32245 0.22016-0.2351 0.96126-0.81272 1.1787-0.83867 0.42608-0.16652 0.50198-0.10349 0.77669-0.049416 0.27472 0.054072 0.71093-0.061804 1.1316 0.099446 0.21376 0.081936 0.78316 0.66843 0.95659 0.71915 0.17344 0.050721-0.049084-0.43433-0.047687-0.47745 0.003541-0.11013-1.6104-0.82695-1.6104-0.82695z" fill-opacity=".1495"/><path d="m9.251 3.1141c-0.15068 0.020627-0.71729 0.14637-0.90999 0.18697-0.00433 0.06484-0.00491 0.12651-0.00797 0.19088 0.06185-0.010866 0.14208-0.030243 0.20505-0.044737 0.35793-0.072354 0.64135-0.11049 0.98435-0.17541-0.086206-0.055784-0.18019-0.10558-0.27144-0.1577" fill="#201a05" stroke-width=".064564"/><path d="m6.7147 4.3298s1.3352-0.28776 1.4498-0.28776c0.11462 0 1.4908 0.32256 1.4908 0.32256l-0.42022 1.2747s-0.063861 0.33708-1.0033 0.3353c-0.93947-0.00178-1.0352-0.25108-1.0352-0.25108z" fill="#1f1212" stroke="#000" stroke-width=".030715"/><g stroke="#000"><rect x="5.5137" y="15.595" width="5.4994" height="1.2738" fill="#291b07" stroke-width=".065177"/><path d="m4.7493 6.7588s-0.11737 2.2424 0.03867 3.3473c0.10965 0.77644 0.50761 1.4925 0.6253 2.2678 0.16411 1.081 0.10585 3.2786 0.10585 3.2786l-0.47906 1.6061s0.55323-0.53374 1.2203-0.96944 1.5397-0.65004 1.5397-0.65004l0.93035-0.0011s0.83749 0.26184 1.5717 0.6857c0.73416 0.42387 1.3495 1.0051 1.3495 1.0051l-0.64602-1.6942s-0.08801-2.1789 0.08823-3.2473c0.12755-0.77324 0.5498-1.4759 0.69437-2.2462 0.20705-1.1032 0.23972-3.3587 0.23972-3.3587z" fill="#1f1f1f" stroke-width=".069715"/><path d="m8.1981 6.8226v7.7923" fill="#202020" stroke-width=".052917"/></g><path d="m4.8213 6.8524 6.3751 5.102-0.15044 0.83827-6.1855-5.0916z" fill="#1a1a1a" stroke="#000" stroke-width=".061129"/><g transform="matrix(1.2447 0 0 .99935 -2.3675 .0072929)" stroke="#000"><path d="m12.357 6.8462c-2.0808-0.69612-1.6894 1.2553-1.6894 1.2553l1.0062 5.0434 0.29932 3.1311 1.658 0.0014-0.11287-2.5499z" fill="#1f1f1f" stroke-width=".052917"/><path d="m13.601 14.026-1.8081 1.0552 0.25019 1.7999 1.6898 0.01534z" fill="#452d0c" stroke-width=".065604"/></g><g transform="matrix(1.2447 0 0 .99935 -2.1336 .0072929)" stroke="#000"><path d="m6.1361 8.1015-1.0062 5.0434-0.29932 3.1311-1.658 0.0014 0.11287-2.5499s0.35206-5.6128 1.0949-6.4184z" fill="#1f1f1f" stroke-width=".052917"/><path d="m3.2021 14.026 1.8081 1.0552-0.25019 1.7999-1.6898 0.01534z" fill="#452d0c" stroke-width=".065604"/></g><path d="m3.3974 6.6866c0.92435-0.89625 2.3785-1.2328 3.2133-0.91363 0.4174 0.15958 1.5449 0.48488 1.5449 0.48488s1.3167-0.56122 1.9881-0.66586c0.67145-0.10464 2.6753 0.35004 3.3677 1.7794 0.93624 1.9326 0.78333 5.52 0.78333 5.52-1.8038-1.7372-2.8905-1.5985-4.0267-2.2352-1.1362-0.63669-2.0493-4.0131-2.0493-4.0131s-0.94737 3.0975-2.1812 3.9457c-1.2338 0.84818-3.3973 1.8216-4.0935 3.2187 0 0-0.37094-5.3522 1.4533-7.121z" fill="#303030" stroke="#000" stroke-width=".059019"/><g><g stroke="#000"><g stroke-width=".026458"><path d="m9.5086 5.3801c-0.67693 0.21778-1.2579 0.55419-1.3022 0.73662-0.044246 0.18242 0.26816 0.1785 0.26816 0.1785s0.82689-0.13451 1.1808-0.36882c0.35389-0.23431 0.73238-0.79779 0.71856-0.9762-0.0081-0.10442-0.39901 0.27989-0.86531 0.42991z" fill="#272727"/><path d="m7.0589 5.3197c0.39295 0.15639 1.1949 0.78845 1.1338 0.81308-0.26068 0.10499-0.41183 0.045484-0.41183 0.045484s-0.47339-0.15496-0.82728-0.38927c-0.35389-0.23431-0.56767-0.61999-0.55386-0.7984 0.00809-0.10442 0.25938 0.17 0.65916 0.32911z" fill="#272727"/><path d="m8.1647 0.997c-2.0658-0.0016265-3.2643 4.6404-2.8801 4.8167 0.91764 0.42112 1.5892 0.69641 2.9168 0.5589 1.5247 0.30697 3.0624-0.65857 3.0624-0.65857-0.58519-1.4504-1.0333-4.7154-3.0992-4.7171zm-0.072211 1.7699c0.27743 0.088729 1.0707 0.2732 1.3712 0.471 0.23005 0.15143 0.39129 0.46054 0.47194 0.77874 0.08065 0.3182 0.31336 0.50744 0.29606 0.71598-0.03117 0.37568 0.24295 0.77083-0.72534 1.1775-0.96829 0.40663-1.1955 0.28796-1.2934 0.21594-0.095615 0.14275-0.3273 0.057783-1.1895-0.36405-0.43112-0.21091-0.53483-0.50759-0.59105-0.68905-0.038357-0.4478-0.17627-0.90801 0.10121-1.2791 0.14306-0.21909 0.30705-0.35803 0.43525-0.4944 0.33655-0.358 0.8517-0.45295 1.1237-0.5325z" fill="#303030"/></g><rect x="5.5044" y="14.624" width="5.4941" height=".94854" fill="#452d0c" stroke-width=".022347"/></g><rect x="7.5764" y="14.618" width="1.3501" height=".95958" rx=".11592" ry=".1336" fill="#452d0c" stroke="#aba906" stroke-width=".14934"/><rect x="7.69" y="15.017" width=".26089" height=".16224" rx=".044097" ry=".044097" fill="#aba906"/></g><g transform="translate(0 .83294)"><g transform="matrix(.84797 0 0 1.0035 1.3773 -.049794)" fill="#452d0c" stroke="#000" stroke-width=".065325"><rect x="9.0761" y="13.54" width="1.0324" height="1.4512" rx=".16331" ry=".16331"/><rect x="9.098" y="13.54" width=".98863" height=".77195" rx=".16331" ry=".16331"/></g><rect transform="rotate(90)" x="14.073" y="-9.5641" width=".16986" height=".10563" rx=".028711" ry=".028711" fill="#aba906"/></g><g transform="translate(.95972 .83294)"><g transform="matrix(.84797 0 0 1.0035 1.3773 -.049794)" fill="#452d0c" stroke="#000" stroke-width=".065325"><rect x="9.0761" y="13.54" width="1.0324" height="1.4512" rx=".16331" ry=".16331"/><rect x="9.098" y="13.54" width=".98863" height=".77195" rx=".16331" ry=".16331"/></g><rect transform="rotate(90)" x="14.073" y="-9.5641" width=".16986" height=".10563" rx=".028711" ry=".028711" fill="#aba906"/></g><g transform="translate(-2.5062 .83294)"><g transform="matrix(.84797 0 0 1.0035 1.3773 -.049794)" fill="#452d0c" stroke="#000" stroke-width=".065325"><rect x="9.0761" y="13.54" width="1.0324" height="1.4512" rx=".16331" ry=".16331"/><rect x="9.098" y="13.54" width=".98863" height=".77195" rx=".16331" ry=".16331"/></g><rect transform="rotate(90)" x="14.073" y="-9.5641" width=".16986" height=".10563" rx=".028711" ry=".028711" fill="#aba906"/></g><g transform="translate(-3.4582 .83294)"><g transform="matrix(.84797 0 0 1.0035 1.3773 -.049794)" fill="#452d0c" stroke="#000" stroke-width=".065325"><rect x="9.0761" y="13.54" width="1.0324" height="1.4512" rx=".16331" ry=".16331"/><rect x="9.098" y="13.54" width=".98863" height=".77195" rx=".16331" ry=".16331"/></g><rect transform="rotate(90)" x="14.073" y="-9.5641" width=".16986" height=".10563" rx=".028711" ry=".028711" fill="#aba906"/></g><g fill="#202020"><path d="m10.574 6.7788-2.3836-0.24735 2.3456 0.089242 1.5781 0.40586z" stroke-width=".17007"/><path d="m10.068 7.0547-2.0164-0.51027 2.0117 0.4169 1.5627 0.67049z" stroke-width=".075614"/><path d="m6.8069 6.6105 1.3276-0.079058-1.3653-0.041184-2.5542 0.7761z" stroke-width=".17007"/><path d="m6.2062 7.1683 2.4792-0.60704-2.525 0.51367-1.0494 0.57372z" stroke-width=".075614"/></g><circle cx="8.1574" cy="6.5068" r=".3915" fill="#5f610a" stroke="#000" stroke-width=".017135"/></g></g><style>
				.filled {
					cursor: pointer;
					transition: fill 0.3s;
				}

				.filled:hover {
					fill: #7711AA;
				}

				.filled.built {
					fill: #7711AA;
				}

				.filled.built:hover {
					fill: inherit;
				}
			</style></svg>
