<?xml version="1.0" encoding="UTF-8"?>
<!-- Created with Inkscape (http://www.inkscape.org/) -->
<svg width="64" height="64" version="1.1" viewBox="0 0 16.933 16.933" xml:space="preserve" xmlns="http://www.w3.org/2000/svg"><g stroke="#000"><path d="m15.691 13.449-2.6831-0.19559 1.0148 3.6217 1.8456 0.04708z" stroke-width=".095463"/><path d="m1.2422 13.449 2.6831-0.19559-1.0148 3.6217-1.8456 0.04708z" stroke-width=".095463"/><path d="m14.513 9.7219 0.88435 3.389-2.372 0.67895-0.90774-3.405zm-12.208 0-0.88435 3.389 2.372 0.67895 1.0184-3.6001z" stroke-width=".075478"/><path d="m15.794 9.1459-0.76881-0.82729-3.0818 1.118 0.19227 1.047 3.6156-0.73658zm-14.945 0.075883 0.83414-0.89233 3.0818 1.1177-0.19227 1.047-3.7282-0.74228z" stroke-width=".075478"/><path d="m4.6767 7.391 0.04137 3.5814 0.66904 2.4264 0.11325 3.5079 5.8702-0.01903 0.0944-3.4744 0.74294-2.4033 0.25649-3.5937z" stroke-width=".074592"/><path d="m7.0963 4.8371c-0.35916 0.06761-0.56341 0.00228-1.0238 0.32321-0.1084 0.075312-0.021966 1.9918-0.021966 1.9918l2.3769 1.3145 2.499-1.3896s0.04935-1.5633-0.11154-1.88c-0.15633-0.30667-0.62475-0.31095-0.96337-0.37342-0.90289-0.1666-1.8523-0.15604-2.7549 0.013408z" stroke-width=".075478"/></g><path d="m12.388 11.683 1.0238-0.32436c0.25361 0.14492 0.31494 0.2422 0.31494 0.2422l0.06989 0.27614s-0.08187 0.20254-0.16004 0.32378c-0.14207 0.05848-1.0204 0.39425-1.0204 0.39425zm0.28756 1.0624s0.73772-0.28784 0.98648-0.35916c0.13921 0.07132 0.21224 0.13037 0.34575 0.21139 0.02567 0.09871 0.06533 0.23621 0.07788 0.33662-0.04564 0.08929-0.09585 0.21966-0.1452 0.30011-0.14378 0.07417-0.71004 0.35944-1.0099 0.4436-0.08844-0.3061-0.25504-0.93256-0.25504-0.93256zm2.2745-1.6107s0.27985 0.71432 0.33291 0.90831c0.0057 0.02168-0.70776 0.04193-1.0201 0.05991-0.10099-0.06561-0.37086-0.27187-0.37086-0.27187l-0.0562-0.2305s0.16974-0.29497 0.2151-0.36743c0.17972-0.04536 0.89918-0.09842 0.89918-0.09842zm0.25475 1.0184s0.25247 0.68408 0.2556 0.74684l-1.0758 0.06533-0.20169-0.15405-0.05648-0.31095 0.17687-0.26074z" fill="#626262" stroke="#000" stroke-width=".075478"/><path d="m7.9047 0.96598c0.74542-0.29241 2.0634-0.42677 1.8708 0.78792 0.13265-0.01027 0.22907-0.021966 0.33177 0.07788 0.30924 0.29954 0.12038 1.0127 0.0542 1.3921 0.05734-0.021395 0.14492-0.057055 0.20197-0.071318 0.02197 0.15376 0.07531 0.40281 0.11582 0.55799-0.13664 0.21738-0.25846 0.45815-0.40594 0.66668-0.037086 0.052205-0.16688 0.041079-0.21338 0.026816-0.12295 0.14378-0.20939 0.24191-0.34604 0.37143-0.054772 0.31865-0.097849 0.63873-0.16261 0.95567l-0.98619 0.42449c-0.061334-0.0039938-0.42477-0.09414-0.96765-0.40452-0.065613-0.25218-0.13836-0.72944-0.18971-0.99988a7.1318 7.1318 0 0 1-0.33748-0.34575l-0.054202-0.01084c-0.049067 0.02111-0.079021 0.060763-0.15405-0.00542-0.14007-0.1763-0.29383-0.48753-0.41365-0.67096 0.039653-0.1492 0.092714-0.42534 0.13579-0.54744 0.10099-0.029098 0.09357 0.042791 0.13066-0.01512 0.0077024-0.17145-0.11611-0.87294-0.14406-1.0935l0.55314-0.43219-0.46385-0.13123c0.39938-0.40024 0.83414-0.84755 1.4446-0.53289z" fill="#e4d8c1" stroke="#000" stroke-width=".075478"/><path d="m6.2482 3.7183 0.13608-0.54744 0.13066-0.01512-0.14035-1.0658 0.81988 0.15576-0.11981 1.4092 0.38997 0.82244 0.074171 1.1719 0.76995 0.38312 0.013693 0.10156-0.86038-0.43304-0.25389-0.94967-0.33776-0.34575-0.20825-0.016261z" fill="#d4bd92"/><path d="m7.9047 0.96598c0.74542-0.29241 2.0634-0.42677 1.8708 0.78792 0.13265-0.01027 0.22907-0.021966 0.33177 0.07788 0.30924 0.29954 0.12038 1.0127 0.0542 1.3921 0.02853-0.01084-0.07132 0.51863-0.13066 0.73315-0.0214 0.076453-0.20112 0.071033-0.20055 0.03623 0.00399-0.22993 0.0097-0.46157 0.016831-0.69179l-0.12067-0.11411c-0.051349-0.26645-0.1278-0.65584-0.15776-0.91972q-0.61961 0.14035-1.2324 0.30524-0.5734-0.15547-1.1419-0.32721c-0.087579 0.36201-0.10926 0.79819-0.32521 1.0646-0.00228 0.14121 0.00941 0.68351-0.041079 0.76881-0.067039 0.012267-0.087008 0.0077-0.15262-5.705e-4 -0.029668-0.029383-0.022251-0.012837-0.031665-0.04707-0.00371-0.052205-0.00456-0.1047-0.00856-0.15662-0.017402-0.10726 0.00371-0.18685-0.039653-0.26502 0.025104-0.096993 0.019969-0.19741 0.025675-0.29754l-0.013407-0.033948c-0.045644-0.03623-0.092999-0.12267-0.092999-0.12267-2.853e-4 -0.046785-0.11611-0.87294-0.14406-1.0935l0.55314-0.43247-0.46385-0.13123c0.39938-0.39995 0.83414-0.84726 1.4446-0.53261z" fill="#3b3f0a" stroke="#000" stroke-width=".075478"/><path d="m6.3777 3.3309c0.061619 0.060193 0.14406 0.17801 0.1937 0.25104l-0.00171 0.028242c-0.1124 0.28527-0.10897 0.086723-0.00399 0.3603-0.050784-0.047355-0.089866-0.097563-0.13351-0.15119 0.033092-0.073315 0.067895-0.14264 0.10213-0.2151-0.063616-0.09414-0.12324-0.16489-0.1569-0.27358zm3.8629 0.54402-0.0194 0.01569c-0.0091 0.0077-0.03395 0.034233-0.04736 0.028527-0.01483-0.019399 0.04536-0.091287 0.03794-0.11554-0.04564-0.14891-0.11354-0.20169 0.01512-0.34518 8e-3 -0.00884 0.06362-0.081873 0.08073-0.06219 0.0023 0.019684-0.1047 0.16061-0.13066 0.20083l-0.0086 0.012837q0.04735 0.092714 0.10042 0.18229c-0.01911 0.037085-0.01968 0.040509-0.02853 0.082729" fill="#424242" stroke-width=".075478"/><path d="m7.2543 3.7608c0.14891-0.065042 0.23678-0.12609 0.35203-0.11211 0.11554 0.014264 0.25874 0.10327 0.33548 0.17773-0.15119 0.092999-0.25618 0.14463-0.35659 0.13893-0.1007-0.0057054-0.19684-0.068466-0.33092-0.20454z" fill="#fffbfb" stroke="#000" stroke-width=".037739"/><path d="m8.2913 3.9819c0-0.10983-0.012552-0.19798 0.018258-0.30439 0.03623 0.061334 0.023678 0.99189 0.019969 1.1542 0.075883-0.051349 0.27015-0.14635 0.29897-0.18257l0.014549-0.092714 0.027101-0.015119c0.059622 0.18286-0.23906 0.26245-0.36886 0.34661-0.13608-0.09414-0.34233-0.15262-0.32236-0.32264l0.021681-0.00656c0.02653 0.034233 0.021966 0.056199 0.024248 0.10213 0.059907 0.057625 0.16517 0.10013 0.23735 0.14834 0.043647-0.0833 0.029098-0.66811 0.029098-0.82729z" fill="#424242" stroke-width=".075478"/><path d="m7.7709 5.2622c0.14549-0.021681 1.14-0.026245 1.2415 0.018543-0.16261 0.018543-1.1317 0.034233-1.2415-0.018828" fill="#161515" stroke-width=".075478"/><g stroke="#000" stroke-width=".075478"><path d="m8.006 5.5078c0.12695-0.011982 0.54887-0.029383 0.65499 0.018828-0.1221 0.017402-0.55086 0.034233-0.65499-0.018828z" fill="#242121"/><path d="m4.8669 11.024s0.96223 0.64671 1.3208 0.94568c0.72745-0.25218 1.4543-0.48496 2.1872-0.72203l-0.00542 1.1839c-0.68409 0.27072-2.7914 0.99218-2.7914 0.99218s-0.48896-1.5958-0.71119-2.3997zm5.7982 0.96451s0.91516-0.62389 1.3665-0.97364a187.42 187.42 0 0 0-0.72117 2.4003c-1.2563-0.44103-1.8238-0.59907-2.8139-0.97564l-8.559e-4 -1.1953z" fill="#757575"/><path d="m14.743 10.174c0.04279 0.08644 0.28955 0.7517 0.29754 0.82786-0.06219 0-0.67382 0.06019-1.0136 0.10184-0.13237-0.09785-0.35288-0.26445-0.35288-0.26445l-0.06219-0.31665 0.17972-0.23963s0.94682-0.11183 0.95139-0.10898z" fill="#626262"/><path d="m1.4193 8.868c1.2723 0.34775 2.7945 0.73173 2.7945 0.73173l-0.33577 0.64186s-2.1952-0.49723-2.976-0.63473l0.10641-0.41279z" fill="#4b4b4b"/><path d="m15.305 8.8138s0.40509 0.32664 0.42392 0.35716c2.85e-4 0.09956-0.02682 0.45216-0.05135 0.54202-0.76738 0.18486-2.5703 0.52661-2.5703 0.52661l-0.38911-0.63416z" fill="#626262"/><path d="m3.7186 10.361s0.72459 0.19712 1.029 0.29954c0.060193 0.01997-0.091287 0.76482-0.15604 0.91944-0.00285 0.0066-1.2001-0.36572-1.2001-0.36572l-0.19655-0.34062 0.045358-0.31009zm-0.31494 1.0036s0.64757 0.20825 0.97906 0.30296l-0.16717 0.95994c-0.31152-0.13522-1.1428-0.46642-1.1428-0.46642l-0.074171-0.29469 0.065327-0.25618zm-0.2596 1.027s0.67125 0.21709 0.97364 0.32464c-0.00599 0.10441-0.14178 0.81474-0.18372 0.95652-0.32179-0.093-1.0561-0.42591-1.0561-0.42591l-0.18372-0.36743 0.10384-0.28984zm-1.3545-1.2484 0.95281 0.10555 0.21395 0.35802-0.048496 0.23735-0.38597 0.25874-0.98733-0.12096zm0.31237-1.0073c0.28984 0.04079 0.88463 0.11839 0.88463 0.11839l0.15462 0.27728-0.070177 0.32521-0.30752 0.24705s-0.98819-0.15747-0.94996-0.19399c0.10612-0.23221 0.19256-0.53802 0.28841-0.77395zm-0.53489 1.953 0.93484 0.20083 0.17801 0.31694-0.11753 0.31123-0.33035 0.17031-0.85325-0.18543z" fill="#565656"/><g fill="#757575"><path d="m10.912 7.0631 0.01426 0.013978c-8e-3 0.2382-0.48867 1.0772-0.58538 1.389-0.02739 0.087579-0.03994 0.19227 0.0063 0.27586 0.09328 0.16831 1.3653 0.48439 1.6047 0.55229-0.0068 0.51977 0 1.0564 8.56e-4 1.5773-0.35602 0.25132-0.96936 0.56398-1.3408 0.78621l-0.43592-0.15947c-0.5075-0.2054-1.1887-0.46614-1.7002-0.6393l8.558e-4 -2.4727zm-4.8034 0.12124s0.72802 0.372 0.85839 0.4456c0.46699 0.26302 1.0064 0.50522 1.4603 0.76681-0.01569 0.79392 0.00342 1.6563 0.00571 2.4556-0.54202 0.16261-1.2181 0.43019-1.7716 0.62218-0.15405 0.054202-0.30895 0.1124-0.46271 0.16831-0.37456-0.27472-0.88035-0.5192-1.2501-0.80732l0.00456-1.5216z"/><path d="m4.9496 6.2347c0.039368 0.025675 0.93883 2.1036 1.017 2.3079-0.463 0.12609-1.0341 0.31237-1.4943 0.46328-0.12695-0.13465-0.26245-0.26987-0.39168-0.40281l-1.5025-1.5216c0.27244-0.11668 0.65442-0.23735 0.9414-0.34033 0.4707-0.1686 0.95709-0.34974 1.4301-0.50636zm7.0588-0.016831c0.62247 0.26958 1.2991 0.47298 1.929 0.73315 0.12295 0.050493 0.2653 0.098705 0.39425 0.12923l-1.4318 1.5045-0.39624 0.42392c-0.42392-0.15776-1.0415-0.3312-1.4868-0.4707 0.33263-0.73087 0.67382-1.5758 0.99161-2.3201z"/><path d="m14.332 7.0802c0.01541 0.01027 1.1887 0.92429 1.383 1.112-0.1084 0.060478-0.23849 0.10983-0.35602 0.15119-0.8815 0.30752-1.741 0.67581-2.6188 0.99132l-0.08216 0.0097 0.0086-0.016831c0.09443-0.18257 0.0031-0.25846-0.15576-0.33006a163.46 163.46 0 0 0 1.8211-1.917zm-9.7872 2.2836a0.15262 0.15262 0 0 1-0.19969-0.013978 0.15405 0.15405 0 0 1-0.01512-0.20026 0.15291 0.15291 0 0 1 0.27614 0.091573 0.15405 0.15405 0 0 1-0.061334 0.12267z"/></g><path d="m12.241 5.1173c0.0049 0.11211-1.2894 2.9891-1.4549 3.3833 0.4553 0.17972 1.1959 0.38569 1.6837 0.53289-0.17744 0.13864-0.21224 0.22622-0.02853 0.38227l-0.0088 0.00913c-0.10616 0.0271-1.4663-0.48782-1.6834-0.5249-0.10555-0.017972-0.37314-0.1278-0.40423-0.25475 0.05706-0.31095 0.36486-0.90774 0.4998-1.2233l0.64985-1.5228c0.06847-0.16004 0.36515-0.82558 0.36515-0.82558s0.31209-0.042791 0.38141 0.043647z" fill="#626262"/><path d="m12.24 5.2776a0.099846 0.099846 0 0 1 0.03252 0.06276c0.06476 0.33748 0.01113 0.56826-0.14235 0.86295-0.07046 0.041935-0.0485-0.029383-0.15348-0.019684a155.76 155.76 0 0 1-1.0053 2.3444c-0.04194-0.00799-0.05848-0.017972-0.09756-0.03623l-0.01284-0.043361c0.09015-0.2054 0.20026-0.47698 0.28641-0.67667z" fill="#626262"/><path d="m12.463 9.0766a0.15633 0.15633 0 1 1 0.12267 0.28727 0.15547 0.15547 0 0 1-0.2034-0.082444 0.1569 0.1569 0 0 1 0.08073-0.20483z" fill="#757575"/></g><path d="m7.7142 3.8062a0.11696 0.11696 0 0 1-0.11696 0.11696 0.11696 0.11696 0 0 1-0.11696-0.11696 0.11696 0.11696 0 0 1 0.11696-0.11696 0.11696 0.11696 0 0 1 0.11696 0.11696" fill="#20486b" stroke-width=".075478"/><path d="m9.4098 3.7967c-0.14834-0.065042-0.23621-0.12609-0.35174-0.11183-0.11554 0.014264-0.25874 0.10298-0.33577 0.17744 0.15148 0.092999 0.25646 0.14463 0.35688 0.13893 0.1007-0.00571 0.19684-0.068465 0.33092-0.20454z" fill="#fffffb" stroke="#000" stroke-width=".037656"/><path d="m8.9503 3.8421a0.11696 0.11696 0 0 0 0.11696 0.11696 0.11696 0.11696 0 0 0 0.11668-0.11696 0.11696 0.11696 0 0 0-0.11696-0.11696 0.11696 0.11696 0 0 0-0.11696 0.11696" fill="#20486b" stroke-width=".075478"/><path d="m7.3522 3.3991c0.13978 0.01569 0.65898 0.14492 0.83585 0.18571-0.00456 0.09414-0.012267 0.184-0.017972 0.27757-0.057055-0.0099846-0.13037-0.030524-0.188-0.045644-0.32892-0.071318-0.59194-0.099846-0.90774-0.16175 0.089005-0.089576 0.18457-0.17116 0.27786-0.25589" fill="#0a3f26" stroke-width=".075478"/><path d="m9.4484 3.3991c-0.13978 0.01569-0.65898 0.14492-0.83585 0.18571 0.00456 0.09414 0.012267 0.184 0.017972 0.27757 0.057055-0.00998 0.13037-0.030524 0.188-0.045644 0.32892-0.071318 0.59194-0.099846 0.90774-0.16175-0.08872-0.089576-0.18457-0.17116-0.27786-0.25589" fill="#3f330a" stroke-width=".075478"/><path d="m6.88 4.4275c-0.00285 0.095281 0.23107 1.4709 0.27101 1.5841l1.2418 0.81816c0.084441-0.033948 1.2084-0.59936 1.2509-0.65955l0.21624-1.7661-0.34604 0.37143-0.16261 0.95567-0.98619 0.42449-0.90318-0.45473-0.25389-0.94967z"/><g stroke="#000" stroke-width=".075478"><path d="m13.164 10.34c-0.30638 0.093-1.0276 0.29982-1.0276 0.29982l0.14264 0.91573s0.72944-0.23278 1.1271-0.35032c0.0619-0.11411 0.15034-0.34062 0.15034-0.34062l-0.04536-0.31009z" fill="#626262"/><path d="m4.7522 5.2776a0.099846 0.099846 0 0 0-0.032806 0.06276c-0.064757 0.33748-0.01084 0.56826 0.14264 0.86295 0.070462 0.041935 0.032806-0.019113 0.13779-0.00941 0.32863 0.7845 0.67924 1.5556 1.0207 2.3341 0.041935-0.00799 0.058481-0.017972 0.097563-0.03623l0.012837-0.043361c-0.090146-0.2054-0.20026-0.47698-0.28613-0.67667z" fill="#3a3a3a"/><path d="m2.6018 7.1119c-0.070177 0.046785-0.12324 0.091287-0.18828 0.14492a0.57055 0.57055 0 0 0-0.12267 0.10384c-0.028242 0.010555-0.025675 0.00742-0.042791 0.028813-0.058481 0.041079-0.074742 0.052205-0.12638 0.10412-0.014264 0.00542-0.011981 0.00456-0.023963 0.015119l-0.09414 0.076453c-0.012267 0.00628-0.010555 0.00571-0.020254 0.016831-0.075883 0.059337-0.1957 0.14777-0.26302 0.2111-0.033662 0.01569-0.035944 0.025675-0.059907 0.055628-0.018258 0.00599-0.016261 0.00542-0.032521 0.015975l-0.077594 0.060763c-0.024248 0.011982-0.021966 0.00941-0.038227 0.029668-0.036515 0.023392-0.065328 0.038512-0.092429 0.07303a1.9969 1.9969 0 0 0-0.20083 0.17573c0.1084 0.060478 0.23849 0.10983 0.35602 0.15119 0.88149 0.30781 1.741 0.67581 2.6188 0.99161q0.041365 0.00428 0.082159 0.0097l-0.00856-0.017116c-0.094424-0.18258-0.0031365-0.25846 0.15576-0.33006a163.46 163.46 0 0 1-1.8212-1.917z" fill="#757575"/><path d="m4.7285 5.1173c-0.00485 0.11211 1.2894 2.9891 1.4549 3.3833-0.4553 0.17972-1.1959 0.38569-1.6837 0.53289 0.17744 0.13864 0.21224 0.22622 0.028527 0.38227l0.00884 0.00913c0.10613 0.0271 1.4663-0.48782 1.6834-0.5249 0.10555-0.017972 0.37314-0.1278 0.40423-0.25475-0.057055-0.31095-0.36486-0.90774-0.4998-1.2233l-0.64985-1.5228c-0.068466-0.16004-0.36515-0.82558-0.36515-0.82558s-0.31209-0.042791-0.38141 0.043647zm3.7299 1.3037-0.00571 0.35146 2.4049-1.3054-0.07189-0.2519zm0 0.3817-0.00571 0.35146 2.4049-1.3054-0.02853-0.31095zm0 0.3817-0.00571 0.35146 2.4049-1.3054-0.02853-0.31095zm0 0.3817-0.00571 0.35146 2.4049-1.3054-0.02853-0.31095zm0 0.3817-0.00571 0.35174 2.4049-1.3057-0.02853-0.31095z" fill="#626262"/><path d="m8.4473 6.421 0.00571 0.35146-2.4051-1.3054 0.064472-0.24676zm0 0.3817 0.00571 0.35146-2.4051-1.3054 0.028527-0.31095zm0 0.3817 0.00571 0.35146-2.4051-1.3054 0.028527-0.31095zm0 0.3817 0.00571 0.35146-2.4051-1.3054 0.028527-0.31095zm0 0.3817 0.00571 0.35174-2.4051-1.3057 0.028527-0.31095z" fill="#4a4a4a"/><path d="m5.8602 14.987-0.20768-1.3294 2.7794-1.0084 2.7614 1.015-0.0756 1.3265z" fill="#757575"/><path d="m4.8669 11.024s0.96223 0.64671 1.3208 0.94568c0.72745-0.25218 1.4543-0.48496 2.1872-0.72203l-0.00542 1.1839c-0.68409 0.27072-2.7914 0.99218-2.7914 0.99218s-0.48896-1.5958-0.71119-2.3997z" fill="#757575"/></g><path d="m10.326 8.9374c-0.04279 0.20369-0.07645 0.28613-0.07645 0.28613l1.4694 0.41479 0.0037 0.42363 0.18914 0.03138-0.0037-0.6818zm1.7028-2.6633-0.04165 0.10726 2.2097 0.7788 0.05905-0.05734zm2.2976 0.86124-0.07046 0.091287 1.3408 0.97649 0.0562-0.018543zm-7.3138 1.8708-0.10812 0.15291 0.75341 0.60079 0.046214-0.061619z" fill="#fff" fill-opacity=".74086"/><path d="m4.9881 10.39 1.488e-4 0.4325 1.2106 0.81995 1.2723-0.50151-1.2389 0.24248zm6.9335 0.0526-0.0031 0.42166-1.3084 0.75378s-0.2257-0.07528-0.5761-0.2155-0.56261-0.2209-0.56261-0.2209l1.1357 0.26255z" fill="#525252"/><path d="m12.277 10.637-0.09785 0.02967 0.129 0.8371 0.09978-0.02864zm0.25532 1.041-0.1027 0.02967 0.2147 0.84641 0.09226-0.04022zm0.28149 1.0536-0.09371 0.03239 0.22345 0.84102 0.0828-0.0589z" fill="#525252"/><path d="m15.179 12.194-0.0194 0.0063 0.21795 0.66583 0.03708 0.0029c-0.06904-0.25589-0.23564-0.67496-0.23564-0.67496m-0.25418-1.0201-0.01997 2e-3 0.31038 0.84184 0.02054-2.85e-4c-0.07275-0.24334-0.31095-0.84355-0.31095-0.84355m-0.06989-0.60307 0.10213 0.39995 0.03566-0.0043c-0.07274-0.24305-0.13779-0.39567-0.13779-0.39567m0.83243-1.3859-0.08729-0.076168 0.05734 0.094996-0.04365 0.48696 0.04022-0.00884z" fill="#fff" fill-opacity=".74086"/><path d="m8.5472 11.262-0.051349 0.13351 2.1473 0.72916 1.3157-0.87294 0.0043-0.14207-1.2988 0.86523zm-3.6161-0.14911c0.22736 0.80272 0.4383 1.4851 0.67718 2.2845l0.12581-0.85932 0.38227-0.3506 1.2752-0.57969s-0.26153 0.08175-0.60495 0.19782c-0.34342 0.11606-0.60495 0.20641-0.60495 0.20641s-0.27903-0.22075-0.62393-0.46426-0.62661-0.43482-0.62661-0.43482z" fill="#525252"/><path d="m5.8418 14.634 0.051565 0.31953 5.1947 0.0058 0.01544-0.30964-2.7546-0.29212-2.0531 0.11411-0.34682-0.88184-0.26039 0.09159z" fill="#525252"/><path d="m12.24 5.3686s0.01598 0.30039-0.01769 0.44702c-0.03024 0.13208-0.12466 0.36486-0.12466 0.36486s0.03224-0.049352 0.06276-0.12096c0.03081-0.071318 0.05991-0.16517 0.07817-0.23735 0.01968-0.077309 0.02682-0.18543 0.02225-0.27928a1.2837 1.2837 0 0 0-0.020825-0.17402m-0.04079-0.23706c-0.0034-0.014549-0.08073-0.03081-0.13978-0.029668-0.06162 0.00114-0.11325 0.00171-0.17487 0.00656 0.0086 0.00571 0.15148 0.00571 0.17174 0.0077 0.02853 0.00285 0.14349 0.017972 0.14292 0.015405" fill="#fff" fill-opacity=".74086"/><path d="m8.2944 3.7477-0.12866 1.0056s0.088435 0.05734 0.096422 0.055628c0.00856-0.00171 0.0077-0.021966 0.01084-0.035374 0.00285-0.013693 0.00399-0.026245 0.00856-0.061619 0.00399-0.033662 0.00713-0.11012 0.00998-0.19798 0.00285-0.087864 2e-3 -0.17887 2e-3 -0.17887z" fill-opacity=".1495"/><g fill="#fff"><path d="m9.3799 4.2118-0.19598 0.19113 0.17373-0.037085zm0.95281-1.0073 0.05192 0.49866 0.0542 0.00599z" fill-opacity=".47176"/><path d="m8.4128 4.6742-0.057055 0.14092 0.092999-0.11069zm0.96993-3.7123c-0.017116 0.010555 0.1221 0.1278 0.1221 0.1278s0.17259 0.21053 0.18771 0.17773c0.031665-0.069321-0.18628-0.3817-0.30981-0.30553m0.4784 0.87265c-0.017116 0.010555 0.12181 0.12837 0.12181 0.12837s0.17288 0.21025 0.18771 0.17744c0.03195-0.069321-0.186-0.38198-0.30952-0.30581m-0.7206 2.0006-0.025675 0.057055 0.00799 0.00599 0.04707-0.046785zm-1.4897-0.035944-0.025675 0.05734 0.00827 0.00571 0.04707-0.046785z" fill-opacity=".47176"/><path d="m4.864 5.1073-0.010555 0.035945 0.21538-0.01027 0.07788 0.12153-0.065042-0.15034z" fill-opacity=".74086"/></g><path d="m4.9305 6.2738-0.22765 0.085582 1.0047 2.2199 0.21118-0.0569s-0.13959-0.3358-0.4869-1.1357c-0.3473-0.79987-0.50137-1.1129-0.50137-1.1129z" fill="#525252"/><path d="m10.766 5.2659-0.05563 0.035089 0.07588 0.16574 0.02368-0.022822zm0.0291 0.33006-0.05363 0.033377 0.05506 0.21567 0.02168-0.015975z" fill="#fff" fill-opacity=".74086"/><g fill="#757575" stroke="#000"><path d="m1.671 11.872s-0.41981 0.31416-0.61016 0.5525-0.12017 0.92797-0.12017 0.92797l2.8991 0.85796 0.18571-0.51699s-0.74764-0.67054-1.1438-0.98678-1.2107-0.83466-1.2107-0.83466z" stroke-width=".088368"/><path d="m1.4645 12.698s-0.3825 0.47493-0.51902 0.74769c-0.13652 0.27277-0.22178 0.8507-0.22178 0.8507s0.39221 0.0094 1.2899 0.04417c0.89766 0.0348 1.7229 0.16284 1.7229 0.16284l0.15098-0.40863s-0.93027-0.64961-1.3848-0.94377c-0.29818-0.19308-1.0381-0.45301-1.0381-0.45301z" stroke-width=".088368"/><path d="m3.4536 15.566-2.4663-1.0745-0.14545 2.4407 2.1029-0.007945z" stroke-width=".095463"/><path d="m15.262 11.872s0.41981 0.31416 0.61016 0.5525 0.12017 0.92797 0.12017 0.92797l-2.8991 0.85796-0.18571-0.51699s0.74764-0.67054 1.1438-0.98678 1.2107-0.83466 1.2107-0.83466z" stroke-width=".088368"/><path d="m15.469 12.698s0.3825 0.47493 0.51902 0.74769c0.13652 0.27277 0.22178 0.8507 0.22178 0.8507s-0.39221 0.0094-1.2899 0.04417c-0.89766 0.0348-1.7229 0.16284-1.7229 0.16284l-0.15098-0.40863s0.93027-0.64961 1.3848-0.94377c0.29818-0.19308 1.0381-0.45301 1.0381-0.45301z" stroke-width=".088368"/><path d="m13.48 15.566 2.4663-1.0745 0.14545 2.4407-2.1029-0.0079z" stroke-width=".095463"/></g><g fill="#fff"><path d="m15.279 11.952s0.16362 0.1238 0.242 0.19258c0.07837 0.06878 0.22823 0.2201 0.22823 0.2201l-0.026 0.03217s-0.14986-0.15133-0.22823-0.2201c-0.07837-0.06878-0.242-0.19258-0.242-0.19258z" stroke-width=".065312"/><path d="m15.822 12.443s0.06086 0.09107 0.08138 0.15279c0.02053 0.06172 0.04073 0.22377 0.04073 0.22377l-0.01086 0.02711s-0.02021-0.16204-0.04073-0.22377c-0.02053-0.06172-0.08138-0.15279-0.08138-0.15279z" stroke-width=".034877"/><path d="m15.469 12.791s0.13094 0.15797 0.19149 0.24286c0.06054 0.0849 0.17178 0.26651 0.17178 0.26651l-0.03267 0.02536s-0.11124-0.18161-0.17178-0.26651c-0.06055-0.08489-0.19149-0.24286-0.19149-0.24286z" stroke-width=".065312"/><path d="m15.906 13.403s0.0583 0.10384 0.07883 0.16556 0.07139 0.2276 0.07139 0.2276l-0.01086 0.02711s-0.05087-0.16588-0.07139-0.2276c-0.02053-0.06172-0.07882-0.16556-0.07882-0.16556z" stroke-width=".034877"/><path d="m15.929 15.081s0.0171 0.25016 0.02655 0.38046c0.0095 0.1303 0.02168 0.40398 0.02168 0.40398s-0.0532-0.26688-0.06269-0.39718c-0.0095-0.1303-0.02655-0.38046-0.02655-0.38046z" stroke-width=".073162"/></g><g fill="#757575" stroke="#000"><path d="m5.4592 15.625 5.9499 0.01401-0.02802 1.2383h-5.8892z" stroke-width=".057608"/><path d="m5.4711 16.015 5.9197 0.0055-5e-3 0.86166h-5.8987z" stroke-width=".048093"/><path d="m5.4731 16.418 5.9179-9.95e-4 -0.01555 0.47159-5.8776-0.0017z" stroke-width=".035538"/></g><g fill="#525252"><path d="m5.4985 16.462 0.012263 0.40685 5.8551 0.0053 0.0051-0.44033s-1.1621 0.06932-2.9367 0.0779c-1.7746 0.0086-2.9358-0.04972-2.9358-0.04972z"/><path d="m1.0069 14.944 2.3939 0.65116-2.3717-1.0353z"/><path d="m1.036 12.546s-0.055098 0.20823-0.071225 0.34233-0.025539 0.46225-0.025539 0.46225l0.51903-0.69254s-0.077937 0.01405-0.2197-0.02747-0.20257-0.08457-0.20257-0.08457z"/><path d="m0.94647 13.553s-0.047266 0.13531-0.099621 0.3143c-0.052355 0.17898-0.07181 0.39116-0.07181 0.39116l1.68 0.06425s-0.92629-0.17901-1.1874-0.37415c-0.26115-0.19514-0.3211-0.39556-0.3211-0.39556z"/></g><style>
				.filled {
					cursor: pointer;
					transition: fill 0.3s;
				}

				.filled:hover {
					fill: #7711AA;
				}

				.filled.built {
					fill: #7711AA;
				}

				.filled.built:hover {
					fill: inherit;
				}
			</style></svg>
