<?xml version="1.0" encoding="UTF-8"?>
<!-- Created with Inkscape (http://www.inkscape.org/) -->
<svg width="64" height="64" version="1.1" viewBox="0 0 16.933 16.933" xml:space="preserve" xmlns="http://www.w3.org/2000/svg"><path d="m9.6479 3.4946c0.060547 0 0.66619 0.011078 0.66619 0.011078l0.81948 3.9089s-0.96154 0.3446-1.6278-0.86156c-0.66625-1.2062 0.081569-3.0584 0.14212-3.0584z" fill="#919211" stroke="#000" stroke-width=".012964"/><path d="m6.5245 3.2665c0.060551 0 0.66619 0.011078 0.66619 0.011078l0.5322 2.7381s-1.4351 1.3448-1.6614 1.3469c-0.11315 0.00104-0.70125-0.54221-0.56477-1.5665 0.13648-1.0243 0.99754-2.5296 1.0278-2.5296z" fill="#919211" stroke="#000" stroke-width=".012964"/><g stroke="#000"><path d="m6.8899 4.4558c-0.042574 0.058722-0.19918 0.030069-0.27181-0.069454-0.039969-0.086296-0.090074-0.43698-0.067626-0.65548 0.013834-0.13466 0.0096549-0.34029 0.1228-0.38563 0.10559-0.042316 0.17962-0.055526 0.20078 0.1884 0.012902 0.14874 0.079621 0.83421 0.015852 0.92217z" fill="#dadc7e" stroke-width=".023698"/><path d="m9.9067 4.4369c0.039622 0.060917 0.19744 0.040659 0.27487-0.054858 0.04416-0.084051 0.11146-0.43159 0.09979-0.65101-0.0072-0.13522 0.0071-0.34035-0.10366-0.39168-0.10337-0.047895-0.17665-0.065038-0.20979 0.17743-0.020195 0.14786-0.12057 0.82887-0.06121 0.92011z" fill="#dadc7e" stroke-width=".023698"/><path d="m7.1568 5.3263c-0.34331 0.064625-0.53854 0.002192-0.97865 0.30895-0.10362 0.071988-0.020997 1.9039-0.020997 1.9039l2.272 1.2565 2.3887-1.3282s0.04718-1.4943-0.10662-1.797c-0.14942-0.29313-0.59717-0.29722-0.92084-0.35694-0.86304-0.15925-1.7705-0.14916-2.6333 0.012815z" stroke-width=".072147"/></g><rect x="7.513" y="5.4575" width="1.8575" height="2.0218" fill="#2d2d2d"/><path d="m10.052 4.1133c-0.098404 0.30699-0.11625 0.35496-0.26953 0.56534-0.18258 0.57567-0.41883 1.1596-0.76284 1.3183-0.19644 0.090599-0.38878 0.20105-0.5926 0.25653-0.64577-0.22457-1.1217-0.57665-1.3383-1.517-0.14023-0.21291-0.23738-0.3775-0.23738-0.67504s0.03373-0.63121 0.11308-0.88903c0.079347-0.25782 0.056401-0.57609 0.19828-0.77108 0.14188-0.19499 0.21439-0.47473 0.40199-0.58379 0.1876-0.10905 0.38733-0.43222 0.97923-0.42716s0.54652 0.204 0.73412 0.31305 0.34322 0.37746 0.4851 0.57246c0.36507 0.52944 0.47346 1.2614 0.28883 1.8374z" fill="#e6e8a8" stroke="#000" stroke-width=".034853"/><g stroke="#000"><path d="m8.3115 3.5456 0.022709 1.277 0.07202 0.039301" fill="none" stroke-width=".025928"/><path d="m8.0731 4.6216 0.0075672 0.11036 0.34442 0.20101 0.32171-0.18524 0.0075672-0.13795" fill="none" stroke-width=".025928"/><path d="m9.0314 5.3414c-0.19281 0.037815-1.0164 0.022057-1.1485 0 0.15035-0.016866 0.26894-0.055648 0.40119-0.092245 0.0687-0.00218 0.15141 0.042919 0.15141 0.042919s0.079482-0.035315 0.17184-0.036662c0.071987-0.00105 0.26659 0.071072 0.42402 0.085988z" fill="#e8a9a8" stroke-width=".012964"/></g><path d="m8.8144 5.5765c-0.12624 0.039322-0.62129 0.10193-0.71577-0.03014 0.1035-0.00241 0.6855-0.042542 0.71577 0.03014z" fill="#595d16"/><path d="m8.3521 1.4811s0.12011-0.06098 0.18066-0.06098c0.060551 0 0.18265 0.06098 0.18265 0.06098l0.13002 0.32163s-0.086366-0.098189-0.31266-0.096122c-0.2263 0.00207-0.27991 0.052712-0.27991 0.052712z" fill="#919211" stroke="#000" stroke-width=".012964"/><path d="m7.4252 3.2776s-0.045934-0.012599-0.1184-0.02198c-0.018117-0.00235-0.10801 0.00111-0.2537 0.020334-0.0044174-0.014314 0.46224-0.40032 0.76329-0.75066 0.26822-0.3715 0.44071-0.76705 0.44071-0.76705l-0.037248-0.024221s-1.1594 1.4948-1.2125 1.5012c0 0-0.077227 0.10574-0.097265 0.27441-0.00501 0.042166-0.023092 0.16075-0.03573 0.30438s-0.014954 0.28121 0.00694 0.46665c0.066959 0.19065 0.11003 0.27875 0.22579 0.45218 0.037362 0.15128 0.11659 0.48048 0.29577 0.7545 0.044794 0.068506 0.079003 0.12177 0.16823 0.22893 0.089226 0.10716 0.20721 0.19049 0.28832 0.24082 0.081107 0.05033 0.14923 0.10284 0.23076 0.1416 0.081523 0.038761 0.22056 0.10161 0.31214 0.12403-0.047539-0.1338-0.60109-0.33427-0.72849-0.52298s-0.14-0.47239-0.1727-0.65889c-0.032693-0.1865-0.055482-0.30325-0.074438-0.49662-0.38034-0.45108-0.2844-0.48542-0.3707-0.75605-0.011965-0.084576 0.039193-0.14728 0.10868-0.19689 0.07411-0.025178 0.2073-0.059667 0.38311-0.073899 0.15232 1.797e-4 0.20527 0.016497 0.27195 0.057363 0.16939 0.15756 0.14163 0.12238 0.25557 0.22377 0.04462 0.095148 0.088252 0.1266 0.10124 0.40722 0.012983 0.28062 0.05558 0.57569 0.05558 0.57569l0.091311 0.051678-0.020346-1.0708c-0.083306-0.15187-0.87787-0.48474-0.87787-0.48474z" fill="#dd8" stroke-width=".012964"/><path d="m7.3302 3.1499s0.10333-0.00205 0.41688 0.11536 0.40767 0.16412 0.40767 0.16412l0.00511 0.20949s-0.34926-0.1736-0.53645-0.25273c-0.18719-0.079134-0.18646-0.077516-0.30578-0.098092-0.11932-0.020574-0.26801 0.00112-0.26801 0.00112z" fill="#e1e219" stroke="#000" stroke-width=".012955"/><path d="m9.5763 3.1659s-0.10321-0.00563-0.42034 0.10084-0.41269 0.14989-0.41269 0.14989l-0.011807 0.2092s0.35462-0.16138 0.54423-0.23398c0.18962-0.072596 0.18883-0.071006 0.30875-0.087431 0.11992-0.016424 0.26782 0.010416 0.26782 0.010416z" fill="#e1e219" stroke="#000" stroke-width=".012955"/><g transform="translate(-.099571)"><path d="m8.1199 3.7703c-0.024887-0.015067-0.094279 0.00449-0.15757 0.048349-0.069472 0.04814-0.096087 0.070439-0.27249 0.065751-0.1764-0.0046871-0.21281-0.073078-0.28252-0.13364-0.032036-0.027835-0.059016-0.065359-0.097667-0.098583-0.038652-0.033224-0.10225-0.016547-0.10225-0.016547 0.12501-0.030264 0.10388-0.020517 0.21456-0.051717s0.14245-0.045069 0.26453-0.045069 0.22515 0.048177 0.28753 0.10589c0.054928 0.050817 0.11776 0.095895 0.14586 0.12557z" fill="#fff" stroke="#000" stroke-width=".022707"/><g transform="matrix(.841 0 0 .87579 1.0997 .52869)"><path d="m7.8639 3.4485c-0.047603 0-0.086069 0.00284-0.11989 0.00775a0.19923 0.19923 0 0 0-0.069763 0.15141 0.19923 0.19923 0 0 0 0.19895 0.19947 0.19923 0.19923 0 0 0 0.19947-0.19947 0.19923 0.19923 0 0 0-0.054777-0.13694c-0.047085-0.013787-0.098947-0.022221-0.154-0.02222z" fill="#181a8c" stroke="#000" stroke-width=".01659"/><circle cx="7.8735" cy="3.6061" r=".10874"/></g><path d="m7.7984 3.6381 0.040167 0.066434-0.02585 0.016949-0.040167-0.066434z" fill="#fff" stroke-width=".0063101"/></g><g transform="translate(.099701)"><path d="m8.7725 3.7703c0.024887-0.015067 0.09428 0.00449 0.15757 0.048349 0.069472 0.04814 0.12777 0.0673 0.27146 0.068372 0.14369 0.00107 0.21384-0.075699 0.28355-0.13627 0.032034-0.027836 0.059014-0.065359 0.097667-0.098583 0.038653-0.033223 0.11368-0.028454 0.11368-0.028454-0.20759-0.035557-0.15985-0.02766-0.22599-0.041794-0.081744-0.017468-0.14245-0.045069-0.26453-0.045069s-0.22515 0.050162-0.28753 0.10788c-0.054929 0.050817-0.11776 0.095895-0.14586 0.12557z" fill="#fff" stroke="#000" stroke-width=".022707"/><path d="m9.2121 3.5489c0.040034 0 0.072384 0.00249 0.10083 0.00679a0.16755 0.17448 0 0 1 0.058671 0.1326 0.16755 0.17448 0 0 1-0.16732 0.1747 0.16755 0.17448 0 0 1-0.16776-0.1747 0.16755 0.17448 0 0 1 0.046068-0.11993c0.039599-0.012074 0.083214-0.019461 0.12951-0.019461z" fill="#181a8c" stroke="#000" stroke-width=".014238"/><ellipse transform="scale(-1,1)" cx="-9.2041" cy="3.6869" rx=".09145" ry=".095233"/><path d="m9.2726 3.6272 0.040167 0.066434-0.025851 0.016949-0.040167-0.066434z" fill="#fff" stroke-width=".0063101"/></g><path d="m9.7571 4.1228-0.23586 0.16671 0.088957-0.14983z" fill="#f1f5d0" stroke-width=".011361"/><g stroke="#000"><path d="m15.372 13.558-2.5647-0.18696 0.97001 3.4618 1.7641 0.045z" stroke-width=".09125"/><path d="m1.5611 13.558 2.5647-0.18696-0.97001 3.4618-1.7641 0.045z" stroke-width=".09125"/><path d="m14.246 9.9954 0.84531 3.2395-2.2673 0.64898-0.86767-3.2547zm-11.669 0-0.84531 3.2395 2.2673 0.64898 0.97347-3.4412z" stroke-width=".072147"/><path d="m15.471 9.4449-0.73488-0.79078-2.9458 1.0686 0.18379 1.0007 3.456-0.70406zm-14.285 0.072534 0.79732-0.85295 2.9458 1.0684-0.18379 1.0007-3.5637-0.70952z" stroke-width=".072147"/><path d="m4.844 7.7675 0.039543 3.4233 0.80763 2.6556-0.059868 3.0168 5.6111-0.01819-0.04249-2.9406 0.84287-2.6777 0.24517-3.4351z" stroke-width=".0713"/><path d="m12.215 11.87 0.97865-0.31004c0.24242 0.13852 0.30104 0.23151 0.30104 0.23151l0.06681 0.26396s-0.07826 0.1936-0.15297 0.30949c-0.1358 0.05591-0.97538 0.37685-0.97538 0.37685zm0.27486 1.0155s0.70516-0.27514 0.94293-0.34331c0.13307 0.06817 0.20288 0.12462 0.33049 0.20206 0.02454 0.09435 0.06244 0.22578 0.07445 0.32176-0.04362 0.08535-0.09162 0.20996-0.1388 0.28686-0.13743 0.0709-0.6787 0.34358-0.96529 0.42402-0.08454-0.29259-0.24378-0.8914-0.24378-0.8914zm2.1741-1.5396s0.2675 0.68279 0.31822 0.86822c0.0055 0.02072-0.67652 0.04008-0.97511 0.05726-0.09653-0.06271-0.35449-0.25987-0.35449-0.25987l-0.05373-0.22033s0.16224-0.28195 0.2056-0.35121c0.17179-0.04337 0.85949-0.09408 0.85949-0.09408zm0.2435 0.97347s0.24132 0.65389 0.24432 0.71388l-1.0283 0.06244-0.19279-0.14725-0.05398-0.29722 0.16906-0.24923z" fill="#626262" stroke-width=".072147"/><path d="m5.1903 12.106 0.8648 0.45563 2.3376-0.88211-0.034303 2.4163-2.6331 0.99713-0.00609-1.2644zm5.8128 0.40898 0.73386-0.48963-0.57757 1.7813-0.05398 1.2981-2.6006-1.0083 0.024638-2.4142z" fill="#757575" stroke-width=".071197"/><g stroke-width=".072147"><path d="m14.466 10.427c0.0409 0.08262 0.27677 0.71852 0.2844 0.79132-0.05944 0-0.64407 0.05754-0.96884 0.09735-0.12652-0.09353-0.33731-0.25278-0.33731-0.25278l-0.05944-0.30268 0.17179-0.22905s0.90503-0.1069 0.90939-0.10416z" fill="#626262"/><path d="m1.7304 9.1793c1.2162 0.3324 2.6712 0.69943 2.6712 0.69943l-0.32095 0.61353s-2.0983-0.47528-2.8446-0.60672l0.10171-0.39457z" fill="#4b4b4b"/><path d="m15.003 9.1275s0.38721 0.31222 0.4052 0.3414c3.21e-4 0.095159-0.02563 0.4322-0.04908 0.51809-0.73351 0.1767-2.4569 0.50337-2.4569 0.50337l-0.37193-0.60617z" fill="#626262"/><path d="m3.9282 10.606s0.69261 0.18842 0.98356 0.28632c0.057536 0.01909-0.087257 0.73106-0.14916 0.87885-0.0027 0.0063-1.1472-0.34958-1.1472-0.34958l-0.18788-0.32558 0.043356-0.2964zm-0.30104 0.95929s0.61899 0.19906 0.93584 0.28959l-0.15979 0.91757c-0.29777-0.12925-1.0924-0.44583-1.0924-0.44583l-0.070897-0.28168 0.062444-0.24487zm-0.24814 0.98165s0.64162 0.20751 0.93066 0.31031c-0.00572 0.0998-0.13552 0.77878-0.17561 0.9143-0.30758-0.08889-1.0095-0.40711-1.0095-0.40711l-0.17561-0.35121 0.099255-0.27704zm-1.2947-1.1933 0.91076 0.10089 0.20451 0.34222-0.046359 0.22687-0.36894 0.24732-0.94375-0.11562zm0.29859-0.96284c0.27704 0.03899 0.84558 0.11316 0.84558 0.11316l0.14779 0.26505-0.067079 0.31086-0.29395 0.23614s-0.94457-0.15052-0.90803-0.18542c0.10144-0.22196 0.18406-0.51428 0.27568-0.73978zm-0.51128 1.8668 0.89358 0.19197 0.17015 0.30295-0.11235 0.2975-0.31576 0.16279-0.81559-0.17724z" fill="#565656"/><path d="m12.957 10.586c-0.29286 0.08889-0.9822 0.28659-0.9822 0.28659l0.13634 0.87531s0.69725-0.22251 1.0774-0.33485c0.05917-0.10907 0.1437-0.32558 0.1437-0.32558l-0.04336-0.2964z" fill="#626262"/></g></g><path d="m12.109 10.87-0.09352 0.02836 0.12331 0.80015 0.09538-0.02737zm0.24405 0.99502-0.09817 0.02836 0.20522 0.80905 0.08819-0.03845zm0.26907 1.0071-0.08957 0.03096 0.21359 0.8039 0.07915-0.0563z" fill="#525252"/><g stroke="#000" stroke-width=".072147"><path d="m10.804 7.4541 0.01363 0.013361c-0.0077 0.22769-0.4671 1.0296-0.55954 1.3277-0.02618 0.083713-0.03817 0.18379 6e-3 0.26368 0.08915 0.16088 1.3051 0.46301 1.5338 0.52791 0.2587 0.45405 0.39865 0.76074 0.30822 1.3081-0.20048 0.53069-0.28981 0.98825-1.1742 1.2552-1.3387-0.24402-1.311-0.32912-2.4282-0.73461l-0.027517-2.6966zm-4.5914 0.11589s0.69588 0.35558 0.8205 0.42593c0.44638 0.25141 0.96202 0.48292 1.3959 0.73297-0.014997 0.75887 0.00326 1.9075 0.00546 2.6715-0.7365 0.22095-1.5452 0.79356-2.4029 0.80759-0.63357-0.21366-0.98729-0.90225-1.1781-1.2942-0.087895-0.69877 0.25481-1.3082 0.25481-1.3082z" fill="#757575"/><path d="m14.146 7.4973c0.01473 0.00981 1.0629 0.85662 1.2486 1.036-0.10361 0.057808-0.22796 0.10498-0.34031 0.14452-0.84259 0.29395-1.6642 0.64598-2.5032 0.94757l-0.07853 0.00931 0.0082-0.016093c0.09027-0.17451 3e-3 -0.24705-0.14888-0.31549 0.5852-0.60611 1.8142-1.8059 1.8142-1.8059zm-9.4285 2.1559c-0.058068 0.043722-0.13946 0.038027-0.19088-0.013357-0.051464-0.051467-0.057606-0.13281-0.014452-0.19142 0.08389-0.11423 0.26494-0.054187 0.26396 0.087534-1.07e-4 0.046107-0.021805 0.089503-0.058627 0.11725z" fill="#757575"/><path d="m12.075 5.5941s-1.2325 2.8572-1.3907 3.234c0.4352 0.17179 1.1431 0.36866 1.6094 0.50937-0.16961 0.13252-0.20288 0.21624-0.02727 0.36539l-0.0084 0.00869c-0.1015 0.025951-1.4016-0.46623-1.6092-0.50168-0.10089-0.017182-0.35667-0.12216-0.38639-0.2435 0.05454-0.29722 0.34876-0.86767 0.47774-1.1693l0.62117-1.4556c0.06545-0.15297 0.34903-0.78914 0.34903-0.78914 0.12006-0.04821 0.36459 0.041704 0.36459 0.041705z" fill="#626262"/><path d="m12.074 5.7473a0.095438 0.095438 0 0 1 0.03108 0.05999c0.0619 0.32258 0.01067 0.54318-0.13607 0.82486-0.06735 0.040083-0.04636-0.028088-0.1467-0.018816a148.88 148.88 0 0 1-0.96093 2.2409c-0.04009-0.0076-0.05591-0.017182-0.09326-0.034637l-0.01228-0.041449c0.08618-0.19633 0.19143-0.45592 0.27378-0.6468z" fill="#626262"/><path d="m12.287 9.3786a0.14943 0.14943 0 1 1 0.11725 0.27459 0.14861 0.14861 0 0 1-0.19442-0.078806 0.14997 0.14997 0 0 1 0.07716-0.19578z" fill="#757575"/><path d="m2.8607 7.5007c-0.067079 0.044722-0.1178 0.087257-0.17997 0.13852a0.54536 0.54536 0 0 0-0.11725 0.099256c-0.026998 0.010092-0.024541 0.00709-0.040904 0.027542-0.055901 0.039267-0.071443 0.0499-0.1208 0.099529-0.013636 0.00518-0.011448 0.00438-0.022904 0.014452l-0.089985 0.073078c-0.011724 0.00601-0.010092 0.00546-0.019362 0.016088-0.072533 0.056717-0.18706 0.14125-0.25141 0.20178-0.032176 0.014997-0.034359 0.02454-0.057262 0.053174-0.017455 0.00572-0.015543 0.00517-0.031086 0.015268l-0.074169 0.058081c-0.023179 0.011455-0.020997 9e-3 -0.036539 0.028358-0.034903 0.022358-0.062445 0.03681-0.088349 0.069807a1.9088 1.9088 0 0 0-0.19197 0.16797c0.10362 0.057808 0.22796 0.10498 0.34031 0.14452 0.84258 0.29422 1.6642 0.64598 2.5032 0.94784q0.039537 0.00408 0.078533 0.00931l-0.00818-0.016354c-0.090259-0.17456-0.0029878-0.24709 0.14888-0.31553a156.25 156.25 0 0 1-1.7408-1.8324z" fill="#757575"/><path d="m8.4482 6.8402 0.0054595 0.33594-2.299-1.2478 0.061626-0.23587zm0 0.36485 0.00546 0.33594-2.299-1.2478 0.027268-0.29722zm0 0.36485 0.00546 0.33594-2.299-1.2478 0.027267-0.29722zm0 0.36485 0.00546 0.33594-2.299-1.2478 0.027268-0.29722zm0 0.36485 0.00546 0.33622-2.299-1.2481 0.027268-0.29722z" fill="#4a4a4a"/><path d="m5.9752 16.438-0.19851-1.2707 2.6567-0.96393 2.6396 0.9702-0.07226 1.268z" fill="#757575"/></g><path d="m14.883 12.358-0.01854 6e-3 0.20833 0.63644 0.03545 0.0027c-0.06599-0.24457-0.22524-0.64514-0.22524-0.64514m-0.24296-0.97511-0.01909 2e-3 0.29668 0.80468 0.01964-2.69e-4c-0.06954-0.23261-0.29722-0.80634-0.29722-0.80634m-0.0668-0.57645 0.09762 0.3823 0.03409-0.0041c-0.06954-0.23232-0.13171-0.3782-0.13171-0.3782m0.79568-1.3247-0.08343-0.072802 0.05481 0.090802-0.04173 0.46547 0.03845-0.0085z" fill="#fff" fill-opacity=".74086"/><path d="m5.9576 16.101 0.049288 0.30543 4.9654 0.0056 0.01477-0.29597-2.633-0.27923-1.9625 0.10907-0.33151-0.84292-0.2489 0.08755z" fill="#525252"/><path d="m11.913 5.843s0.01466 0.28714-0.01624 0.4273c-0.02776 0.12625-0.11443 0.34877-0.11443 0.34877s0.02959-0.047175 0.05761-0.11562c0.02828-0.068172 0.05499-0.15789 0.07175-0.22688 0.01806-0.073898 0.02461-0.17725 0.02043-0.26696a1.1784 1.2271 0 0 0-0.01911-0.16634m-0.03743-0.2266c-0.0032-0.013907-0.0741-0.02945-0.12831-0.028358-0.05656 0.00106-0.10396 0.00163-0.16052 0.00627 0.0079 0.00546 0.13904 0.00546 0.15764 0.00736 0.02619 0.0027 0.13171 0.01718 0.13119 0.014727" fill="#fff" fill-opacity=".74086"/><path transform="matrix(.96031 0 0 1 .056855 .077138)" d="m9.365 0.69193c-0.024728 0.088842-0.20091 0.91238-0.18659 1.0261-0.044981 0.046835-0.096171-0.10552-0.1713-0.22589-0.034437-0.055174-0.062502-0.10937-0.1997-0.072025-0.21149 0.057569-0.63751 0.8367-0.83552 1.0268-0.11498 0.11039-0.60699 0.55616-0.75747 0.78008-0.079309 0.11801-0.27695 1.0347-0.34402 1.1267s-0.36907 0.35859-0.65646 0.87725-0.34938 1.339-0.60261 1.6104-0.54119-0.42824-1.0219 0.2141c0.063159-0.75555 0.66983-0.93164 0.76936-1.6131 0.049764-0.34075 0.16749-0.89129 0.27669-1.0763 0.10921-0.18498 0.556-0.91871 0.62741-1.214 0.14282-0.59054 0.333-1.1278 0.62195-1.5962 0.28895-0.46843 0.67668-0.86803 1.2146-1.1832 0.15422-0.090359 0.33749-0.16358 0.60484-0.12658s0.30498 0.055258 0.43601 0.15756 0.24952 0.19919 0.22472 0.28831z" fill="#e1e219" stroke="#000" stroke-width=".013229"/><path d="m5.1048 6.6622c0.03763 0.02454 0.89739 2.0108 0.97211 2.206-0.44256 0.12053-0.98847 0.29859-1.4283 0.44283-0.12134-0.12871-0.25087-0.25796-0.37439-0.38503l-1.4362-1.4545c0.26041-0.11153 0.62553-0.22687 0.89985-0.32531 0.44992-0.16115 0.91485-0.33431 1.367-0.48401zm6.7472-0.016088c0.59499 0.25768 1.2418 0.45211 1.8439 0.70079 0.11753 0.048265 0.25359 0.094349 0.37685 0.12352l-1.3686 1.4381-0.37876 0.40521c-0.4052-0.15079-0.99556-0.31658-1.4212-0.44992 0.31795-0.69861 0.64407-1.5063 0.94784-2.2177z" fill="#757575" stroke="#000" stroke-width=".072147"/><path d="m5.0866 6.6995-0.2176 0.081804 0.96039 2.1219 0.20185-0.054384s-0.13343-0.32098-0.46541-1.0855c-0.33197-0.76456-0.47924-1.0638-0.47924-1.0638z" fill="#525252"/><g fill="#757575" stroke="#000"><path d="m1.971 12.051s-0.40128 0.30029-0.58323 0.52811-0.11487 0.88701-0.11487 0.88701l2.7711 0.82009 0.17751-0.49417s-0.71464-0.64095-1.0933-0.94323-1.1573-0.79782-1.1573-0.79782z" stroke-width=".084468"/><path d="m1.7736 12.84s-0.36562 0.45396-0.49611 0.71469c-0.1305 0.26073-0.21199 0.81315-0.21199 0.81315s0.3749 9e-3 1.2329 0.04222c0.85803 0.03326 1.6468 0.15566 1.6468 0.15566l0.14432-0.39059s-0.88921-0.62094-1.3237-0.90211c-0.28502-0.18456-0.99226-0.43302-0.99226-0.43302z" stroke-width=".084468"/><path d="m3.6749 15.582-2.3575-1.027-0.13903 2.3329 2.0101-0.0077z" stroke-width=".09125"/><path d="m14.962 12.051s0.40128 0.30029 0.58323 0.52811 0.11487 0.88701 0.11487 0.88701l-2.7711 0.82009-0.17751-0.49417s0.71464-0.64095 1.0933-0.94323c0.37867-0.30228 1.1573-0.79782 1.1573-0.79782z" stroke-width=".084468"/><path d="m15.16 12.84s0.36562 0.45396 0.49612 0.71469 0.21199 0.81315 0.21199 0.81315-0.3749 9e-3 -1.2329 0.04222c-0.85803 0.03326-1.6468 0.15566-1.6468 0.15566l-0.14432-0.39059s0.88921-0.62094 1.3237-0.90211c0.28502-0.18456 0.99226-0.43302 0.99226-0.43301z" stroke-width=".084468"/><path d="m13.258 15.582 2.3575-1.027 0.13903 2.3329-2.0101-0.0074z" stroke-width=".09125"/></g><g fill="#fff"><path d="m14.979 12.127s0.1564 0.11833 0.23131 0.18408c0.07491 0.06574 0.21816 0.21039 0.21816 0.21039l-0.02486 0.03074s-0.14324-0.14465-0.21816-0.21039c-0.07491-0.06574-0.23132-0.18408-0.23132-0.18408z" stroke-width=".06243"/><path d="m15.497 12.597s0.05817 0.08704 0.07779 0.14604c0.01963 0.05899 0.03893 0.21389 0.03893 0.21389l-0.01034 0.02591s-0.01932-0.15489-0.03893-0.21389c-0.01963-0.05899-0.07779-0.14604-0.07779-0.14604z" stroke-width=".033338"/><path d="m15.16 12.929s0.12516 0.15099 0.18304 0.23214c0.05787 0.08116 0.1642 0.25474 0.1642 0.25474l-0.03122 0.02424s-0.10633-0.1736-0.1642-0.25474c-0.05788-0.08115-0.18304-0.23214-0.18304-0.23214z" stroke-width=".06243"/><path d="m15.578 13.514s0.05572 0.09925 0.07535 0.15826c0.01962 0.05899 0.06824 0.21756 0.06824 0.21756l-0.01034 0.02591s-0.04863-0.15856-0.06824-0.21756c-0.01963-0.05899-0.07535-0.15826-0.07535-0.15826z" stroke-width=".033338"/><path d="m15.6 15.118s0.01635 0.23912 0.02538 0.36367c0.0091 0.12455 0.02072 0.38614 0.02072 0.38614s-0.05085-0.2551-0.05992-0.37965c-0.0091-0.12454-0.02537-0.36367-0.02537-0.36367z" stroke-width=".069932"/></g><g fill="#525252"><path d="m1.3362 14.987 2.2882 0.62241-2.267-0.98962z"/><path d="m1.364 12.695s-0.052667 0.19904-0.068081 0.32722c-0.015413 0.12818-0.024412 0.44185-0.024412 0.44185l0.49612-0.66197s-0.074497 0.01342-0.21-0.02625c-0.1355-0.03968-0.19363-0.08084-0.19363-0.08084z"/><path d="m1.2784 13.657s-0.045177 0.12934-0.095224 0.30042c-0.050041 0.17108-0.068642 0.37389-0.068642 0.37389l1.6058 0.06141s-0.8854-0.17111-1.135-0.35763c-0.24962-0.18653-0.30693-0.3781-0.30693-0.3781z"/></g><path d="m8.0453 1.5124c0.1036 0.13887 0.27711-0.17973 0.33679-0.060733 0.059673 0.119-0.34909 0.45821-0.34909 0.45821-0.11357-0.12046 0.020474-0.33028-0.16306-0.25152 0.00394-0.075598 0.00713-0.10979 0.064467-0.19665 0.061704-0.10813 0.093214 0.027002 0.11089 0.050701z" fill="#f2f27a"/><path d="m8.9144 1.0097c0.08375 0.053089 0.045464-0.2774 0.13379-0.25786-0.034246 0.17205-0.19235 0.76942-0.20556 0.9631-0.0095512-0.16597 0.0289-0.33737-0.001082-0.42393-0.029982-0.086564-0.10223-0.16759-0.17498-0.25596 0.10519 0.027315 0.14469 0.14719 0.15128 0.098615-0.055961-0.28082-0.092397-0.27615-0.31681-0.3852 0.30694-0.08861 0.38873 0.24563 0.41335 0.26123z" fill="#c3c312"/><path d="m7.5142 2.2724c-0.41907 0.51101-0.63731 0.69887-0.81103 0.92164-0.17372 0.22276-0.15046 0.43279-0.3915 1.0834 0.29669-0.47693 0.22375-0.70545 0.42162-1.0007 0.19787-0.29528 0.51408-0.60968 0.78091-1.0043z" fill="#c3c312"/><path d="m5.7386 13.757 0.00351 1.2896 0.23443-0.08131s0.027828-1.158 0.20924-1.448c0.36282-0.58004 1.8636-1.6854 1.8636-1.6854l-1.978 0.77228-0.82923-0.4219z" fill="#525252"/><path d="m8.5472 11.717 2.4641 0.82377 0.68127-0.44445-0.62874 0.69853-2.5194-0.64636z" fill="#525252"/><g fill="#a8a8a8" stroke-width=".013229"><path d="m7.3438 9.3645 0.51989 0.59982-0.00772 0.12378-0.51122-0.48574z"/><path d="m10.836 9.6315 0.3596 0.70764-0.03737 0.11825-0.37875-0.59484z"/><path d="m11.885 6.6829 2.1233 0.8057-0.05011 0.046944-2.1139-0.75762z"/><path d="m14.148 7.5428 1.1994 0.98018-0.07533 0.042332-1.1787-0.96682z"/></g><path d="m4.8935 5.5941c-0.0046076 0.10716 1.2325 2.8572 1.3907 3.234-0.4352 0.17179-1.1431 0.36866-1.6094 0.50937 0.16961 0.13252 0.20288 0.21624 0.027268 0.36539l0.00846 0.00869c0.10144 0.025946 1.4016-0.46624 1.6091-0.50169 0.10089-0.017182 0.35667-0.12216 0.38639-0.2435-0.054538-0.29723-0.34876-0.86768-0.47774-1.1693l-0.62117-1.4556c-0.065443-0.15297-0.34903-0.78914-0.34903-0.78914s-0.29831-0.040904-0.36457 0.041719zm3.5653 1.2462-0.0054595 0.33594 2.2987-1.2478-0.068719-0.24078zm0 0.36485-0.00546 0.33594 2.2987-1.2478-0.02727-0.29722zm0 0.36485-0.00546 0.33594 2.2987-1.2478-0.02727-0.29722zm0 0.36485-0.00546 0.33594 2.2987-1.2478-0.02727-0.29722zm0 0.36485-0.00546 0.33622 2.2987-1.2481-0.02727-0.29722z" fill="#626262" stroke="#000" stroke-width=".072147"/><path d="m4.9161 5.7473a0.095438 0.095438 0 0 0-0.031361 0.05999c-0.061899 0.32258-0.010362 0.54318 0.13634 0.82486 0.067352 0.040083 0.031356-0.018271 0.1317-9e-3 0.31413 0.74987 0.64925 1.4869 0.97565 2.2311 0.040083-0.0076 0.055901-0.017182 0.093258-0.034637l0.01227-0.041448c-0.086165-0.19632-0.19142-0.45592-0.2735-0.64679z" fill="#3a3a3a" stroke="#000" stroke-width=".072147"/><g transform="matrix(.96031 0 0 1 .056855 .077138)"><path d="m9.369 0.66782c-0.020671 0.09532-0.29091 1.0363-0.1957 1.0634 0.22155 0.063032 0.31394 0.1368 0.57476 0.60096 0.37605 0.49751 0.11606 0.26456 0.79323 0.95135 0.19624 1.3085-0.2629 1.5703 0.30863 2.3745 0.52096 0.73299-0.03102 2.2776 0.26037 1.809 0.63724-1.0248 0.63062-1.4711 0.38509-2.1689-0.24513-0.67744-0.20883-0.74607-0.25726-1.2472-0.048428-0.5011 0.060312-0.99315-0.17874-1.6509s-0.76391-1.7383-1.6904-1.7322z" fill="#e1e219" stroke="#000" stroke-width=".013229"/><path d="m10.047 0.93577c0.05151 0.04307 0.21357 0.070893 0.53086 0.5273 0.15865 0.2282 0.17412 0.29759 0.23626 0.41659s0.13692 0.3007 0.13692 0.3007c-0.4817-0.56991-0.41337-0.48199-0.62558-0.57137-0.13098 4.656e-4 -0.27486 0.28079-0.27486 0.28079s-0.073871 0.00537-0.088097-0.013089c-0.014226-0.018458 0.00274-0.097662 0.00274-0.097662s0.2651-0.30112 0.32481-0.38798c-0.05707-0.22432-0.32159-0.42146-0.32159-0.42146-0.094928-0.11384 0.01745-0.077916 0.078523-0.033818z" fill="#f2f27a"/></g><path d="m9.0538 1.0441c-0.057236-0.011816 0.011908-0.15386-0.003127-0.2619-0.04557 0.16795-0.14443 0.56345-0.17143 0.75658 0.074243-0.25129 0.1119-0.31484 0.21316-0.22725-0.033456-0.11196-0.12984-0.061018-0.11506-0.10759 0.00502-0.050129 0.075391-0.12555 0.1582-0.078994-0.00805-0.042671-0.024515-0.069023-0.08175-0.080839z" fill="#c3c312"/><style>
				.filled {
					cursor: pointer;
					transition: fill 0.3s;
				}

				.filled:hover {
					fill: #7711AA;
				}

				.filled.built {
					fill: #7711AA;
				}

				.filled.built:hover {
					fill: inherit;
				}
			</style></svg>
