<svg xmlns="http://www.w3.org/2000/svg" xml:space="preserve" width="199.082" height="195.012" viewBox="0 0 52.674 51.597"><path d="m74.748 61.003 3.1 11.88-8.315 2.38-3.182-11.936ZM31.955 61.003l-3.1 11.88 8.315 2.38 3.57-12.62z" style="display:inline;fill:#000;fill-opacity:1;stroke:#000;stroke-width:.264583;stroke-dasharray:none;stroke-dashoffset:0;stroke-opacity:1" transform="translate(-26.701 -29.477)"/><path d="m79.239 58.984-2.695-2.9-10.803 3.919.674 3.67 12.674-2.582zM26.85 59.25l2.924-3.128 10.803 3.918-.674 3.67-13.069-2.602z" style="display:inline;fill:#000;fill-opacity:1;stroke:#000;stroke-width:.264583;stroke-dasharray:none;stroke-dashoffset:0;stroke-opacity:1" transform="translate(-26.701 -29.477)"/><path d="m40.27 52.834.145 12.856 2.345 8.71.815 6.542 19.797-.03.691-6.46 2.604-8.627.899-12.9z" style="display:inline;fill:#000;fill-opacity:1;stroke:#000;stroke-width:.264583;stroke-dasharray:none;stroke-dashoffset:0;stroke-opacity:1" transform="translate(-26.701 -29.477)"/><path d="M48.75 43.88c-1.259.237-1.975.008-3.589 1.133-.38.264-.077 6.982-.077 6.982l8.332 4.608 8.76-4.871s.173-5.48-.391-6.59c-.548-1.075-2.19-1.09-3.377-1.309-3.165-.584-6.493-.547-9.657.047z" style="display:inline;fill:#000;fill-opacity:1;stroke:#000;stroke-width:.264583;stroke-dasharray:none;stroke-dashoffset:0;stroke-opacity:1" transform="translate(-26.701 -29.477)"/><path fill="#626262" d="m67.299 67.876 3.589-1.137c.889.508 1.104.849 1.104.849l.245.968s-.287.71-.561 1.135c-.498.205-3.577 1.382-3.577 1.382zM68.307 71.6s2.586-1.009 3.458-1.259c.488.25.744.457 1.212.741.09.346.229.828.273 1.18-.16.313-.336.77-.509 1.052-.504.26-2.489 1.26-3.54 1.555-.31-1.073-.894-3.27-.894-3.27zM76.28 65.954s.981 2.504 1.167 3.184c.02.076-2.481.147-3.576.21-.354-.23-1.3-.953-1.3-.953l-.197-.808s.595-1.034.754-1.288c.63-.159 3.152-.345 3.152-.345zM77.173 69.524s.885 2.398.896 2.618l-3.771.229-.707-.54-.198-1.09.62-.914z" style="display:inline;stroke:#000;stroke-width:.264583;stroke-dasharray:none;stroke-opacity:1" transform="translate(-26.701 -29.477)"/><path fill="#e4d8c1" d="M51.584 30.31c2.613-1.025 7.233-1.496 6.558 2.762.465-.036.803-.077 1.163.273 1.084 1.05.422 3.55.19 4.88.201-.075.508-.2.708-.25.077.539.264 1.412.406 1.956-.479.762-.906 1.606-1.423 2.337-.13.183-.585.144-.748.094-.431.504-.734.848-1.213 1.302-.192 1.117-.343 2.239-.57 3.35l-3.457 1.488c-.215-.014-1.489-.33-3.392-1.418-.23-.884-.485-2.557-.665-3.505a25 25 0 0 1-1.183-1.212l-.19-.038c-.172.074-.277.213-.54-.019-.491-.618-1.03-1.709-1.45-2.352.139-.523.325-1.491.476-1.919.354-.102.328.15.458-.053.027-.601-.407-3.06-.505-3.833l1.939-1.515-1.626-.46c1.4-1.403 2.924-2.971 5.064-1.868z" style="display:inline;fill:#e4d8c1;fill-opacity:1;stroke:#000;stroke-width:.264583;stroke-dasharray:none;stroke-opacity:1" transform="translate(-26.701 -29.477)"/><path fill="#3b3f0a" d="M51.584 30.31c2.613-1.025 7.233-1.496 6.558 2.762.465-.036.803-.077 1.163.273 1.084 1.05.422 3.55.19 4.88.1-.038-.25 1.818-.458 2.57-.075.268-.705.249-.703.127.014-.806.034-1.618.059-2.425l-.423-.4c-.18-.934-.448-2.299-.553-3.224q-2.172.492-4.32 1.07-2.01-.545-4.003-1.147c-.307 1.269-.383 2.798-1.14 3.732-.008.495.033 2.396-.144 2.695-.235.043-.305.027-.535-.002-.104-.103-.078-.045-.111-.165-.013-.183-.016-.367-.03-.549-.061-.376.013-.655-.139-.929.088-.34.07-.692.09-1.043l-.047-.119c-.16-.127-.326-.43-.326-.43-.001-.164-.407-3.06-.505-3.833l1.939-1.516-1.626-.46c1.4-1.402 2.924-2.97 5.064-1.867z" style="display:inline;fill:#3b3f0a;fill-opacity:1;stroke:#000;stroke-width:.264583;stroke-dasharray:none;stroke-opacity:1" transform="translate(-26.701 -29.477)"/><path fill="#424242" d="M46.231 38.6c.216.211.505.624.679.88l-.006.099c-.394 1-.382.304-.014 1.263-.178-.166-.315-.342-.468-.53.116-.257.238-.5.358-.754-.223-.33-.432-.578-.55-.959zM59.772 40.507l-.068.055c-.032.027-.119.12-.166.1-.052-.068.159-.32.133-.405-.16-.522-.398-.707.053-1.21.028-.031.223-.287.283-.218.008.069-.367.563-.458.704l-.03.045q.166.325.352.639c-.067.13-.069.142-.1.29" style="display:inline;stroke-width:.264583;stroke-dasharray:none" transform="translate(-26.701 -29.477)"/><path fill="#fffffb" d="M49.304 40.107c.522-.228.83-.442 1.234-.393.405.05.907.362 1.176.623-.53.326-.898.507-1.25.487-.353-.02-.69-.24-1.16-.717z" style="display:inline;fill:#fffbfb;fill-opacity:1;stroke:#000;stroke-width:.132292;stroke-dasharray:none;stroke-opacity:1" transform="translate(-26.701 -29.477)"/><path fill="#424242" d="M52.939 40.882c0-.385-.044-.694.064-1.067.127.215.083 3.477.07 4.046.266-.18.947-.513 1.048-.64l.051-.325.095-.053c.209.641-.838.92-1.293 1.215-.477-.33-1.2-.535-1.13-1.131l.076-.023c.093.12.077.197.085.358.21.202.579.351.832.52.153-.292.102-2.342.102-2.9z" style="display:inline;stroke-width:.264583;stroke-dasharray:none" transform="translate(-26.701 -29.477)"/><path fill="#161515" d="M51.115 45.37c.51-.076 3.996-.092 4.352.065-.57.065-3.967.12-4.352-.066" style="display:inline;stroke-width:.264583;stroke-dasharray:none" transform="translate(-26.701 -29.477)"/><path fill="#242121" d="M51.939 46.231c.445-.042 1.924-.103 2.296.066-.428.061-1.931.12-2.296-.066z" style="display:inline;stroke:#000;stroke-width:.264583;stroke-dasharray:none;stroke-opacity:1" transform="translate(-26.701 -29.477)"/><path fill="#757575" d="M40.935 65.567s3.373 2.267 4.63 3.315c2.55-.884 5.098-1.7 7.667-2.531l-.019 4.15c-2.398.949-9.785 3.478-9.785 3.478s-1.714-5.594-2.493-8.412zM61.26 68.948s3.208-2.187 4.79-3.413a657 657 0 0 0-2.528 8.414c-4.404-1.546-6.393-2.1-9.864-3.42l-.003-4.19z" style="display:inline;stroke:#000;stroke-width:.264583;stroke-dasharray:none;stroke-opacity:1" transform="translate(-26.701 -29.477)"/><path fill="#626262" d="M75.555 62.587c.15.303 1.015 2.635 1.043 2.902-.218 0-2.362.211-3.553.357-.464-.343-1.237-.927-1.237-.927l-.218-1.11.63-.84s3.319-.392 3.335-.382z" style="display:inline;stroke:#000;stroke-width:.264583;stroke-dasharray:none;stroke-opacity:1" transform="translate(-26.701 -29.477)"/><path fill="#626262" d="M28.85 58.01c4.46 1.219 9.796 2.565 9.796 2.565l-1.177 2.25s-7.695-1.743-10.432-2.225l.373-1.447z" style="display:inline;fill:#4b4b4b;fill-opacity:1;stroke:#000;stroke-width:.264583;stroke-dasharray:none;stroke-opacity:1" transform="translate(-26.701 -29.477)"/><path fill="#626262" d="M77.524 57.82s1.42 1.145 1.486 1.252c.001.349-.094 1.585-.18 1.9-2.69.648-9.01 1.846-9.01 1.846l-1.364-2.223z" style="display:inline;stroke:#000;stroke-width:.264583;stroke-dasharray:none;stroke-opacity:1" transform="translate(-26.701 -29.477)"/><path fill="#626262" d="M36.91 63.243s2.54.691 3.607 1.05c.211.07-.32 2.681-.547 3.223-.01.023-4.207-1.282-4.207-1.282l-.689-1.194.159-1.087zM35.806 66.761s2.27.73 3.432 1.062l-.586 3.365c-1.092-.474-4.006-1.635-4.006-1.635l-.26-1.033.229-.898zM34.896 70.361s2.353.761 3.413 1.138c-.021.366-.497 2.856-.644 3.353-1.128-.326-3.702-1.493-3.702-1.493l-.644-1.288.364-1.016zM30.148 65.985l3.34.37.75 1.255-.17.832-1.353.907-3.461-.424zM31.243 62.454c1.016.143 3.101.415 3.101.415l.542.972-.246 1.14-1.078.866s-3.464-.552-3.33-.68c.372-.814.675-1.886 1.011-2.713zM29.368 69.3l3.277.704.624 1.111-.412 1.091-1.158.597-2.991-.65z" style="display:inline;fill:#565656;fill-opacity:1;stroke:#000;stroke-width:.264583;stroke-dasharray:none;stroke-opacity:1" transform="translate(-26.701 -29.477)"/><path fill="#757575" d="m62.126 51.683.05.049c-.028.835-1.713 3.776-2.052 4.869-.096.307-.14.674.022.967.327.59 4.786 1.698 5.625 1.936-.024 1.822 0 3.703.003 5.529-1.248.881-3.398 1.977-4.7 2.756l-1.528-.559c-1.779-.72-4.167-1.634-5.96-2.241l.003-8.668zM45.288 52.108s2.552 1.304 3.009 1.562c1.637.922 3.528 1.771 5.119 2.688-.055 2.783.012 5.806.02 8.608-1.9.57-4.27 1.508-6.21 2.181-.54.19-1.083.394-1.622.59-1.313-.963-3.086-1.82-4.382-2.83l.016-5.334z" style="display:inline;stroke:#000;stroke-width:.264583;stroke-dasharray:none;stroke-opacity:1" transform="translate(-26.701 -29.477)"/><path fill="#757575" d="M41.225 48.779c.138.09 3.291 7.374 3.565 8.09-1.623.442-3.625 1.095-5.238 1.624-.445-.472-.92-.946-1.373-1.412l-5.267-5.334c.955-.409 2.294-.832 3.3-1.193 1.65-.591 3.355-1.226 5.013-1.775zM65.969 48.72c2.182.945 4.554 1.658 6.762 2.57.431.177.93.346 1.382.453l-5.019 5.274-1.389 1.486c-1.486-.553-3.651-1.161-5.212-1.65 1.166-2.562 2.362-5.524 3.476-8.133z" style="display:inline;stroke:#000;stroke-width:.264583;stroke-dasharray:none;stroke-opacity:1" transform="translate(-26.701 -29.477)"/><path fill="#757575" d="M74.113 51.743c.054.036 4.167 3.24 4.848 3.898-.38.212-.836.385-1.248.53-3.09 1.078-6.103 2.369-9.18 3.475l-.288.034.03-.059c.331-.64.011-.906-.546-1.157a573 573 0 0 0 6.384-6.72zM39.805 59.748a.535.535 0 0 1-.7-.049.54.54 0 0 1-.053-.702.536.536 0 0 1 .968.321.54.54 0 0 1-.215.43z" style="display:inline;stroke:#000;stroke-width:.264583;stroke-dasharray:none;stroke-opacity:1" transform="translate(-26.701 -29.477)"/><path fill="#626262" d="M66.785 44.862c.017.393-4.52 10.478-5.1 11.86 1.596.63 4.192 1.352 5.902 1.868-.622.486-.744.793-.1 1.34l-.031.032c-.372.095-5.14-1.71-5.901-1.84-.37-.063-1.308-.448-1.417-.893.2-1.09 1.279-3.182 1.752-4.288l2.278-5.338c.24-.561 1.28-2.894 1.28-2.894s1.094-.15 1.337.153z" style="display:inline;stroke:#000;stroke-width:.264583;stroke-dasharray:none;stroke-opacity:1" transform="translate(-26.701 -29.477)"/><path fill="#626262" d="M66.782 45.424a.35.35 0 0 1 .114.22c.227 1.183.039 1.992-.499 3.025-.247.147-.17-.103-.538-.069a546 546 0 0 1-3.524 8.218c-.147-.028-.205-.063-.342-.127l-.045-.152c.316-.72.702-1.672 1.004-2.372z" style="display:inline;stroke:#000;stroke-width:.264583;stroke-dasharray:none;stroke-opacity:1" transform="translate(-26.701 -29.477)"/><path fill="#757575" d="M67.563 58.741a.548.548 0 1 1 .43 1.007.545.545 0 0 1-.713-.289.55.55 0 0 1 .283-.718z" style="display:inline;stroke:#000;stroke-width:.264583;stroke-dasharray:none;stroke-opacity:1" transform="translate(-26.701 -29.477)"/><path fill="#20486b" d="M50.916 40.266a.41.41 0 0 1-.41.41.41.41 0 0 1-.41-.41.41.41 0 0 1 .41-.41.41.41 0 0 1 .41.41" style="display:inline;fill:#20486b;stroke-width:.264583" transform="translate(-26.701 -29.477)"/><path fill="#fffffb" d="M56.86 40.233c-.52-.228-.828-.442-1.233-.392s-.907.361-1.177.622c.531.326.899.507 1.251.487.353-.02.69-.24 1.16-.717z" style="display:inline;fill:#fffffb;fill-opacity:1;stroke:#000;stroke-width:.132;stroke-dasharray:none;stroke-opacity:1" transform="translate(-26.701 -29.477)"/><path fill="#20486b" d="M55.249 40.392a.41.41 0 0 0 .41.41.41.41 0 0 0 .409-.41.41.41 0 0 0-.41-.41.41.41 0 0 0-.41.41" style="display:inline;fill:#20486b;stroke-width:.264583" transform="translate(-26.701 -29.477)"/><path fill="#242121" d="M49.647 38.839c.49.055 2.31.508 2.93.651-.016.33-.043.645-.063.973-.2-.035-.457-.107-.659-.16-1.153-.25-2.075-.35-3.182-.567.312-.314.647-.6.974-.897" style="display:inline;fill:#0a3f26;fill-opacity:1;stroke-width:.264583;stroke-dasharray:none" transform="translate(-26.701 -29.477)"/><path fill="#3f330a" d="M56.995 38.839c-.49.055-2.31.508-2.93.651.016.33.043.645.063.973.2-.035.457-.107.659-.16 1.153-.25 2.075-.35 3.182-.567-.311-.314-.647-.6-.974-.897" style="display:inline;fill:#3f330a;fill-opacity:1;stroke-width:.264583;stroke-dasharray:none" transform="translate(-26.701 -29.477)"/><path d="M47.992 42.444c-.01.334.81 5.156.95 5.553l4.353 2.868c.296-.119 4.236-2.101 4.385-2.312l.758-6.191-1.213 1.302-.57 3.35-3.457 1.488-3.166-1.594-.89-3.329z" style="display:inline;fill:#000;fill-opacity:1;stroke:none;stroke-width:.264583;stroke-dasharray:none;stroke-dashoffset:0;stroke-opacity:1" transform="translate(-26.701 -29.477)"/><path fill="#626262" d="M70.02 63.169c-1.074.326-3.602 1.051-3.602 1.051l.5 3.21s2.557-.816 3.951-1.228c.217-.4.527-1.194.527-1.194l-.159-1.087z" style="display:inline;stroke:#000;stroke-width:.264583;stroke-dasharray:none;stroke-opacity:1" transform="translate(-26.701 -29.477)"/><path fill="#626262" d="M40.533 45.424a.35.35 0 0 0-.115.22c-.227 1.183-.038 1.992.5 3.025.247.147.115-.067.483-.033 1.152 2.75 2.381 5.453 3.578 8.182.147-.028.205-.063.342-.127l.045-.152c-.316-.72-.702-1.672-1.003-2.372z" style="display:inline;fill:#3a3a3a;fill-opacity:1;stroke:#000;stroke-width:.264583;stroke-dasharray:none;stroke-opacity:1" transform="translate(-26.701 -29.477)"/><path fill="#757575" d="M32.995 51.854c-.246.164-.432.32-.66.508a2 2 0 0 0-.43.364c-.099.037-.09.026-.15.101-.205.144-.262.183-.443.365-.05.019-.042.016-.084.053l-.33.268c-.043.022-.037.02-.071.059-.266.208-.686.518-.922.74-.118.055-.126.09-.21.195-.064.021-.057.019-.114.056l-.272.213c-.085.042-.077.033-.134.104-.128.082-.229.135-.324.256a7 7 0 0 0-.704.616c.38.212.836.385 1.248.53 3.09 1.079 6.103 2.369 9.18 3.476q.145.015.288.034l-.03-.06c-.331-.64-.011-.906.546-1.157a573 573 0 0 1-6.384-6.72z" style="display:inline;stroke:#000;stroke-width:.264583;stroke-dasharray:none;stroke-opacity:1" transform="translate(-26.701 -29.477)"/><path fill="#626262" d="M40.45 44.862c-.017.393 4.52 10.478 5.1 11.86-1.596.63-4.192 1.352-5.902 1.868.622.486.744.793.1 1.34l.031.032c.372.095 5.14-1.71 5.901-1.84.37-.063 1.308-.448 1.417-.893-.2-1.09-1.279-3.182-1.752-4.288l-2.278-5.338c-.24-.561-1.28-2.894-1.28-2.894s-1.094-.15-1.337.153zM53.525 49.432l-.02 1.232 8.43-4.576-.252-.883zM53.525 50.77l-.02 1.232 8.43-4.576-.1-1.09zM53.525 52.108l-.02 1.232 8.43-4.576-.1-1.09zM53.525 53.446l-.02 1.232 8.43-4.576-.1-1.09zM53.525 54.784l-.02 1.233 8.43-4.577-.1-1.09z" style="display:inline;stroke:#000;stroke-width:.264583;stroke-dasharray:none;stroke-opacity:1" transform="translate(-26.701 -29.477)"/><path fill="#626262" d="m53.486 49.432.02 1.232-8.431-4.576.226-.865zM53.486 50.77l.02 1.232-8.431-4.576.1-1.09zM53.486 52.108l.02 1.232-8.431-4.576.1-1.09zM53.486 53.446l.02 1.232-8.431-4.576.1-1.09zM53.486 54.784l.02 1.233-8.431-4.577.1-1.09z" style="display:inline;fill:#4a4a4a;fill-opacity:1;stroke:#000;stroke-width:.264583;stroke-dasharray:none;stroke-opacity:1" transform="translate(-26.701 -29.477)"/><path d="m44.417 79.46-.728-4.66 9.743-3.535 9.68 3.558-.265 4.65z" style="display:inline;fill:#757575;fill-opacity:1;stroke:#000;stroke-width:.264583;stroke-dasharray:none;stroke-dashoffset:0;stroke-opacity:1" transform="translate(-26.701 -29.477)"/><path fill="#757575" d="M40.935 65.567s3.373 2.267 4.63 3.315c2.55-.884 5.098-1.7 7.667-2.531l-.019 4.15c-2.398.949-9.785 3.478-9.785 3.478s-1.714-5.594-2.493-8.412z" style="display:inline;stroke:#000;stroke-width:.264583;stroke-dasharray:none;stroke-opacity:1" transform="translate(-26.701 -29.477)"/><path d="M60.07 58.253c-.15.714-.268 1.003-.268 1.003l5.151 1.454.013 1.485.663.11-.013-2.39zM66.039 48.917l-.146.376 7.746 2.73.207-.201zM74.093 51.936l-.247.32 4.7 3.423.197-.065zM48.455 58.494l-.379.536 2.641 2.106.162-.216z" style="fill:#fff;fill-opacity:.740864;stroke:none;stroke-width:.132292;stroke-dasharray:none;stroke-dashoffset:0;stroke-opacity:1" transform="translate(-26.701 -29.477)"/><path d="m41.227 63.247-.005 1.66 4.382 2.83 4.46-1.758-4.343.85zM65.902 63.444l.005 1.66-4.383 2.83-4.459-1.758 3.992.866z" style="fill:#000;fill-opacity:.355482;stroke:none;stroke-width:.132292;stroke-dasharray:none;stroke-dashoffset:0;stroke-opacity:1" transform="translate(-26.701 -29.477)"/><path d="m66.911 64.211-.343.104.46 2.95.342-.116zM67.806 67.86l-.36.104.737 2.967.339-.141zM68.78 71.532l-.32.156.83 3.084.286-.181z" style="fill:#000;fill-opacity:.356863;stroke:none;stroke-width:.132292;stroke-dasharray:none;stroke-dashoffset:0;stroke-opacity:1" transform="translate(-26.701 -29.477)"/><path d="m77.083 69.669-.068.022.764 2.334.13.01c-.242-.897-.826-2.366-.826-2.366M76.192 66.093l-.07.007 1.088 2.951.072-.001c-.255-.853-1.09-2.957-1.09-2.957M75.947 63.979l.358 1.402.125-.015c-.255-.852-.483-1.387-.483-1.387M78.865 59.121l-.306-.267.201.333-.153 1.707.141-.031z" style="fill:#fff;fill-opacity:.740864;stroke:none;stroke-width:.132292;stroke-dasharray:none;stroke-dashoffset:0;stroke-opacity:1" transform="translate(-26.701 -29.477)"/><path d="m53.836 66.401-.18.468 7.527 2.556 4.612-3.06.015-.498-4.553 3.033zM40.935 65.567l.376 1.328 2.117 7.084.547-3.105 1.34-1.229 4.455-2.022-4.205 1.259z" style="fill:#000;fill-opacity:.355482;stroke:none;stroke-width:.132292;stroke-dasharray:none;stroke-dashoffset:0;stroke-opacity:1" transform="translate(-26.701 -29.477)"/><path d="m44.226 78.237.395 1.223 18.226.014.069-1.197-9.775-1.024-7.197.4-1.186-3.24-1.069.388z" style="fill:#000;fill-opacity:.356863;stroke:none;stroke-width:.132292;stroke-dasharray:none;stroke-dashoffset:0;stroke-opacity:1" transform="translate(-26.701 -29.477)"/><path d="M66.78 45.743s.056 1.053-.062 1.567c-.106.463-.437 1.279-.437 1.279s.113-.173.22-.424c.108-.25.21-.579.274-.832.069-.271.094-.65.078-.979a4.5 4.5 0 0 0-.073-.61M66.637 44.913c-.012-.051-.283-.108-.49-.104-.216.004-.397.006-.613.023.03.02.531.02.602.027.1.01.503.063.501.054" style="fill:#fff;fill-opacity:.740864;stroke:none;stroke-width:.132292;stroke-dasharray:none;stroke-dashoffset:0;stroke-opacity:1" transform="translate(-26.701 -29.477)"/><path d="m52.95 40.061-.451 3.525s.31.201.338.195c.03-.006.027-.077.038-.124.01-.048.014-.092.03-.216.014-.118.025-.386.035-.694s.007-.627.007-.627z" style="fill:#000;fill-opacity:.149502;stroke:none;stroke-width:.132292;stroke-dasharray:none;stroke-dashoffset:0;stroke-opacity:1" transform="translate(-26.701 -29.477)"/><path d="m56.755 41.688-.687.67.609-.13zM60.095 38.157l.182 1.748.19.021z" style="fill:#fff;fill-opacity:.471761;stroke:none;stroke-width:.132292;stroke-dasharray:none;stroke-dashoffset:0;stroke-opacity:1" transform="translate(-26.701 -29.477)"/><path d="m45.777 39.958.477-1.919.458-.053-.492-3.736 2.874.546-.42 4.94 1.367 2.883.26 4.108L53 48.07l.048.356-3.016-1.518-.89-3.329-1.184-1.212-.73-.057z" style="fill:#000;fill-opacity:.27907;stroke:none;stroke-width:.132292;stroke-dasharray:none;stroke-dashoffset:0;stroke-opacity:1" transform="translate(-26.701 -29.477)"/><path d="m53.365 43.309-.2.494.326-.388zM56.765 30.296c-.06.037.428.448.428.448s.605.738.658.623c.111-.243-.653-1.338-1.086-1.071M58.442 33.355c-.06.037.427.45.427.45s.606.737.658.622c.112-.243-.652-1.339-1.085-1.072M55.916 40.368l-.09.2.028.021.165-.164zM50.694 40.242l-.09.201.029.02.165-.164z" style="fill:#fff;fill-opacity:.471761;stroke:none;stroke-width:.132292;stroke-dasharray:none;stroke-dashoffset:0;stroke-opacity:1" transform="translate(-26.701 -29.477)"/><path d="m40.925 44.827-.037.126.755-.036.273.426-.228-.527z" style="fill:#fff;fill-opacity:.740864;stroke:none;stroke-width:.132292;stroke-dasharray:none;stroke-dashoffset:0;stroke-opacity:1" transform="translate(-26.701 -29.477)"/><path d="m41.158 48.916-.798.3 3.571 7.896.86-.243z" style="fill:#000;fill-opacity:.356863;stroke:none;stroke-width:.132292;stroke-dasharray:none;stroke-dashoffset:0;stroke-opacity:1" transform="translate(-26.701 -29.477)"/><path d="m61.613 45.383-.195.123.266.581.083-.08zM61.715 46.54l-.188.117.193.756.076-.056z" style="fill:#fff;fill-opacity:.740864;stroke:none;stroke-width:.132292;stroke-dasharray:none;stroke-dashoffset:0;stroke-opacity:1" transform="translate(-26.701 -29.477)"/></svg>