<?xml version="1.0" encoding="UTF-8"?>
<!-- Created with Inkscape (http://www.inkscape.org/) -->
<svg width="64" height="64" version="1.1" viewBox="0 0 16.933 16.933" xmlns="http://www.w3.org/2000/svg" xmlns:xlink="http://www.w3.org/1999/xlink"><defs><linearGradient id="linearGradient132"><stop stop-color="#a8a8a8" offset="0"/><stop stop-color="#e5e5e5" offset=".2061"/><stop stop-color="#8f8f8f" offset="1"/></linearGradient><linearGradient id="linearGradient126"><stop offset="0"/><stop stop-color="#910000" offset=".2363"/></linearGradient><linearGradient id="linearGradient599" x1="7.618" x2="7.618" y1="10.887" y2="13.609" gradientTransform="matrix(.65577 -.0027478 .004009 .95673 -.74091 3.3202)" gradientUnits="userSpaceOnUse" xlink:href="#linearGradient126"/><linearGradient id="linearGradient600" x1="8.6812" x2="4.8292" y1="2.4478" y2="4.1206" gradientTransform="matrix(.7811 -.0020083 .003273 .47928 -1.6851 8.3474)" gradientUnits="userSpaceOnUse" xlink:href="#linearGradient132"/></defs><g transform="translate(-.71876)" stroke="#000"><g transform="matrix(2.0692 0 0 2.0692 -4.1384 -16.266)"><path d="m3.9713 13.753 0.746 0.0053-0.018355 1.6015-0.73715-0.01752z" fill="url(#linearGradient599)" stroke-width=".040453"/><g transform="matrix(.40941 -.41285 .41285 .40941 -2.3752 10.394)"><g fill="#fff"><path transform="matrix(-.70312 -.71107 .69618 -.71787 0 0)" d="m-11.988-7.9373 1.2082-0.00166-0.0065 0.19078-1.2089-7.689e-4z" stroke-width=".016952"/><g stroke-width=".01695"><path d="m3.1313 13.998-0.85064-0.85791 0.13739-0.13233 0.84949 0.8602z"/><path d="m3.3638 13.765-0.85064-0.85791 0.13739-0.13233 0.84949 0.8602z"/><path d="m3.6045 13.545-0.85064-0.85791 0.13739-0.13233 0.84949 0.8602z"/></g></g><path d="m1.6194 13.566 1.0609 1.1383-0.27111 0.25269-0.65573-0.4524-0.4052-0.6859z" fill="#545454" stroke-width=".017276"/></g><g><path d="m4.9709 8.8525-0.26789 2.3271 0.19579 2.3696-1.0596 0.009375 0.1863-2.374-0.30807-2.2073 0.61798-0.67392z" fill="url(#linearGradient600)" stroke-width=".016189"/><path d="m4.3438 13.565-0.0038465-5.2552" fill="#a2a2a2" stroke-width=".016189"/><path d="m3.1884 13.37 1.1167 0.17417 1.1801-0.10022-0.0038 0.3479-1.1561 0.05175-1.1407-0.12569z" fill="#414141" stroke-width=".015384"/></g></g><g transform="matrix(2.0692 0 0 2.0692 4.5696 -16.266)"><path d="m3.9713 13.753 0.746 0.0053-0.018355 1.6015-0.73715-0.01752z" fill="url(#linearGradient599)" stroke-width=".040453"/><g transform="matrix(.40941 -.41285 .41285 .40941 -2.3752 10.394)"><g fill="#fff"><path transform="matrix(-.70312 -.71107 .69618 -.71787 0 0)" d="m-11.988-7.9373 1.2082-0.00166-0.0065 0.19078-1.2089-7.689e-4z" stroke-width=".016952"/><g stroke-width=".01695"><path d="m3.1313 13.998-0.85064-0.85791 0.13739-0.13233 0.84949 0.8602z"/><path d="m3.3638 13.765-0.85064-0.85791 0.13739-0.13233 0.84949 0.8602z"/><path d="m3.6045 13.545-0.85064-0.85791 0.13739-0.13233 0.84949 0.8602z"/></g></g><path d="m1.6194 13.566 1.0609 1.1383-0.27111 0.25269-0.65573-0.4524-0.4052-0.6859z" fill="#545454" stroke-width=".017276"/></g><g><path d="m4.9709 8.8525-0.26789 2.3271 0.19579 2.3696-1.0596 0.009375 0.1863-2.374-0.30807-2.2073 0.61798-0.67392z" fill="url(#linearGradient600)" stroke-width=".016189"/><path d="m4.3438 13.565-0.0038465-5.2552" fill="#a2a2a2" stroke-width=".016189"/><path d="m3.1884 13.37 1.1167 0.17417 1.1801-0.10022-0.0038 0.3479-1.1561 0.05175-1.1407-0.12569z" fill="#414141" stroke-width=".015384"/></g></g></g></svg>
