<?xml version="1.0" encoding="UTF-8"?>
<!-- Created with Inkscape (http://www.inkscape.org/) -->
<svg width="64" height="64" version="1.1" viewBox="0 0 16.933 16.933" xmlns="http://www.w3.org/2000/svg" xmlns:xlink="http://www.w3.org/1999/xlink"><defs><linearGradient id="linearGradient140" x1="7.618" x2="7.618" y1="10.887" y2="13.609" gradientTransform="matrix(.79752 .79752 -1.1635 1.1635 10.618 -6.5709)" gradientUnits="userSpaceOnUse"><stop offset="0"/><stop stop-color="#910000" offset=".2363"/></linearGradient><linearGradient id="linearGradient141" x1="8.6812" x2="4.8292" y1="2.4478" y2="4.1206" gradientTransform="matrix(1.2034 1.2034 -1.2034 1.2034 7.2489 -8.821)" gradientUnits="userSpaceOnUse"><stop stop-color="#a8a8a8" offset="0"/><stop stop-color="#e5e5e5" offset=".2061"/><stop stop-color="#8f8f8f" offset="1"/></linearGradient></defs><g stroke="#000"><g transform="matrix(1.0372 0 0 1.0372 -1.0784 1.0555)"><path d="m3.5845 11.818 0.89695 0.91747-1.9781 1.9171-0.87133-0.92145z" fill="url(#linearGradient140)" stroke-width=".069574"/><g fill="#fff"><path transform="matrix(-.70312 -.71107 .69618 -.71787 0 0)" d="m-11.988-7.9373 1.2082-0.00166-0.0065 0.19078-1.2089-7.689e-4z" stroke-width=".016952"/><g stroke-width=".01695"><path d="m3.1313 13.998-0.85064-0.85791 0.13739-0.13233 0.84949 0.8602z"/><path d="m3.3638 13.765-0.85064-0.85791 0.13739-0.13233 0.84949 0.8602z"/><path d="m3.6045 13.545-0.85064-0.85791 0.13739-0.13233 0.84949 0.8602z"/></g></g><path d="m1.6194 13.566 1.0609 1.1383-0.27111 0.25269-0.65573-0.4524-0.4052-0.6859z" fill="#545454" stroke-width=".017276"/></g><g><path d="m16.187 2.7392-6.2785 5.4041-5.6742 6.2277-1.6492-1.6158 6.2716-5.6476 5.0928-5.9956 2.6473-0.72897z" fill="url(#linearGradient141)" stroke-width=".045029"/><path d="m3.3432 13.551 13.244-13.146" fill="#a2a2a2" stroke-width=".045029"/><path d="m2.1413 11.841 1.1822 1.6334 1.6093 1.3689-0.44546 0.43221-1.5178-1.3995-1.2737-1.6029z" fill="#414141" stroke-width=".027444"/></g></g></svg>
