<?xml version="1.0" encoding="UTF-8"?>
<!-- Created with Inkscape (http://www.inkscape.org/) -->
<svg width="64" height="64" version="1.1" viewBox="0 0 16.933 16.933" xmlns="http://www.w3.org/2000/svg" xmlns:xlink="http://www.w3.org/1999/xlink"><defs><linearGradient id="linearGradient326"><stop stop-color="#fff" offset="0"/><stop stop-color="#932828" offset="1"/></linearGradient><linearGradient id="linearGradient324"><stop stop-color="#b71111" offset="0"/><stop stop-color="#fbd6d6" stop-opacity="0" offset="1"/></linearGradient><linearGradient id="linearGradient318"><stop stop-color="#b71111" offset="0"/><stop stop-color="#b71111" stop-opacity="0" offset="1"/></linearGradient><radialGradient id="radialGradient319" cx="6.2192" cy="7.0456" r=".42644" gradientTransform="matrix(.87772 .0097604 -.0096972 .87204 .82878 .84077)" gradientUnits="userSpaceOnUse" xlink:href="#linearGradient326"/><radialGradient id="radialGradient320" cx="6.097" cy="7.1782" r=".0041576" gradientTransform="matrix(1 0 0 100.29 0 -712.75)" gradientUnits="userSpaceOnUse" xlink:href="#linearGradient318"/><radialGradient id="radialGradient321" cx="5.9484" cy="7.0333" r=".1536" gradientTransform="matrix(1 0 0 .99987 0 .00094369)" gradientUnits="userSpaceOnUse" xlink:href="#linearGradient318"/><radialGradient id="radialGradient322" cx="6.2446" cy="7.0304" r=".15113" gradientTransform="matrix(1 0 0 1.0246 0 -.17267)" gradientUnits="userSpaceOnUse" xlink:href="#linearGradient318"/><radialGradient id="radialGradient323" cx="6.0944" cy="7.1786" r=".42076" gradientTransform="matrix(1 0 0 .010846 0 7.1008)" gradientUnits="userSpaceOnUse" xlink:href="#linearGradient324"/></defs><g transform="matrix(1.5839 1.338 -1.338 1.5839 11.002 -18.769)"><g stroke="#000"><path d="m7.4984 6.5162 0.10243 0.20487h-0.20487z" fill="#6b6b6b" stroke-width=".0079375"/><path d="m7.1687 6.0467c-0.29152 0.033804-0.51123 0.27548-0.5116 0.56276-3.2e-6 0.37013 0.32742 0.63879 0.60927 0.62684v0.9064c0 0.034125 0.027369 0.062012 0.061495 0.062012h0.34055c0.034125 0 0.062012-0.027887 0.062012-0.062012v-0.9064c0.28182 0.011962 0.60927-0.25669 0.60926-0.62684-3.642e-4 -0.28727-0.22007-0.52895-0.5116-0.56276 0.089211 0.12216 0.13743 0.26843 0.13798 0.41858 0.019402 0.40907-0.18917 0.37412-0.29766 0.41393h-0.34055c-0.034125 3e-7 -0.29677-0.099142-0.29714-0.41393 5.501e-4 -0.15015 0.048765-0.29642 0.13798-0.41858z" fill="#535353" stroke-width=".0079375"/><g><path d="m7.3505 8.332 0.29584 4e-6v7.6248h-0.29584z" fill="#bdbdbd" stroke-width=".0062682"/><g><rect x="7.2244" y="8.189" width=".54798" height=".17074" rx=".04498" ry=".040488" fill="#bbc005" stroke-width=".0085349"/><rect x="7.2244" y="6.7223" width=".54798" height=".17074" rx=".04498" ry=".040488" fill="#bbc005" stroke-width=".0085349"/><circle cx="7.4984" cy="6.0472" r=".22142" fill="#bd1e1e" stroke-width=".0079375"/></g></g></g><g transform="translate(.031255 -.042398)" stroke="#000" stroke-width=".0079375"><g transform="matrix(.21071 0 0 .21071 6.1822 6.2038)"><path d="m6.5195 7.1807-0.42175 0.42175-0.42175-0.42175 0.12353-0.29823 0.29823-0.12353 0.29823 0.12353z" fill="url(#radialGradient319)"/><g><path d="m6.0972 6.7613-3.776e-4 0.83395" fill="url(#radialGradient320)"/><path d="m5.7976 6.8825 0.30159 0.30154" fill="url(#radialGradient321)"/><path d="m6.3929 6.8784-0.29658 0.30415" fill="url(#radialGradient322)"/><path d="m5.6736 7.1792 0.84151-0.00119" fill="url(#radialGradient323)"/></g></g><g transform="matrix(.21071 0 0 .21071 6.1822 6.4425)"><path d="m6.5195 7.1807-0.42175 0.42175-0.42175-0.42175 0.12353-0.29823 0.29823-0.12353 0.29823 0.12353z" fill="url(#radialGradient319)"/><g><path d="m6.0972 6.7613-3.776e-4 0.83395" fill="url(#radialGradient320)"/><path d="m5.7976 6.8825 0.30159 0.30154" fill="url(#radialGradient321)"/><path d="m6.3929 6.8784-0.29658 0.30415" fill="url(#radialGradient322)"/><path d="m5.6736 7.1792 0.84151-0.00119" fill="url(#radialGradient323)"/></g></g><g transform="matrix(.21071 0 0 .21071 6.1822 5.9651)"><path d="m6.5195 7.1807-0.42175 0.42175-0.42175-0.42175 0.12353-0.29823 0.29823-0.12353 0.29823 0.12353z" fill="url(#radialGradient319)"/><g><path d="m6.0972 6.7613-3.776e-4 0.83395" fill="url(#radialGradient320)"/><path d="m5.7976 6.8825 0.30159 0.30154" fill="url(#radialGradient321)"/><path d="m6.3929 6.8784-0.29658 0.30415" fill="url(#radialGradient322)"/><path d="m5.6736 7.1792 0.84151-0.00119" fill="url(#radialGradient323)"/></g></g></g><rect transform="rotate(34.381)" x="9.5692" y=".58702" width=".12015" height=".062186" fill="#fff" fill-opacity=".79859"/><rect transform="matrix(0,-1,-1,0,0,0)" x="-9.6567" y="-7.6888" width="1.2221" height=".3808" rx=".10032" ry=".090297" fill="#bbc005" stroke="#000" stroke-width=".0079375"/><g fill="#fff" fill-opacity=".79859"><rect transform="matrix(.99963 .027187 -.10178 .99481 0 0)" x="8.2584" y="6.5424" width=".14724" height=".039481"/><rect transform="matrix(-.0042438 .99999 -.99645 -.084222 0 0)" x="7.5625" y="-7.8205" width=".097176" height=".028614"/><rect transform="matrix(.028419 .9996 -.99893 -.046329 0 0)" x="8.1927" y="-7.4507" width=".14724" height=".039481"/></g></g></svg>
