<?xml version="1.0" encoding="UTF-8"?>
<!-- Created with Inkscape (http://www.inkscape.org/) -->
<svg width="64" height="64" version="1.1" viewBox="0 0 16.933 16.933" xmlns="http://www.w3.org/2000/svg"><g transform="matrix(1.0009 .77484 -.77484 1.0009 8.4935 -5.4643)" stroke="#000"><path d="m7.1048 0.30721s-1.7956 1.3106-2.0701 2.0544-0.26121 1.2616 0 2.0544c0.26121 0.79276 0.6891 2.3752 0.6891 2.3752v3.4476s-0.42862 1.5989-0.6891 2.3947-0.27454 1.3106 0 2.0544c0.27454 0.74376 2.0701 2.0544 2.0701 2.0544s-2.3285-1.3106-2.603-2.0544c-0.27454-0.74376-0.26084-1.2601 0-2.0544 0.26084-0.79426 0.6891-2.3849 0.6891-2.3849v-3.4574s-0.42789-1.5825-0.6891-2.3752c-0.26121-0.79276-0.27454-1.3106 0-2.0544s2.603-2.0544 2.603-2.0544z" fill="#746053" stroke-width=".011951"/><path d="m5.2256 6.7958h0.46348c0.072175 0 0.13028 0.036855 0.13028 0.082634v0.82314s-0.07816 0.54826-0.07816 0.82314c0 0.27488 0.07816 0.82314 0.07816 0.82314v0.82314c0 0.04578-0.058105 0.08263-0.13028 0.08263h-0.46348c-0.072175 0-0.13028-0.03685-0.13028-0.08263v-0.82314s0.078122-0.54826 0.078122-0.82314c0-0.27488-0.078122-0.82314-0.078122-0.82314v-0.82314c0-0.045779 0.058105-0.082634 0.13028-0.082633z" fill="#514747" stroke-width=".010376"/><path d="m6.7217 0.53329 0.053361-0.034749 0.023166 16.064-0.064945-0.043023z" fill="#fff" stroke-width=".010138"/></g></svg>
