<?xml version="1.0" encoding="UTF-8"?>
<!-- Created with Inkscape (http://www.inkscape.org/) -->
<svg width="64" height="64" version="1.1" viewBox="0 0 16.933 16.933" xmlns="http://www.w3.org/2000/svg" xmlns:xlink="http://www.w3.org/1999/xlink"><defs><radialGradient id="radialGradient307" cx="7.2858" cy="3.5442" r=".34588" gradientTransform="matrix(1.702 .0135 -.030524 3.8483 -5.0063 -10.314)" gradientUnits="userSpaceOnUse"><stop stop-color="#dce6e7" offset="0"/><stop stop-color="#2dbbbb" offset="1"/></radialGradient></defs><g transform="matrix(1.131 1.131 -1.131 1.131 11.232 -10.541)" stroke="#000"><path d="m6.8823 3.1433 0.31942-0.57245 0.31942 0.57245v1.748h-0.63885z" fill="url(#radialGradient307)" stroke-width=".026458"/><path d="m7.0411 16.529v-12.035h0.32459v11.96z" fill="#4f4f4f" stroke-width=".052917"/><path d="m6.8475 4.4486h0.67232c0.07329 0 0.14682 0.060457 0.13229 0.13229l-0.26989 1.3343-0.34774 3.931e-4 -0.31927-1.3347c-0.01705-0.071279 0.059002-0.13229 0.13229-0.13229z" fill="#343434" stroke-width=".052917"/><path d="m6.8848 3.1364 0.30967 0.096871 0.31598-0.093491" fill="none" stroke-width=".013229"/><path d="m7.2022 2.5916-0.0048617 0.69646-0.00666 1.151" fill="#4f4f4f" stroke-width=".026458"/><path transform="rotate(-13.833)" d="m3.2756 17.448-0.037498 0.1826-0.31685 0.0019 0.048737-0.1882z" fill="#d7e416" stroke-width=".026458"/></g></svg>
