<?xml version="1.0" encoding="UTF-8"?>
<!-- Created with Inkscape (http://www.inkscape.org/) -->
<svg width="64" height="64" version="1.1" viewBox="0 0 16.933 16.933" xmlns="http://www.w3.org/2000/svg"><g transform="rotate(39.849 26.681 -8.2195)" stroke="#000"><path d="m8.1201-2.4921c0.50507 1.2048-1.3486 1.9567-1.7057 2.8945-0.35705 0.93782-0.34686 1.5934-0.026464 2.6002 0.32039 1.0067 0.84158 3.0151 0.84158 3.0151l-0.022331 2.1941-0.022081 2.1695s-0.5631 2.0182-0.90303 3.022c-0.33993 1.0038-0.36436 1.6553-0.026464 2.6002 0.33789 0.9449 2.4876 1.6326 1.7887 3.1135-0.25442 0.53913 0.34381-0.9089-0.43098-1.4492-0.77478-0.54032-1.8632-1.1987-2.0322-1.6712-0.33789-0.9449-0.31391-1.5983 0.026465-2.6002 0.34037-1.0019 0.9029-3.0097 0.9029-3.0097l0.022206-2.1818 0.022331-2.1941s-0.52119-2.0084-0.84158-3.0151c-0.32039-1.0067-0.33059-1.6624 0.026465-2.6002 0.17853-0.46891 1.1139-1.0497 1.8996-1.5741 0.78562-0.52443 0.25011-1.8633 0.4806-1.3135z" fill="#d3ad64" stroke-width=".015127"/><path d="m6.5989 6.0172 0.58662 0.00597c0.09135 9.296e-4 0.16442 0.048324 0.16383 0.10627l-0.010604 1.0418s-0.10599 0.69291-0.10953 1.0408c-0.00354 0.3479 0.088322 1.0428 0.088322 1.0428l-0.010604 1.0418c-5.872e-4 0.05794-0.074606 0.10383-0.16596 0.1029l-0.58662-6e-3c-0.09135-9.3e-4 -0.16442-0.04832-0.16383-0.10626l0.010604-1.0418s0.10594-0.69292 0.10948-1.0408c0.00354-0.3479-0.088273-1.0428-0.088273-1.0428l0.010604-1.0418c5.898e-4 -0.057941 0.074609-0.10384 0.16596-0.10291z" fill="#e9ddcc" stroke-width=".013133"/><path d="m8.0487-1.8076 0.034158-0.17849-0.054054 20.412-0.044708-0.18338z" fill="#fff" stroke-width=".012832"/><rect x="6.4025" y="6.0139" width=".93447" height="1.1989" rx=".11319" ry=".11319" fill="#4f3413" stroke-width=".011319"/><rect x="6.4025" y="9.1862" width=".93447" height="1.1989" rx=".11319" ry=".11319" fill="#4f3413" stroke-width=".011319"/></g><g transform="translate(-12.822 -16.183)" stroke="#000"><path d="m15.46 0.36053-0.016084 0.15881-12.947 16.063-0.17474 0.04233z" fill="#fff" stroke-width=".016731"/><path d="m15.083-0.080644s0.34944 0.20851 0.38259 0.3085c0.03315 0.099996 0.26662 0.4323-1.3216 1.7404-1.5883 1.3081-5.5666 2.2258-7.5004 4.6883-1.9338 2.4625-1.9545 6.4899-2.853 8.354-0.89853 1.8642-1.4387 1.6365-1.5598 1.6302-0.12106-0.006363-0.38259-0.3085-0.38259-0.3085s0.66123 0.234 1.5598-1.6302c0.89853-1.8642 0.91927-5.8915 2.853-8.354 1.9338-2.4625 5.9121-3.3802 7.5004-4.6883 1.5883-1.3081 1.3216-1.7404 1.3216-1.7404z" fill="#403716" stroke-width=".016731"/><g fill="#ffd9d9" stroke-width=".014574"><path d="m5.8426 6.9544 0.43349 0.22678-0.14751 0.23647-0.42873-0.23018z"/><path d="m5.6959 7.1977 0.42867 0.23309-0.14004 0.24191-0.42235-0.22827z"/><path d="m5.5525 7.4487 0.42758 0.22955-0.12041 0.25231-0.42982-0.23371z"/></g><path d="m15.091 0.11229 0.41025 0.20809-3e-3 0.035992-0.41432-0.21137z" fill="#ececec" stroke-width=".010217"/><path d="m2.5228 16.624-0.29498-0.36562-0.034136 0.01428 0.29866 0.36522z" fill="#ececec" stroke-width=".010217"/><g fill="#ffd9d9" stroke-width=".014574"><path d="m7.2669 5.3327 0.3397 0.35206-0.21464 0.17779-0.33411-0.35379z"/><path d="m7.0509 5.5172 0.33313 0.35653-0.20927 0.18531-0.32865-0.34996z"/><path d="m6.8356 5.7101 0.33321 0.35283-0.19392 0.20138-0.33402-0.35748z"/></g></g><g transform="matrix(.987 0 0 .987 -.3314 -.0050778)" stroke="#000"><path d="m16.002 0.63371s-2.8126-0.079534-3.6637 0.45215c-0.85107 0.53168-1.239 1.0603-1.5918 2.0561-0.35283 0.99584-1.1507 2.9112-1.1507 2.9112l-2.6714 3.4506s-1.6679 1.2682-2.5452 1.8628-1.2903 1.099-1.5918 2.0561c-0.30152 0.95712 0.48008 3.6601 0.48008 3.6601s-0.36877-1.1239-0.76557-1.3317c-0.24151-0.12644-0.65398 0.49104-0.65398 0.49104s0.35192-1.2202 0.37173-1.774c0.019811-0.55381-0.050702-1.2224 0.034388-1.4584 0.46834-1.299-0.25335-1.125-0.25335-1.125s0.75853-0.15838 1.8452-0.93116c0.43116-0.30663-0.37414-0.44751-0.37414-0.44751s0.59126-0.24797 1.4228-0.43812c0.47426-0.10845 1.3434-0.99388 1.3434-0.99388l1.4812-1.6988 1.3432-1.735s0.049868-0.11971 0.13018-0.31484c0.080314-0.19513 0.24317-0.44956 0.31286-0.76733 0.28384-1.2942 0.0144-1.9871 0.0144-1.9871s0.44301 0.58936 0.69327 0.15809c0.13256-0.22845 0.03481-1.5579 0.03481-1.5579s0.18719 0.67938 0.51349 0.45706c0.16817-0.11458 0.7487-1.3398 0.7487-1.3398s0.08205 0.51739 0.29481 0.38447c0.21277-0.13292 0.58061-0.22195 1.0148-0.23043 1.4629-0.028602 2.1121-0.3432 2.1121-0.3432s-0.39928 0.35926 0.53401 0.46575c0.32705 0.037319 0.53611 0.068636 0.53611 0.068636z" fill="#474343" stroke-width=".052917"/><path d="m9.0933 5.6718 0.46388 0.35912c0.072237 0.055924 0.10184 0.13783 0.066365 0.18365l-0.6378 0.82385s-0.50304 0.48817-0.71603 0.76329c-0.21299 0.27511-0.55957 0.88441-0.55957 0.88441l-0.66051 0.83066c-0.036064 0.045355-0.12497 0.041105-0.19442-0.018245l-0.4548-0.38865c-0.06945-0.05935-0.10292-0.13869-0.066368-0.18365l0.65143-0.80113s0.503-0.4882 0.71599-0.76332c0.21298-0.27511 0.55961-0.88438 0.55961-0.88438l0.6378-0.82385c0.035471-0.045818 0.12218-0.037683 0.19442 0.018242z" fill="#235c31" stroke-width=".013133"/><path d="m15.443 0.56319 0.08033 0.006567-12.424 16.096-0.031665-0.093382z" fill="#fff" stroke-width=".012832"/><g fill="#235c31" stroke-width=".011799"><g transform="matrix(.80651 0 0 .80651 5.8921 -3.5299)"><path d="m0.87136 15.169c0.17028-0.02368 0.38338 0.23784 0.3258 0.39983-0.062382 0.17552-0.54723 0.11326-0.54723 0.11326s0.036929-0.48744 0.22143-0.51309z"/><path d="m1.3086 15.516c0.17028-0.02368 0.38338 0.23784 0.3258 0.39983-0.062382 0.17552-0.54723 0.11326-0.54723 0.11326s0.036929-0.48744 0.22143-0.51309z"/><path d="m1.066 15.305c0.17028-0.02368 0.38338 0.23784 0.3258 0.39983-0.062382 0.17552-0.54723 0.11326-0.54723 0.11326s0.036929-0.48744 0.22143-0.51309z"/></g><g transform="matrix(.80651 0 0 .80651 6.0197 -3.681)"><path d="m0.87136 15.169c0.17028-0.02368 0.38338 0.23784 0.3258 0.39983-0.062382 0.17552-0.54723 0.11326-0.54723 0.11326s0.036929-0.48744 0.22143-0.51309z"/><path d="m1.3086 15.516c0.17028-0.02368 0.38338 0.23784 0.3258 0.39983-0.062382 0.17552-0.54723 0.11326-0.54723 0.11326s0.036929-0.48744 0.22143-0.51309z"/><path d="m1.066 15.305c0.17028-0.02368 0.38338 0.23784 0.3258 0.39983-0.062382 0.17552-0.54723 0.11326-0.54723 0.11326s0.036929-0.48744 0.22143-0.51309z"/></g><g transform="matrix(.80651 0 0 .80651 6.1876 -3.9093)"><path d="m0.87136 15.169c0.17028-0.02368 0.38338 0.23784 0.3258 0.39983-0.062382 0.17552-0.54723 0.11326-0.54723 0.11326s0.036929-0.48744 0.22143-0.51309z"/><path d="m1.3086 15.516c0.17028-0.02368 0.38338 0.23784 0.3258 0.39983-0.062382 0.17552-0.54723 0.11326-0.54723 0.11326s0.036929-0.48744 0.22143-0.51309z"/><path d="m1.066 15.305c0.17028-0.02368 0.38338 0.23784 0.3258 0.39983-0.062382 0.17552-0.54723 0.11326-0.54723 0.11326s0.036929-0.48744 0.22143-0.51309z"/></g><g transform="matrix(.80651 0 0 .80651 6.3588 -4.1241)"><path d="m0.87136 15.169c0.17028-0.02368 0.38338 0.23784 0.3258 0.39983-0.062382 0.17552-0.54723 0.11326-0.54723 0.11326s0.036929-0.48744 0.22143-0.51309z"/><path d="m1.3086 15.516c0.17028-0.02368 0.38338 0.23784 0.3258 0.39983-0.062382 0.17552-0.54723 0.11326-0.54723 0.11326s0.036929-0.48744 0.22143-0.51309z"/><path d="m1.066 15.305c0.17028-0.02368 0.38338 0.23784 0.3258 0.39983-0.062382 0.17552-0.54723 0.11326-0.54723 0.11326s0.036929-0.48744 0.22143-0.51309z"/></g><g transform="matrix(.7792 0 0 .7792 6.5174 -3.8624)"><path d="m0.87136 15.169c0.17028-0.02368 0.38338 0.23784 0.3258 0.39983-0.062382 0.17552-0.54723 0.11326-0.54723 0.11326s0.036929-0.48744 0.22143-0.51309z"/><path d="m1.3086 15.516c0.17028-0.02368 0.38338 0.23784 0.3258 0.39983-0.062382 0.17552-0.54723 0.11326-0.54723 0.11326s0.036929-0.48744 0.22143-0.51309z"/><path d="m1.066 15.305c0.17028-0.02368 0.38338 0.23784 0.3258 0.39983-0.062382 0.17552-0.54723 0.11326-0.54723 0.11326s0.036929-0.48744 0.22143-0.51309z"/></g><g transform="matrix(.73434 0 0 .73434 6.7309 -3.3654)"><path d="m0.87136 15.169c0.17028-0.02368 0.38338 0.23784 0.3258 0.39983-0.062382 0.17552-0.54723 0.11326-0.54723 0.11326s0.036929-0.48744 0.22143-0.51309z"/><path d="m1.3086 15.516c0.17028-0.02368 0.38338 0.23784 0.3258 0.39983-0.062382 0.17552-0.54723 0.11326-0.54723 0.11326s0.036929-0.48744 0.22143-0.51309z"/><path d="m1.066 15.305c0.17028-0.02368 0.38338 0.23784 0.3258 0.39983-0.062382 0.17552-0.54723 0.11326-0.54723 0.11326s0.036929-0.48744 0.22143-0.51309z"/></g><g transform="matrix(.66762 0 0 .66762 6.992 -2.5694)"><path d="m0.87136 15.169c0.17028-0.02368 0.38338 0.23784 0.3258 0.39983-0.062382 0.17552-0.54723 0.11326-0.54723 0.11326s0.036929-0.48744 0.22143-0.51309z"/><path d="m1.3086 15.516c0.17028-0.02368 0.38338 0.23784 0.3258 0.39983-0.062382 0.17552-0.54723 0.11326-0.54723 0.11326s0.036929-0.48744 0.22143-0.51309z"/><path d="m1.066 15.305c0.17028-0.02368 0.38338 0.23784 0.3258 0.39983-0.062382 0.17552-0.54723 0.11326-0.54723 0.11326s0.036929-0.48744 0.22143-0.51309z"/></g><g transform="matrix(.64093 0 0 .64093 7.1569 -2.3309)"><path d="m0.87136 15.169c0.17028-0.02368 0.38338 0.23784 0.3258 0.39983-0.062382 0.17552-0.54723 0.11326-0.54723 0.11326s0.036929-0.48744 0.22143-0.51309z"/><path d="m1.3086 15.516c0.17028-0.02368 0.38338 0.23784 0.3258 0.39983-0.062382 0.17552-0.54723 0.11326-0.54723 0.11326s0.036929-0.48744 0.22143-0.51309z"/><path d="m1.066 15.305c0.17028-0.02368 0.38338 0.23784 0.3258 0.39983-0.062382 0.17552-0.54723 0.11326-0.54723 0.11326s0.036929-0.48744 0.22143-0.51309z"/></g><g transform="matrix(.64093 0 0 .64093 7.261 -2.4619)"><path d="m0.87136 15.169c0.17028-0.02368 0.38338 0.23784 0.3258 0.39983-0.062382 0.17552-0.54723 0.11326-0.54723 0.11326s0.036929-0.48744 0.22143-0.51309z"/><path d="m1.3086 15.516c0.17028-0.02368 0.38338 0.23784 0.3258 0.39983-0.062382 0.17552-0.54723 0.11326-0.54723 0.11326s0.036929-0.48744 0.22143-0.51309z"/><path d="m1.066 15.305c0.17028-0.02368 0.38338 0.23784 0.3258 0.39983-0.062382 0.17552-0.54723 0.11326-0.54723 0.11326s0.036929-0.48744 0.22143-0.51309z"/></g><g transform="matrix(.67762 0 0 .67762 7.3179 -3.1654)"><path d="m0.87136 15.169c0.17028-0.02368 0.38338 0.23784 0.3258 0.39983-0.062382 0.17552-0.54723 0.11326-0.54723 0.11326s0.036929-0.48744 0.22143-0.51309z"/><path d="m1.3086 15.516c0.17028-0.02368 0.38338 0.23784 0.3258 0.39983-0.062382 0.17552-0.54723 0.11326-0.54723 0.11326s0.036929-0.48744 0.22143-0.51309z"/><path d="m1.066 15.305c0.17028-0.02368 0.38338 0.23784 0.3258 0.39983-0.062382 0.17552-0.54723 0.11326-0.54723 0.11326s0.036929-0.48744 0.22143-0.51309z"/></g><g transform="matrix(.7067 0 0 .7067 7.4368 -3.8205)"><path d="m0.87136 15.169c0.17028-0.02368 0.38338 0.23784 0.3258 0.39983-0.062382 0.17552-0.54723 0.11326-0.54723 0.11326s0.036929-0.48744 0.22143-0.51309z"/><path d="m1.3086 15.516c0.17028-0.02368 0.38338 0.23784 0.3258 0.39983-0.062382 0.17552-0.54723 0.11326-0.54723 0.11326s0.036929-0.48744 0.22143-0.51309z"/><path d="m1.066 15.305c0.17028-0.02368 0.38338 0.23784 0.3258 0.39983-0.062382 0.17552-0.54723 0.11326-0.54723 0.11326s0.036929-0.48744 0.22143-0.51309z"/></g><g transform="matrix(.74833 0 0 .74833 7.5225 -4.6399)"><path d="m0.87136 15.169c0.17028-0.02368 0.38338 0.23784 0.3258 0.39983-0.062382 0.17552-0.54723 0.11326-0.54723 0.11326s0.036929-0.48744 0.22143-0.51309z"/><path d="m1.3086 15.516c0.17028-0.02368 0.38338 0.23784 0.3258 0.39983-0.062382 0.17552-0.54723 0.11326-0.54723 0.11326s0.036929-0.48744 0.22143-0.51309z"/><path d="m1.066 15.305c0.17028-0.02368 0.38338 0.23784 0.3258 0.39983-0.062382 0.17552-0.54723 0.11326-0.54723 0.11326s0.036929-0.48744 0.22143-0.51309z"/></g><g transform="matrix(.78777 0 0 .78777 7.5941 -5.4075)"><path d="m0.87136 15.169c0.17028-0.02368 0.38338 0.23784 0.3258 0.39983-0.062382 0.17552-0.54723 0.11326-0.54723 0.11326s0.036929-0.48744 0.22143-0.51309z"/><path d="m1.3086 15.516c0.17028-0.02368 0.38338 0.23784 0.3258 0.39983-0.062382 0.17552-0.54723 0.11326-0.54723 0.11326s0.036929-0.48744 0.22143-0.51309z"/><path d="m1.066 15.305c0.17028-0.02368 0.38338 0.23784 0.3258 0.39983-0.062382 0.17552-0.54723 0.11326-0.54723 0.11326s0.036929-0.48744 0.22143-0.51309z"/></g><g transform="matrix(.81899 0 0 .81899 7.6744 -6.0483)"><path d="m0.87136 15.169c0.17028-0.02368 0.38338 0.23784 0.3258 0.39983-0.062382 0.17552-0.54723 0.11326-0.54723 0.11326s0.036929-0.48744 0.22143-0.51309z"/><path d="m1.3086 15.516c0.17028-0.02368 0.38338 0.23784 0.3258 0.39983-0.062382 0.17552-0.54723 0.11326-0.54723 0.11326s0.036929-0.48744 0.22143-0.51309z"/><path d="m1.066 15.305c0.17028-0.02368 0.38338 0.23784 0.3258 0.39983-0.062382 0.17552-0.54723 0.11326-0.54723 0.11326s0.036929-0.48744 0.22143-0.51309z"/></g><g transform="matrix(.81314 0 0 .81314 7.7941 -6.093)"><path d="m0.87136 15.169c0.17028-0.02368 0.38338 0.23784 0.3258 0.39983-0.062382 0.17552-0.54723 0.11326-0.54723 0.11326s0.036929-0.48744 0.22143-0.51309z"/><path d="m1.3086 15.516c0.17028-0.02368 0.38338 0.23784 0.3258 0.39983-0.062382 0.17552-0.54723 0.11326-0.54723 0.11326s0.036929-0.48744 0.22143-0.51309z"/><path d="m1.066 15.305c0.17028-0.02368 0.38338 0.23784 0.3258 0.39983-0.062382 0.17552-0.54723 0.11326-0.54723 0.11326s0.036929-0.48744 0.22143-0.51309z"/></g><g transform="matrix(.82094 0 0 .82094 7.8884 -6.3505)"><path d="m0.87136 15.169c0.17028-0.02368 0.38338 0.23784 0.3258 0.39983-0.062382 0.17552-0.54723 0.11326-0.54723 0.11326s0.036929-0.48744 0.22143-0.51309z"/><path d="m1.3086 15.516c0.17028-0.02368 0.38338 0.23784 0.3258 0.39983-0.062382 0.17552-0.54723 0.11326-0.54723 0.11326s0.036929-0.48744 0.22143-0.51309z"/><path d="m1.066 15.305c0.17028-0.02368 0.38338 0.23784 0.3258 0.39983-0.062382 0.17552-0.54723 0.11326-0.54723 0.11326s0.036929-0.48744 0.22143-0.51309z"/></g><g transform="matrix(.81899 0 0 .81899 8.0073 -6.4665)"><path d="m0.87136 15.169c0.17028-0.02368 0.38338 0.23784 0.3258 0.39983-0.062382 0.17552-0.54723 0.11326-0.54723 0.11326s0.036929-0.48744 0.22143-0.51309z"/><path d="m1.3086 15.516c0.17028-0.02368 0.38338 0.23784 0.3258 0.39983-0.062382 0.17552-0.54723 0.11326-0.54723 0.11326s0.036929-0.48744 0.22143-0.51309z"/><path d="m1.066 15.305c0.17028-0.02368 0.38338 0.23784 0.3258 0.39983-0.062382 0.17552-0.54723 0.11326-0.54723 0.11326s0.036929-0.48744 0.22143-0.51309z"/></g><g transform="matrix(.83655 0 0 .83655 8.1023 -6.8988)"><path d="m0.87136 15.169c0.17028-0.02368 0.38338 0.23784 0.3258 0.39983-0.062382 0.17552-0.54723 0.11326-0.54723 0.11326s0.036929-0.48744 0.22143-0.51309z"/><path d="m1.3086 15.516c0.17028-0.02368 0.38338 0.23784 0.3258 0.39983-0.062382 0.17552-0.54723 0.11326-0.54723 0.11326s0.036929-0.48744 0.22143-0.51309z"/><path d="m1.066 15.305c0.17028-0.02368 0.38338 0.23784 0.3258 0.39983-0.062382 0.17552-0.54723 0.11326-0.54723 0.11326s0.036929-0.48744 0.22143-0.51309z"/></g><g transform="matrix(.8307 0 0 .8307 8.2329 -6.9656)"><path d="m0.87136 15.169c0.17028-0.02368 0.38338 0.23784 0.3258 0.39983-0.062382 0.17552-0.54723 0.11326-0.54723 0.11326s0.036929-0.48744 0.22143-0.51309z"/><path d="m1.3086 15.516c0.17028-0.02368 0.38338 0.23784 0.3258 0.39983-0.062382 0.17552-0.54723 0.11326-0.54723 0.11326s0.036929-0.48744 0.22143-0.51309z"/><path d="m1.066 15.305c0.17028-0.02368 0.38338 0.23784 0.3258 0.39983-0.062382 0.17552-0.54723 0.11326-0.54723 0.11326s0.036929-0.48744 0.22143-0.51309z"/></g></g></g></svg>
