<?xml version="1.0" encoding="UTF-8"?>
<!-- Created with Inkscape (http://www.inkscape.org/) -->
<svg width="64.434" height="62.734" version="1.1" viewBox="0 0 17.048 16.598" xmlns="http://www.w3.org/2000/svg" xmlns:xlink="http://www.w3.org/1999/xlink"><defs><linearGradient id="linearGradient151" x1="7.618" x2="7.618" y1="10.887" y2="13.609" gradientTransform="matrix(1.1279 0 0 1.6455 3.2736 -11.185)" gradientUnits="userSpaceOnUse"><stop offset="0"/><stop stop-color="#235c31" offset=".13905"/></linearGradient><linearGradient id="linearGradient152" x1="9.152" x2="6.4568" y1=".90086" y2="9.1651" gradientTransform="matrix(1.1602 1.1602 -1.1602 1.1602 7.4201 -8.3162)" gradientUnits="userSpaceOnUse"><stop stop-color="#202020" offset="0"/><stop stop-color="#949494" offset=".33574"/><stop stop-color="#2c2c2c" offset="1"/></linearGradient><linearGradient id="linearGradient196" x1="7.621" x2="7.618" y1="11.085" y2="13.609" gradientTransform="matrix(1.1318 0 0 1.6512 3.4367 -10.62)" gradientUnits="userSpaceOnUse"><stop offset="0"/><stop stop-color="#235c31" stop-opacity="0" offset=".13905"/></linearGradient></defs><g transform="translate(.27435 -.31484)"><g stroke="#000"><rect transform="rotate(45)" x="11.28" y="6.729" width="1.1709" height="4.4786" fill="url(#linearGradient151)" stroke-width=".026458"/><path d="m14.092 5.2229-9.8625 8.5323-1.2045-1.2045 8.4682-9.4321 5.2272-2.7513z" fill="url(#linearGradient152)" stroke-width=".043412"/><path d="m3.8823 12.898 12.805-12.49" fill="#a2a2a2" stroke-width=".043412"/></g><g fill="#235c31" stroke="#000" stroke-width=".011799"><path d="m0.88469 15.942c0.17028-0.02368 0.38338 0.23784 0.3258 0.39983-0.062382 0.17552-0.54723 0.11326-0.54723 0.11326s0.036929-0.48744 0.22143-0.51309z"/><path d="m0.48482 15.548c0.17028-0.02368 0.38338 0.23784 0.3258 0.39983-0.062382 0.17552-0.54723 0.11326-0.54723 0.11326s0.036929-0.48744 0.22143-0.51309z"/><path d="m0.70075 15.764c0.17028-0.02368 0.38338 0.23784 0.3258 0.39983-0.062382 0.17552-0.54723 0.11326-0.54723 0.11326s0.036929-0.48744 0.22143-0.51309z"/><path d="m1.0953 15.721c0.17028-0.02368 0.38338 0.23784 0.3258 0.39983-0.062382 0.17552-0.54723 0.11326-0.54723 0.11326s0.036929-0.48744 0.22143-0.51309z"/><path d="m0.67942 15.364c0.17028-0.02368 0.38338 0.23784 0.3258 0.39983-0.062382 0.17552-0.54723 0.11326-0.54723 0.11326s0.036929-0.48744 0.22143-0.51309z"/><path d="m0.89002 15.553c0.17028-0.02368 0.38338 0.23784 0.3258 0.39983-0.062382 0.17552-0.54723 0.11326-0.54723 0.11326s0.036929-0.48744 0.22143-0.51309z"/><path d="m0.87136 15.169c0.17028-0.02368 0.38338 0.23784 0.3258 0.39983-0.062382 0.17552-0.54723 0.11326-0.54723 0.11326s0.036929-0.48744 0.22143-0.51309z"/><path d="m1.3086 15.516c0.17028-0.02368 0.38338 0.23784 0.3258 0.39983-0.062382 0.17552-0.54723 0.11326-0.54723 0.11326s0.036929-0.48744 0.22143-0.51309z"/><path d="m1.066 15.305c0.17028-0.02368 0.38338 0.23784 0.3258 0.39983-0.062382 0.17552-0.54723 0.11326-0.54723 0.11326s0.036929-0.48744 0.22143-0.51309z"/><g transform="translate(.18661 -.18128)"><path d="m0.87136 15.169c0.17028-0.02368 0.38338 0.23784 0.3258 0.39983-0.062382 0.17552-0.54723 0.11326-0.54723 0.11326s0.036929-0.48744 0.22143-0.51309z"/><path d="m1.3086 15.516c0.17028-0.02368 0.38338 0.23784 0.3258 0.39983-0.062382 0.17552-0.54723 0.11326-0.54723 0.11326s0.036929-0.48744 0.22143-0.51309z"/><path d="m1.066 15.305c0.17028-0.02368 0.38338 0.23784 0.3258 0.39983-0.062382 0.17552-0.54723 0.11326-0.54723 0.11326s0.036929-0.48744 0.22143-0.51309z"/></g><g transform="translate(.36788 -.39188)"><path d="m0.87136 15.169c0.17028-0.02368 0.38338 0.23784 0.3258 0.39983-0.062382 0.17552-0.54723 0.11326-0.54723 0.11326s0.036929-0.48744 0.22143-0.51309z"/><path d="m1.3086 15.516c0.17028-0.02368 0.38338 0.23784 0.3258 0.39983-0.062382 0.17552-0.54723 0.11326-0.54723 0.11326s0.036929-0.48744 0.22143-0.51309z"/><path d="m1.066 15.305c0.17028-0.02368 0.38338 0.23784 0.3258 0.39983-0.062382 0.17552-0.54723 0.11326-0.54723 0.11326s0.036929-0.48744 0.22143-0.51309z"/></g><g transform="translate(.60248 -.59981)"><path d="m0.87136 15.169c0.17028-0.02368 0.38338 0.23784 0.3258 0.39983-0.062382 0.17552-0.54723 0.11326-0.54723 0.11326s0.036929-0.48744 0.22143-0.51309z"/><path d="m1.3086 15.516c0.17028-0.02368 0.38338 0.23784 0.3258 0.39983-0.062382 0.17552-0.54723 0.11326-0.54723 0.11326s0.036929-0.48744 0.22143-0.51309z"/><path d="m1.066 15.305c0.17028-0.02368 0.38338 0.23784 0.3258 0.39983-0.062382 0.17552-0.54723 0.11326-0.54723 0.11326s0.036929-0.48744 0.22143-0.51309z"/></g><g transform="translate(.78375 -.77043)"><path d="m0.87136 15.169c0.17028-0.02368 0.38338 0.23784 0.3258 0.39983-0.062382 0.17552-0.54723 0.11326-0.54723 0.11326s0.036929-0.48744 0.22143-0.51309z"/><path d="m1.3086 15.516c0.17028-0.02368 0.38338 0.23784 0.3258 0.39983-0.062382 0.17552-0.54723 0.11326-0.54723 0.11326s0.036929-0.48744 0.22143-0.51309z"/><path d="m1.066 15.305c0.17028-0.02368 0.38338 0.23784 0.3258 0.39983-0.062382 0.17552-0.54723 0.11326-0.54723 0.11326s0.036929-0.48744 0.22143-0.51309z"/></g><g transform="translate(.96236 -.98636)"><path d="m0.87136 15.169c0.17028-0.02368 0.38338 0.23784 0.3258 0.39983-0.062382 0.17552-0.54723 0.11326-0.54723 0.11326s0.036929-0.48744 0.22143-0.51309z"/><path d="m1.3086 15.516c0.17028-0.02368 0.38338 0.23784 0.3258 0.39983-0.062382 0.17552-0.54723 0.11326-0.54723 0.11326s0.036929-0.48744 0.22143-0.51309z"/><path d="m1.066 15.305c0.17028-0.02368 0.38338 0.23784 0.3258 0.39983-0.062382 0.17552-0.54723 0.11326-0.54723 0.11326s0.036929-0.48744 0.22143-0.51309z"/></g><g transform="translate(1.1063 -1.1356)"><path d="m0.87136 15.169c0.17028-0.02368 0.38338 0.23784 0.3258 0.39983-0.062382 0.17552-0.54723 0.11326-0.54723 0.11326s0.036929-0.48744 0.22143-0.51309z"/><path d="m1.3086 15.516c0.17028-0.02368 0.38338 0.23784 0.3258 0.39983-0.062382 0.17552-0.54723 0.11326-0.54723 0.11326s0.036929-0.48744 0.22143-0.51309z"/><path d="m1.066 15.305c0.17028-0.02368 0.38338 0.23784 0.3258 0.39983-0.062382 0.17552-0.54723 0.11326-0.54723 0.11326s0.036929-0.48744 0.22143-0.51309z"/></g><g transform="translate(1.2903 -1.2903)"><path d="m0.87136 15.169c0.17028-0.02368 0.38338 0.23784 0.3258 0.39983-0.062382 0.17552-0.54723 0.11326-0.54723 0.11326s0.036929-0.48744 0.22143-0.51309z"/><path d="m1.3086 15.516c0.17028-0.02368 0.38338 0.23784 0.3258 0.39983-0.062382 0.17552-0.54723 0.11326-0.54723 0.11326s0.036929-0.48744 0.22143-0.51309z"/><path d="m1.066 15.305c0.17028-0.02368 0.38338 0.23784 0.3258 0.39983-0.062382 0.17552-0.54723 0.11326-0.54723 0.11326s0.036929-0.48744 0.22143-0.51309z"/></g><g transform="translate(1.4289 -1.4236)"><path d="m0.87136 15.169c0.17028-0.02368 0.38338 0.23784 0.3258 0.39983-0.062382 0.17552-0.54723 0.11326-0.54723 0.11326s0.036929-0.48744 0.22143-0.51309z"/><path d="m1.3086 15.516c0.17028-0.02368 0.38338 0.23784 0.3258 0.39983-0.062382 0.17552-0.54723 0.11326-0.54723 0.11326s0.036929-0.48744 0.22143-0.51309z"/><path d="m1.066 15.305c0.17028-0.02368 0.38338 0.23784 0.3258 0.39983-0.062382 0.17552-0.54723 0.11326-0.54723 0.11326s0.036929-0.48744 0.22143-0.51309z"/></g><g transform="translate(1.5808 -1.5942)"><path d="m0.87136 15.169c0.17028-0.02368 0.38338 0.23784 0.3258 0.39983-0.062382 0.17552-0.54723 0.11326-0.54723 0.11326s0.036929-0.48744 0.22143-0.51309z"/><path d="m1.3086 15.516c0.17028-0.02368 0.38338 0.23784 0.3258 0.39983-0.062382 0.17552-0.54723 0.11326-0.54723 0.11326s0.036929-0.48744 0.22143-0.51309z"/><path d="m1.066 15.305c0.17028-0.02368 0.38338 0.23784 0.3258 0.39983-0.062382 0.17552-0.54723 0.11326-0.54723 0.11326s0.036929-0.48744 0.22143-0.51309z"/></g><g transform="translate(1.7408 -1.7541)"><path d="m0.87136 15.169c0.17028-0.02368 0.38338 0.23784 0.3258 0.39983-0.062382 0.17552-0.54723 0.11326-0.54723 0.11326s0.036929-0.48744 0.22143-0.51309z"/><path d="m1.3086 15.516c0.17028-0.02368 0.38338 0.23784 0.3258 0.39983-0.062382 0.17552-0.54723 0.11326-0.54723 0.11326s0.036929-0.48744 0.22143-0.51309z"/><path d="m1.066 15.305c0.17028-0.02368 0.38338 0.23784 0.3258 0.39983-0.062382 0.17552-0.54723 0.11326-0.54723 0.11326s0.036929-0.48744 0.22143-0.51309z"/></g><g transform="translate(1.9034 -1.9114)"><path d="m0.87136 15.169c0.17028-0.02368 0.38338 0.23784 0.3258 0.39983-0.062382 0.17552-0.54723 0.11326-0.54723 0.11326s0.036929-0.48744 0.22143-0.51309z"/><path d="m1.3086 15.516c0.17028-0.02368 0.38338 0.23784 0.3258 0.39983-0.062382 0.17552-0.54723 0.11326-0.54723 0.11326s0.036929-0.48744 0.22143-0.51309z"/><path d="m1.066 15.305c0.17028-0.02368 0.38338 0.23784 0.3258 0.39983-0.062382 0.17552-0.54723 0.11326-0.54723 0.11326s0.036929-0.48744 0.22143-0.51309z"/></g></g><rect transform="matrix(.7234 .69043 -.7234 .69043 0 0)" x="11.471" y="7.3562" width="1.175" height="4.4942" fill="url(#linearGradient196)"/><path transform="rotate(46.389)" d="m9.8094 5.9492h4.2793l1.2091-0.60767-1.2091 1.7978h-4.2793l-1.2508-1.8656z" fill="#474747" stroke="#000" stroke-width=".026458"/><g transform="matrix(.20203 .19631 -.17351 .17856 4.2789 11.614)" fill="#d60707" stroke="#000" stroke-width=".026458"><path d="m1.4099 5.6521 0.75415-0.6701 0.81118 0.6701 0.44804 1.0393-0.44804 1.0393-0.81118 0.59169-0.75415-0.59169-0.49535-1.0393z"/><path d="m1.4094 5.6577 1.5612 2.0633"/><path d="m2.9726 5.6496-1.572 2.0759"/><path d="m0.90993 6.6818h2.5068"/><path d="m2.1647 4.9947c0.016731 1.0981 0.019243 2.2005 2.317e-4 3.3093"/></g></g></svg>
