<?xml version="1.0" encoding="UTF-8"?>
<!-- Created with Inkscape (http://www.inkscape.org/) -->
<svg width="62.291" height="60.775" version="1.1" viewBox="0 0 16.481 16.08" xmlns="http://www.w3.org/2000/svg"><g transform="matrix(1.0536 1.0855 -1.0855 1.0536 6.1808 -12.248)"><g stroke="#000"><path d="m10.586 2.4647a0.27955 0.32209 0 0 0-0.27968 0.32173 0.27955 0.32209 0 0 0 0.09056 0.23733v0.1959a0.27955 0.32209 0 0 0-0.09056 0.23733 0.27955 0.32209 0 0 0 0.09056 0.23733v0.1959a0.27955 0.32209 0 0 0-0.09056 0.23733 0.27955 0.32209 0 0 0 0.09056 0.23682v0.19641a0.27955 0.32209 0 0 0-0.09056 0.23682 0.27955 0.32209 0 0 0 0.09056 0.23733v0.1959a0.27955 0.32209 0 0 0-0.09056 0.23733 0.27955 0.32209 0 0 0 0.09056 0.23733v0.1959a0.27955 0.32209 0 0 0-0.09056 0.23733 0.27955 0.32209 0 0 0 0.09056 0.23682v0.1959a0.27955 0.32209 0 0 0-0.09056 0.23733 0.27955 0.32209 0 0 0 0.09056 0.23733v0.1959a0.27955 0.32209 0 0 0-0.09056 0.23733 0.27955 0.32209 0 0 0 0.09056 0.23733v0.1959a0.27955 0.32209 0 0 0-0.09056 0.23682 0.27955 0.32209 0 0 0 0.09056 0.23733v0.1959a0.27955 0.32209 0 0 0-0.09056 0.23733 0.27955 0.32209 0 0 0 0.09056 0.23733v0.18516a0.27955 0.32209 0 0 0-0.09056 0.23733 0.27955 0.32209 0 0 0 0.09056 0.23733v0.1959a0.27955 0.32209 0 0 0-0.09056 0.23733 0.27955 0.32209 0 0 0 0.09056 0.23682v0.19641a0.27955 0.32209 0 0 0-0.09056 0.23682 0.27955 0.32209 0 0 0 0.09056 0.23733v0.1959a0.27955 0.32209 0 0 0-0.09056 0.23733 0.27955 0.32209 0 0 0 0.09056 0.23733v0.1959a0.27955 0.32209 0 0 0-0.09056 0.23733 0.27955 0.32209 0 0 0 0.09056 0.23682v0.1959a0.27955 0.32209 0 0 0-0.09056 0.23733 0.27955 0.32209 0 0 0 0.09056 0.23733v0.1959a0.27955 0.32209 0 0 0-0.09056 0.23733 0.27955 0.32209 0 0 0 0.09056 0.23733v0.1959a0.27955 0.32209 0 0 0-0.09056 0.23682 0.27955 0.32209 0 0 0 0.09056 0.23733v0.1959a0.27955 0.32209 0 0 0-0.09056 0.23733 0.27955 0.32209 0 0 0 0.09056 0.23733v0.1959a0.27955 0.32209 0 0 0-0.09056 0.23733 0.27955 0.32209 0 0 0 0.27968 0.32172 0.27955 0.32209 0 0 0 0.27968-0.32172 0.27955 0.32209 0 0 0-0.09056-0.23733v-0.1959a0.27955 0.32209 0 0 0 0.09056-0.23733 0.27955 0.32209 0 0 0-0.09056-0.23733v-0.1959a0.27955 0.32209 0 0 0 0.09056-0.23733 0.27955 0.32209 0 0 0-0.09056-0.23682v-0.1959a0.27955 0.32209 0 0 0 0.09056-0.23733 0.27955 0.32209 0 0 0-0.09056-0.23733v-0.1959a0.27955 0.32209 0 0 0 0.09056-0.23733 0.27955 0.32209 0 0 0-0.09056-0.23733v-0.1959a0.27955 0.32209 0 0 0 0.09056-0.23682 0.27955 0.32209 0 0 0-0.09056-0.23733v-0.1959a0.27955 0.32209 0 0 0 0.09056-0.23733 0.27955 0.32209 0 0 0-0.09056-0.23733v-0.1959a0.27955 0.32209 0 0 0 0.09056-0.23733 0.27955 0.32209 0 0 0-0.09056-0.23682v-0.19641a0.27955 0.32209 0 0 0 0.09056-0.23682 0.27955 0.32209 0 0 0-0.09056-0.23733v-0.1959a0.27955 0.32209 0 0 0 0.09056-0.23733 0.27955 0.32209 0 0 0-0.090563-0.23733v-0.18516a0.27955 0.32209 0 0 0 0.090563-0.23733 0.27955 0.32209 0 0 0-0.090563-0.23733v-0.1959a0.27955 0.32209 0 0 0 0.090563-0.23733 0.27955 0.32209 0 0 0-0.090563-0.23682v-0.1959a0.27955 0.32209 0 0 0 0.090563-0.23733 0.27955 0.32209 0 0 0-0.090563-0.23733v-0.1959a0.27955 0.32209 0 0 0 0.090563-0.23733 0.27955 0.32209 0 0 0-0.090563-0.23733v-0.1959a0.27955 0.32209 0 0 0 0.090563-0.23682 0.27955 0.32209 0 0 0-0.090563-0.23733v-0.1959a0.27955 0.32209 0 0 0 0.090563-0.23733 0.27955 0.32209 0 0 0-0.090563-0.23733v-0.1959a0.27955 0.32209 0 0 0 0.090563-0.23733 0.27955 0.32209 0 0 0-0.090563-0.23682v-0.19641a0.27955 0.32209 0 0 0 0.090563-0.23682 0.27955 0.32209 0 0 0-0.090563-0.23733v-0.1959a0.27955 0.32209 0 0 0 0.090563-0.23733 0.27955 0.32209 0 0 0-0.090563-0.23733v-0.1959a0.27955 0.32209 0 0 0 0.090563-0.23733 0.27955 0.32209 0 0 0-0.27968-0.32173z" fill="#51300e" stroke-width=".048795"/><g transform="translate(-.077391 -.15283)" fill="#ccd812" stroke-width=".052917"><path d="m9.5623 2.0586h0.62654v1.516l0.35802 0.2909 0.016782 0.58179-1.0014-0.87269z"/><path d="m11.763 2.0586h-0.62654v1.516l-0.35802 0.2909-0.01678 0.58179 1.0014-0.87269z"/></g><circle cx="10.586" cy="2.6078" r=".4369" fill="#c43510" stroke-width=".049258"/></g><g fill="#fff"><rect transform="matrix(.57693 .81679 -.64101 .76754 0 0)" x="10.172" y="-7.7919" width=".15167" height=".10024"/><rect transform="matrix(-.012144 .99993 -.35358 .9354 0 0)" x="29.686" y="-29.51" width=".35672" height=".16943"/><rect transform="matrix(-.012144 .99993 -.35358 .9354 0 0)" x="34.014" y="-34.139" width=".35672" height=".16943"/></g></g></svg>
