<?xml version="1.0" encoding="UTF-8"?>
<!-- Created with Inkscape (http://www.inkscape.org/) -->
<svg width="64" height="64" version="1.1" viewBox="0 0 16.933 16.933" xmlns="http://www.w3.org/2000/svg"><g transform="rotate(39.849 22.749 -18.121)" stroke="#000"><path d="m8.1201-2.4921c0.50507 1.2048-1.3486 1.9567-1.7057 2.8945-0.35705 0.93782-0.34686 1.5934-0.026464 2.6002 0.32039 1.0067 0.84158 3.0151 0.84158 3.0151l-0.022331 2.1941-0.022081 2.1695s-0.5631 2.0182-0.90303 3.022c-0.33993 1.0038-0.36436 1.6553-0.026464 2.6002 0.33789 0.9449 2.4876 1.6326 1.7887 3.1135-0.25442 0.53913 0.34381-0.9089-0.43098-1.4492-0.77478-0.54032-1.8632-1.1987-2.0322-1.6712-0.33789-0.9449-0.31391-1.5983 0.026465-2.6002 0.34037-1.0019 0.9029-3.0097 0.9029-3.0097l0.022206-2.1818 0.022331-2.1941s-0.52119-2.0084-0.84158-3.0151c-0.32039-1.0067-0.33059-1.6624 0.026465-2.6002 0.17853-0.46891 1.1139-1.0497 1.8996-1.5741 0.78562-0.52443 0.25011-1.8633 0.4806-1.3135z" fill="#d3ad64" stroke-width=".015127"/><path d="m6.5989 6.0172 0.58662 0.00597c0.09135 9.296e-4 0.16442 0.048324 0.16383 0.10627l-0.010604 1.0418s-0.10599 0.69291-0.10953 1.0408c-0.00354 0.3479 0.088322 1.0428 0.088322 1.0428l-0.010604 1.0418c-5.872e-4 0.05794-0.074606 0.10383-0.16596 0.1029l-0.58662-6e-3c-0.09135-9.3e-4 -0.16442-0.04832-0.16383-0.10626l0.010604-1.0418s0.10594-0.69292 0.10948-1.0408c0.00354-0.3479-0.088273-1.0428-0.088273-1.0428l0.010604-1.0418c5.898e-4 -0.057941 0.074609-0.10384 0.16596-0.10291z" fill="#e9ddcc" stroke-width=".013133"/><path d="m8.0487-1.8076 0.034158-0.17849-0.054054 20.412-0.044708-0.18338z" fill="#fff" stroke-width=".012832"/><rect x="6.4025" y="6.0139" width=".93447" height="1.1989" rx=".11319" ry=".11319" fill="#4f3413" stroke-width=".011319"/><rect x="6.4025" y="9.1862" width=".93447" height="1.1989" rx=".11319" ry=".11319" fill="#4f3413" stroke-width=".011319"/></g><g transform="translate(-.19762 .18007)" stroke="#000"><path d="m15.46 0.36053-0.016084 0.15881-12.947 16.063-0.17474 0.04233z" fill="#fff" stroke-width=".016731"/><path d="m15.083-0.080644s0.34944 0.20851 0.38259 0.3085c0.03315 0.099996 0.26662 0.4323-1.3216 1.7404-1.5883 1.3081-5.5666 2.2258-7.5004 4.6883-1.9338 2.4625-1.9545 6.4899-2.853 8.354-0.89853 1.8642-1.4387 1.6365-1.5598 1.6302-0.12106-0.006363-0.38259-0.3085-0.38259-0.3085s0.66123 0.234 1.5598-1.6302c0.89853-1.8642 0.91927-5.8915 2.853-8.354 1.9338-2.4625 5.9121-3.3802 7.5004-4.6883 1.5883-1.3081 1.3216-1.7404 1.3216-1.7404z" fill="#403716" stroke-width=".016731"/><g fill="#ffd9d9" stroke-width=".014574"><path d="m5.8426 6.9544 0.43349 0.22678-0.14751 0.23647-0.42873-0.23018z"/><path d="m5.6959 7.1977 0.42867 0.23309-0.14004 0.24191-0.42235-0.22827z"/><path d="m5.5525 7.4487 0.42758 0.22955-0.12041 0.25231-0.42982-0.23371z"/></g><path d="m15.091 0.11229 0.41025 0.20809-3e-3 0.035992-0.41432-0.21137z" fill="#ececec" stroke-width=".010217"/><path d="m2.5228 16.624-0.29498-0.36562-0.034136 0.01428 0.29866 0.36522z" fill="#ececec" stroke-width=".010217"/><g fill="#ffd9d9" stroke-width=".014574"><path d="m7.2669 5.3327 0.3397 0.35206-0.21464 0.17779-0.33411-0.35379z"/><path d="m7.0509 5.5172 0.33313 0.35653-0.20927 0.18531-0.32865-0.34996z"/><path d="m6.8356 5.7101 0.33321 0.35283-0.19392 0.20138-0.33402-0.35748z"/></g></g></svg>
