<?xml version="1.0" encoding="UTF-8"?>
<!-- Created with Inkscape (http://www.inkscape.org/) -->
<svg width="64" height="64" version="1.1" viewBox="0 0 16.933 16.933" xmlns="http://www.w3.org/2000/svg" xmlns:xlink="http://www.w3.org/1999/xlink"><defs><linearGradient id="linearGradient493"><stop stop-color="#6b6464" offset="0"/><stop stop-color="#fff" offset=".33678"/><stop stop-color="#6b6464" offset="1"/></linearGradient><linearGradient id="linearGradient10"><stop offset="0"/><stop stop-color="#512f0b" offset=".13905"/></linearGradient><linearGradient id="linearGradient460" x1="5.7499" x2="2.5232" y1="3.2025" y2="5.1919" gradientTransform="matrix(1.1266 0 0 1.1266 -.97347 -.13849)" gradientUnits="userSpaceOnUse" xlink:href="#linearGradient493"/><linearGradient id="linearGradient491" x1="7.618" x2="7.618" y1="10.887" y2="13.609" gradientTransform="matrix(1.1279 0 0 1.6455 -70.848 34.292)" gradientUnits="userSpaceOnUse" xlink:href="#linearGradient10"/></defs><g transform="translate(.38324 .059579)"><g transform="rotate(-45.264 -15.447 -99.459)"><rect transform="rotate(45)" x="-62.841" y="52.206" width="1.1709" height="4.4786" fill="url(#linearGradient491)" stroke="#000" stroke-width=".069574"/><path d="m-80.994-7.2598-3.1625 3.2289 0.14176 0.13782 3.1286-3.2232z" fill="#969696"/><g fill="#050000"><path d="m-84.368-4.4565 0.31898-0.32666 0.8839 0.70328-0.33435 0.34971z"/><path d="m-84.028-4.8155 0.31898-0.32666 0.8839 0.70328-0.33435 0.34971z"/><path d="m-83.675-5.1695 0.31898-0.32666 0.8839 0.70328-0.33435 0.34971z"/><path d="m-83.309-5.5231 0.31898-0.32666 0.8839 0.70328-0.33435 0.34971z"/><path d="m-82.947-5.8728 0.31898-0.32666 0.8839 0.70328-0.33435 0.34971z"/><path d="m-82.218-6.606 0.31898-0.32666 0.8839 0.70328-0.33435 0.34971z"/><path d="m-82.597-6.2412 0.31898-0.32666 0.8839 0.70328-0.33435 0.34971z"/></g></g><g stroke="#000" stroke-width=".059614"><path d="m2.785 2.4962 1.3202-2.204 1.3203 2.204-0.26457 9.0372h-2.1115z" fill="url(#linearGradient460)"/><rect x="1.8565" y="11.389" width="4.4975" height=".78159" rx=".13229" ry=".13229" fill="#474343"/><path d="m4.1034 0.33696v11.075" fill="#474343"/></g><g transform="translate(7.9564)"><g transform="rotate(-45.264 -15.447 -99.459)"><rect transform="rotate(45)" x="-62.841" y="52.206" width="1.1709" height="4.4786" fill="url(#linearGradient491)" stroke="#000" stroke-width=".069574"/><path d="m-80.994-7.2598-3.1625 3.2289 0.14176 0.13782 3.1286-3.2232z" fill="#969696"/><g fill="#050000"><path d="m-84.368-4.4565 0.31898-0.32666 0.8839 0.70328-0.33435 0.34971z"/><path d="m-84.028-4.8155 0.31898-0.32666 0.8839 0.70328-0.33435 0.34971z"/><path d="m-83.675-5.1695 0.31898-0.32666 0.8839 0.70328-0.33435 0.34971z"/><path d="m-83.309-5.5231 0.31898-0.32666 0.8839 0.70328-0.33435 0.34971z"/><path d="m-82.947-5.8728 0.31898-0.32666 0.8839 0.70328-0.33435 0.34971z"/><path d="m-82.218-6.606 0.31898-0.32666 0.8839 0.70328-0.33435 0.34971z"/><path d="m-82.597-6.2412 0.31898-0.32666 0.8839 0.70328-0.33435 0.34971z"/></g></g><g stroke="#000" stroke-width=".059614"><path d="m2.785 2.4962 1.3202-2.204 1.3203 2.204-0.26457 9.0372h-2.1115z" fill="url(#linearGradient460)"/><rect x="1.8565" y="11.389" width="4.4975" height=".78159" rx=".13229" ry=".13229" fill="#474343"/><path d="m4.1034 0.33696v11.075" fill="#474343"/></g></g></g></svg>
