<?xml version="1.0" encoding="UTF-8"?>
<!-- Created with Inkscape (http://www.inkscape.org/) -->
<svg width="63.758" height="63.763" version="1.1" viewBox="0 0 16.869 16.871" xmlns="http://www.w3.org/2000/svg" xmlns:xlink="http://www.w3.org/1999/xlink"><defs><linearGradient id="linearGradient11" x1="7.618" x2="7.618" y1="10.887" y2="13.609" gradientTransform="matrix(.6874 0 0 1.0029 2.3814 -.035326)" gradientUnits="userSpaceOnUse"><stop offset="0"/><stop stop-color="#512f0b" offset=".13905"/></linearGradient><linearGradient id="linearGradient16" x1="9.152" x2="6.4568" y1=".90086" y2="9.1651" gradientUnits="userSpaceOnUse"><stop stop-color="#4f4f4f" offset="0"/><stop stop-color="#e5e5e5" offset=".59238"/><stop stop-color="#666" offset="1"/></linearGradient></defs><g transform="translate(-.046926 -.015923)"><g transform="matrix(1.1602 1.1602 -1.1602 1.1602 7.4649 -8.2082)"><rect x="7.2611" y="10.883" width=".71364" height="2.7296" fill="url(#linearGradient11)" stroke="#000" stroke-width=".042404"/><path d="m8.384 1.741-0.24694 9.1458h-1.0382l-0.23048-9.0306 0.74949-2.3431z" fill="url(#linearGradient16)" stroke="#000" stroke-width=".026458"/><path d="m7.5274 10.841 0.028611 2.7544 0.12049-0.0017-0.040764-2.7374z" fill="#969696"/><path d="m7.618 10.667-7.99e-5 -11.154" fill="#a2a2a2" stroke="#000" stroke-width=".026458"/><rect transform="matrix(-.037976 .99928 .99928 -.037976 0 0)" x="10.923" y="6.8628" width=".46946" height="2.2794" rx=".11079" ry=".11079" fill="#545454" stroke="#000" stroke-width=".022158"/><g fill="#050000"><path d="m7.2813 13.504-0.00331-0.27824 0.68401-0.07784 0.00662 0.2948z"/><path d="m7.273 13.202-0.00331-0.27824 0.68401-0.07784 0.00662 0.2948z"/><path d="m7.2727 12.898-0.00331-0.27824 0.68401-0.07784 0.00662 0.2948z"/><path d="m7.2782 12.587-0.00331-0.27824 0.68401-0.07784 0.00662 0.2948z"/><path d="m7.2832 12.281-0.00331-0.27824 0.68401-0.07784 0.00662 0.2948z"/><path d="m7.2816 11.651-0.00331-0.27824 0.68401-0.07784 0.00662 0.2948z"/><path d="m7.2752 11.971-0.00331-0.27824 0.68401-0.07784 0.00662 0.2948z"/></g></g></g></svg>
