<?xml version="1.0" encoding="UTF-8"?>
<!-- Created with Inkscape (http://www.inkscape.org/) -->
<svg width="64" height="64" version="1.1" viewBox="0 0 16.933 16.933" xmlns="http://www.w3.org/2000/svg"><g stroke="#000"><g><path d="m16.116 0.1229c-0.90634 3.2374-6.1353 7.3898-10.333 10.616l-0.74717 1.4997c3.21-2.3887 10.848-6.318 11.08-12.115z" fill="#e9e9e9" stroke-width=".050672"/><path d="m16.116 0.1229c-0.90634 3.2374-6.1353 7.3898-10.333 10.616l-0.74717 1.4997c2.5502-2.8641 9.6746-6.4901 11.08-12.115z" fill="#d6d6d6" stroke-width=".050672"/><path d="m6.9864 9.7193c-3.0102 2.4245-5.5865 4.4124-6.0434 5.3431-0.28323 0.57693-0.20495 2.2539 1.6911 1.563-0.94617-0.031943-1.3113-0.53604-1.0743-1.2015 0.23703-0.6655 1.3833-1.4224 2.048-1.7748 0.45413-0.24081 1.13 0.27448 1.13 0.27448-0.44263-0.49916-0.4129-0.91718 0.50538-1.7552z" fill="#fff" stroke-width=".055272"/></g><g transform="matrix(1.3044 .3495 -.3495 1.3044 3.7419 -4.3182)" fill="#ffd9d9" stroke-width=".006593"><path d="m4.4363 10.708-0.29196-0.0687 0.14773-0.19428z"/><path d="m3.6966 11.711-0.29339-0.0623 0.14345-0.19746z"/><path d="m3.8415 11.514-0.29339-0.0623 0.14345-0.19746z"/><path d="m3.9931 11.313-0.29249-0.06643 0.14622-0.19542z"/><path d="m4.141 11.104-0.29316-0.063372 0.14417-0.19694z"/><path d="m4.2922 10.902-0.29293-0.064433 0.14488-0.19641z"/><path d="m3.5425 11.902-0.2943-0.05788 0.14046-0.1996z"/><path d="m2.8403 12.931-0.29549-0.05143 0.13607-0.20262z"/><path d="m2.9778 12.729-0.29549-0.051432 0.13607-0.20262z"/><path d="m3.1219 12.523-0.29474-0.05559 0.13891-0.20068z"/><path d="m3.262 12.308-0.2953-0.052512 0.13681-0.20212z"/><path d="m3.4056 12.101-0.29511-0.053581 0.13754-0.20163z"/><path d="m2.6981 13.123-0.29593-0.048821 0.13427-0.20382z"/><path d="m2.0942 14.171-0.29988 0.0056 0.095138-0.22476z"/><path d="m2.1996 13.949-0.29978-0.009452 0.10629-0.21971z"/><path d="m2.3158 13.746-0.29888-0.025161 0.11766-0.21384z"/><path d="m2.4388 13.543-0.29677-0.043424 0.13054-0.20623z"/><path d="m2.5674 13.326-0.29662-0.044498 0.13128-0.20575z"/></g><g fill="#e9e9e9" stroke-width=".01275"><path d="m6.6163 10.57c0.41886-0.078848 0.68948-0.78927 0.98447-1.0573 0.26212-0.23816 0.39488-0.071489 0.68951-0.33928 0.29383-0.26707 0.59955-0.82662 0.59955-0.82662s-0.22881 0.61177-0.53433 0.89388c-0.30398 0.28069-0.39056 0.080634-0.68853 0.35164-0.33466 0.30438-0.71906 1.0099-1.0507 0.97766z"/><path d="m8.7166 8.8962c0.41886-0.078848 0.70136-0.79612 0.99635-1.0641 0.26212-0.23816 0.39488-0.071489 0.68951-0.33928 0.29383-0.26707 0.56618-0.87071 0.56618-0.87071s-0.19544 0.65586-0.50096 0.93797c-0.30398 0.28069-0.39056 0.080634-0.68853 0.35164-0.33466 0.30438-0.73094 1.0168-1.0626 0.98452z"/><path d="m10.87 7.1862c0.412-0.10917 0.62402-0.88303 0.89869-1.1718 0.24406-0.25663 0.38862-0.10008 0.66295-0.38864 0.27359-0.28778 0.50488-0.84843 0.50488-0.84843s-0.15078 0.60713-0.43493 0.91076c-0.28271 0.3021-0.38364 0.10889-0.66107 0.4009-0.31158 0.32796-0.63744 1.1052-0.97052 1.0972z"/><path d="m12.95 5.1828c0.40291-0.13901 0.55776-0.9263 0.81057-1.2344 0.22464-0.27379 0.35592-0.14983 0.6084-0.45767 0.2518-0.30702 0.45767-0.9223 0.45767-0.9223s-0.13622 0.65198-0.3974 0.97558c-0.25985 0.32197-0.33626 0.16201-0.59158 0.47353-0.28676 0.34987-0.55488 1.1489-0.88766 1.1653z"/></g></g></svg>
