<?xml version="1.0" encoding="UTF-8"?>
<!-- Created with Inkscape (http://www.inkscape.org/) -->
<svg width="64" height="64" version="1.1" viewBox="0 0 16.933 16.933" xmlns="http://www.w3.org/2000/svg"><g transform="translate(.40432 .50801)" stroke="#000"><g transform="matrix(1.6901 0 0 1.6901 -2.4485 -5.3934)"><path d="m2.655 3.5601c1.6934 1.1871 1.4065 3.8247 0.98111 6.0207l0.45913 0.39279c0.38012-1.6572 2.4842-4.7152-1.4402-6.4135z" fill="#e9e9e9" stroke-width=".031886"/><path d="m2.655 3.5601c1.6934 1.1871 1.4087 3.8314 0.98329 6.0274l0.45695 0.39279c-0.37701-1.5878 1.6107-4.4093-1.4402-6.4202z" fill="#d6d6d6" stroke-width=".031886"/><g fill="#e9e9e9" stroke-width=".008023"><path d="m3.9036 9.4124c0.21321-0.15091-0.082712-0.42605-0.081857-0.59195 7.597e-4 -0.14742 0.17331-0.14889 0.17409-0.31463 7.814e-4 -0.16529-0.08127-0.33465-0.08127-0.33465s0.16806 0.16037 0.17036 0.33348c0.00228 0.17223-0.13442 0.14271-0.13509 0.31037-7.498e-4 0.18831 0.18909 0.50448-0.046225 0.59739z"/><path d="m4.0744 8.297c0.21321-0.15091-0.1096-0.43905-0.10875-0.60495 7.597e-4 -0.14742 0.203-0.14147 0.20378-0.30721 7.812e-4 -0.16529-0.15896-0.39598-0.15896-0.39598s0.24575 0.2217 0.24805 0.3948c0.00228 0.17223-0.1938 0.14271-0.19447 0.31037-7.496e-4 0.18831 0.24567 0.51006 0.010353 0.60296z"/><path d="m4.2537 7.1551c0.1875-0.15731-0.22026-0.43965-0.24704-0.60515-0.023799-0.14705 0.17889-0.14757 0.15207-0.31289-0.026753-0.16487-0.21003-0.42073-0.21003-0.42073s0.29499 0.24415 0.32611 0.41672c0.030968 0.1717-0.19694 0.14851-0.16967 0.31575 0.030619 0.18783 0.36779 0.50614 0.14857 0.6063z"/><path d="m4.18 5.9533c0.1607-0.16289-0.25826-0.42893-0.31264-0.59312-0.048316-0.1459 0.088075-0.15397 0.033687-0.31798-0.054241-0.16357-0.30219-0.46185-0.30219-0.46185s0.31839 0.28716 0.37827 0.45827c0.059586 0.17024-0.066906 0.15134-0.011761 0.31726 0.061933 0.18635 0.41651 0.49052 0.21462 0.59743z"/></g><g transform="matrix(1.1313 0 0 1.1313 -.51366 -1.2884)"><path d="m3.6698 8.836c-0.087484 1.4151-0.22263 2.458-0.083449 2.8119 0.086275 0.2194 0.55999 0.61289 0.84168-0.07168-0.24263 0.24846-0.46949 0.22272-0.59119-0.0061-0.1217-0.22875-0.043312-0.72648 0.025564-0.99373 0.047055-0.18259 0.35379-0.23828 0.35379-0.23828-0.2447-0.0035-0.15722-0.16495-0.090502-0.33423z" fill="#fff" stroke-width=".020275"/><g fill="#ffd9d9" stroke-width=".0032658"><path d="m3.7791 9.3781-0.13975 0.050427 0.00878-0.12058z"/><path d="m3.7288 9.9941-0.13981 0.05025 0.00894-0.12056z"/><path d="m3.7386 9.8734-0.13981 0.050262 0.00894-0.12057z"/><path d="m3.749 9.7503-0.14051 0.048281 0.010636-0.12043z"/><path d="m3.7608 9.6256-0.13999 0.049739 0.00938-0.12053z"/><path d="m3.7698 9.5032-0.14017 0.049236 0.00981-0.1205z"/><path d="m3.7209 10.116-0.13904 0.05235 0.00712-0.12069z"/><path d="m3.673 10.735-0.13871 0.05321 0.00638-0.12073z"/><path d="m3.6869 10.614-0.13865 0.05338 0.00623-0.12074z"/><path d="m3.6942 10.489-0.13978 0.05035 0.00885-0.12057z"/><path d="m3.7064 10.364-0.14074 0.04759 0.011226-0.12038z"/><path d="m3.7121 10.234-0.13826 0.05438 0.00535-0.12078z"/><path d="m3.6678 10.857-0.13879 0.05301 0.00655-0.12072z"/><path d="m3.6845 11.451-0.12363 0.0824-0.02031-0.11918z"/><path d="m3.6692 11.33-0.12761 0.07609-0.014311-0.12005z"/><path d="m3.6635 11.214-0.13142 0.06929-8e-3 -0.12063z"/><path d="m3.6607 11.097-0.13542 0.06111-5.908e-4 -0.1209z"/><path d="m3.6632 10.972-0.13564 0.06062-1.533e-4 -0.1209z"/></g></g></g><g transform="matrix(-1.6901 0 0 1.6901 18.573 -5.3934)"><path d="m2.655 3.5601c1.6934 1.1871 1.4065 3.8247 0.98111 6.0207l0.45913 0.39279c0.38012-1.6572 2.4842-4.7152-1.4402-6.4135z" fill="#e9e9e9" stroke-width=".031886"/><path d="m2.655 3.5601c1.6934 1.1871 1.4087 3.8314 0.98329 6.0274l0.45695 0.39279c-0.37701-1.5878 1.6107-4.4093-1.4402-6.4202z" fill="#d6d6d6" stroke-width=".031886"/><g fill="#e9e9e9" stroke-width=".008023"><path d="m3.9036 9.4124c0.21321-0.15091-0.082712-0.42605-0.081857-0.59195 7.597e-4 -0.14742 0.17331-0.14889 0.17409-0.31463 7.814e-4 -0.16529-0.08127-0.33465-0.08127-0.33465s0.16806 0.16037 0.17036 0.33348c0.00228 0.17223-0.13442 0.14271-0.13509 0.31037-7.498e-4 0.18831 0.18909 0.50448-0.046225 0.59739z"/><path d="m4.0744 8.297c0.21321-0.15091-0.1096-0.43905-0.10875-0.60495 7.597e-4 -0.14742 0.203-0.14147 0.20378-0.30721 7.812e-4 -0.16529-0.15896-0.39598-0.15896-0.39598s0.24575 0.2217 0.24805 0.3948c0.00228 0.17223-0.1938 0.14271-0.19447 0.31037-7.496e-4 0.18831 0.24567 0.51006 0.010353 0.60296z"/><path d="m4.2537 7.1551c0.1875-0.15731-0.22026-0.43965-0.24704-0.60515-0.023799-0.14705 0.17889-0.14757 0.15207-0.31289-0.026753-0.16487-0.21003-0.42073-0.21003-0.42073s0.29499 0.24415 0.32611 0.41672c0.030968 0.1717-0.19694 0.14851-0.16967 0.31575 0.030619 0.18783 0.36779 0.50614 0.14857 0.6063z"/><path d="m4.18 5.9533c0.1607-0.16289-0.25826-0.42893-0.31264-0.59312-0.048316-0.1459 0.088075-0.15397 0.033687-0.31798-0.054241-0.16357-0.30219-0.46185-0.30219-0.46185s0.31839 0.28716 0.37827 0.45827c0.059586 0.17024-0.066906 0.15134-0.011761 0.31726 0.061933 0.18635 0.41651 0.49052 0.21462 0.59743z"/></g><g transform="matrix(1.1313 0 0 1.1313 -.51366 -1.2884)"><path d="m3.6698 8.836c-0.087484 1.4151-0.22263 2.458-0.083449 2.8119 0.086275 0.2194 0.55999 0.61289 0.84168-0.07168-0.24263 0.24846-0.46949 0.22272-0.59119-0.0061-0.1217-0.22875-0.043312-0.72648 0.025564-0.99373 0.047055-0.18259 0.35379-0.23828 0.35379-0.23828-0.2447-0.0035-0.15722-0.16495-0.090502-0.33423z" fill="#fff" stroke-width=".020275"/><g fill="#ffd9d9" stroke-width=".0032658"><path d="m3.7791 9.3781-0.13975 0.050427 0.00878-0.12058z"/><path d="m3.7288 9.9941-0.13981 0.05025 0.00894-0.12056z"/><path d="m3.7386 9.8734-0.13981 0.050262 0.00894-0.12057z"/><path d="m3.749 9.7503-0.14051 0.048281 0.010636-0.12043z"/><path d="m3.7608 9.6256-0.13999 0.049739 0.00938-0.12053z"/><path d="m3.7698 9.5032-0.14017 0.049236 0.00981-0.1205z"/><path d="m3.7209 10.116-0.13904 0.05235 0.00712-0.12069z"/><path d="m3.673 10.735-0.13871 0.05321 0.00638-0.12073z"/><path d="m3.6869 10.614-0.13865 0.05338 0.00623-0.12074z"/><path d="m3.6942 10.489-0.13978 0.05035 0.00885-0.12057z"/><path d="m3.7064 10.364-0.14074 0.04759 0.011226-0.12038z"/><path d="m3.7121 10.234-0.13826 0.05438 0.00535-0.12078z"/><path d="m3.6678 10.857-0.13879 0.05301 0.00655-0.12072z"/><path d="m3.6845 11.451-0.12363 0.0824-0.02031-0.11918z"/><path d="m3.6692 11.33-0.12761 0.07609-0.014311-0.12005z"/><path d="m3.6635 11.214-0.13142 0.06929-8e-3 -0.12063z"/><path d="m3.6607 11.097-0.13542 0.06111-5.908e-4 -0.1209z"/><path d="m3.6632 10.972-0.13564 0.06062-1.533e-4 -0.1209z"/></g></g></g></g></svg>
