<?xml version="1.0" encoding="UTF-8"?>
<!-- Created with Inkscape (http://www.inkscape.org/) -->
<svg width="52.643" height="59.543" version="1.1" viewBox="0 0 13.929 15.754" xmlns="http://www.w3.org/2000/svg" xmlns:xlink="http://www.w3.org/1999/xlink"><defs><linearGradient id="linearGradient613"><stop stop-color="#575757" offset="0"/><stop stop-color="#cbcbcb" offset=".42237"/><stop stop-color="#575757" offset="1"/></linearGradient><linearGradient id="linearGradient614" x1="8.8354" x2="6.1601" y1=".69311" y2="4.638" gradientTransform="translate(-3.4992 1.7454)" gradientUnits="userSpaceOnUse" xlink:href="#linearGradient613"/></defs><g transform="translate(-1.277 -.58959)" stroke="#000"><path d="m2.8865 3.37 1.1222-2.7188 1.1222 2.7188v1.7648l0.44707 0.88241-0.44707 0.88241 0.83083 0.88241-0.83083 0.88241v1.7648h-2.2444v-1.7648l-0.83767-0.89373 0.83767-0.87109-0.43016-0.87109 0.43016-0.89373z" fill="url(#linearGradient614)" stroke-width=".046968"/><path d="m3.0603 10.645h1.8804s-0.079342 1.4499-0.079342 2.1756 0.079342 2.1756 0.079342 2.1756h-1.8804s0.079409-1.4499 0.079409-2.1756-0.079409-2.1756-0.079409-2.1756z" fill="#272727" stroke-width=".052917"/><g fill="#575757"><path d="m3.0299 14.906a0.97062 0.91723 0 0 0 0.97029 0.8963 0.97062 0.91723 0 0 0 0.97086-0.8963z" stroke-width=".057151"/><g stroke-width=".031947"><path d="m5.2165 15.699-0.60136-0.10851s0.11873-0.1066 0.1686-0.17109c0.049862-0.06448 0.13057-0.21582 0.13057-0.21582z"/><path d="m5.2165 15.699-0.60136-0.10851s0.11873-0.1066 0.1686-0.17109c0.049862-0.06448 0.13057-0.21582 0.13057-0.21582z"/><path d="m4.0372 16.305-0.27919-0.54356s0.15681 0.02954 0.23833 0.02996c0.081509 4.27e-4 0.25075-0.02742 0.25075-0.02742z"/><path d="m2.7856 15.699 0.60136-0.10851s-0.11873-0.1066-0.1686-0.17109c-0.049862-0.06448-0.13057-0.21582-0.13057-0.21582z"/></g></g><path d="m2.1648 9.8926 1.8455 0.37084 1.8455-0.37084 0.84577-0.53016-0.84577 1.3696h-3.6909l-0.86529-1.3891z" fill="#3e3e3e" stroke-width=".052917"/><path d="m4.0161 10.28-0.0084-9.5694" fill="#575757" stroke-width=".052917"/><g transform="translate(8.4816)"><path d="m2.8865 3.37 1.1222-2.7188 1.1222 2.7188v1.7648l0.44707 0.88241-0.44707 0.88241 0.83083 0.88241-0.83083 0.88241v1.7648h-2.2444v-1.7648l-0.83767-0.89373 0.83767-0.87109-0.43016-0.87109 0.43016-0.89373z" fill="url(#linearGradient614)" stroke-width=".046968"/><path d="m3.0603 10.645h1.8804s-0.079342 1.4499-0.079342 2.1756 0.079342 2.1756 0.079342 2.1756h-1.8804s0.079409-1.4499 0.079409-2.1756-0.079409-2.1756-0.079409-2.1756z" fill="#272727" stroke-width=".052917"/><g fill="#575757"><path d="m3.0299 14.906a0.97062 0.91723 0 0 0 0.97029 0.8963 0.97062 0.91723 0 0 0 0.97086-0.8963z" stroke-width=".057151"/><g stroke-width=".031947"><path d="m5.2165 15.699-0.60136-0.10851s0.11873-0.1066 0.1686-0.17109c0.049862-0.06448 0.13057-0.21582 0.13057-0.21582z"/><path d="m5.2165 15.699-0.60136-0.10851s0.11873-0.1066 0.1686-0.17109c0.049862-0.06448 0.13057-0.21582 0.13057-0.21582z"/><path d="m4.0372 16.305-0.27919-0.54356s0.15681 0.02954 0.23833 0.02996c0.081509 4.27e-4 0.25075-0.02742 0.25075-0.02742z"/><path d="m2.7856 15.699 0.60136-0.10851s-0.11873-0.1066-0.1686-0.17109c-0.049862-0.06448-0.13057-0.21582-0.13057-0.21582z"/></g></g><path d="m2.1648 9.8926 1.8455 0.37084 1.8455-0.37084 0.84577-0.53016-0.84577 1.3696h-3.6909l-0.86529-1.3891z" fill="#3e3e3e" stroke-width=".052917"/><path d="m4.0161 10.28-0.0084-9.5694" fill="#575757" stroke-width=".052917"/></g></g></svg>
