<?xml version="1.0" encoding="UTF-8"?>
<!-- Created with Inkscape (http://www.inkscape.org/) -->
<svg width="64" height="64" version="1.1" viewBox="0 0 16.933 16.933" xmlns="http://www.w3.org/2000/svg"><g transform="matrix(.98449 .79386 -.79386 .98449 8.0402 -5.6099)" stroke="#000"><path d="m7.498 0.20129 0.068924 0.10573 0.00352 16.313-0.086546 0.11278z" fill="#fff" stroke-width=".013229"/><path d="m7.0473 0.11658s0.31858-0.045096 0.38861 0c0.070036 0.045096 0.37867 0.13376 0.050322 1.7272-0.32835 1.5935-2.3216 4.133-2.2897 6.6085 0.031963 2.4755 2.0181 4.9648 2.3903 6.5582 0.37218 1.5934-0.073292 1.7214-0.15097 1.7776-0.077674 0.05617-0.38861 0-0.38861 0s0.52314-0.18416 0.15097-1.7776c-0.37218-1.5934-2.3583-4.0826-2.3903-6.5582-0.031963-2.4755 1.9613-5.015 2.2897-6.6085 0.32835-1.5935-0.050322-1.7272-0.050322-1.7272z" fill="#6a5a23" stroke-width=".013229"/><g fill="#ececec"><g stroke-width=".011524"><path d="m4.8271 7.9674 0.38683-0.0020665-0.015503 0.21983-0.38476-0.00207z"/><path d="m4.8147 8.1917 0.3858 0.00413-0.00827 0.22086-0.3796-0.0031z"/><path d="m4.8075 8.4201 0.38373 0.00206 0.0093 0.22086-0.38683-0.00414z"/></g><path d="m7.1481 0.2313 0.3558-0.075539 0.015993 0.023662-0.35994 0.075539z" stroke-width=".0080784"/><path d="m7.6072 16.633-0.36304-0.07864-0.013926 0.02573 0.3651 0.07657z" stroke-width=".0080784"/></g></g></svg>
