<?xml version="1.0" encoding="UTF-8"?>
<!-- Created with Inkscape (http://www.inkscape.org/) -->
<svg width="63.645" height="63.646" version="1.1" viewBox="0 0 16.839 16.84" xmlns="http://www.w3.org/2000/svg" xmlns:xlink="http://www.w3.org/1999/xlink"><defs><linearGradient id="linearGradient11" x1="7.618" x2="7.618" y1="10.887" y2="13.609" gradientTransform="matrix(.6874 0 0 1.0029 2.3814 -.035326)" gradientUnits="userSpaceOnUse"><stop offset="0"/><stop stop-color="#512f0b" offset=".13905"/></linearGradient><linearGradient id="linearGradient16" x1="9.152" x2="6.4568" y1=".90086" y2="9.1651" gradientUnits="userSpaceOnUse"><stop stop-color="#a5a5a5" offset="0"/><stop stop-color="#d2d2d2" offset=".37168"/><stop stop-color="#a5a5a5" offset="1"/></linearGradient></defs><g transform="matrix(1.1602 1.1602 -1.1602 1.1602 7.418 -8.255)" stroke="#000"><rect x="7.2611" y="10.883" width=".71364" height="2.7296" fill="url(#linearGradient11)" stroke-width=".042404"/><path d="m8.1371 1.8151v9.0717h-1.0382v-9.0717l0.51901-2.302z" fill="url(#linearGradient16)" stroke-width=".026458"/><g fill="#c8cf99" stroke-width=".014545"><path d="m7.6181 12.065c-0.092384 0-0.17496 0.0269-0.2286 0.06892h-0.1315v0.22659h0.12326c0.1118 0.0919 0.36188 0.0919 0.47369 0h0.1229v-0.22659h-0.1315c-0.053646-0.04202-0.13586-0.06892-0.22824-0.06892z"/><path d="m7.6181 12.447c-0.092384 0-0.17496 0.0269-0.2286 0.06892h-0.1315v0.22659h0.12326c0.1118 0.0919 0.36188 0.0919 0.47369 0h0.1229v-0.22659h-0.1315c-0.053646-0.04202-0.13586-0.06892-0.22824-0.06892z"/><path d="m7.6181 11.683c-0.092384 0-0.17496 0.0269-0.2286 0.06892h-0.1315v0.22659h0.12326c0.1118 0.0919 0.36188 0.0919 0.47369 0h0.1229v-0.22659h-0.1315c-0.053646-0.042021-0.13586-0.068918-0.22824-0.068918z"/></g><rect transform="matrix(0,1,1,0,0,0)" x="10.326" y="6.2571" width=".56057" height="2.7217" rx=".13229" ry=".13229" fill="#764711" stroke-width=".026458"/><path d="m7.618 10.326-7.99e-5 -10.813" fill="#a2a2a2" stroke-width=".026458"/></g></svg>
