<?xml version="1.0" encoding="UTF-8"?>
<!-- Created with Inkscape (http://www.inkscape.org/) -->
<svg width="64" height="64" version="1.1" viewBox="0 0 16.933 16.933" xmlns="http://www.w3.org/2000/svg" xmlns:xlink="http://www.w3.org/1999/xlink"><defs><linearGradient id="linearGradient461"><stop offset="0"/><stop stop-opacity="0" offset="1"/></linearGradient><linearGradient id="linearGradient459"><stop stop-color="#aba7a7" offset="0"/><stop stop-color="#fff" offset=".33678"/><stop stop-color="#aba7a7" offset="1"/></linearGradient><linearGradient id="linearGradient460" x1="5.7499" x2="2.5232" y1="3.2025" y2="5.1919" gradientUnits="userSpaceOnUse" xlink:href="#linearGradient459"/><linearGradient id="linearGradient463" x1="8.9774" x2="9.0013" y1="6.1227" y2="8.541" gradientTransform="matrix(.83334 0 0 .34705 -2.939 8.5497)" gradientUnits="userSpaceOnUse" xlink:href="#linearGradient461"/></defs><g transform="translate(.10289)"><g transform="matrix(1.1266 0 0 1.1266 -1.0764 -.13849)"><g fill="#472e0d" stroke="#000" stroke-width=".052917"><rect x="3.8858" y="10.855" width="1.2448" height=".78115" rx=".11307" ry=".030158"/><rect x="3.8858" y="11.665" width="1.2448" height=".78115" rx=".11307" ry=".030158"/><rect x="3.8858" y="12.475" width="1.2448" height=".78115" rx=".11307" ry=".030158"/><rect x="3.8858" y="13.285" width="1.2448" height=".78115" rx=".11307" ry=".030158"/></g><g stroke="#000"><path d="m3.571 2.3387 0.93714-1.9564 0.93714 1.9564v8.022h-1.8743z" fill="url(#linearGradient460)" stroke-width=".052917"/><rect x="2.512" y="10.233" width="3.9922" height=".69379" fill="#474343" stroke-width=".052917"/><path d="m3.6073 14.039h1.8018l-0.90093 0.89298z" fill="#dadd2c" stroke-width=".034208"/><path d="m4.5065 0.42204v9.8306" fill="#474343" stroke-width=".052917"/></g><rect x="3.8946" y="10.924" width="1.2333" height="1.3472" fill="url(#linearGradient463)"/></g><g transform="matrix(1.1266 0 0 1.1266 7.6465 -.13849)"><g fill="#472e0d" stroke="#000" stroke-width=".052917"><rect x="3.8858" y="10.855" width="1.2448" height=".78115" rx=".11307" ry=".030158"/><rect x="3.8858" y="11.665" width="1.2448" height=".78115" rx=".11307" ry=".030158"/><rect x="3.8858" y="12.475" width="1.2448" height=".78115" rx=".11307" ry=".030158"/><rect x="3.8858" y="13.285" width="1.2448" height=".78115" rx=".11307" ry=".030158"/></g><g stroke="#000"><path d="m3.571 2.3387 0.93714-1.9564 0.93714 1.9564v8.022h-1.8743z" fill="url(#linearGradient460)" stroke-width=".052917"/><rect x="2.512" y="10.233" width="3.9922" height=".69379" fill="#474343" stroke-width=".052917"/><path d="m3.6073 14.039h1.8018l-0.90093 0.89298z" fill="#dadd2c" stroke-width=".034208"/><path d="m4.5065 0.42204v9.8306" fill="#474343" stroke-width=".052917"/></g><rect x="3.8946" y="10.924" width="1.2333" height="1.3472" fill="url(#linearGradient463)"/></g></g></svg>
