<?xml version="1.0" encoding="UTF-8"?>
<!-- Created with Inkscape (http://www.inkscape.org/) -->
<svg width="64" height="64" version="1.1" viewBox="0 0 16.933 16.933" xmlns="http://www.w3.org/2000/svg" xmlns:xlink="http://www.w3.org/1999/xlink"><defs><linearGradient id="linearGradient43"><stop stop-color="#c3c3c3" offset="0"/><stop stop-color="#e5e5e5" offset=".853"/><stop stop-color="#a4a4a4" offset="1"/></linearGradient><linearGradient id="linearGradient39"><stop offset="0"/><stop stop-color="#372614" offset=".13905"/></linearGradient><linearGradient id="linearGradient529" x1="7.618" x2="7.618" y1="10.887" y2="13.609" gradientTransform="matrix(1.1279 0 0 1.6455 -4.2281 -6.3683)" gradientUnits="userSpaceOnUse" xlink:href="#linearGradient39"/><linearGradient id="linearGradient532" x1="9.152" x2="6.4568" y1=".90086" y2="9.1651" gradientTransform="matrix(1.1602 1.1602 -1.1602 1.1602 4.6788 -8.5059)" gradientUnits="userSpaceOnUse" xlink:href="#linearGradient43"/></defs><g transform="translate(-.48761)" stroke="#000"><g transform="matrix(1.1766 0 0 1.1766 -.55858 -2.4388)"><g transform="matrix(.71017 -.34468 .7152 .34225 -5.3752 7.4626)" stroke-width=".043412"><path d="m12.727 2.1141-11.449 11.307-0.82334-0.86277 11.231-11.262 2.3965-1.5289z" fill="url(#linearGradient532)"/><path d="m0.94754 12.927 13.134-13.159" fill="#a2a2a2"/></g><rect transform="rotate(-.73536)" x="3.7785" y="11.546" width="1.1709" height="4.4786" fill="url(#linearGradient529)" stroke-width=".069574"/><g fill="#969696"><path d="m2.5302 11.416 3.9523 0.01764 0.52829 0.22193-0.53025 0.21721-3.9523-0.01764-0.52809-0.22193z" stroke-width=".026458"/><g stroke-width=".020389"><path d="m4.5602 14.516a0.55587 0.55587 0 0 0-0.54715 0.56456 0.55587 0.55587 0 0 0 0.56456 0.54715 0.55587 0.55587 0 0 0 0.54675-0.56456 0.55587 0.55587 0 0 0-0.56416-0.54715zm0.00277 0.17679a0.37936 0.37936 0 0 1 0.385 0.37313 0.37936 0.37936 0 0 1-0.37312 0.3854 0.37936 0.37936 0 0 1-0.38541-0.37352 0.37936 0.37936 0 0 1 0.37352-0.38501z"/><path d="m4.5425 13.384a0.55587 0.55587 0 0 0-0.54715 0.56456 0.55587 0.55587 0 0 0 0.56456 0.54715 0.55587 0.55587 0 0 0 0.54675-0.56456 0.55587 0.55587 0 0 0-0.56416-0.54715zm0.00277 0.17679a0.37936 0.37936 0 0 1 0.385 0.37313 0.37936 0.37936 0 0 1-0.37312 0.3854 0.37936 0.37936 0 0 1-0.38541-0.37352 0.37936 0.37936 0 0 1 0.37352-0.38501z"/><path d="m4.5247 12.252a0.55587 0.55587 0 0 0-0.54715 0.56456 0.55587 0.55587 0 0 0 0.56456 0.54715 0.55587 0.55587 0 0 0 0.54675-0.56456 0.55587 0.55587 0 0 0-0.56416-0.54715zm0.00277 0.17679a0.37936 0.37936 0 0 1 0.385 0.37313 0.37936 0.37936 0 0 1-0.37312 0.3854 0.37936 0.37936 0 0 1-0.38541-0.37352 0.37936 0.37936 0 0 1 0.37353-0.38501z"/></g></g></g><g transform="matrix(1.1766 0 0 1.1766 7.8644 -2.4388)"><g transform="matrix(.71017 -.34468 .7152 .34225 -5.3752 7.4626)" stroke-width=".043412"><path d="m12.727 2.1141-11.449 11.307-0.82334-0.86277 11.231-11.262 2.3965-1.5289z" fill="url(#linearGradient532)"/><path d="m0.94754 12.927 13.134-13.159" fill="#a2a2a2"/></g><rect transform="rotate(-.73536)" x="3.7785" y="11.546" width="1.1709" height="4.4786" fill="url(#linearGradient529)" stroke-width=".069574"/><g fill="#969696"><path d="m2.5302 11.416 3.9523 0.01764 0.52829 0.22193-0.53025 0.21721-3.9523-0.01764-0.52809-0.22193z" stroke-width=".026458"/><g stroke-width=".020389"><path d="m4.5602 14.516a0.55587 0.55587 0 0 0-0.54715 0.56456 0.55587 0.55587 0 0 0 0.56456 0.54715 0.55587 0.55587 0 0 0 0.54675-0.56456 0.55587 0.55587 0 0 0-0.56416-0.54715zm0.00277 0.17679a0.37936 0.37936 0 0 1 0.385 0.37313 0.37936 0.37936 0 0 1-0.37312 0.3854 0.37936 0.37936 0 0 1-0.38541-0.37352 0.37936 0.37936 0 0 1 0.37352-0.38501z"/><path d="m4.5425 13.384a0.55587 0.55587 0 0 0-0.54715 0.56456 0.55587 0.55587 0 0 0 0.56456 0.54715 0.55587 0.55587 0 0 0 0.54675-0.56456 0.55587 0.55587 0 0 0-0.56416-0.54715zm0.00277 0.17679a0.37936 0.37936 0 0 1 0.385 0.37313 0.37936 0.37936 0 0 1-0.37312 0.3854 0.37936 0.37936 0 0 1-0.38541-0.37352 0.37936 0.37936 0 0 1 0.37352-0.38501z"/><path d="m4.5247 12.252a0.55587 0.55587 0 0 0-0.54715 0.56456 0.55587 0.55587 0 0 0 0.56456 0.54715 0.55587 0.55587 0 0 0 0.54675-0.56456 0.55587 0.55587 0 0 0-0.56416-0.54715zm0.00277 0.17679a0.37936 0.37936 0 0 1 0.385 0.37313 0.37936 0.37936 0 0 1-0.37312 0.3854 0.37936 0.37936 0 0 1-0.38541-0.37352 0.37936 0.37936 0 0 1 0.37353-0.38501z"/></g></g></g></g></svg>
