<?xml version="1.0" encoding="UTF-8"?>
<!-- Created with Inkscape (http://www.inkscape.org/) -->
<svg width="63.647" height="63.646" version="1.1" viewBox="0 0 16.84 16.84" xmlns="http://www.w3.org/2000/svg" xmlns:xlink="http://www.w3.org/1999/xlink"><defs><linearGradient id="linearGradient11" x1="7.618" x2="7.618" y1="10.887" y2="13.609" gradientTransform="matrix(1.1279 0 0 1.6455 3.3817 -11.141)" gradientUnits="userSpaceOnUse"><stop offset="0"/><stop stop-color="#372614" offset=".13905"/></linearGradient><linearGradient id="linearGradient16" x1="9.152" x2="6.4568" y1=".90086" y2="9.1651" gradientTransform="matrix(1.1602 1.1602 -1.1602 1.1602 7.4649 -8.2082)" gradientUnits="userSpaceOnUse"><stop stop-color="#c3c3c3" offset="0"/><stop stop-color="#e5e5e5" offset=".853"/><stop stop-color="#a4a4a4" offset="1"/></linearGradient></defs><g transform="translate(-.046926 -.046883)"><g stroke="#000"><g><rect transform="rotate(45)" x="11.388" y="6.7737" width="1.1709" height="4.4786" fill="url(#linearGradient11)" stroke-width=".069574"/><path d="m15.514 2.4118-11.449 11.307-0.82334-0.86277 11.231-11.262 2.3965-1.5289z" fill="url(#linearGradient16)" stroke-width=".043412"/><path d="m3.7337 13.225 13.134-13.159" fill="#a2a2a2" stroke-width=".043412"/></g><path d="m2.4044 11.792 2.6912 2.8945 0.19959 0.53713-0.5212-0.2381-2.6912-2.8945-0.19945-0.53698z" fill="#969696" stroke-width=".026458"/><g transform="rotate(44.838 1.7304 15.956)" fill="#969696" stroke-width=".020389"><path d="m1.208 15.697a0.55587 0.55587 0 0 0-0.55592 0.55592 0.55587 0.55587 0 0 0 0.55592 0.55592 0.55587 0.55587 0 0 0 0.55552-0.55592 0.55587 0.55587 0 0 0-0.55552-0.55592zm0 0.17681a0.37936 0.37936 0 0 1 0.37911 0.37911 0.37936 0.37936 0 0 1-0.37911 0.37951 0.37936 0.37936 0 0 1-0.37951-0.37951 0.37936 0.37936 0 0 1 0.37951-0.37911z"/><path d="m1.208 14.565a0.55587 0.55587 0 0 0-0.55592 0.55592 0.55587 0.55587 0 0 0 0.55592 0.55592 0.55587 0.55587 0 0 0 0.55552-0.55592 0.55587 0.55587 0 0 0-0.55552-0.55592zm0 0.17681a0.37936 0.37936 0 0 1 0.37911 0.37911 0.37936 0.37936 0 0 1-0.37911 0.37951 0.37936 0.37936 0 0 1-0.37951-0.37951 0.37936 0.37936 0 0 1 0.37951-0.37911z"/><path d="m1.208 13.433a0.55587 0.55587 0 0 0-0.55592 0.55592 0.55587 0.55587 0 0 0 0.55592 0.55592 0.55587 0.55587 0 0 0 0.55552-0.55592 0.55587 0.55587 0 0 0-0.55552-0.55592zm0 0.17681a0.37936 0.37936 0 0 1 0.37911 0.37911 0.37936 0.37936 0 0 1-0.37911 0.37951 0.37936 0.37936 0 0 1-0.37951-0.37951 0.37936 0.37936 0 0 1 0.37951-0.37911z"/></g></g></g></svg>
