<?xml version="1.0" encoding="UTF-8"?>
<!-- Created with Inkscape (http://www.inkscape.org/) -->
<svg width="64" height="64" version="1.1" viewBox="0 0 16.933 16.933" xmlns="http://www.w3.org/2000/svg"><g transform="rotate(39.849 8.0225 9.0033)" stroke="#000"><path d="m8.1201-2.4921c0.50507 1.2048-1.3486 1.9567-1.7057 2.8945-0.35705 0.93782-0.34686 1.5934-0.026464 2.6002 0.32039 1.0067 0.84158 3.0151 0.84158 3.0151l-0.022331 2.1941-0.022081 2.1695s-0.5631 2.0182-0.90303 3.022c-0.33993 1.0038-0.36436 1.6553-0.026464 2.6002 0.33789 0.9449 2.4876 1.6326 1.7887 3.1135-0.25442 0.53913 0.34381-0.9089-0.43098-1.4492-0.77478-0.54032-1.8632-1.1987-2.0322-1.6712-0.33789-0.9449-0.31391-1.5983 0.026465-2.6002 0.34037-1.0019 0.9029-3.0097 0.9029-3.0097l0.022206-2.1818 0.022331-2.1941s-0.52119-2.0084-0.84158-3.0151c-0.32039-1.0067-0.33059-1.6624 0.026465-2.6002 0.17853-0.46891 1.1139-1.0497 1.8996-1.5741 0.78562-0.52443 0.25011-1.8633 0.4806-1.3135z" fill="#d3ad64" stroke-width=".015127"/><path d="m6.5989 6.0172 0.58662 0.00597c0.09135 9.296e-4 0.16442 0.048324 0.16383 0.10627l-0.010604 1.0418s-0.10599 0.69291-0.10953 1.0408c-0.00354 0.3479 0.088322 1.0428 0.088322 1.0428l-0.010604 1.0418c-5.872e-4 0.05794-0.074606 0.10383-0.16596 0.1029l-0.58662-6e-3c-0.09135-9.3e-4 -0.16442-0.04832-0.16383-0.10626l0.010604-1.0418s0.10594-0.69292 0.10948-1.0408c0.00354-0.3479-0.088273-1.0428-0.088273-1.0428l0.010604-1.0418c5.898e-4 -0.057941 0.074609-0.10384 0.16596-0.10291z" fill="#e9ddcc" stroke-width=".013133"/><path d="m8.0487-1.8076 0.034158-0.17849-0.054054 20.412-0.044708-0.18338z" fill="#fff" stroke-width=".012832"/><rect x="6.4025" y="6.0139" width=".93447" height="1.1989" rx=".11319" ry=".11319" fill="#4f3413" stroke-width=".011319"/><rect x="6.4025" y="9.1862" width=".93447" height="1.1989" rx=".11319" ry=".11319" fill="#4f3413" stroke-width=".011319"/></g></svg>
