<?xml version="1.0" encoding="UTF-8"?>
<!-- Created with Inkscape (http://www.inkscape.org/) -->
<svg width="64" height="64" version="1.1" viewBox="0 0 16.933 16.933" xmlns="http://www.w3.org/2000/svg"><g transform="translate(.20206 .013053)" stroke="#000"><path d="m14.695 0.098902c0.12858-0.094198 0.47336 0.067621 0.47336 0.067621l-0.79576 1.1613-0.0923 1.1084 0.83764-0.17159 0.91318-1.0454s0.20225 0.342 0.18066 0.51642c-0.02709 0.21877-1.1554 1.3576-1.1554 1.3576l-1.2435 0.65993-2.1879 2.4452-2.3533 1.5824-3.5434 3.9357-5.2205 5.1123-0.18935-0.37869 5.0582-5.0988 3.5164-4.0574 2.4344-1.6906 1.9202-2.3928 0.24246-1.3567s0.98687-1.5952 1.205-1.755z" fill="#d3ad64" stroke-width=".026458"/><g transform="matrix(.37382 .33678 -.33678 .37382 13.628 1.5361)" fill="#646ad3" stroke-width=".013229"><path d="m3.0381 1.7058-0.20646 0.49844-0.49844 0.20646-0.49844-0.20646-0.20646-0.49844 0.20646-0.49844 0.49844-0.20646 0.49844 0.20646z"/><g><path d="m2.3291 0.98866v1.4098"/><path d="m2.8222 1.1992-0.98866 1.0015"/><path d="m1.6178 1.6948 1.4149 0.00514"/><path d="m1.8258 1.1992 0.99636 0.99379"/></g></g></g></svg>
