<svg xmlns="http://www.w3.org/2000/svg" xmlns:xlink="http://www.w3.org/1999/xlink" width="64" height="64" viewBox="0 0 16.933 16.933"><defs><linearGradient id="c"><stop offset="0" style="stop-color:#000;stop-opacity:1"/><stop offset=".5" style="stop-color:#685e4f;stop-opacity:1"/><stop offset="1" style="stop-color:#0a0600;stop-opacity:1"/></linearGradient><linearGradient id="b"><stop offset="0" style="stop-color:#000;stop-opacity:1"/><stop offset=".515" style="stop-color:#7e6039;stop-opacity:1"/></linearGradient><linearGradient id="a"><stop offset=".406" style="stop-color:#3f3f3f;stop-opacity:1"/><stop offset=".651" style="stop-color:#f0f0f0;stop-opacity:0"/></linearGradient><linearGradient xlink:href="#a" id="f" x1="6.609" x2="12.553" y1="4.274" y2="10.707" gradientUnits="userSpaceOnUse"/><linearGradient xlink:href="#b" id="d" x1="3.583" x2="1.396" y1="11.719" y2="13.534" gradientUnits="userSpaceOnUse"/><linearGradient xlink:href="#c" id="e" x1="2.449" x2="5.339" y1="12.57" y2="9.793" gradientUnits="userSpaceOnUse"/></defs><path d="m3.137 11.292.752.721-2.133 2.07-.72-1.098z" style="fill:url(#d);fill-opacity:1;stroke-width:.1;stroke-dashoffset:7.55906" transform="translate(-1.272 -1.55)scale(1.22896)"/><path d="m2.886 9.19 1.003 1.349 1.38.94 1.067 1.224-1.004.753C4.18 12.32 2.97 11.226 1.976 9.974Z" style="fill:url(#e);fill-opacity:1;stroke-width:.1;stroke-dashoffset:7.55906" transform="translate(-1.272 -1.55)scale(1.22896)"/><path d="m3.89 10.539 7.872-7.183 2.447-.69-.408 1.757-8.532 7.057Z" style="fill:#a1a1a1;fill-opacity:1;stroke-width:.1;stroke-dashoffset:7.55906" transform="translate(-1.272 -1.55)scale(1.22896)"/><path d="m4.58 11.01 9.629-8.344-.408 1.757-8.532 7.057Z" style="fill:url(#f);stroke-width:.1;stroke-dashoffset:7.55906" transform="translate(-1.272 -1.55)scale(1.22896)"/></svg>