<?xml version="1.0" encoding="UTF-8"?>
<!-- Created with Inkscape (http://www.inkscape.org/) -->
<svg width="64" height="64" version="1.1" viewBox="0 0 16.933 16.933" xml:space="preserve" xmlns="http://www.w3.org/2000/svg"><g transform="matrix(1.2853 0 0 1.2853 -2.78 -2.1373)" fill-opacity=".97647"><path transform="scale(.26458)" d="m26.428 9.4576v1.8387l-3.7513 0.04231-0.03177 1.8492-3.7478 0.04055-0.03529 1.851-1.8545 0.0388-0.03705 1.8527-1.8527 0.03703-0.0388 3.746-1.851 0.03352-0.04056 3.7495-1.8492 0.03v13.228l1.8492 0.0058 0.04056 3.7738 1.851 0.0093 0.0388 3.7703 1.8527 0.01279 0.03705 1.877 1.8545 0.01454 0.03529 1.8752 3.7478 0.0163 0.03177 1.8735 3.7513 0.01806 0.02825 1.8717h13.228l0.0075-1.8717 3.772-0.01806 0.01101-1.8735 3.7685-0.0163 0.01453-1.8752 1.8752-0.01454 0.01628-1.877 1.8735-0.01278 0.01804-3.7703 1.8717-0.0093 0.01979-3.7738 1.87-0.0057v-13.228l-1.87-0.03-0.01979-3.7495-1.8717-0.03352-0.01804-3.746-1.8735-0.03704-0.01628-1.8527-1.8752-0.0388-0.01452-1.851-3.7685-0.04055-0.011-1.8492-3.772-0.04231-0.0075-1.8475-13.204-0.044064zm14.198 13.211 0.93404 0.57568-0.16448 1.2924-1.727 0.05285v1.8387l-1.8915 0.05285v1.8387l-1.8915 0.05285v1.8387l-1.8915 0.05285 0.05285 1.8621h1.8387l0.05285 1.8915h1.8387l0.05285 1.8915h1.8387l0.05285 1.8915h1.8387l0.05284 1.8915h1.8387v1.8681h-1.8681l-0.05285-1.8915h-1.8387l-0.05285-1.8915h-1.8387l-0.05285-1.8915h-1.8387l-0.05285-1.8915h-1.8387l-0.05284-1.8915h-1.8387v-1.8681l1.8915-0.05285v-1.8387l1.8915-0.05285v-1.8387l1.8915-0.05285v-1.8387l1.8915-0.05285v-1.8387h0.93403z" fill="#f5f5e8"/><rect x="7" y="14" width="3.5" height=".5"/><rect transform="rotate(-90)" x="-10" y="2.5" width="3.5" height=".5"/><path d="m6.0002 13.5v0.50023h0.99994v-0.50023h-0.50023z" stroke-width=".020494"/><path d="m5.0002 13v0.49971h0.99994v-0.49971h-0.50023z" stroke-width=".020494"/><rect x="4.5" y="12.5" width=".5" height=".5"/><path d="m3.5 11v0.99994h0.49971v-0.99994z" stroke-width=".020494"/><path d="m2.9998 9.9999v0.99994h0.50023v-0.99994z" stroke-width=".020494"/><rect x="4" y="12" width=".5" height=".5"/><path transform="rotate(-90)" d="m-9.9999 14h-0.99994v0.49971h0.99994z" stroke-width=".020494"/><path transform="rotate(-90)" d="m-11 13.5h-0.99994v0.50023h0.99994z" stroke-width=".020494"/><rect transform="rotate(-90)" x="-12.5" y="13" width=".5" height=".5"/><path transform="rotate(-90)" d="m-13 11.5h-0.49971v0.99994h0.49971v-0.50023z" stroke-width=".020494"/><path transform="rotate(-90)" d="m-13.5 10.5h-0.50023v0.99994h0.50023v-0.50023z" stroke-width=".020494"/><rect transform="rotate(-90)" x="-13" y="12.5" width=".5" height=".5"/><path transform="matrix(0,1,1,0,0,0)" d="m5.4999 14h0.99994v0.49971h-0.99994z" stroke-width=".020494"/><path transform="matrix(0,1,1,0,0,0)" d="m4.5 13.5h0.99994v0.50023h-0.99994z" stroke-width=".020494"/><rect transform="matrix(0,1,1,0,0,0)" x="4" y="13" width=".5" height=".5"/><path transform="matrix(0,1,1,0,0,0)" d="m2.9998 11.5h0.50023v0.99994h-0.50023v-0.50023z" stroke-width=".020494"/><path transform="matrix(0,1,1,0,0,0)" d="m2.5001 10.5h0.49971v0.99994h-0.49971v-0.50023z" stroke-width=".020494"/><g><rect transform="matrix(0,1,1,0,0,0)" x="3.5" y="12.5" width=".5" height=".5"/><rect transform="rotate(-90)" x="-10" y="14.5" width="3.5" height=".5"/><rect x="7" y="2" width="3.5" height=".5"/></g><path transform="rotate(90)" d="m5.4999-2.9998h0.99994v-0.50023h-0.99994z" stroke-width=".020494"/><path transform="rotate(90)" d="m4.5-3.5h0.99994v-0.49971h-0.99994z" stroke-width=".020494"/><rect transform="rotate(90)" x="4" y="-4.5" width=".5" height=".5"/><path transform="rotate(90)" d="m2.9998-5.0002h0.50023v-0.99994h-0.50023v0.50023z" stroke-width=".020494"/><path transform="rotate(90)" d="m2.5001-6.0002h0.49971v-0.99994h-0.49971v0.50023z" stroke-width=".020494"/><rect transform="rotate(90)" x="3.5" y="-5" width=".5" height=".5"/><g fill="#be0000"><rect transform="matrix(0,1,1,0,0,0)" x="7.5" y="9" width=".5" height=".5"/><rect transform="matrix(0,1,1,0,0,0)" x="7" y="9.5" width=".5" height=".5"/><rect transform="matrix(0,1,1,0,0,0)" x="6.5" y="10" width=".5" height=".5"/></g><g><rect transform="rotate(-90)" x="-8.5" y="8.5" width=".5" height=".5"/><rect transform="rotate(-90)" x="-9" y="9" width=".5" height=".5"/><rect transform="rotate(-90)" x="-9.5" y="9.5" width=".5" height=".5"/><rect transform="rotate(-90)" x="-10" y="10" width=".5" height=".5"/><rect transform="rotate(-90)" x="-10.5" y="10.5" width=".5" height=".5"/><rect transform="rotate(-90)" x="-11" y="11" width=".5" height=".5"/></g><rect transform="matrix(0,1,1,0,0,0)" x="6" y="10.5" width=".5" height=".5" fill="#be0000"/><g stroke-width=".020494"><path transform="rotate(-90)" d="m-2.9998 8.5003h-0.99994v0.49971h0.99994z"/><path transform="rotate(-90)" d="m-8 13h-0.50023v0.99994h0.50023v-0.50023z"/><path transform="rotate(-90)" d="m-12.5 8.5003h-0.99994v0.49971h0.99994z"/><path transform="rotate(-90)" d="m-8 3.5h-0.50023v0.99994h0.50023v-0.50023z"/></g><g><rect transform="rotate(-90)" x="-5" y="5" width=".5" height=".5"/><rect transform="rotate(-90)" x="-5" y="12" width=".5" height=".5"/><rect transform="rotate(-90)" x="-12" y="12" width=".5" height=".5"/><rect transform="rotate(-90)" x="-12" y="5" width=".5" height=".5"/></g></g><style>
				.filled {
					cursor: pointer;
					transition: fill 0.3s;
				}

				.filled:hover {
					fill: #7711AA;
				}

				.filled.built {
					fill: #7711AA;
				}

				.filled.built:hover {
					fill: inherit;
				}
			</style></svg>
