<?xml version="1.0" encoding="UTF-8"?>
<!-- Created with Inkscape (http://www.inkscape.org/) -->
<svg width="43.427" height="58.681" version="1.1" viewBox="0 0 11.49 15.526" xml:space="preserve" xmlns="http://www.w3.org/2000/svg"><g transform="translate(-2.7217 -.70361)"><path d="m6.8581 1.3248v0.62069h-0.91914v0.62133l-0.91934-5.48e-5v0.62104h-0.4596v0.62105h-0.4596l-2.252e-4 1.242h-0.45933v1.242l-0.45964 1.711e-4v4.3473l0.45964-1.16e-4v1.242h0.45933l2.252e-4 1.2423h0.4596l-2e-7 0.62104h0.4596l1.892e-4 0.62134h0.91914v0.62068h0.91914v0.62133l3.2171-2.22e-4 1.22e-4 -0.62111h0.91914v-0.62068l0.91914-3.07e-4v-0.62104h0.4596v-0.62104l0.45955-2.56e-4v-1.242h0.45981v-1.242l0.45944 1.16e-4v-4.3473l-0.45944-1.711e-4v-1.242h-0.45981v-1.242l-0.45955 2.18e-5v-0.62104l-0.4596-2e-7 1e-5 -0.62099h-0.91914v-0.62133h-0.91914l-1.22e-4 -0.62082z" fill="#e3eb14"/><g fill-opacity=".97647"><rect x="6.8581" y="15.609" width="3.2172" height=".62104"/><rect transform="rotate(-90)" x="-10.64" y="2.7217" width="4.3473" height=".4596"/><path d="m5.939 14.988v0.62133h0.91914v-0.62133h-0.45981z" stroke-width=".021899"/><path d="m5.0199 14.367v0.62069h0.91914v-0.62069h-0.45981z" stroke-width=".021899"/><rect x="4.5601" y="13.746" width=".4596" height=".62104"/><path d="m3.6409 11.882v1.242h0.45933v-1.242z" stroke-width=".021899"/><path d="m3.1811 10.64v1.242h0.45981v-1.242z" stroke-width=".021899"/><rect x="4.1005" y="13.124" width=".4596" height=".62104"/><path d="m13.293 10.64v1.242h0.45933v-1.242z" stroke-width=".021899"/><path d="m12.833 11.882v1.242h0.45981v-1.242z" stroke-width=".021899"/><rect transform="rotate(-90)" x="-13.746" y="12.373" width=".62104" height=".4596"/><path d="m10.995 14.367v0.62069h0.91914v-0.62069h-0.45981z" stroke-width=".021899"/><path d="m10.075 14.988v0.62133h0.91914v-0.62133h-0.45981z" stroke-width=".021899"/><rect transform="rotate(-90)" x="-14.367" y="11.914" width=".62104" height=".4596"/><path d="m13.293 5.0508v1.242h0.45933v-1.242z" stroke-width=".021899"/><path d="m12.833 3.8088v1.242h0.45981v-1.242z" stroke-width=".021899"/><rect transform="matrix(0,1,1,0,0,0)" x="3.1878" y="12.373" width=".62104" height=".4596"/><path d="m10.995 1.9455v0.62133h0.91914v-0.62133h-0.45981z" stroke-width=".021899"/><path d="m10.075 1.3248v0.62069h0.91914v-0.62069h-0.45981z" stroke-width=".021899"/></g><g fill-opacity=".97647"><rect transform="matrix(0,1,1,0,0,0)" x="2.5667" y="11.914" width=".62104" height=".4596"/><rect transform="rotate(-90)" x="-10.64" y="13.752" width="4.3473" height=".4596"/><rect x="6.8581" y=".70361" width="3.2172" height=".62104"/></g><g fill-opacity=".97647"><path d="m3.1811 5.0508v1.242h0.45981v-1.242z" stroke-width=".021899"/><path d="m3.6409 3.8088v1.242h0.45933v-1.242z" stroke-width=".021899"/><rect transform="rotate(90)" x="3.1878" y="-4.5601" width=".62104" height=".4596"/><path d="m5.0199 1.9455v0.62133h0.91914v-0.62133h-0.45981z" stroke-width=".021899"/><path d="m5.939 1.3248v0.62069h0.91914v-0.62069h-0.45981z" stroke-width=".021899"/><rect transform="rotate(90)" x="2.5667" y="-5.0197" width=".62104" height=".4596"/></g><path d="m10.319 2.8648-0.04709 0.61796 0.45732 0.063632-0.04705 0.61746 0.45695 0.06358-0.04709 0.61796 0.45732 0.063632-0.04709 0.61796 0.45732 0.063632-0.04705 0.61746 0.45695 0.06358-0.04709 0.61796 0.45732 0.063632 0.04709-0.61796 0.04705-0.61746-0.45732-0.063632 0.04709-0.61796-0.45695-0.06358 0.04709-0.61796-0.45732-0.063632 0.04705-0.61746-0.45732-0.063632 0.04709-0.61796-0.45695-0.06358z" fill="#eaebbc" stroke-width=".021899"/><path d="m7.7773 3.8091v0.62115h-0.4594v0.62063h-0.45992v1.2423h-0.4594v0.62115h-0.4594v0.62063h0.4594v5.168e-4h-0.91932v1.2418h0.45992v0.62115h0.4594v0.62063h0.4594v1.2423h0.45992v1.2423h0.4594v0.62115h1.3787v-0.62115h0.4594v-0.62115h0.45992v-1.2423h0.4594v-0.93121h0.4594v-0.62115h0.45992v-1.2418h-0.91932v-5.167e-4h0.4594v-0.62063h-0.4594v-0.93173h-0.4594v-1.2423h-0.45992v-0.62063h-0.4594v-0.62115h-0.91932z" fill="#d9df3d" stroke-width=".021899"/></g><style>
				.filled {
					cursor: pointer;
					transition: fill 0.3s;
				}

				.filled:hover {
					fill: #7711AA;
				}

				.filled.built {
					fill: #7711AA;
				}

				.filled.built:hover {
					fill: inherit;
				}
			</style></svg>
