<?xml version="1.0" encoding="UTF-8"?>
<!-- Created with Inkscape (http://www.inkscape.org/) -->
<svg width="64" height="64" version="1.1" viewBox="0 0 16.933 16.933" xml:space="preserve" xmlns="http://www.w3.org/2000/svg"><g><path d="m5.0799 5.08-0.043858 0.38471-0.37945 0.038634-0.036661 0.37925-0.38668 0.044086-0.031158 0.38718-0.81548 0.036153-0.033698 0.22094-0.10614 0.16748-0.28353 0.034917-0.034883 0.38966-0.38843 0.033681-0.036153 0.3909-0.38719 0.032436-0.041402 0.47823-0.0033867 0.33182-0.37879 0.036627-0.038608 0.49291v0.31112l-0.38472 0.042647-0.039878 0.47223 0.039878 3.7611 0.20208 0.04419 0.18264 0.09098 0.038608 0.71151 0.21848 0.0315 0.16748 0.10614 0.037423 0.70903 0.21971 0.03398 0.16748 0.10614 0.036153 0.28322 0.47873 0.0352h0.33428l0.033698 0.38814 0.48121 0.03643h0.33428l0.031158 0.38691 0.48368 0.03766 7.9831-0.03766 0.03768-0.20427 0.09098-0.18264 0.718-0.03642 0.04013-0.22068 0.10615-0.16748 0.70037-0.03518 0.04267-0.22192 0.10614-0.16748 0.27456-0.03394 0.04386-0.48093v-0.33427l0.37946-0.03146 0.02997-0.47583v-0.32669l0.39339-0.04415 0.03116-0.47072-0.03116-3.7626-0.21075-0.042681-0.18264-0.090979-0.02997-0.71301-0.21957-0.029998-0.1599-0.12131-0.04386-0.69537-0.21323-0.03247h-0.59205l-0.0414-0.39087-0.38318-0.033698-0.04013-0.38964-0.47471-0.034925h-0.33427l-0.037678-0.38844-0.38689-0.036153-0.036492-0.38718-0.38812-0.037381-0.035222-0.38595-0.38937-0.038617-0.033951-0.38472-0.4809-0.039853h-5.8682z" fill="#714911" stroke="#000" stroke-width=".004549"/><path d="m5.0799 4.1605v-0.49618h6.3501v0.99235h-6.3501z" fill="#9e0202" fill-opacity=".97638"/><path d="m5.0799 3.1758v-0.2125h-0.42334v-0.42334h-0.42334v-0.84668h0.42334v-0.42334h1.27v0.42334h0.42334v0.42334h0.47166v0.42334h0.37502v0.42334h0.2125l0.21161-0.21363-7.62e-4 -0.20971h-0.42335v-0.42334h0.39276v-0.20537l0.030565-0.21797 0.42577-0.034409h0.38353v-0.17263l0.037423-0.2163 0.4291-0.037686h0.381v-0.38566h0.85737v-0.42288h1.7447v0.42288h0.82123v0.87186h-0.42334v0.82149h-0.42334v0.45179l-0.21633 0.00203-0.20495 0.00203-0.0017 0.17688v0.21389h-6.3501z" fill="#714911"/><g stroke-width=".009093"><path d="m4.2331 16.51v0.42309h8.4667v-0.42309h-8.0431z"/><path d="m3.3865 16.087v0.42353h0.84662v-0.42353h-0.42309z"/><path d="m2.5399 15.664v0.42309h0.84662v-0.42309h-0.42352z"/><path d="m2.1165 15.24h0.42334v0.42334h-0.42334z"/><path d="m1.6933 14.393v0.84662h0.42309v-0.84662z"/><path d="m1.2697 13.547v0.84662h0.42353v-0.84662z"/><path d="m0.84663 9.3133v4.2336h0.42309v-4.2336z"/><path d="m12.7 16.087v0.42353h0.84662v-0.42353h-0.42309z"/><path d="m13.546 15.664v0.42309h0.84706v-0.42309h-0.42352z"/><path d="m14.817 15.24h-0.42334v0.42334h0.42334z"/><path d="m14.817 14.393v0.84662h0.42353v-0.84662z"/><path d="m15.24 13.547v0.84662h0.42309v-0.84662z"/><path d="m15.663 9.3133v4.2336h0.42353v-4.2336z"/><path d="m1.2697 8.4667v0.84662h0.42353v-0.84662z"/><path d="m1.6933 7.62v0.84662h0.42309v-0.84662z"/><path d="m2.1165 7.1967h0.42334v0.42334h-0.42334z"/><path d="m2.5398 6.7734h0.42334v0.42334h-0.42334z"/><path d="m2.9632 6.35h0.42334v0.42334h-0.42334z"/><path d="m3.3865 5.9268v0.42309h0.84662v-0.42309h-0.42309z"/><path d="m4.2332 5.5034h0.42334v0.42334h-0.42334z"/><path d="m4.6565 5.08h0.42334v0.42334h-0.42334z"/><path d="m5.0797 4.6566v0.42353h6.3503v-0.42353h-5.9268z"/><path d="m11.43 5.08h0.42334v0.42334h-0.42334z"/><path d="m15.24 8.4667v0.84662h0.42309v-0.84662z"/><path d="m14.817 7.62v0.84662h0.42353v-0.84662z"/><path d="m13.97 7.1965v0.42353h0.84662v-0.42353h-0.42309z"/><path d="m13.97 6.7734h-0.42334v0.42334h0.42334z"/><path d="m12.7 6.3499v0.42353h0.84662v-0.42353h-0.42309z"/><path d="m12.7 5.9267h-0.42334v0.42334h0.42334z"/><path d="m12.277 5.5034h-0.42334v0.42334h0.42334z"/><path d="m4.6566 3.81v0.84662h0.42309v-0.84662z"/><path d="m11.43 3.81v0.84662h0.42309v-0.84662z"/><path d="m5.0797 3.3865v0.42353h6.3503v-0.42353h-5.9268z"/><path d="m4.2332 2.54h0.42334v0.42334h-0.42334z"/><path d="m3.81 1.6932v0.84662h0.42309v-0.84662z"/><path d="m4.2332 1.27h0.42334v0.42334h-0.42334z"/><path d="m4.6566 0.84662v0.42353h1.2697v-0.42353h-0.84662z"/><path d="m5.9265 1.27h0.42334v0.42334h-0.42334z"/><path d="m6.3499 1.6933h0.42334v0.42334h-0.42334z"/><path d="m6.7732 2.1167h0.42334v0.42334h-0.42334z"/><path d="m7.1965 2.54h0.42334v0.42334h-0.42334z"/><path d="m7.1965 2.54h0.42334v0.42334h-0.42334z"/><path d="m7.1965 1.6933h0.42334v0.42334h-0.42334z"/><path d="m7.62 1.2702v0.42309h0.84662v-0.42309h-0.42352z"/><path d="m8.4667 0.84662v0.42353h0.84662v-0.42353h-0.42353z"/><path d="m9.3133 0.42309v0.42353h0.84662v-0.42353h-0.42353z"/><path d="m10.16-3.5767e-8v0.42309h1.6932v-0.42309h-1.2697z"/><path d="m11.43 2.9633h0.42334v0.42334h-0.42334z"/><path d="m11.853 2.54h0.42334v0.42334h-0.42334z"/><path d="m11.853 0.42309v0.42353h0.84662v-0.42353h-0.42309z"/><path d="m12.7 0.84662v0.84662h0.42353v-0.84662z"/><path d="m12.277 1.6932v0.84662h0.42309v-0.84662z"/><path d="m4.6565 2.9633h0.42334v0.42334h-0.42334z"/><path d="m1.2697 10.16v3.3869h0.42353v0.84662h0.42309v0.84662h0.42352v0.42353h0.84662v0.42309h0.84662v0.42353h3.81v-0.42353h-0.42309v-0.42309h-0.84662v-0.42353h-0.84706v-0.42353h-1.2697v-0.42309h-0.84662v-0.42353h-0.42353v-0.42309h-0.42352v-1.2702h-0.4231v-0.84662h-0.42352v-0.42353h-0.42309v-0.84662z" fill="#482e0c"/><path d="m1.6933 8.8902v0.42309h-0.42353v0.84662h0.42353v0.84662h0.42309v0.42353h0.42352v0.84662h0.4231v1.2702h0.42352v0.42309h0.42353v0.42353h0.84662v0.42309h1.2697v0.42353h0.84706v0.42353h0.84662v0.42309h0.42309v0.42353h1.2701v-0.84662h-0.42353v-0.42353h-0.84662v-0.42353h-0.42309v-0.42309h-0.42353v-0.42353h-0.84662v-0.42309h-0.42353v-0.42353h-0.42309v-0.42309h-0.42353v-0.42353h-0.42309v-0.42309h-0.42353v-0.42353h-0.42309v-0.42353h-0.42353v-0.42309h-0.42352v-0.84662h-0.4231v-0.42353h-0.42352v-0.42309z" fill="#613e10"/></g><g fill="#482e0c" stroke-width=".009093"><path d="m6.3499 5.0802v0.84662h0.42353v-0.84662z"/><path d="m5.9265 5.9267h0.42334v0.42334h-0.42334z"/><path d="m5.5032 6.35h0.42334v0.42334h-0.42334z"/><path d="m5.0799 6.7734h0.42334v0.42334h-0.42334z"/><path d="m8.8898 5.0802v1.2697h0.42353v-1.2697z"/><path d="m9.3132 6.35h0.42334v0.42334h-0.42334z"/><path d="m9.7366 6.7734h0.42334v0.42334h-0.42334z"/><path d="m8.8899 2.9633h0.42334v0.42334h-0.42334z"/><path d="m9.3132 2.54h0.42334v0.42334h-0.42334z"/><path d="m9.7366 2.1167h0.42334v0.42334h-0.42334z"/><path d="m10.16 1.6933h0.42334v0.42334h-0.42334z"/><path d="m10.583 1.27h0.42334v0.42334h-0.42334z"/><path d="m6.3499 2.9633h0.42334v0.42334h-0.42334z"/><path d="m5.9265 2.54h0.42334v0.42334h-0.42334z"/><path d="m5.5032 2.1167h0.42334v0.42334h-0.42334z"/></g><g fill="#855614" stroke-width=".009093"><path d="m11.853 5.9268v0.84662h0.42353v0.42309h0.84662v0.42353h0.42309v0.42353h0.42353v0.42309h0.42352v0.42353h0.42309v0.42309h0.42353v-0.84662h-0.42353v-0.84662h-0.84662v-0.42353h-0.42353v-0.42309h-0.84662v-0.42353h-0.42309v-0.42309z"/><path d="m15.663 9.3134h-0.42334v0.42334h0.42334z"/><path d="m11.853 0.4233h-0.42334v0.42334h0.42334z"/><path d="m11.853 0.84662v0.42353h0.42353v0.42309h0.42309v-0.84662h-0.42309z"/><path d="m5.0797 1.2702v0.42309h0.84662v-0.42309h-0.42309z"/><path d="m6.3499 1.6933h-0.42334v0.42334h0.42334z"/></g><g stroke-width=".009093"><path d="m10.583 3.81v0.42353h0.42309v0.42309h0.42353v-0.84662h-0.42353z" fill="#c40101" fill-opacity=".97647"/><path d="m11.853 5.5034h-0.42334v0.42334h0.42334z" fill="#855614"/><path d="m11.43 5.08h-0.42334v0.42334h0.42334z" fill="#855614"/></g><g fill="#613e10" stroke-width=".009093"><path d="m5.0797 5.0802v0.42309h0.84662v0.42353h0.42353v-0.84662h-0.84662z"/><path d="m6.7734 5.0802v0.84662h0.42309v-0.42353h1.2701v0.84662h0.42309v-1.2697h-1.6932z"/><path d="m9.3133 5.0802v1.2697h0.42309v-0.84662h1.2702v-0.42309h-1.2702z"/><path d="m9.3132 2.9633h0.42334v0.42334h-0.42334z"/><path d="m6.3499 5.9267h0.42334v0.42334h-0.42334z"/><path d="m5.5032 6.7734h0.42334v0.42334h-0.42334z"/><path d="m5.5032 5.9267h0.42334v0.42334h-0.42334z"/><path d="m5.9265 6.35h0.42334v0.42334h-0.42334z"/><path d="m5.0799 6.35h0.42334v0.42334h-0.42334z"/><path d="m8.8899 6.35h0.42334v0.42334h-0.42334z"/><path d="m9.3132 6.7734h0.42334v0.42334h-0.42334z"/><path d="m9.7366 6.35h0.42334v0.42334h-0.42334z"/><path d="m10.16 6.7734v0.42309h-0.42353v0.42353h0.84706v-0.84662z"/><path d="m4.6566 6.7734v0.84662h0.84662v-0.42353h-0.42353v-0.42309z"/><path d="m9.7366 2.54h0.42334v0.42334h-0.42334z"/><path d="m10.16 2.1167h0.42334v0.42334h-0.42334z"/><path d="m10.583 1.6933h0.42334v0.42334h-0.42334z"/><path d="m10.583 0.84662v0.42353h0.42309v0.42309h0.42353v-0.84662h-0.42353z"/><path d="m10.16 1.27h0.42334v0.42334h-0.42334z"/><path d="m9.7366 1.6933h0.42334v0.42334h-0.42334z"/><path d="m9.3132 2.1167h0.42334v0.42334h-0.42334z"/><path d="m8.8899 2.54h0.42334v0.42334h-0.42334z"/><path d="m8.4666 2.9633h0.42334v0.42334h-0.42334z"/><path d="m6.7732 2.9633h0.42334v0.42334h-0.42334z"/><path d="m6.3499 2.54h0.42334v0.42334h-0.42334z"/><path d="m5.9265 2.1167h0.42334v0.42334h-0.42334z"/><path d="m5.0797 1.6932v0.84662h0.42353v-0.42309h0.42309v-0.42353h-0.42309z"/><path d="m5.5032 2.54h0.42334v0.42334h-0.42334z"/><path d="m5.9265 2.9633h0.42334v0.42334h-0.42334z"/></g><path d="m7.8318 7.6202v0.84698h-0.84698v-5.167e-4h-0.42323v2.5404h0.84646v-5.17e-4h0.42375v0.84698h-1.2702v0.84646h1.2702v0.84646h0.42323v-0.84646h1.2697v-2.5399h-1.2697v-0.84698h1.2697v-0.84646h-1.2697v-0.84646zm-0.42375 1.6934h0.42375v0.84646h-0.42375v-0.42323zm0.84698 1.6929h0.42323v0.84698h-0.42323v-0.42323z" fill="#c5d731" stroke="#0f0f0f" stroke-width=".13229"/></g><style>.filled { cursor: pointer;					transition: fill 0.3s; }
.filled:hover,#g2187 { fill: #7711AA; }
.filled.built { fill: #7711AA; }
.filled.built:hover { fill: inherit; }
</style></svg>
