<?xml version="1.0" encoding="UTF-8"?>
<!-- Created with Inkscape (http://www.inkscape.org/) -->
<svg width="64" height="64" version="1.1" viewBox="0 0 16.933 16.933" xmlns="http://www.w3.org/2000/svg"><g transform="matrix(.84667 0 0 .84667 -.42353 -17.357)"><path d="m6.5 25.414v-0.58603h7.5v1.1721h-7.5z" fill="#9e0202" fill-opacity=".97638"/><path transform="scale(.26458)" d="m24.567 100.16-0.19589 1.7173-1.6939 0.17245-0.1636 1.693-1.7262 0.19679-0.13926 1.7284-3.6403 0.1614-0.1503 0.98627-0.47382 0.74762-1.2656 0.15588-0.15583 1.7394-1.7339 0.15034-0.16135 1.745-1.7284 0.14481-0.18468 2.1348-0.01419 1.4812-1.6909 0.1635-0.1724 2.2003v1.3888l-1.7174 0.19038-0.17793 2.108 0.17793 16.79 0.90206 0.19724 0.81531 0.40613 0.1724 3.1762 0.97527 0.1406 0.74762 0.47382 0.16688 3.1651 0.9808 0.15166 0.74762 0.47382 0.16135 1.2643 2.137 0.15713h1.4922l0.1503 1.7326 2.1481 0.16262h1.4922l0.13926 1.7271 2.1591 0.16811 35.636-0.16811 0.16823-0.91187 0.40613-0.81531 3.2052-0.16258 0.17928-0.9851 0.47382-0.74762 3.1264-0.15704 0.19032-0.99064 0.47382-0.74761 1.2256-0.15152 0.19585-2.1469v-1.4922l1.6939-0.14046 0.13368-2.1241v-1.4584l1.7561-0.19709 0.13921-2.1013-0.13921-16.796-0.94078-0.19053-0.81531-0.40613-0.13368-3.1829-0.98015-0.13389-0.71377-0.54151-0.19584-3.1041-0.95183-0.14494h-2.6429l-0.18479-1.7448-1.7105-0.15042-0.17927-1.7393-2.1191-0.15591h-1.4922l-0.16822-1.7339-1.7271-0.16139-0.1627-1.7284-1.7326-0.16688-0.15718-1.7229-1.7381-0.17237-0.15165-1.7174-2.1467-0.17789h-26.196z" fill="#714911" stroke="#000" stroke-width=".020307"/><path transform="scale(.26458)" d="m24.567 91.657v-0.9486h-1.8898v-1.8898h-1.8898v-3.7795h1.8898v-1.8898h5.6693v1.8898h1.8898v1.8898h2.1055v1.8898h0.72143l0.95264 2e-6v1.8898h0.9486l0.9446-0.95364-0.0034-0.93613-0.92796-2e-6h-0.96185v-1.8898h1.7533v-0.91677l0.13646-0.97299 1.9006-0.15362h1.712v-0.7706l0.16688-0.96555 1.9155-0.16822h1.7008v-1.7216h3.8272v-1.8877h7.7881v1.8877h3.6659v3.892h-1.8898v3.6671h-1.8898v2.0168l-0.96566 0.0092-0.91491 0.0092-0.0092 0.78957 2e-6 0.95477h-28.346z" fill="#714911"/><g stroke-width=".01074"><path d="m5.4999 40v0.49971h9.9999v-0.49971h-9.4997z"/><path d="m4.5 39.5v0.50023h0.99994v-0.50023h-0.49971z"/><path d="m3.5 39v0.49971h0.99994v-0.49971h-0.50023z"/><path d="m3 38.5h0.5v0.5h-0.5z"/><path d="m2.5001 37.5v0.99994h0.49971v-0.99994z"/><path d="m1.9999 36.5v0.99994h0.50023v-0.99994z"/><path d="m1.5002 31.5v5.0002h0.49971v-5.0002z"/><path transform="scale(-1,1)" d="m-15.5 39.5v0.50023h-0.99994v-0.50023h0.49971z"/><path transform="scale(-1,1)" d="m-16.5 39v0.49971h-1.0005v-0.49971h0.50023z"/><path transform="scale(-1,1)" d="m-18 38.5h0.5v0.5h-0.5z"/><path transform="scale(-1,1)" d="m-18 37.5v0.99994h-0.50023v-0.99994z"/><path transform="scale(-1,1)" d="m-18.5 36.5v0.99994h-0.49971v-0.99994z"/><path transform="scale(-1,1)" d="m-19 31.5v5.0002h-0.50023v-5.0002z"/><path d="m1.9999 30.5v0.99994h0.50023v-0.99994z"/><path d="m2.5001 29.5v0.99994h0.49971v-0.99994z"/><path d="m3 29h0.5v0.5h-0.5z"/><path d="m3.5 28.5h0.5v0.5h-0.5z"/><path d="m4 28h0.5v0.5h-0.5z"/><path d="m4.5 27.5v0.49971h0.99994v-0.49971h-0.49971z"/><path d="m5.5 27h0.5v0.5h-0.5z"/><path d="m6 26.5h0.5v0.5h-0.5z"/><path d="m6.4999 26v0.50023h7.5003v-0.50023h-7.0001z"/><path d="m14 26.5h0.5v0.5h-0.5z"/><path transform="scale(-1,1)" d="m-18.5 30.5v0.99994h-0.49971v-0.99994z"/><path transform="scale(-1,1)" d="m-18 29.5v0.99994h-0.50023v-0.99994z"/><path transform="scale(-1,1)" d="m-17 29v0.50023h-0.99994v-0.50023h0.49971z"/><path transform="scale(-1,1)" d="m-17 28.5h0.5v0.5h-0.5z"/><path transform="scale(-1,1)" d="m-15.5 28v0.50023h-0.99994v-0.50023h0.49971z"/><path transform="scale(-1,1)" d="m-15.5 27.5h0.5v0.5h-0.5z"/><path transform="scale(-1,1)" d="m-15 27h0.5v0.5h-0.5z"/><path d="m6.0002 25v0.99994h0.49971v-0.99994z"/><path d="m14 25v0.99994h0.49971v-0.99994z"/><path d="m6.4999 24.5v0.50023h7.5003v-0.50023h-7.0001z"/><path d="m5.5 23.5h0.5v0.5h-0.5z"/><path d="m5.0002 22.5v0.99994h0.49971v-0.99994z"/><path d="m5.5 22h0.5v0.5h-0.5z"/><path d="m6.0002 21.5v0.50023h1.4996v-0.50023h-0.99994z"/><path d="m7.5 22h0.5v0.5h-0.5z"/><path d="m8 22.5h0.5v0.5h-0.5z"/><path d="m8.5 23h0.5v0.5h-0.5z"/><path d="m9 23.5h0.5v0.5h-0.5z"/><path d="m9 23.5h0.5v0.5h-0.5z"/><path d="m9 22.5h0.5v0.5h-0.5z"/><path d="m9.5002 22v0.49971h0.99994v-0.49971h-0.50023z"/><path d="m10.5 21.5v0.50023h0.99994v-0.50023h-0.50023z"/><path d="m11.5 21v0.50023h0.99994v-0.50023h-0.50023z"/><path d="m12.5 20.5v0.49971h1.9999v-0.49971h-1.4996z"/><path d="m14 24h0.5v0.5h-0.5z"/><path d="m14.5 23.5h0.5v0.5h-0.5z"/><path d="m14.5 21v0.50023h0.99994v-0.50023h-0.49971z"/><path d="m15.5 21.5v0.99994h0.50023v-0.99994z"/><path d="m15 22.5v0.99994h0.49971v-0.99994z"/><path d="m6 24h0.5v0.5h-0.5z"/></g><path d="m9.7445 29.348v0.99994h-0.49971v0.50023h0.49971v1.9999h-0.49971v0.49971h0.49971v2.0004h-0.99994v0.49971h0.99994v0.99994h0.50023v-0.99994h0.50023v0.99994h0.49971v-0.99994h0.50023v-0.49971h-0.50023v-2.0004h0.50023v-0.49971h-0.50023v-1.9999h0.99994v-0.50023h-0.99994v-0.99994h-0.49971v0.99994h-0.50023v-0.99994zm2.0004 3.9998v0.50023h0.49971v-0.50023zm0.49971 0.50023v0.99994h0.50023v-0.99994zm0 0.99994h-0.49971v0.50023h0.49971zm-2.9998-1.9999v-0.50023h-0.50023v0.50023zm-0.50023-0.50023v-0.99994h-0.49971v0.99994zm0-0.99994h0.50023v-0.49971h-0.50023zm1.5002-0.49971h0.50023v1.9999h-0.50023v-1.5002zm0 2.4996h0.50023v2.0004h-0.50023v-1.5002z" fill="#a7c300" fill-opacity=".9899" stroke="#000" stroke-width=".079375"/><path d="m1.9999 32.5v4.0003h0.50023v0.99994h0.49971v0.99994h0.50023v0.50023h0.99994v0.49971h0.99994v0.50023h4.5v-0.50023h-0.49971v-0.49971h-0.99994v-0.50023h-1.0005v-0.50023h-1.4996v-0.49971h-0.99994v-0.50023h-0.50023v-0.49971h-0.50023v-1.5002h-0.49971v-0.99994h-0.50023v-0.50023h-0.49971v-0.99994z" fill="#482e0c" stroke-width=".01074"/><path d="m2.5001 31v0.49971h-0.50023v0.99994h0.50023v0.99994h0.49971v0.50023h0.50023v0.99994h0.49971v1.5002h0.50023v0.49971h0.50023v0.50023h0.99994v0.49971h1.4996v0.50023h1.0005v0.50023h0.99994v0.49971h0.49971v0.50023h1.5002v-0.99994h-0.50023v-0.50023h-0.99994v-0.50023h-0.49971v-0.49971h-0.50023v-0.50023h-0.99994v-0.49971h-0.50023v-0.50023h-0.49971v-0.49971h-0.50023v-0.50023h-0.49971v-0.49971h-0.50023v-0.50023h-0.49971v-0.50023h-0.50023v-0.49971h-0.50023v-0.99994h-0.49971v-0.50023h-0.50023v-0.49971z" fill="#613e10" stroke-width=".01074"/><g fill="#482e0c" stroke-width=".01074"><path d="m8 26.5v0.99994h0.50023v-0.99994z"/><path d="m7.5 27.5h0.5v0.5h-0.5z"/><path d="m7 28h0.5v0.5h-0.5z"/><path d="m6.5 28.5h0.5v0.5h-0.5z"/><path d="m11 26.5v1.4996h0.50023v-1.4996z"/><path d="m11.5 28h0.5v0.5h-0.5z"/><path d="m12 28.5h0.5v0.5h-0.5z"/><path d="m11 24h0.5v0.5h-0.5z"/><path d="m11.5 23.5h0.5v0.5h-0.5z"/><path d="m12 23h0.5v0.5h-0.5z"/><path d="m12.5 22.5h0.5v0.5h-0.5z"/><path d="m13 22h0.5v0.5h-0.5z"/><path d="m8 24h0.5v0.5h-0.5z"/><path d="m7.5 23.5h0.5v0.5h-0.5z"/><path d="m7 23h0.5v0.5h-0.5z"/></g><g fill="#855614" stroke-width=".01074"><path transform="scale(-1,1)" d="m-14.5 27.5v0.99994h-0.50023v0.49971h-0.99994v0.50023h-0.49971v0.50023h-0.50023v0.49971h-0.50023v0.50023h-0.49971v0.49971h-0.50023v-0.99994h0.50023v-0.99994h0.99994v-0.50023h0.50023v-0.49971h0.99994v-0.50023h0.49971v-0.49971z"/><path transform="scale(-1,1)" d="m-19 31.5h0.5v0.5h-0.5z"/><path transform="scale(-1,1)" d="m-14.5 21h0.5v0.5h-0.5z"/><path transform="scale(-1,1)" d="m-14.5 21.5v0.50023h-0.50023v0.49971h-0.49971v-0.99994h0.49971z"/><path transform="scale(-1,1)" d="m-6.4999 22v0.49971h-0.99994v-0.49971h0.49971z"/><path transform="scale(-1,1)" d="m-8 22.5h0.5v0.5h-0.5z"/></g><g stroke-width=".01074"><path d="m13 25v0.50023h0.49971v0.49971h0.50023v-0.99994h-0.50023z" fill="#c40101" fill-opacity=".97647"/><path transform="scale(-1,1)" d="m-14.5 27h0.5v0.5h-0.5z" fill="#855614"/><path transform="scale(-1,1)" d="m-14 26.5h0.5v0.5h-0.5z" fill="#855614"/></g><g fill="#613e10" stroke-width=".01074"><path d="m6.4999 26.5v0.49971h0.99994v0.50023h0.50023v-0.99994h-0.99994z"/><path d="m8.5003 26.5v0.99994h0.49971v-0.50023h1.5002v0.99994h0.49971v-1.4996h-1.9999z"/><path d="m11.5 26.5v1.4996h0.49971v-0.99994h1.5002v-0.49971h-1.5002z"/><path d="m11.5 24h0.5v0.5h-0.5z"/><path d="m8 27.5h0.5v0.5h-0.5z"/><path d="m7 28.5h0.5v0.5h-0.5z"/><path d="m7 27.5h0.5v0.5h-0.5z"/><path d="m7.5 28h0.5v0.5h-0.5z"/><path d="m6.5 28h0.5v0.5h-0.5z"/><path d="m11 28h0.5v0.5h-0.5z"/><path d="m11.5 28.5h0.5v0.5h-0.5z"/><path d="m12 28h0.5v0.5h-0.5z"/><path d="m12.5 28.5v0.49971h-0.50023v0.50023h1.0005v-0.99994z"/><path d="m6.0002 28.5v0.99994h0.99994v-0.50023h-0.50023v-0.49971z"/><path d="m12 23.5h0.5v0.5h-0.5z"/><path d="m12.5 23h0.5v0.5h-0.5z"/><path d="m13 22.5h0.5v0.5h-0.5z"/><path d="m13 21.5v0.50023h0.49971v0.49971h0.50023v-0.99994h-0.50023z"/><path d="m12.5 22h0.5v0.5h-0.5z"/><path d="m12 22.5h0.5v0.5h-0.5z"/><path d="m11.5 23h0.5v0.5h-0.5z"/><path d="m11 23.5h0.5v0.5h-0.5z"/><path d="m10.5 24h0.5v0.5h-0.5z"/><path d="m8.5 24h0.5v0.5h-0.5z"/><path d="m8 23.5h0.5v0.5h-0.5z"/><path d="m7.5 23h0.5v0.5h-0.5z"/><path d="m6.4999 22.5v0.99994h0.50023v-0.49971h0.49971v-0.50023h-0.49971z"/><path d="m7 23.5h0.5v0.5h-0.5z"/><path d="m7.5 24h0.5v0.5h-0.5z"/></g></g></svg>
