<?xml version="1.0" encoding="UTF-8" standalone="no"?>
<!-- Created with Inkscape (http://www.inkscape.org/) -->

<svg
   width="63.999996"
   height="63.999996"
   viewBox="0 0 16.933332 16.933332"
   version="1.1"
   id="svg1"
   xml:space="preserve"
   xmlns="http://www.w3.org/2000/svg"
   xmlns:svg="http://www.w3.org/2000/svg"><defs
     id="defs1" /><g
     id="layer1"><g
       id="g930"
       transform="matrix(1.1137097,0,0,1.2700576,-1.278294,-2.3288239)"><path
         style="fill:#9d1818;fill-opacity:0.976471;stroke:none;stroke-width:0.00849181;stroke-dasharray:none;stroke-opacity:1"
         d="M 8.1944699,2.2039903 8.0345197,2.567882 7.4400951,2.584853 7.2702596,2.9358574 6.7041414,2.9528317 6.5343058,3.3038361 5.9681872,3.3208103 5.7983517,3.6718147 4.8642564,3.6887858 4.6944208,4.0397905 4.1309009,4.0560431 3.97337,4.4252353 3.3798736,4.4261114 2.6391663,4.7964648 v 0.3703537 l 0.7248763,0.010845 0.015831,0.3595083 h 0.7407071 v 0.3703535 l 0.7436762,0.0061 -0.00297,0.3642616 1.1068999,0.00371 0.00416,0.3666381 0.7317933,0.00134 0.00891,0.3690146 0.7270396,-0.00103 0.013667,0.3713911 h 0.7407071 v 0.3703536 l 1.1110607,-4e-7 0.1782302,-0.3737666 0.5624763,0.00342 0.173477,-0.3713888 0.567231,0.00103 0.168723,-0.3690109 0.571984,-0.00134 0.16397,-0.3666362 0.94709,-0.00372 0.185147,-0.3642586 0.555561,-0.00609 0.180393,-0.3618809 0.56048,0.01133 0.175474,-0.379306 0.565067,-0.01085 V 4.7964723 l -0.734902,0.00759 -0.0058,-0.3779414 -0.740708,-5e-7 V 4.0557579 l -0.725395,-0.015964 -0.01531,-0.3543894 -1.116926,-0.013588 0.0058,-0.3567658 -0.741818,-0.011211 0.0011,-0.359142 -0.737066,-0.00883 -0.0036,-0.3615183 -0.7323113,-0.00646 -0.0084,-0.3638952 z M 9.3054852,4.2410416 V 4.6111812 H 9.6760077 L 9.3054852,4.9817036 V 5.3518431 H 8.5648233 V 4.9817036 H 8.1946838 V 4.6111812 H 8.5648233 V 4.2410416 Z"
         id="path928" /><path
         style="fill:#b71a1a;fill-opacity:0.976471;stroke:none;stroke-width:0.00849181;stroke-dasharray:none;stroke-opacity:1"
         d="m 2.2688127,5.1668185 v 6.6663645 l 0.3703541,0.370353 h 0.7407068 l -0.00772,0.378733 0.7484291,-0.0084 v 0.370356 l 0.7302416,0.003 0.010466,0.367289 H 5.972351 v 0.370354 h 0.7407071 v 0.37037 h 0.7407072 v 0.370354 h 0.7407071 l -2e-7,0.370354 h 0.3703536 l 0.013148,-6.6631972 -0.3835015,-0.00317 -4.8e-6,-0.3703485 -0.7407024,-4.7e-6 -4.8e-6,-0.3703489 L 6.709783,7.3798167 6.713053,7.018517 5.9738285,7.011837 5.9723485,6.6481585 4.869896,6.6438585 4.861286,6.2778061 4.1205811,6.2778034 V 5.907526 h -0.740708 l 3e-7,-0.3703536 H 2.6391663 V 5.1668189 Z m 1.2962992,1.4814596 v 0.3705222 h 0.3701395 v 0.740662 c -0.2502817,0.00812 -0.7406619,0 -0.7406619,0 V 7.38894 H 2.82445 V 6.6482781 Z M 7.4539313,8.3147848 V 8.685307 H 7.824071 V 9.425969 H 7.083409 V 9.0554467 H 6.7132695 V 8.3147848 Z M 5.4169249,9.2405843 v 0.370522 H 5.7870644 V 10.351769 H 5.0464026 V 9.9812457 H 4.6762631 V 9.2405843 Z M 3.3800421,10.351814 v 0.370522 h 0.3701395 v 0.740662 H 3.0095198 V 11.092475 H 2.6393802 V 10.351814 Z M 7.4537625,12.57389 H 7.823902 v 0.740662 H 7.0832401 V 12.94403 H 6.7131006 v -0.740663 h 0.7406619 z"
         id="path929" /><path
         style="fill:#841212;fill-opacity:0.976471;stroke:none;stroke-width:0.00849181;stroke-dasharray:none;stroke-opacity:1"
         d="M 14.860834,5.1668185 V 5.5371721 H 14.120126 V 5.9075256 H 13.37942 v 0.3703536 h -0.740708 v 0.3703535 h -1.11106 v 0.3703536 h -0.740707 v 0.3703536 l -0.742705,0.00792 0.002,0.3624346 -0.7379512,0.00554 -0.00276,0.3648128 -0.3703538,-10e-8 V 14.79601 h 0.3703538 v -0.370354 h 0.7407352 v -0.370354 h 0.740708 v -0.370353 l 0.734842,-0.0042 0.0058,-0.366175 h 1.11106 v -0.370342 h 0.740708 V 12.57389 h 0.740706 v -0.370353 h 0.740708 v -0.370354 h 0.370353 l -1e-6,-6.6663645 z m -0.555404,1.4815258 -0.0153,0.7315441 -0.35522,0.00912 v 0.3701397 h -0.740663 l -0.0024,-0.7415951 0.372932,9.333e-4 v -0.370142 z m -3.148292,1.4813238 -0.009,0.7504341 -0.361172,-0.00977 V 9.2408523 H 10.046337 V 8.5001905 h 0.370139 V 8.1296681 Z m 3.518431,2.9626469 H 14.30543 v 0.370523 h -0.740661 v -0.740662 h 0.370139 v -0.370522 h 0.740661 z m -3.518431,0.370523 -0.009,0.729057 -0.361172,0.01161 v 0.370521 h -0.740662 l 0.0036,-0.744465 0.366597,0.0038 v -0.370522 z"
         id="path930" /><path
         id="rect906"
         style="fill-opacity:0.976471;stroke-width:0.0277156"
         d="M 8.564823,4.2410415 V 4.6111811 H 8.1946836 V 4.9817034 H 8.564823 V 5.3518429 H 9.305485 V 4.9817034 H 9.6760073 V 4.6111811 H 9.305485 V 4.2410415 Z" /><rect
         style="fill:#000000;fill-opacity:0.976471;stroke:none;stroke-width:0.0831474;stroke-dasharray:none;stroke-opacity:1"
         id="rect812"
         width="0.37035355"
         height="6.6663647"
         x="8.5648232"
         y="8.1296463" /><g
         id="g870"
         transform="matrix(0.74070711,0,0,0.74070711,0.41704488,2.2039899)"
         style="fill:#000000;fill-opacity:0.976471"><rect
           style="fill:#000000;fill-opacity:0.976471;stroke:none;stroke-width:0.0374177;stroke-dasharray:none;stroke-opacity:1"
           id="rect816"
           width="1.0000001"
           height="0.5"
           x="7.4999995"
           y="6.0000005" /><rect
           style="fill:#000000;fill-opacity:0.976471;stroke:none;stroke-width:0.0374177;stroke-dasharray:none;stroke-opacity:1"
           id="rect854"
           width="0.99999988"
           height="0.5"
           x="9.5"
           y="7.0000005" /><rect
           style="fill:#000000;fill-opacity:0.976471;stroke:none;stroke-width:0.0374177;stroke-dasharray:none;stroke-opacity:1"
           id="rect855"
           width="0.99999988"
           height="0.5"
           x="8.5"
           y="6.5000005" /><rect
           style="fill:#000000;fill-opacity:0.976471;stroke:none;stroke-width:0.0458271;stroke-dasharray:none;stroke-opacity:1"
           id="rect857"
           width="1.5"
           height="0.5"
           x="5.9999995"
           y="5.5000005" /><rect
           style="fill:#000000;fill-opacity:0.976471;stroke:none;stroke-width:0.0374177;stroke-dasharray:none;stroke-opacity:1"
           id="rect858"
           width="1.0000001"
           height="0.5"
           x="4.9999995"
           y="5.0000005" /><rect
           style="fill:#000000;fill-opacity:0.976471;stroke:none;stroke-width:0.0374177;stroke-dasharray:none;stroke-opacity:1"
           id="rect859"
           width="1.0000001"
           height="0.5"
           x="3.9999995"
           y="4.5000005" /><rect
           style="fill:#000000;fill-opacity:0.976471;stroke:none;stroke-width:0.0374177;stroke-dasharray:none;stroke-opacity:1"
           id="rect860"
           width="1.0000001"
           height="0.5"
           x="3"
           y="4.0000005" /></g><rect
         style="fill:#000000;fill-opacity:0.976471;stroke:none;stroke-width:0.0195979;stroke-dasharray:none;stroke-opacity:1"
         id="rect861"
         width="0.37035358"
         height="0.37035355"
         x="2.2688127"
         y="4.7964649" /><rect
         style="fill:#000000;fill-opacity:0.976471;stroke:none;stroke-width:0.0831467;stroke-dasharray:none;stroke-opacity:1"
         id="rect863"
         width="0.37035358"
         height="6.6663637"
         x="1.898459"
         y="5.1668191" /><rect
         style="fill:#000000;fill-opacity:0.976471;stroke:none;stroke-width:0.0277156;stroke-dasharray:none;stroke-opacity:1"
         id="rect864"
         width="0.74070716"
         height="0.37035355"
         x="5.9723482"
         y="-3.3150504"
         transform="scale(1,-1)" /><rect
         style="fill:#000000;fill-opacity:0.976471;stroke:none;stroke-width:0.0277156;stroke-dasharray:none;stroke-opacity:1"
         id="rect865"
         width="0.74070704"
         height="0.37035355"
         x="7.4537625"
         y="-2.5743439"
         transform="scale(1,-1)" /><rect
         style="fill:#000000;fill-opacity:0.976471;stroke:none;stroke-width:0.0277156;stroke-dasharray:none;stroke-opacity:1"
         id="rect866"
         width="0.74070704"
         height="0.37035355"
         x="6.7130551"
         y="-2.9446971"
         transform="scale(1,-1)" /><rect
         style="fill:#000000;fill-opacity:0.976471;stroke:none;stroke-width:0.0339444;stroke-dasharray:none;stroke-opacity:1"
         id="rect867"
         width="1.1110606"
         height="0.37035355"
         x="4.8612876"
         y="-3.6854043"
         transform="scale(1,-1)" /><rect
         style="fill:#000000;fill-opacity:0.976471;stroke:none;stroke-width:0.0277156;stroke-dasharray:none;stroke-opacity:1"
         id="rect868"
         width="0.74070716"
         height="0.37035355"
         x="4.1205802"
         y="-4.0557575"
         transform="scale(1,-1)" /><rect
         style="fill:#000000;fill-opacity:0.976471;stroke:none;stroke-width:0.0277156;stroke-dasharray:none;stroke-opacity:1"
         id="rect869"
         width="0.74070716"
         height="0.37035355"
         x="3.3798728"
         y="-4.4261117"
         transform="scale(1,-1)" /><rect
         style="fill:#000000;fill-opacity:0.976471;stroke:none;stroke-width:0.0277156;stroke-dasharray:none;stroke-opacity:1"
         id="rect870"
         width="0.74070716"
         height="0.37035355"
         x="2.6391661"
         y="-4.7964649"
         transform="scale(1,-1)" /><rect
         style="fill:#000000;fill-opacity:0.976471;stroke:none;stroke-width:0.0277156;stroke-dasharray:none;stroke-opacity:1"
         id="rect871"
         width="0.74070716"
         height="0.37035355"
         x="12.638712"
         y="3.6854043" /><rect
         style="fill:#000000;fill-opacity:0.976471;stroke:none;stroke-width:0.0277156;stroke-dasharray:none;stroke-opacity:1"
         id="rect872"
         width="0.74070704"
         height="0.37035355"
         x="14.120127"
         y="4.4261117" /><rect
         style="fill:#000000;fill-opacity:0.976471;stroke:none;stroke-width:0.0277156;stroke-dasharray:none;stroke-opacity:1"
         id="rect873"
         width="0.74070704"
         height="0.37035355"
         x="13.379418"
         y="4.0557575" /><rect
         style="fill:#000000;fill-opacity:0.976471;stroke:none;stroke-width:0.0339444;stroke-dasharray:none;stroke-opacity:1"
         id="rect874"
         width="1.1110606"
         height="0.37035355"
         x="11.527651"
         y="3.3150504" /><rect
         style="fill:#000000;fill-opacity:0.976471;stroke:none;stroke-width:0.0277156;stroke-dasharray:none;stroke-opacity:1"
         id="rect875"
         width="0.74070716"
         height="0.37035355"
         x="10.786944"
         y="2.9446971" /><rect
         style="fill:#000000;fill-opacity:0.976471;stroke:none;stroke-width:0.0277156;stroke-dasharray:none;stroke-opacity:1"
         id="rect876"
         width="0.74070716"
         height="0.37035355"
         x="10.046238"
         y="2.5743434" /><rect
         style="fill:#000000;fill-opacity:0.976471;stroke:none;stroke-width:0.0277156;stroke-dasharray:none;stroke-opacity:1"
         id="rect877"
         width="0.74070716"
         height="0.37035355"
         x="9.3055296"
         y="2.2039902" /><rect
         style="fill:#000000;fill-opacity:0.976471;stroke:none;stroke-width:0.0339444;stroke-dasharray:none;stroke-opacity:1"
         id="rect878"
         width="1.1110609"
         height="0.37035355"
         x="8.1944695"
         y="1.8336365" /><g
         id="g887"
         transform="matrix(0.74070711,0,0,0.74070711,0.41704488,2.2039899)"><rect
           style="fill:#000000;fill-opacity:0.976471;stroke:none;stroke-width:0.0458271;stroke-dasharray:none;stroke-opacity:1"
           id="rect856"
           width="1.5000001"
           height="0.5"
           x="10.5"
           y="7.5000005" /><rect
           style="fill:#000000;fill-opacity:0.976471;stroke:none;stroke-width:0.0374177;stroke-dasharray:none;stroke-opacity:1"
           id="rect879"
           width="1.0000001"
           height="0.5"
           x="-15"
           y="6"
           transform="scale(-1,1)" /><rect
           style="fill:#000000;fill-opacity:0.976471;stroke:none;stroke-width:0.0374177;stroke-dasharray:none;stroke-opacity:1"
           id="rect880"
           width="0.99999988"
           height="0.5"
           x="-13"
           y="7"
           transform="scale(-1,1)" /><rect
           style="fill:#000000;fill-opacity:0.976471;stroke:none;stroke-width:0.0374177;stroke-dasharray:none;stroke-opacity:1"
           id="rect881"
           width="0.99999988"
           height="0.5"
           x="-14"
           y="6.5"
           transform="scale(-1,1)" /><rect
           style="fill:#000000;fill-opacity:0.976471;stroke:none;stroke-width:0.0458271;stroke-dasharray:none;stroke-opacity:1"
           id="rect882"
           width="1.5"
           height="0.5"
           x="-16.5"
           y="5.5"
           transform="scale(-1,1)" /><rect
           style="fill:#000000;fill-opacity:0.976471;stroke:none;stroke-width:0.0374177;stroke-dasharray:none;stroke-opacity:1"
           id="rect883"
           width="1.0000001"
           height="0.5"
           x="-17.5"
           y="5"
           transform="scale(-1,1)" /><rect
           style="fill:#000000;fill-opacity:0.976471;stroke:none;stroke-width:0.0374177;stroke-dasharray:none;stroke-opacity:1"
           id="rect884"
           width="1.0000001"
           height="0.5"
           x="-18.5"
           y="4.5"
           transform="scale(-1,1)" /><rect
           style="fill:#000000;fill-opacity:0.976471;stroke:none;stroke-width:0.0374177;stroke-dasharray:none;stroke-opacity:1"
           id="rect885"
           width="1.0000001"
           height="0.5"
           x="-19.5"
           y="4"
           transform="scale(-1,1)" /><rect
           style="fill:#000000;fill-opacity:0.976471;stroke:none;stroke-width:0.0264583;stroke-dasharray:none;stroke-opacity:1"
           id="rect886"
           width="0.50000054"
           height="0.5"
           x="-20"
           y="3.5"
           transform="scale(-1,1)" /></g><rect
         style="fill:#000000;fill-opacity:0.976471;stroke:none;stroke-width:0.0831467;stroke-dasharray:none;stroke-opacity:1"
         id="rect887"
         width="0.37035394"
         height="6.6663642"
         x="-15.601542"
         y="5.1668181"
         transform="scale(-1,1)" /><g
         id="g896"
         transform="matrix(0.74070711,0,0,0.74070711,0.41704488,9.2407078)"><rect
           style="fill:#000000;fill-opacity:0.976471;stroke:none;stroke-width:0.0458271;stroke-dasharray:none;stroke-opacity:1"
           id="rect888"
           width="1.5000001"
           height="0.5"
           x="10.5"
           y="7.5000005" /><rect
           style="fill:#000000;fill-opacity:0.976471;stroke:none;stroke-width:0.0374177;stroke-dasharray:none;stroke-opacity:1"
           id="rect889"
           width="1.0000001"
           height="0.5"
           x="-15"
           y="6"
           transform="scale(-1,1)" /><rect
           style="fill:#000000;fill-opacity:0.976471;stroke:none;stroke-width:0.0374177;stroke-dasharray:none;stroke-opacity:1"
           id="rect890"
           width="0.99999988"
           height="0.5"
           x="-13"
           y="7"
           transform="scale(-1,1)" /><rect
           style="fill:#000000;fill-opacity:0.976471;stroke:none;stroke-width:0.0374177;stroke-dasharray:none;stroke-opacity:1"
           id="rect891"
           width="0.99999988"
           height="0.5"
           x="-14"
           y="6.5"
           transform="scale(-1,1)" /><rect
           style="fill:#000000;fill-opacity:0.976471;stroke:none;stroke-width:0.0458271;stroke-dasharray:none;stroke-opacity:1"
           id="rect892"
           width="1.5"
           height="0.5"
           x="-16.5"
           y="5.5"
           transform="scale(-1,1)" /><rect
           style="fill:#000000;fill-opacity:0.976471;stroke:none;stroke-width:0.0374177;stroke-dasharray:none;stroke-opacity:1"
           id="rect893"
           width="1.0000001"
           height="0.5"
           x="-17.5"
           y="5"
           transform="scale(-1,1)" /><rect
           style="fill:#000000;fill-opacity:0.976471;stroke:none;stroke-width:0.0374177;stroke-dasharray:none;stroke-opacity:1"
           id="rect894"
           width="1.0000001"
           height="0.5"
           x="-18.5"
           y="4.5"
           transform="scale(-1,1)" /><rect
           style="fill:#000000;fill-opacity:0.976471;stroke:none;stroke-width:0.0374177;stroke-dasharray:none;stroke-opacity:1"
           id="rect895"
           width="1.0000001"
           height="0.5"
           x="-19.5"
           y="4"
           transform="scale(-1,1)" /><rect
           style="fill:#000000;fill-opacity:0.976471;stroke:none;stroke-width:0.0264583;stroke-dasharray:none;stroke-opacity:1"
           id="rect896"
           width="0.50000054"
           height="0.5"
           x="-20"
           y="3.5"
           transform="scale(-1,1)" /></g><g
         id="g905"
         transform="matrix(0.74070711,0,0,0.74070711,1.5281057,2.389167)"><rect
           style="fill:#000000;fill-opacity:0.976471;stroke:none;stroke-width:0.0374177;stroke-dasharray:none;stroke-opacity:1"
           id="rect898"
           width="1.0000001"
           height="0.5"
           x="6"
           y="15.25" /><rect
           style="fill:#000000;fill-opacity:0.976471;stroke:none;stroke-width:0.0374177;stroke-dasharray:none;stroke-opacity:1"
           id="rect899"
           width="0.99999988"
           height="0.5"
           x="8"
           y="16.25" /><rect
           style="fill:#000000;fill-opacity:0.976471;stroke:none;stroke-width:0.0374177;stroke-dasharray:none;stroke-opacity:1"
           id="rect900"
           width="0.99999988"
           height="0.5"
           x="7"
           y="15.75" /><rect
           style="fill:#000000;fill-opacity:0.976471;stroke:none;stroke-width:0.0458271;stroke-dasharray:none;stroke-opacity:1"
           id="rect901"
           width="1.5"
           height="0.5"
           x="4.5"
           y="14.75" /><rect
           style="fill:#000000;fill-opacity:0.976471;stroke:none;stroke-width:0.0374177;stroke-dasharray:none;stroke-opacity:1"
           id="rect902"
           width="1.0000001"
           height="0.5"
           x="3.5"
           y="14.25" /><rect
           style="fill:#000000;fill-opacity:0.976471;stroke:none;stroke-width:0.0374177;stroke-dasharray:none;stroke-opacity:1"
           id="rect903"
           width="1.0000001"
           height="0.5"
           x="2.5"
           y="13.75" /><rect
           style="fill:#000000;fill-opacity:0.976471;stroke:none;stroke-width:0.0374177;stroke-dasharray:none;stroke-opacity:1"
           id="rect904"
           width="1.0000001"
           height="0.5"
           x="1.5"
           y="13.25" /><rect
           style="fill:#000000;fill-opacity:0.976471;stroke:none;stroke-width:0.0264583;stroke-dasharray:none;stroke-opacity:1"
           id="rect905"
           width="0.50000054"
           height="0.5"
           x="1"
           y="12.75" /></g><path
         id="rect908"
         style="fill-opacity:0.976471;stroke-width:0.0277156"
         d="m 13.564768,6.6483441 v 0.3701396 h -0.370522 v 0.7406618 h 0.370522 0.37014 V 7.3890059 h 0.370521 V 6.6483441 h -0.370521 z" /><path
         id="rect912"
         style="fill-opacity:0.976471;stroke-width:0.0277156"
         d="m 10.416476,8.1296679 v 0.3705223 h -0.37014 v 0.7406619 h 0.37014 0.370522 V 8.8703297 h 0.37014 V 8.1296679 h -0.37014 z" /><path
         id="rect916"
         style="fill-opacity:0.976471;stroke-width:0.0277156"
         d="m 10.416476,11.462838 v 0.370523 h -0.37014 v 0.740661 h 0.37014 0.370522 V 12.2035 h 0.37014 v -0.740662 h -0.37014 z" /><path
         id="rect920"
         style="fill-opacity:0.976471;stroke-width:0.0277156"
         d="m 13.934908,10.351653 v 0.370523 h -0.37014 v 0.740662 h 0.37014 0.370521 v -0.370523 h 0.37014 v -0.740662 h -0.37014 z" /><path
         id="path923"
         style="fill-opacity:0.976471;stroke-width:0.0277156"
         d="m 3.5651118,6.6482779 v 0.3705222 h 0.3701395 v 0.740662 H 3.5651118 3.1945893 V 7.3889397 H 2.8244499 V 6.6482779 h 0.3701394 z" /><path
         id="path924"
         style="fill-opacity:0.976471;stroke-width:0.0277156"
         d="M 5.4169248,9.2405841 V 9.6111062 H 5.7870643 V 10.351768 H 5.4169248 5.0464024 V 9.9812457 H 4.676263 V 9.2405841 h 0.3701394 z" /><path
         id="path925"
         style="fill-opacity:0.976471;stroke-width:0.0277156"
         d="m 7.4537623,12.203367 v 0.370522 h 0.3701395 v 0.740663 H 7.4537623 7.08324 V 12.944029 H 6.7131004 V 12.203367 H 7.08324 Z" /><path
         id="path926"
         style="fill-opacity:0.976471;stroke-width:0.0277156"
         d="m 7.4539312,8.3147846 v 0.3705222 h 0.3701396 v 0.740662 H 7.4539312 7.0834088 V 9.0554464 H 6.7132693 V 8.3147846 h 0.3701395 z" /><path
         id="path927"
         style="fill-opacity:0.976471;stroke-width:0.0277156"
         d="m 3.380042,10.351813 v 0.370523 h 0.3701395 v 0.740662 H 3.380042 3.0095197 V 11.092475 H 2.6393801 v -0.740662 h 0.3701396 z" /></g></g><style
     id="style1">
				.filled {
					cursor: pointer;
					transition: fill 0.3s;
				}

				.filled:hover {
					fill: #7711AA;
				}

				.filled.built {
					fill: #7711AA;
				}

				.filled.built:hover {
					fill: inherit;
				}
			</style></svg>
