<?xml version="1.0" encoding="UTF-8"?>
<!-- Created with Inkscape (http://www.inkscape.org/) -->
<svg width="60.568" height="60.569" version="1.1" viewBox="0 0 16.025 16.026" xml:space="preserve" xmlns="http://www.w3.org/2000/svg"><g transform="translate(-.45398 -.45386)"><g transform="translate(.00078001 -.00062174)" fill-opacity=".97647"><path transform="scale(.26458)" d="m27.894 11.489h-1.6406l-0.01221 3.2769h-4.9097l-1e-3 -1.6365h-1.641l2e-6 -1.641h-1.6411v-1.641h-1.641v-1.641h-1.641v-1.641h-1.641l-7.18e-4 1.6414h-1.641v1.641h-1.641v1.641h-1.641v1.641h-1.641v1.641h1.641v1.641h1.641v1.641h1.641v1.641h1.641v1.641l1.6413-0.0034v4.9097l-3.2823 0.01704 5.77e-4 1.6419h-8.1309v8.2051l8.1309-2.4e-5 -5.78e-4 1.6402 3.2823 1e-3 1.06e-4 4.9222h-1.641l2e-6 1.641h-1.641l-3e-6 1.641-1.641-4e-6v1.641h-1.641v1.641h-1.641v1.641h1.641v1.641h1.641v1.641h1.641v1.641l1.641-4e-6v1.641l1.6417 3.53e-4v-1.641h1.641v-1.641h1.641v-1.641h1.641v-1.641h1.641v-1.641l4.9229-7.49e-4 -0.01251 3.2802 1.6533 0.0026v8.1309l8.1865 2e-3s0.04303-5.4056 0.01861-8.1328h1.6406l8.48e-4 -3.2828 4.9224-4e-6v1.641l1.6407 7e-6 -2e-6 1.641h1.641v1.641h1.641v1.641h1.641v1.641l1.6417-3.49e-4v-1.641h1.641v-1.641h1.641v-1.641h1.641v-1.641h1.641v-1.641h-1.641v-1.641h-1.641v-1.641h-1.641v-1.641h-1.641v-1.641l-1.6471-0.01177v-4.9097l3.2877 2.8e-5v-1.6426h8.1309s-0.0092-5.4544 0-8.2051c0 0-5.4268 0.0018-8.1309 0v-1.6406l-3.2811-4.76e-4 -0.0066-4.9263 1.6471 0.0034v-1.641h1.641v-1.641h1.641v-1.641h1.641v-1.641h1.641v-1.641h-1.641v-1.641h-1.641v-1.641h-1.641v-1.641h-1.641v-1.641l-1.6417-3.496e-4v1.641h-1.641v1.641h-1.641l-0.02112 1.6507-1.6199-0.0097v1.641h-1.641l-0.0069 1.6365-4.9152 0.0045 6.46e-4 -3.2815h-1.6426v-8.1308h-8.2051zm8.2055 8.2059v1.641l3.2888-0.0045-0.0076 1.6451 1.641-4.47e-4 -4.13e-4 1.6411 1.6348-0.01791 0.0059 3.2992h1.641v8.2051h-1.6411l0.0016 3.2829h-1.6406l4.13e-4 1.6411-1.6351 0.0098v1.6189l-3.2872 0.01147v1.641h-8.2051l-6e-3 -1.6525h-3.2908l0.01471-1.6296h-1.641l4.13e-4 -1.6411-1.6419 0.0028 0.0013-3.2841-1.6418-7.57e-4v-8.2051h1.641v-3.2813h1.6406l-4.13e-4 -1.6411 1.641 4.48e-4v-1.6406l3.2769-0.0045 0.0043-1.6366z" fill="#5f5f5f"/><g stroke-width=".017797"><path d="m6.078 13.026v0.43439h0.86832v-0.43439h-0.43439z"/><path d="m3.4726 9.9868v0.86832h0.43439v-0.86832z"/><path d="m13.025 9.9868v0.86832h0.43394v-0.86832z"/></g><rect transform="rotate(-90)" x="-11.289" y="13.025" width=".43419" height=".43419"/><path d="m9.9857 13.026v0.43439h0.86832v-0.43439h-0.43439z" stroke-width=".017797"/><rect transform="rotate(-90)" x="-13.46" y="10.854" width=".43419" height=".43419"/><g stroke-width=".017797"><path d="m13.025 6.0791v0.86832h0.43394v-0.86832z"/><path d="m9.9857 3.4741v0.43394h0.86832v-0.43394h-0.43439z"/><path d="m3.4726 6.0791v0.86832h0.43439v-0.86832z"/><path d="m6.078 3.4741v0.43394h0.86832v-0.43394h-0.43439z"/></g><rect transform="scale(-1)" x="-9.5518" y="-11.723" width="2.1709" height=".43419"/><rect transform="rotate(-90)" x="-9.5525" y="11.288" width="2.1709" height=".43419"/><g transform="translate(.131 -.95573)"><path transform="rotate(-90)" d="m-11.811 6.3815h-0.43408v0.86816h0.43408v-0.43408z" stroke-width=".017797"/><rect transform="rotate(-90)" x="-11.811" y="5.9473" width=".43419" height=".43419"/><path transform="rotate(-90)" d="m-10.508 5.5134h-0.86816v0.43408h0.86816z" stroke-width=".017797"/></g><rect transform="rotate(90)" x="7.3815" y="-5.6441" width="2.1709" height=".43419"/><path d="m6.5123 6.0793v-0.43408h0.86816v0.43408h-0.43408z" stroke-width=".017797"/><rect transform="matrix(0,1,1,0,0,0)" x="6.0792" y="6.0781" width=".43419" height=".43419"/><path d="m5.6441 7.3815v-0.86816h0.43408v0.86816z" stroke-width=".017797"/><rect transform="scale(-1)" x="-9.5514" y="-5.6452" width="2.1709" height=".43419"/><g transform="rotate(180 8.4005 8.945)"><path transform="rotate(-90)" d="m-11.811 6.3815h-0.43408v0.86816h0.43408v-0.43408z" stroke-width=".017797"/><rect transform="rotate(-90)" x="-11.811" y="5.9473" width=".43419" height=".43419"/><path transform="rotate(-90)" d="m-10.508 5.5134h-0.86816v0.43408h0.86816z" stroke-width=".017797"/></g><g transform="matrix(-1 0 0 1 16.802 -.95551)"><path transform="rotate(-90)" d="m-11.811 6.3815h-0.43408v0.86816h0.43408v-0.43408z" stroke-width=".017797"/><rect transform="rotate(-90)" x="-11.811" y="5.9473" width=".43419" height=".43419"/><path transform="rotate(-90)" d="m-10.508 5.5134h-0.86816v0.43408h0.86816z" stroke-width=".017797"/></g><g><rect transform="matrix(0,1,1,0,0,0)" x="6.5134" y="3.0384" width=".43419" height=".43419"/><rect transform="matrix(0,1,1,0,0,0)" x="9.9869" y="3.0384" width=".43419" height=".43419"/><rect transform="matrix(0,1,1,0,0,0)" x="6.5134" y="13.459" width=".43419" height=".43419"/><rect transform="matrix(0,1,1,0,0,0)" x="9.9869" y="13.459" width=".43419" height=".43419"/><rect transform="scale(1,-1)" x="6.512" y="-13.895" width=".43419" height=".43419"/><rect transform="scale(1,-1)" x="9.9855" y="-13.895" width=".43419" height=".43419"/><rect transform="scale(1,-1)" x="3.4726" y="-6.0791" width=".43419" height=".43419"/><rect transform="scale(1,-1)" x="9.9855" y="-3.4741" width=".43419" height=".43419"/><rect transform="scale(1,-1)" x="6.5121" y="-3.474" width=".43419" height=".43419"/><rect transform="scale(1,-1)" x="5.6437" y="-3.9081" width=".43419" height=".43419"/></g><g><rect transform="scale(1,-1)" x="5.2096" y="-3.4739" width=".43419" height=".43419"/><rect transform="scale(1,-1)" x="3.0384" y="-5.6449" width=".43419" height=".43419"/><rect transform="scale(1,-1)" x="2.6042" y="-5.2107" width=".43419" height=".43419"/><rect transform="scale(1,-1)" x="2.17" y="-4.7765" width=".43419" height=".43419"/><rect transform="scale(1,-1)" x="1.7359" y="-4.3424" width=".43419" height=".43419"/><rect transform="scale(1,-1)" x="4.7754" y="-3.0397" width=".43419" height=".43419"/><rect transform="scale(1,-1)" x="4.3412" y="-2.6055" width=".43419" height=".43419"/><rect transform="scale(1,-1)" x="3.907" y="-2.1713" width=".43419" height=".43419"/><rect transform="scale(1,-1)" x="3.4728" y="-1.7371" width=".43419" height=".43419"/><rect transform="scale(1,-1)" x="1.3017" y="-3.9082" width=".43419" height=".43419"/><rect transform="scale(1,-1)" x="1.7359" y="-3.474" width=".43419" height=".43419"/><rect transform="scale(1,-1)" x="2.17" y="-3.0398" width=".43419" height=".43419"/><rect transform="scale(1,-1)" x="2.6042" y="-2.6056" width=".43419" height=".43419"/><rect transform="scale(1,-1)" x="3.0384" y="-2.1714" width=".43419" height=".43419"/></g><path transform="scale(1,-1)" d="m0.4532-6.9474v-3.0396h2.5854v0.43408h-2.1513v2.1709h2.1513v0.4346h-2.1513z" stroke-width=".017797"/><g><rect x="5.6438" y="13.026" width=".43419" height=".43419"/><rect x="3.4727" y="10.855" width=".43419" height=".43419"/><rect x="2.6043" y="11.724" width=".43419" height=".43419"/><rect x="2.1701" y="12.158" width=".43419" height=".43419"/><rect x="1.736" y="12.592" width=".43419" height=".43419"/><rect x="4.7755" y="13.895" width=".43419" height=".43419"/><rect x="4.3413" y="14.329" width=".43419" height=".43419"/><rect x="3.9071" y="14.763" width=".43419" height=".43419"/><rect x="3.4729" y="15.197" width=".43419" height=".43419"/><rect x="1.3018" y="13.026" width=".43419" height=".43419"/><rect x="1.736" y="13.46" width=".43419" height=".43419"/><rect x="2.1701" y="13.895" width=".43419" height=".43419"/><rect x="2.6043" y="14.329" width=".43419" height=".43419"/><rect x="3.0385" y="14.763" width=".43419" height=".43419"/><rect x="5.2097" y="13.461" width=".43419" height=".43419"/><rect x="3.0385" y="11.289" width=".43419" height=".43419"/></g><g stroke-width=".017797"><path d="m6.9459 16.48h3.0396v-2.5854h-0.43408v2.1513h-2.1709v-2.1513h-0.4346v2.1513z"/><path d="m16.479 9.9872v-3.0396h-2.5854v0.43408h2.1513v2.1709h-2.1513v0.4346h2.1513z"/><path d="m9.9859 0.45448h-3.0396v2.5854h0.43408v-2.1513h2.1709v2.1513h0.4346v-2.1513z"/></g><g transform="matrix(-1 0 0 1 16.932 -4.7684e-7)"><rect transform="scale(1,-1)" x="5.2096" y="-3.4739" width=".43419" height=".43419"/><rect transform="scale(1,-1)" x="3.0384" y="-5.6449" width=".43419" height=".43419"/><rect transform="scale(1,-1)" x="2.6042" y="-5.2107" width=".43419" height=".43419"/><rect transform="scale(1,-1)" x="2.17" y="-4.7765" width=".43419" height=".43419"/><rect transform="scale(1,-1)" x="1.7359" y="-4.3424" width=".43419" height=".43419"/><rect transform="scale(1,-1)" x="4.7754" y="-3.0397" width=".43419" height=".43419"/><rect transform="scale(1,-1)" x="4.3412" y="-2.6055" width=".43419" height=".43419"/><rect transform="scale(1,-1)" x="3.907" y="-2.1713" width=".43419" height=".43419"/><rect transform="scale(1,-1)" x="3.4728" y="-1.7371" width=".43419" height=".43419"/><rect transform="scale(1,-1)" x="1.3017" y="-3.9082" width=".43419" height=".43419"/><rect transform="scale(1,-1)" x="1.7359" y="-3.474" width=".43419" height=".43419"/><rect transform="scale(1,-1)" x="2.17" y="-3.0398" width=".43419" height=".43419"/><rect transform="scale(1,-1)" x="2.6042" y="-2.6056" width=".43419" height=".43419"/><rect transform="scale(1,-1)" x="3.0384" y="-2.1714" width=".43419" height=".43419"/></g><g transform="rotate(180 8.4659 8.4671)"><rect transform="scale(1,-1)" x="5.2096" y="-3.4739" width=".43419" height=".43419"/><rect transform="scale(1,-1)" x="3.0384" y="-5.6449" width=".43419" height=".43419"/><rect transform="scale(1,-1)" x="2.6042" y="-5.2107" width=".43419" height=".43419"/><rect transform="scale(1,-1)" x="2.17" y="-4.7765" width=".43419" height=".43419"/><rect transform="scale(1,-1)" x="1.7359" y="-4.3424" width=".43419" height=".43419"/><rect transform="scale(1,-1)" x="4.7754" y="-3.0397" width=".43419" height=".43419"/><rect transform="scale(1,-1)" x="4.3412" y="-2.6055" width=".43419" height=".43419"/><rect transform="scale(1,-1)" x="3.907" y="-2.1713" width=".43419" height=".43419"/><rect transform="scale(1,-1)" x="3.4728" y="-1.7371" width=".43419" height=".43419"/><rect transform="scale(1,-1)" x="1.3017" y="-3.9082" width=".43419" height=".43419"/><rect transform="scale(1,-1)" x="1.7359" y="-3.474" width=".43419" height=".43419"/><rect transform="scale(1,-1)" x="2.17" y="-3.0398" width=".43419" height=".43419"/><rect transform="scale(1,-1)" x="2.6042" y="-2.6056" width=".43419" height=".43419"/><rect transform="scale(1,-1)" x="3.0384" y="-2.1714" width=".43419" height=".43419"/></g><rect transform="matrix(0,1,1,0,0,0)" x="5.6449" y="13.025" width=".43419" height=".43419"/><rect transform="matrix(0,1,1,0,0,0)" x="3.474" y="10.854" width=".43419" height=".43419"/></g></g><style>
				.filled {
					cursor: pointer;
					transition: fill 0.3s;
				}

				.filled:hover {
					fill: #7711AA;
				}

				.filled.built {
					fill: #7711AA;
				}

				.filled.built:hover {
					fill: inherit;
				}
			</style></svg>
