<svg xmlns="http://www.w3.org/2000/svg" xml:space="preserve" width="77.381" height="101.102" viewBox="0 0 20.474 26.75"><path d="m52.51 48.23-6.74-4.208.001-.729 4.721-1.339 4.21.001 4.753 1.426.083.596z" style="fill:#f9f9f9;stroke-width:.0743859" transform="translate(-42.273 -41.954)"/><path d="M52.51 48.23a10.237 10.237 0 0 0-10.237 10.237A10.237 10.237 0 0 0 52.51 68.704a10.237 10.237 0 0 0 10.237-10.237A10.237 10.237 0 0 0 52.51 48.23m0 2.881a7.83 7.356 0 0 1 7.83 7.356 7.83 7.356 0 0 1-7.83 7.356 7.83 7.356 0 0 1-7.831-7.356 7.83 7.356 0 0 1 7.831-7.356" style="fill:#cacaca;fill-opacity:1;stroke:none;stroke-width:.132;stroke-dasharray:none;stroke-dashoffset:0;stroke-opacity:1" transform="translate(-42.273 -41.954)"/></svg>