<svg xmlns="http://www.w3.org/2000/svg" xml:space="preserve" width="198.064" height="141.084" viewBox="0 0 52.405 37.328"><path d="M28.829 53.055c4.154-4.263 7.313-4.985 12.77-7.084l4.37 3.44.014-6.885 4.668-1.543 7.016-.067 4.8 1.53.34 6.54 3.734-3.083 12.884 7.014-2.199.47 2.695 2.9-.409 1.988-3.275 1.615 2.292 10.297-8.314 2.378-2.866-9.437-2.604 8.628-.691 6.46-19.798.029-.814-6.542-2.346-8.71-3.244 9.572-8.315-2.378 2.388-10.43-4.409-1.346.017-1.858 2.544-2.969z" style="fill:#b4b4b4;fill-opacity:1;stroke:none;stroke-width:.132;stroke-dasharray:none;stroke-dashoffset:0;stroke-opacity:1" transform="translate(-27.516 -40.916)"/></svg>