<?xml version="1.0" encoding="UTF-8"?>
<!-- Created with Inkscape (http://www.inkscape.org/) -->
<svg width="64" height="64" version="1.1" viewBox="0 0 16.933 16.933" xmlns="http://www.w3.org/2000/svg"><g transform="matrix(1.1567 0 0 1.1567 -1.4926 -.8171)" stroke="#000"><path d="m15.85 7.2245s-0.12792-0.42889-0.46346-1.6105c-0.07779 1.1823-0.6845 0.44001-0.6845 0.44001l-1.3965-2.032-1.7094 1.1748 1.5464 1.4109 1.2564 1.6218z" fill="#333" stroke-width=".039688"/><path d="m1.3695 7.2245s0.12791-0.42889 0.46346-1.6105c0.077787 1.1823 0.6845 0.44001 0.6845 0.44001l1.3965-2.032 1.7094 1.1748-1.5464 1.4109-1.2564 1.6218z" fill="#333" stroke-width=".039688"/><g stroke-width=".045195"><ellipse cx="8.6232" cy="4.0878" rx="2.2308" ry=".90187" fill="#020202"/><path d="m5.6981 3.1776s1.58 1.0834 2.931 1.0777c1.351-0.00569 2.7074-1.1753 2.7074-1.1753l-0.18066 10.31h-5.1413z" fill="#2e0a0a"/><path d="m4.761 4.2659 1.922 0.4087 0.96099 0.62458 0.96099-0.62534 0.93894 0.66845 0.93894-0.66768 1.8779-0.4087-1.0255 5.5489h-5.5488z" fill="#222"/><path d="m2.0969 5.0284s1.4739-1.2109 1.1258-2.3237c1.0368 0.53213 3.1325-0.038267 3.1325-0.038267l0.85566 2.6627s-1.8313-0.44532-2.481-0.1017c-0.71254 0.37685-1.2868 1.9821-1.2868 1.9821z" fill="#2e0a0a"/></g><g fill="#333"><path d="m6.0076 9.9679h5.1141l-0.26063 3.0299h-4.5027z" stroke-width=".045195"/><path transform="rotate(79.034)" d="m6.679-4.9219 1.028-1.3055 0.6911 1.3055 0.80415-1.0953 0.91494 1.0953v0.94255h-3.4382z" stroke-width=".03074"/><path d="m10.956 5.6207-1.4772 0.76088 1.1502 0.92682-1.2283 0.58111 0.90127 1.1066 0.92534 0.1793 0.65403-3.3754z" stroke-width=".03074"/></g><path d="m15.123 5.0284s-1.4739-1.2109-1.1258-2.3237c-1.0368 0.53213-3.1325-0.038267-3.1325-0.038267l-0.85566 2.6627s1.8313-0.44532 2.481-0.1017c0.71254 0.37685 1.2868 1.9821 1.2868 1.9821z" fill="#2e0a0a" stroke-width=".045195"/><path d="m7.6672 6.4357 1.7477 0.0054458 1.055 0.85715-1.1075 0.50772-1.672 0.0087829-1.1252-0.53073z" fill="#610c0c" stroke-width=".039688"/><path d="m6.3988 10.2h4.3316l-0.22075 2.5663h-3.8137z" fill="#222" stroke-width=".03828"/></g></svg>
