<?xml version="1.0" encoding="UTF-8"?>
<!-- Created with Inkscape (http://www.inkscape.org/) -->
<svg width="64" height="64" version="1.1" viewBox="0 0 16.933 16.933" xmlns="http://www.w3.org/2000/svg"><g transform="translate(-.25522 -.31681)"><g stroke="#000"><path d="m4.8141 5.6386 7.2183-0.038335 1.8492 12.335h-9.1684z" fill="#252a39" stroke-width=".13229"/><path d="m12.747 5.6435c-1.2711-0.9606-3.9316-0.074036-3.9316-0.074036l2.1207 12.077 3.0091-0.17831s0.71144-10.382-1.1981-11.825z" fill="#a97c77" stroke-width=".13832"/><path d="m5.0509 5.305c0.78937-0.32063 3.7113 0.28161 3.7113 0.28161l-2.1363 12.058-3.1609-0.17825s-0.67466-11.243 1.5859-12.161z" fill="#a97c77" stroke-width=".14175"/></g><path d="m7.2136 7.7489c-1.4793 0.9963-2.6762 2.5949-2.8511 4.2286s-0.00833 3.9693-0.68859 5.4369c0.32085-0.02798 0.35456 0.07322 0.37839-0.0099 0.19854-0.69232 0.52001-4.5283 0.61427-5.3665 0.1779-1.582 1.3151-2.9304 2.547-4.2891z" fill="#91625d"/><path d="m10.623 9.1116c1.2392 0.83463 2.2419 2.1738 2.3884 3.5424 0.14655 1.3685 0.11603 3.4937 0.6859 4.7232-0.26878-0.02344-0.29702 0.06134-0.31699-0.0083-0.16632-0.57997-0.54467-3.962-0.62364-4.6642-0.14903-1.3253-1.1017-2.4549-2.1337-3.5931z" fill="#91625d"/><path d="m8.7215 0.48901c1.9705 0.030668 2.2097 2.9148 3.4306 4.8151 0 0-5.0485 1.0354-7.0828-0.012517 1.6434-1.5657 1.6413-4.8339 3.6522-4.8026z" fill="#a97c77" stroke="#000" stroke-width=".13229"/><path d="m8.6923 1.9837c1.0583 0.22856 1.7222 1.7555 2.7045 3.2843 0 0-4.1071 0.64862-5.6769 0.099146 1.3222-1.2597 1.7099-3.1608 2.9724-3.3834z" fill="#252a39" stroke="#000" stroke-width=".10643"/><path d="m7.5257 8.6338c-1.4793 0.9963-2.0896 2.3166-2.2645 3.9502s0.13085 3.3629-0.5494 4.8305c0.32085-0.02798 0.35456 0.07322 0.37839-0.0099 0.19854-0.69232 0.38083-3.9218 0.47509-4.7601 0.1779-1.582 0.72858-2.652 1.9605-4.0107z" fill="#91625d"/><path d="m10.625 9.7677c1.2392 0.83463 1.2365 2.1855 1.4064 3.0046s0.11603 3.4937 0.6859 4.7232c-0.26878-0.02344-0.29702 0.06134-0.31699-0.0083-0.16632-0.57997-0.54467-3.962-0.62364-4.6642-0.25728-2.2879-0.38972-2.0278-1.1517-3.0553z" fill="#91625d"/></g></svg>
