<?xml version="1.0" encoding="UTF-8"?>
<!-- Created with Inkscape (http://www.inkscape.org/) -->
<svg width="64" height="64" version="1.1" viewBox="0 0 16.933 16.933" xmlns="http://www.w3.org/2000/svg"><g transform="translate(-.33374 -.33375)"><g stroke="#000"><path d="m6.3574 5.2968 4.291-0.20114 1.2068 13.861h-6.4197z" fill="#53247f" stroke-width=".067058"/><path d="m4.3316 6.2385c1.2063-1.0466 3.2826-1.3745 3.2826-1.3745l3.9055 13.753-7.5233 0.0838s-0.42415-11.803 0.33523-12.462z" fill="#3c313d" stroke-width=".067058"/><path d="m4.7214 6.6339c0.96229-0.95618 2.6185-1.2557 2.6185-1.2557l3.1154 13.022-6.0013 0.07657s-0.33834-11.241 0.26741-11.843z" fill="#6b576c" stroke-width=".057248"/><path d="m12.807 6.0813c-1.5826-0.93275-3.2135-1.0496-3.2135-1.0496l-5.5481 13.568 9.3838 0.033518c0.0048-1.1281 0.96651-11.616-0.62222-12.552z" fill="#3c313d" stroke-width=".067058"/><path d="m12.777 6.5764c-0.93478-0.66471-3.0575-0.84344-3.0575-0.84344l-4.8925 12.456 8.332 0.02977c-0.07923-1.947 0.15564-8.6249 0.15241-9.6733-0.0032-1.0484-0.24456-1.7627-0.53436-1.9688z" fill="#6b576c" stroke-width=".059542"/><path d="m5.2035 5.5734c-0.76974-0.16875-0.32331-1.7914 0.90759-2.7631 1.2309-0.97178 1.9329-2.2942 2.5094-2.2971 0.57648-0.0028596 1.0385 1.1715 2.2851 2.1448 1.2466 0.97321 2.2263 3.7893 1.315 3.2382-1.6948-0.82281-6.2474-0.1539-7.0171-0.32265z" fill="#3c313d" stroke-width=".094217"/><path d="m5.2944 5.3035c0.17427-0.39661 0.13447-1.244 0.81672-1.578 1.4086-0.68952 1.9329-2.2942 2.5094-2.2971 0.57648-0.00286 1.0848 1.1149 2.2851 2.1448 0.80173 0.68786 0.86894 1.34 1.2029 1.8257-1.302-0.54964-6.1142-0.1778-6.8141-0.09537z" fill="#1e0521" stroke-width=".094105"/></g><g fill="#fff"><path transform="matrix(.51198 0 0 .51198 4.1308 2.997)" d="m2.6197 2.4483-0.18897-0.015523-0.11992 0.14687-0.043632-0.18452-0.17674-0.068663 0.162-0.098515 0.010688-0.1893 0.14376 0.12363 0.18334-0.048333-0.073158 0.17492z"/><path transform="matrix(.51198 0 0 .51198 8.5722 .70613)" d="m2.6197 2.4483-0.18897-0.015523-0.11992 0.14687-0.043632-0.18452-0.17674-0.068663 0.162-0.098515 0.010688-0.1893 0.14376 0.12363 0.18334-0.048333-0.073158 0.17492z"/><path transform="matrix(.51198 0 0 .51198 6.461 .465)" d="m2.6197 2.4483-0.18897-0.015523-0.11992 0.14687-0.043632-0.18452-0.17674-0.068663 0.162-0.098515 0.010688-0.1893 0.14376 0.12363 0.18334-0.048333-0.073158 0.17492z"/><path transform="matrix(.51198 0 0 .51198 5.9107 1.0374)" d="m2.6197 2.4483-0.18897-0.015523-0.11992 0.14687-0.043632-0.18452-0.17674-0.068663 0.162-0.098515 0.010688-0.1893 0.14376 0.12363 0.18334-0.048333-0.073158 0.17492z"/><path transform="matrix(.51198 0 0 .51198 4.5126 2.4299)" d="m2.6197 2.4483-0.18897-0.015523-0.11992 0.14687-0.043632-0.18452-0.17674-0.068663 0.162-0.098515 0.010688-0.1893 0.14376 0.12363 0.18334-0.048333-0.073158 0.17492z"/><path transform="matrix(.51198 0 0 .51198 3.8501 3.7382)" d="m2.6197 2.4483-0.18897-0.015523-0.11992 0.14687-0.043632-0.18452-0.17674-0.068663 0.162-0.098515 0.010688-0.1893 0.14376 0.12363 0.18334-0.048333-0.073158 0.17492z"/><path transform="matrix(.51198 0 0 .51198 4.8607 1.9526)" d="m2.6197 2.4483-0.18897-0.015523-0.11992 0.14687-0.043632-0.18452-0.17674-0.068663 0.162-0.098515 0.010688-0.1893 0.14376 0.12363 0.18334-0.048333-0.073158 0.17492z"/><path transform="matrix(.51198 0 0 .51198 5.4503 1.5203)" d="m2.6197 2.4483-0.18897-0.015523-0.11992 0.14687-0.043632-0.18452-0.17674-0.068663 0.162-0.098515 0.010688-0.1893 0.14376 0.12363 0.18334-0.048333-0.073158 0.17492z"/><path transform="matrix(.51198 0 0 .51198 9.3686 1.5699)" d="m2.6197 2.4483-0.18897-0.015523-0.11992 0.14687-0.043632-0.18452-0.17674-0.068663 0.162-0.098515 0.010688-0.1893 0.14376 0.12363 0.18334-0.048333-0.073158 0.17492z"/><path transform="matrix(.51198 0 0 .51198 8.9761 1.158)" d="m2.6197 2.4483-0.18897-0.015523-0.11992 0.14687-0.043632-0.18452-0.17674-0.068663 0.162-0.098515 0.010688-0.1893 0.14376 0.12363 0.18334-0.048333-0.073158 0.17492z"/><path transform="matrix(.51198 0 0 .51198 8.0699 .23724)" d="m2.6197 2.4483-0.18897-0.015523-0.11992 0.14687-0.043632-0.18452-0.17674-0.068663 0.162-0.098515 0.010688-0.1893 0.14376 0.12363 0.18334-0.048333-0.073158 0.17492z"/><path transform="matrix(.51198 0 0 .51198 7.5756 -.28613)" d="m2.6197 2.4483-0.18897-0.015523-0.11992 0.14687-0.043632-0.18452-0.17674-0.068663 0.162-0.098515 0.010688-0.1893 0.14376 0.12363 0.18334-0.048333-0.073158 0.17492z"/><path transform="matrix(.51198 0 0 .51198 6.8438 -.0099073)" d="m2.6197 2.4483-0.18897-0.015523-0.11992 0.14687-0.043632-0.18452-0.17674-0.068663 0.162-0.098515 0.010688-0.1893 0.14376 0.12363 0.18334-0.048333-0.073158 0.17492z"/><path transform="matrix(.51198 0 0 .51198 9.7563 1.9721)" d="m2.6197 2.4483-0.18897-0.015523-0.11992 0.14687-0.043632-0.18452-0.17674-0.068663 0.162-0.098515 0.010688-0.1893 0.14376 0.12363 0.18334-0.048333-0.073158 0.17492z"/><path transform="matrix(.51198 0 0 .51198 10.212 2.4664)" d="m2.6197 2.4483-0.18897-0.015523-0.11992 0.14687-0.043632-0.18452-0.17674-0.068663 0.162-0.098515 0.010688-0.1893 0.14376 0.12363 0.18334-0.048333-0.073158 0.17492z"/><path transform="matrix(.51198 0 0 .51198 10.541 2.9122)" d="m2.6197 2.4483-0.18897-0.015523-0.11992 0.14687-0.043632-0.18452-0.17674-0.068663 0.162-0.098515 0.010688-0.1893 0.14376 0.12363 0.18334-0.048333-0.073158 0.17492z"/><path transform="matrix(.51198 0 0 .51198 10.798 3.4453)" d="m2.6197 2.4483-0.18897-0.015523-0.11992 0.14687-0.043632-0.18452-0.17674-0.068663 0.162-0.098515 0.010688-0.1893 0.14376 0.12363 0.18334-0.048333-0.073158 0.17492z"/><path transform="matrix(.51198 0 0 .51198 11.045 4.0316)" d="m2.6197 2.4483-0.18897-0.015523-0.11992 0.14687-0.043632-0.18452-0.17674-0.068663 0.162-0.098515 0.010688-0.1893 0.14376 0.12363 0.18334-0.048333-0.073158 0.17492z"/></g></g></svg>
