<?xml version="1.0" encoding="UTF-8"?>
<!-- Created with Inkscape (http://www.inkscape.org/) -->
<svg width="64" height="64" version="1.1" viewBox="0 0 16.933 16.933" xmlns="http://www.w3.org/2000/svg"><g transform="matrix(.98274 0 0 .98274 .27798 .15324)" stroke="#000" stroke-width=".13229"><g><path d="m2.2887 3.7753c0.23244-0.98777 1.8535-0.71257 2.8605-0.44827 0.58284 0.15296 1.3466 1.3354 1.9833 1.7402 0.63667 0.40476 1.7857 0.44083 2.4224 0.036071 0.63667-0.40476 1.2705-1.6233 1.8533-1.7763 1.0071-0.26429 2.8147-0.96601 3.1295 0 1.0405 3.193-1.8383 13.011-1.8383 13.011h-9.1943s-2.0528-9.0091-1.2165-12.563z" fill="#151f12"/><path d="m2.0513 3.8422c0.23244-0.98777 2.1225-0.26429 3.1295 0 0.58284 0.15296 1.3466 1.3354 1.9833 1.7402 0.63667 0.40476 1.7857 0.44083 2.4224 0.036071 0.63667-0.40476 1.2705-1.6233 1.8533-1.7763 1.0071-0.26429 2.8147-0.96601 3.1295 0 1.0405 3.193-1.8383 13.011-1.8383 13.011h-9.1943s-2.3217-9.4574-1.4855-13.011z" fill="#557848"/><path d="m2.5427 4.7385c0.21426-0.89015 1.9564-0.23818 2.8847 0 0.53725 0.13784 1.2413 1.2035 1.8282 1.5682 0.58687 0.36476 1.646 0.39727 2.2329 0.032507 0.58687-0.36476 1.1711-1.4629 1.7084-1.6007 0.92828-0.23818 2.5945-0.87054 2.8847 0 0.95911 2.8774-1.6945 11.725-1.6945 11.725h-8.4751s-2.1401-8.5227-1.3693-11.725z" fill="#33482b"/><path d="m3.661 0.13531c0.32609-0.029558 0.8099-0.082819 1.1235-0.05118 0.42735 0.043108 0.92552 3.4931 0.92552 3.4931l-1.3345-0.64942s-1.7-2.7032-0.7146-2.7925z" fill="#151f12"/><path d="m3.0212 0.092043c0.32609-0.029558 1.4748-0.036549 1.7885-0.0049082 0.10684 0.010776 0.21414 0.20622 0.25467 0.62229-0.55462 1.2953-0.60841 2.3471 0.46046 3.378 0 0-1.0787-0.48705-1.6097-0.60115-0.94616-0.20333-1.645 0.12377-1.645 0.12377s-0.23437-3.4287 0.75105-3.518z" fill="#33482b"/><path d="m13.207 0.13531c-0.32609-0.029558-0.8099-0.082819-1.1235-0.05118-0.42735 0.043108-0.9656 3.4049-0.9656 3.4049l1.3745-0.56125s1.7-2.7032 0.7146-2.7925z" fill="#151f12"/><path d="m13.847 0.092043c-0.32609-0.029558-1.4748-0.036549-1.7885-0.0049082-0.10684 0.010776-0.21414 0.20622-0.25467 0.62229 0.55462 1.2953 0.57141 2.2065-0.49746 3.2374 0 0 1.1061-0.33188 1.6319-0.46794 1.2718-0.32914 1.645 0.27178 1.645 0.27178s0.24917-3.5693-0.73625-3.6586z" fill="#33482b"/></g><g fill="#151f12"><path d="m12.548 13.559-0.43516 2.548h-7.8572l-0.36263-2.548z"/><path d="m12.548 10.803-0.43516 2.548h-7.8572l-0.36263-2.548z"/><path d="m12.548 7.9744-0.43516 2.548h-7.8572l-0.36263-2.548z"/></g></g></svg>
