<?xml version="1.0" encoding="UTF-8"?>
<!-- Created with Inkscape (http://www.inkscape.org/) -->
<svg width="64" height="64" version="1.1" viewBox="0 0 16.933 16.933" xmlns="http://www.w3.org/2000/svg"><g transform="matrix(1.1322 0 0 1.1322 -.73694 -.8636)" stroke="#000"><rect transform="matrix(-.61558 -.78808 -.78808 .61558 0 0)" x="-15.504" y="-7.3075" width="5.1331" height="2.2026" fill="#0c4111" stroke-width=".089532"/><path d="m14.88 7.2164-2.751-3.6074-1.8373 1.2929 2.8766 3.6242 0.54608-1.2744z" fill="#1a1a1a" stroke-width=".079962"/><rect transform="rotate(-52.006)" x="-5.4954" y="5.5051" width="5.1331" height="2.2026" fill="#0c4111" stroke-width=".089532"/><path d="m1.3784 7.2164 2.751-3.6074 1.8373 1.2929-2.8766 3.6242-0.54608-1.2744z" fill="#1a1a1a" stroke-width=".079962"/><g stroke-width=".045195"><ellipse cx="8.1277" cy="4.6431" rx="2.2308" ry=".90187" fill="#282828"/><path d="m5.2026 3.7329s1.58 1.0834 2.931 1.0777c1.351-0.00569 2.7074-1.1753 2.7074-1.1753l0.03071 5.1552-0.01039 1.2888s-0.04066 0.85888-0.02935 1.2888c0.0113 0.42946 0.0077 1.2888 0.0077 1.2888l0.0077 1.2888h-5.3752l-0.067406-2.5532-0.13429-1.2766 0.066882-1.2766-0.067406-2.5532z" fill="#4b4b4b"/><path d="m4.2655 4.8212s2.4876 0.82035 3.8439 0.81739c1.3563-0.0029599 3.7557-0.81739 3.7557-0.81739l-1.0255 5.5489h-5.5488z" fill="#5c5c5c"/><path d="m1.7752 4.0733c1.4963 1.2779 2.9124-0.13515 1.988-1.5275 1.2972-0.11848 2.0929 0.88629 2.2899 1.8469 0.15213 0.74189-0.4353 1.5856-1.0644 2.0072-0.66292 0.44436-1.7414 0.70882-2.3828 0.23381-0.70748-0.52402-1.174-1.4422-0.83074-2.5605z" fill="#404040"/></g><g transform="matrix(1.1436 0 0 1.1436 -1.241 -1.554)" fill="#235c31" stroke-width=".021836"><path d="m5.9552 12.614c0.16173-0.27399 0.78597-0.28168 0.95441-0.01184 0.18252 0.29245-0.46589 0.9233-0.46589 0.9233s-0.66375-0.61467-0.48851-0.91153z"/><path d="m6.2982 12.614c0.16173-0.27399 0.78597-0.28168 0.95441-0.01184 0.18252 0.29245-0.46589 0.9233-0.46589 0.9233s-0.66375-0.61467-0.48851-0.91153z"/><path d="m6.7942 12.614c0.16173-0.27399 0.78597-0.28168 0.95441-0.01184 0.18252 0.29245-0.46589 0.9233-0.46589 0.9233s-0.66375-0.61467-0.48851-0.91153z"/><path d="m7.1907 12.614c0.16173-0.27399 0.78597-0.28168 0.95441-0.01184 0.18252 0.29245-0.46589 0.9233-0.46589 0.9233s-0.66375-0.61467-0.48851-0.91153z"/><path d="m9.3383 12.614c0.16173-0.27399 0.78597-0.28168 0.95441-0.01184 0.18252 0.29245-0.46589 0.9233-0.46589 0.9233s-0.66375-0.61467-0.48851-0.91153z"/><path d="m8.8845 12.614c0.16173-0.27399 0.78597-0.28168 0.95441-0.01184 0.18251 0.29245-0.46589 0.9233-0.46589 0.9233s-0.66375-0.61467-0.48851-0.91153z"/><path d="m8.4306 12.614c0.16173-0.27399 0.78597-0.28168 0.95441-0.01184 0.18252 0.29245-0.46589 0.9233-0.46589 0.9233s-0.66375-0.61467-0.48851-0.91153z"/><path d="m7.9346 12.614c0.16173-0.27399 0.78597-0.28168 0.95441-0.01184 0.18252 0.29245-0.46589 0.9233-0.46589 0.9233s-0.66375-0.61467-0.48851-0.91153z"/><path d="m7.5757 12.614c0.16173-0.27399 0.78597-0.28168 0.95441-0.01184 0.18252 0.29245-0.46589 0.9233-0.46589 0.9233s-0.66375-0.61467-0.48851-0.91153z"/></g><g transform="matrix(1.1436 0 0 1.1436 -1.241 -1.9186)" fill="#235c31" stroke-width=".021836"><path d="m5.9552 12.614c0.16173-0.27399 0.78597-0.28168 0.95441-0.01184 0.18252 0.29245-0.46589 0.9233-0.46589 0.9233s-0.66375-0.61467-0.48851-0.91153z"/><path d="m6.2982 12.614c0.16173-0.27399 0.78597-0.28168 0.95441-0.01184 0.18252 0.29245-0.46589 0.9233-0.46589 0.9233s-0.66375-0.61467-0.48851-0.91153z"/><path d="m6.7942 12.614c0.16173-0.27399 0.78597-0.28168 0.95441-0.01184 0.18252 0.29245-0.46589 0.9233-0.46589 0.9233s-0.66375-0.61467-0.48851-0.91153z"/><path d="m7.1907 12.614c0.16173-0.27399 0.78597-0.28168 0.95441-0.01184 0.18252 0.29245-0.46589 0.9233-0.46589 0.9233s-0.66375-0.61467-0.48851-0.91153z"/><path d="m9.3383 12.614c0.16173-0.27399 0.78597-0.28168 0.95441-0.01184 0.18252 0.29245-0.46589 0.9233-0.46589 0.9233s-0.66375-0.61467-0.48851-0.91153z"/><path d="m8.8845 12.614c0.16173-0.27399 0.78597-0.28168 0.95441-0.01184 0.18251 0.29245-0.46589 0.9233-0.46589 0.9233s-0.66375-0.61467-0.48851-0.91153z"/><path d="m8.4306 12.614c0.16173-0.27399 0.78597-0.28168 0.95441-0.01184 0.18252 0.29245-0.46589 0.9233-0.46589 0.9233s-0.66375-0.61467-0.48851-0.91153z"/><path d="m7.9346 12.614c0.16173-0.27399 0.78597-0.28168 0.95441-0.01184 0.18252 0.29245-0.46589 0.9233-0.46589 0.9233s-0.66375-0.61467-0.48851-0.91153z"/><path d="m7.5757 12.614c0.16173-0.27399 0.78597-0.28168 0.95441-0.01184 0.18252 0.29245-0.46589 0.9233-0.46589 0.9233s-0.66375-0.61467-0.48851-0.91153z"/></g><g transform="matrix(1.1436 0 0 1.1436 -1.241 -2.3198)" fill="#235c31" stroke-width=".021836"><path d="m5.9552 12.614c0.16173-0.27399 0.78597-0.28168 0.95441-0.01184 0.18252 0.29245-0.46589 0.9233-0.46589 0.9233s-0.66375-0.61467-0.48851-0.91153z"/><path d="m6.2982 12.614c0.16173-0.27399 0.78597-0.28168 0.95441-0.01184 0.18252 0.29245-0.46589 0.9233-0.46589 0.9233s-0.66375-0.61467-0.48851-0.91153z"/><path d="m6.7942 12.614c0.16173-0.27399 0.78597-0.28168 0.95441-0.01184 0.18252 0.29245-0.46589 0.9233-0.46589 0.9233s-0.66375-0.61467-0.48851-0.91153z"/><path d="m7.1907 12.614c0.16173-0.27399 0.78597-0.28168 0.95441-0.01184 0.18252 0.29245-0.46589 0.9233-0.46589 0.9233s-0.66375-0.61467-0.48851-0.91153z"/><path d="m9.3383 12.614c0.16173-0.27399 0.78597-0.28168 0.95441-0.01184 0.18252 0.29245-0.46589 0.9233-0.46589 0.9233s-0.66375-0.61467-0.48851-0.91153z"/><path d="m8.8845 12.614c0.16173-0.27399 0.78597-0.28168 0.95441-0.01184 0.18251 0.29245-0.46589 0.9233-0.46589 0.9233s-0.66375-0.61467-0.48851-0.91153z"/><path d="m8.4306 12.614c0.16173-0.27399 0.78597-0.28168 0.95441-0.01184 0.18252 0.29245-0.46589 0.9233-0.46589 0.9233s-0.66375-0.61467-0.48851-0.91153z"/><path d="m7.9346 12.614c0.16173-0.27399 0.78597-0.28168 0.95441-0.01184 0.18252 0.29245-0.46589 0.9233-0.46589 0.9233s-0.66375-0.61467-0.48851-0.91153z"/><path d="m7.5757 12.614c0.16173-0.27399 0.78597-0.28168 0.95441-0.01184 0.18252 0.29245-0.46589 0.9233-0.46589 0.9233s-0.66375-0.61467-0.48851-0.91153z"/></g><g transform="matrix(1.1436 0 0 1.1436 -1.241 -2.9054)" fill="#235c31" stroke-width=".021836"><path d="m5.9552 12.614c0.16173-0.27399 0.78597-0.28168 0.95441-0.01184 0.18252 0.29245-0.46589 0.9233-0.46589 0.9233s-0.66375-0.61467-0.48851-0.91153z"/><path d="m6.2982 12.614c0.16173-0.27399 0.78597-0.28168 0.95441-0.01184 0.18252 0.29245-0.46589 0.9233-0.46589 0.9233s-0.66375-0.61467-0.48851-0.91153z"/><path d="m6.7942 12.614c0.16173-0.27399 0.78597-0.28168 0.95441-0.01184 0.18252 0.29245-0.46589 0.9233-0.46589 0.9233s-0.66375-0.61467-0.48851-0.91153z"/><path d="m7.1907 12.614c0.16173-0.27399 0.78597-0.28168 0.95441-0.01184 0.18252 0.29245-0.46589 0.9233-0.46589 0.9233s-0.66375-0.61467-0.48851-0.91153z"/><path d="m9.3383 12.614c0.16173-0.27399 0.78597-0.28168 0.95441-0.01184 0.18252 0.29245-0.46589 0.9233-0.46589 0.9233s-0.66375-0.61467-0.48851-0.91153z"/><path d="m8.8845 12.614c0.16173-0.27399 0.78597-0.28168 0.95441-0.01184 0.18251 0.29245-0.46589 0.9233-0.46589 0.9233s-0.66375-0.61467-0.48851-0.91153z"/><path d="m8.4306 12.614c0.16173-0.27399 0.78597-0.28168 0.95441-0.01184 0.18252 0.29245-0.46589 0.9233-0.46589 0.9233s-0.66375-0.61467-0.48851-0.91153z"/><path d="m7.9346 12.614c0.16173-0.27399 0.78597-0.28168 0.95441-0.01184 0.18252 0.29245-0.46589 0.9233-0.46589 0.9233s-0.66375-0.61467-0.48851-0.91153z"/><path d="m7.5757 12.614c0.16173-0.27399 0.78597-0.28168 0.95441-0.01184 0.18252 0.29245-0.46589 0.9233-0.46589 0.9233s-0.66375-0.61467-0.48851-0.91153z"/></g><g transform="matrix(1.1436 0 0 1.1436 -1.241 -3.4151)" fill="#235c31" stroke-width=".021836"><path d="m5.9552 12.614c0.16173-0.27399 0.78597-0.28168 0.95441-0.01184 0.18252 0.29245-0.46589 0.9233-0.46589 0.9233s-0.66375-0.61467-0.48851-0.91153z"/><path d="m6.2982 12.614c0.16173-0.27399 0.78597-0.28168 0.95441-0.01184 0.18252 0.29245-0.46589 0.9233-0.46589 0.9233s-0.66375-0.61467-0.48851-0.91153z"/><path d="m6.7942 12.614c0.16173-0.27399 0.78597-0.28168 0.95441-0.01184 0.18252 0.29245-0.46589 0.9233-0.46589 0.9233s-0.66375-0.61467-0.48851-0.91153z"/><path d="m7.1907 12.614c0.16173-0.27399 0.78597-0.28168 0.95441-0.01184 0.18252 0.29245-0.46589 0.9233-0.46589 0.9233s-0.66375-0.61467-0.48851-0.91153z"/><path d="m9.3383 12.614c0.16173-0.27399 0.78597-0.28168 0.95441-0.01184 0.18252 0.29245-0.46589 0.9233-0.46589 0.9233s-0.66375-0.61467-0.48851-0.91153z"/><path d="m8.8845 12.614c0.16173-0.27399 0.78597-0.28168 0.95441-0.01184 0.18251 0.29245-0.46589 0.9233-0.46589 0.9233s-0.66375-0.61467-0.48851-0.91153z"/><path d="m8.4306 12.614c0.16173-0.27399 0.78597-0.28168 0.95441-0.01184 0.18252 0.29245-0.46589 0.9233-0.46589 0.9233s-0.66375-0.61467-0.48851-0.91153z"/><path d="m7.9346 12.614c0.16173-0.27399 0.78597-0.28168 0.95441-0.01184 0.18252 0.29245-0.46589 0.9233-0.46589 0.9233s-0.66375-0.61467-0.48851-0.91153z"/><path d="m7.5757 12.614c0.16173-0.27399 0.78597-0.28168 0.95441-0.01184 0.18252 0.29245-0.46589 0.9233-0.46589 0.9233s-0.66375-0.61467-0.48851-0.91153z"/></g><g transform="matrix(1.1436 0 0 1.1436 -1.241 -3.7296)" fill="#235c31" stroke-width=".021836"><path d="m5.9552 12.614c0.16173-0.27399 0.78597-0.28168 0.95441-0.01184 0.18252 0.29245-0.46589 0.9233-0.46589 0.9233s-0.66375-0.61467-0.48851-0.91153z"/><path d="m6.2982 12.614c0.16173-0.27399 0.78597-0.28168 0.95441-0.01184 0.18252 0.29245-0.46589 0.9233-0.46589 0.9233s-0.66375-0.61467-0.48851-0.91153z"/><path d="m6.7942 12.614c0.16173-0.27399 0.78597-0.28168 0.95441-0.01184 0.18252 0.29245-0.46589 0.9233-0.46589 0.9233s-0.66375-0.61467-0.48851-0.91153z"/><path d="m7.1907 12.614c0.16173-0.27399 0.78597-0.28168 0.95441-0.01184 0.18252 0.29245-0.46589 0.9233-0.46589 0.9233s-0.66375-0.61467-0.48851-0.91153z"/><path d="m9.3383 12.614c0.16173-0.27399 0.78597-0.28168 0.95441-0.01184 0.18252 0.29245-0.46589 0.9233-0.46589 0.9233s-0.66375-0.61467-0.48851-0.91153z"/><path d="m8.8845 12.614c0.16173-0.27399 0.78597-0.28168 0.95441-0.01184 0.18251 0.29245-0.46589 0.9233-0.46589 0.9233s-0.66375-0.61467-0.48851-0.91153z"/><path d="m8.4306 12.614c0.16173-0.27399 0.78597-0.28168 0.95441-0.01184 0.18252 0.29245-0.46589 0.9233-0.46589 0.9233s-0.66375-0.61467-0.48851-0.91153z"/><path d="m7.9346 12.614c0.16173-0.27399 0.78597-0.28168 0.95441-0.01184 0.18252 0.29245-0.46589 0.9233-0.46589 0.9233s-0.66375-0.61467-0.48851-0.91153z"/><path d="m7.5757 12.614c0.16173-0.27399 0.78597-0.28168 0.95441-0.01184 0.18252 0.29245-0.46589 0.9233-0.46589 0.9233s-0.66375-0.61467-0.48851-0.91153z"/></g><g fill="#d60707" stroke-width=".026458"><g transform="matrix(.17128 .021573 -.019067 .15139 7.1923 4.8978)"><path d="m1.4099 5.6521 0.75415-0.6701 0.81118 0.6701 0.44804 1.0393-0.44804 1.0393-0.81118 0.59169-0.75415-0.59169-0.49535-1.0393z"/><path d="m1.4094 5.6577 1.5612 2.0633"/><path d="m2.9726 5.6496-1.572 2.0759"/><path d="m0.90993 6.6818h2.5068"/><path d="m2.1647 4.9947c0.016731 1.0981 0.019243 2.2005 2.317e-4 3.3093"/></g><g transform="matrix(-.17156 .019233 .016999 .15163 9.0842 4.9094)"><path d="m1.4099 5.6521 0.75415-0.6701 0.81118 0.6701 0.44804 1.0393-0.44804 1.0393-0.81118 0.59169-0.75415-0.59169-0.49535-1.0393z"/><path d="m1.4094 5.6577 1.5612 2.0633"/><path d="m2.9726 5.6496-1.572 2.0759"/><path d="m0.90993 6.6818h2.5068"/><path d="m2.1647 4.9947c0.016731 1.0981 0.019243 2.2005 2.317e-4 3.3093"/></g><g transform="matrix(.17253 -.0058127 .0051377 .1525 7.9486 4.9888)"><path d="m1.4099 5.6521 0.75415-0.6701 0.81118 0.6701 0.44804 1.0393-0.44804 1.0393-0.81118 0.59169-0.75415-0.59169-0.49535-1.0393z"/><path d="m1.4094 5.6577 1.5612 2.0633"/><path d="m2.9726 5.6496-1.572 2.0759"/><path d="m0.90993 6.6818h2.5068"/><path d="m2.1647 4.9947c0.016731 1.0981 0.019243 2.2005 2.317e-4 3.3093"/></g><g transform="matrix(.17249 .0068826 -.0060833 .15246 7.5624 4.958)"><path d="m1.4099 5.6521 0.75415-0.6701 0.81118 0.6701 0.44804 1.0393-0.44804 1.0393-0.81118 0.59169-0.75415-0.59169-0.49535-1.0393z"/><path d="m1.4094 5.6577 1.5612 2.0633"/><path d="m2.9726 5.6496-1.572 2.0759"/><path d="m0.90993 6.6818h2.5068"/><path d="m2.1647 4.9947c0.016731 1.0981 0.019243 2.2005 2.317e-4 3.3093"/></g></g><path d="m14.396 4.0733c-1.4963 1.2779-2.9124-0.13515-1.988-1.5275-1.2972-0.11848-2.0929 0.88629-2.2899 1.8469-0.15213 0.74189 0.4353 1.5856 1.0644 2.0072 0.66292 0.44436 1.7414 0.70882 2.3828 0.23381 0.70748-0.52402 1.174-1.4422 0.83074-2.5605z" fill="#404040" stroke-width=".045195"/><g fill="#d60707" stroke-width=".026458"><g transform="matrix(.17141 .020513 -.018131 .1515 6.7093 4.8464)"><path d="m1.4099 5.6521 0.75415-0.6701 0.81118 0.6701 0.44804 1.0393-0.44804 1.0393-0.81118 0.59169-0.75415-0.59169-0.49535-1.0393z"/><path d="m1.4094 5.6577 1.5612 2.0633"/><path d="m2.9726 5.6496-1.572 2.0759"/><path d="m0.90993 6.6818h2.5068"/><path d="m2.1647 4.9947c0.016731 1.0981 0.019243 2.2005 2.317e-4 3.3093"/></g><g transform="matrix(.1647 .051722 -.045715 .14557 6.0325 4.5851)"><path d="m1.4099 5.6521 0.75415-0.6701 0.81118 0.6701 0.44804 1.0393-0.44804 1.0393-0.81118 0.59169-0.75415-0.59169-0.49535-1.0393z"/><path d="m1.4094 5.6577 1.5612 2.0633"/><path d="m2.9726 5.6496-1.572 2.0759"/><path d="m0.90993 6.6818h2.5068"/><path d="m2.1647 4.9947c0.016731 1.0981 0.019243 2.2005 2.317e-4 3.3093"/></g><g transform="matrix(.1647 .051722 -.045715 .14557 6.4659 4.7199)"><path d="m1.4099 5.6521 0.75415-0.6701 0.81118 0.6701 0.44804 1.0393-0.44804 1.0393-0.81118 0.59169-0.75415-0.59169-0.49535-1.0393z"/><path d="m1.4094 5.6577 1.5612 2.0633"/><path d="m2.9726 5.6496-1.572 2.0759"/><path d="m0.90993 6.6818h2.5068"/><path d="m2.1647 4.9947c0.016731 1.0981 0.019243 2.2005 2.317e-4 3.3093"/></g><g transform="matrix(-.17035 .027996 .024745 .15056 9.4947 4.8312)"><path d="m1.4099 5.6521 0.75415-0.6701 0.81118 0.6701 0.44804 1.0393-0.44804 1.0393-0.81118 0.59169-0.75415-0.59169-0.49535-1.0393z"/><path d="m1.4094 5.6577 1.5612 2.0633"/><path d="m2.9726 5.6496-1.572 2.0759"/><path d="m0.90993 6.6818h2.5068"/><path d="m2.1647 4.9947c0.016731 1.0981 0.019243 2.2005 2.317e-4 3.3093"/></g><g transform="matrix(-.16884 .035963 .031786 .14924 9.9059 4.7398)"><path d="m1.4099 5.6521 0.75415-0.6701 0.81118 0.6701 0.44804 1.0393-0.44804 1.0393-0.81118 0.59169-0.75415-0.59169-0.49535-1.0393z"/><path d="m1.4094 5.6577 1.5612 2.0633"/><path d="m2.9726 5.6496-1.572 2.0759"/><path d="m0.90993 6.6818h2.5068"/><path d="m2.1647 4.9947c0.016731 1.0981 0.019243 2.2005 2.317e-4 3.3093"/></g><g transform="matrix(-.16637 .046063 .040713 .14705 10.276 4.6263)"><path d="m1.4099 5.6521 0.75415-0.6701 0.81118 0.6701 0.44804 1.0393-0.44804 1.0393-0.81118 0.59169-0.75415-0.59169-0.49535-1.0393z"/><path d="m1.4094 5.6577 1.5612 2.0633"/><path d="m2.9726 5.6496-1.572 2.0759"/><path d="m0.90993 6.6818h2.5068"/><path d="m2.1647 4.9947c0.016731 1.0981 0.019243 2.2005 2.317e-4 3.3093"/></g></g><path d="m2.0497 3.8702c1.1073 0.94573 2.1554-0.10002 1.4713-1.1305 0.96003-0.087681 1.5489 0.65592 1.6947 1.3669 0.11258 0.54905-0.32215 1.1734-0.78771 1.4855-0.4906 0.32886-1.2888 0.52457-1.7634 0.17303-0.52358-0.38781-0.86881-1.0673-0.61481-1.8949z" fill="#6b6b6b" stroke-width=".033447"/><path d="m14.104 3.8702c-1.1073 0.94573-2.1554-0.10002-1.4713-1.1305-0.96003-0.087681-1.5489 0.65592-1.6947 1.3669-0.11258 0.54905 0.32215 1.1734 0.78771 1.4855 0.4906 0.32886 1.2888 0.52457 1.7634 0.17303 0.52358-0.38781 0.86881-1.0673 0.61481-1.8949z" fill="#6b6b6b" stroke-width=".033447"/><path d="m5.305 6.9511h5.5206l-0.31026 2.6797h-4.9098z" fill="#3a3a3a" stroke-width=".079375"/><path d="m6.019 7.2703 2.0024 0.68193 2.0244-0.68193-0.22631 1.9546h-3.5813z" fill="#0c4111" stroke-width=".057898"/></g></svg>
