<?xml version="1.0" encoding="UTF-8"?>
<!-- Created with Inkscape (http://www.inkscape.org/) -->
<svg width="64" height="64" version="1.1" viewBox="0 0 16.933 16.933" xmlns="http://www.w3.org/2000/svg"><g transform="translate(0 .00049727)"><path d="m2.5477 2.1191c0.21734-0.98831 1.9846-0.26444 2.9263 0 0.54499 0.15305 1.2592 1.3362 1.8545 1.7412 0.59532 0.40498 1.6697 0.44107 2.265 0.036091 0.59532-0.40498 1.188-1.6242 1.733-1.7772 0.94165-0.26444 2.6319-0.96654 2.9263 0 0.48646 1.5974-0.39457 4.8513-0.94591 7.7065-0.55134 2.8552-1.2636 5.6792-1.2636 5.6792l-7.3906-0.36752s-0.61849-2.3967-1.0635-5.2068c-0.44499-2.8101-1.4323-6.0336-1.0414-7.8114z" fill="#051402" stroke="#000" stroke-width=".18045"/><path d="m2.6167 2.0299c0.21734-0.98831 1.9846-0.12382 2.9263 0.14062 0.54499 0.15305 1.2198 1.8002 1.8151 2.2052 0.29766 0.20249 1.1178 0.95904 1.1178 0.95904s0.55708-0.72045 0.85474-0.92295c0.59532-0.40498 1.2439-2.0742 1.7889-2.2272 0.94165-0.26444 2.8947-0.99466 3.1891-0.028125 0.48646 1.5974-0.44997 4.9945-1.0079 7.9693-0.55791 2.9747-0.61886 5.5424-0.61886 5.5424h-8.0999s-0.63392-2.6525-1.0691-5.6138c-0.43514-2.9613-1.2872-6.2466-0.89618-8.0244z" fill="#0f3a07" stroke="#000" stroke-width=".18045"/><g fill="#0a2504" stroke="#000"><path d="m5.7135 2.0008c1.4544 1.9838-1.7395 0.6195-2.822 0.81699-1.66 1.2428-2.6435 1.541-2.6435 1.541s1.2702-1.55 1.9452-2.3719c0.65942-0.80294 2.6279-1.1906 3.5202 0.013948z" stroke-width=".12143"/><path d="m11.22 2.0008c-1.4544 1.9838 1.7395 0.6195 2.822 0.81699 1.66 1.2428 2.6435 1.541 2.6435 1.541s-1.2702-1.55-1.9452-2.3719c-0.65942-0.80294-2.6279-1.1906-3.5202 0.013948z" stroke-width=".12143"/><path d="m8.1186 5.5443c0.23587 1.4456-4.5561 2.7305-4.5561 2.7305-0.062244 0.018148-0.59334-2.7435-0.59334-2.7435-0.01423-0.087208 5.1494 0.013003 5.1494 0.013002z" stroke-width=".068888"/><path d="m8.8149 5.5444c-0.23717 1.4455 4.5367 2.6851 4.5367 2.6851 0.06259 0.018147 0.64114-2.6981 0.64114-2.6981 0.01431-0.087202-5.1778 0.013002-5.1778 0.013002z" stroke-width=".069075"/><path d="m4.1881 8.6309 4.2786-1.3379 4.2786 1.3379c0.07617 0.023818 0.14325 0.071654 0.14325 0.16066v1.9955c0 0.08901-0.06388 0.16066-0.14325 0.16066h-8.5572c-0.079358 0-0.14325-0.07165-0.14325-0.16066v-1.9955c0-0.089005 0.063887-0.16066 0.14325-0.16066z" stroke-width=".076775"/><path d="m4.5494 12.53 4.0008-1.3389 4.0008 1.3389c0.07122 0.02382 0.14154 0.07212 0.13395 0.16077l-0.17109 1.997c-0.0077 0.08865-0.05974 0.16077-0.13395 0.16077h-7.6595c-0.074205 0-0.12635-0.07212-0.13395-0.16077l-0.17109-1.997c-0.0076-0.08865 0.059739-0.16077 0.13395-0.16077z" stroke-width=".074268"/></g><g transform="matrix(.25689 0 0 .27488 2.9492 6.1047)" fill="none" stroke="#2d9813" stroke-width=".079375"><circle cx="21.368" cy="10.968" r="2.2286"/><circle transform="rotate(90)" cx="10.968" cy="-23.596" r="2.2286"/><circle transform="rotate(141.43)" cx="-9.8677" cy="-24.126" r="2.2286"/><circle transform="rotate(192.86)" cx="-23.273" cy="-8.1667" r="2.2286"/><circle transform="rotate(244.29)" cx="-19.153" cy="12.264" r="2.2286"/><circle transform="rotate(-64.286)" cx="-.61062" cy="21.782" r="2.2286"/><circle transform="rotate(-12.857)" cx="18.392" cy="13.219" r="2.2286"/><circle transform="rotate(38.571)" cx="23.545" cy="-6.9761" r="2.2286"/></g><g transform="matrix(.19482 0 0 .20847 4.2823 10.733)" fill="none" stroke="#2d9813" stroke-width=".079375"><circle cx="21.368" cy="10.968" r="2.2286"/><circle transform="rotate(90)" cx="10.968" cy="-23.596" r="2.2286"/><circle transform="rotate(141.43)" cx="-9.8677" cy="-24.126" r="2.2286"/><circle transform="rotate(192.86)" cx="-23.273" cy="-8.1667" r="2.2286"/><circle transform="rotate(244.29)" cx="-19.153" cy="12.264" r="2.2286"/><circle transform="rotate(-64.286)" cx="-.61062" cy="21.782" r="2.2286"/><circle transform="rotate(-12.857)" cx="18.392" cy="13.219" r="2.2286"/><circle transform="rotate(38.571)" cx="23.545" cy="-6.9761" r="2.2286"/></g></g></svg>
