<?xml version="1.0" encoding="UTF-8"?>
<!-- Created with Inkscape (http://www.inkscape.org/) -->
<svg width="64" height="64" version="1.1" viewBox="0 0 16.933 16.933" xmlns="http://www.w3.org/2000/svg"><g transform="translate(.013308 .56173)"><g><g stroke-width=".045195"><ellipse cx="8.5857" cy="3.9516" rx="2.2308" ry=".90187" fill="#282828" stroke="#000"/><path d="m16.642 7.0056-2.784-3.0652s-1.0598 1.0664-1.1298 1.8083c-0.06337 0.67191 0.69337 1.8589 0.69337 1.8589s1.1836 0.81994 1.8081 0.69146c0.58896-0.12116 1.4123-1.2934 1.4123-1.2934z" fill="#434343" stroke="#050505"/><path d="m5.6606 3.0414s1.58 1.0834 2.931 1.0777c1.351-0.00569 2.7074-1.1753 2.7074-1.1753l-0.044471 10.31h-5.4136z" fill="#4f4f4f" stroke="#000"/><path d="m0.2646 7.0056 2.784-3.0652s1.0598 1.0664 1.1298 1.8083c0.06337 0.67191-0.69337 1.8589-0.69337 1.8589s-1.1836 0.81994-1.8081 0.69146c-0.58896-0.12116-1.4123-1.2934-1.4123-1.2934z" fill="#434343" stroke="#050505"/><path d="m4.7235 4.1297 3.8439 1.4544 3.7557-1.4544-1.0255 5.5489h-5.5488z" fill="#454545" stroke="#050505"/></g><path d="m5.3203 4.7209 3.085 1.0711-0.51097 1.5025-1.9793 8.93e-4z" fill="#696969" stroke="#000" stroke-width=".031637"/><path d="m1.7873 4.1982 4.5863-1.6362s0.68421 1.8872 0.41014 2.7666c-0.24821 0.79638-1.663 1.6388-1.663 1.6388s-1.7201 0.1525-2.3609-0.39772c-0.60437-0.51889-0.97249-2.3715-0.97249-2.3715z" fill="#454545" stroke="#050505" stroke-width=".045195"/><path d="m11.799 4.7209-3.085 1.0711 0.51097 1.5025 1.9793 8.93e-4z" fill="#696969" stroke="#000" stroke-width=".031637"/><path d="m15.292 4.1982-4.5863-1.6362s-0.68421 1.8872-0.41014 2.7666c0.24821 0.79638 1.663 1.6388 1.663 1.6388s1.7201 0.1525 2.3609-0.39772c0.60437-0.51889 0.97249-2.3715 0.97249-2.3715z" fill="#454545" stroke="#050505" stroke-width=".045195"/></g><g fill="#696969" stroke="#000"><path d="m5.8054 9.8237h5.4357l-0.20979 1.2237h-5.016z" stroke-width=".028767"/><g stroke-width=".027688"><path d="m5.9194 7.3583h1.9586l-0.19132 0.87292-1.5961-0.0045101z"/><path d="m6.1051 8.292 1.5615 0.00902-0.068485 0.8639-1.4187-0.00451z"/><path d="m11.2 7.3583h-1.9586l0.19132 0.87292 1.5961-0.00451z"/><path d="m11.014 8.292-1.5615 0.00902 0.068485 0.8639 1.4187-0.00451z"/></g><path d="m6.0334 11.154h4.9795l-0.19218 1.225h-4.5951z" stroke-width=".027549"/><path d="m6.2242 12.464h4.598l-0.17746 0.7067h-4.2431z" stroke-width=".020106"/></g></g></svg>
