<?xml version="1.0" encoding="UTF-8"?>
<!-- Created with Inkscape (http://www.inkscape.org/) -->
<svg width="64" height="64" version="1.1" viewBox="0 0 16.933 16.933" xmlns="http://www.w3.org/2000/svg"><g stroke="#000"><path d="m13.175 4.5756c0.52268 0.30019 1.2605 1.3366 1.2651 1.8716-0.14672 2.993-0.3878 6.2279-1.3306 9.1233-0.2881 0.72342-0.64924 1.1691-1.0873 1.1713-1.6112 8e-3 -5.5756 0.07175-6.784 0.06659-1.2665-0.005396-2.3058-6.993-2.539-8.318-0.6149-3.4929 0.64064-3.1526 1.6543-3.8034 1.0813-0.37416 2.9037 0.40771 4.2649 0.38042 0.99458 0.053235 3.7953-0.92901 4.5565-0.49182z" fill="#151102" stroke-width=".058869"/><path d="m4.0661 5.478c0.17157-0.73261 1.5666-0.19602 2.3099 0 0.4302 0.11345 0.99398 0.99047 1.4639 1.2907 0.46993 0.3002 1.318 0.32696 1.788 0.026754 0.46993-0.3002 0.93777-1.204 1.368-1.3174 0.74332-0.19602 2.0776-0.71647 2.3099 0 0.76801 2.3682-1.3569 11.208-1.3569 11.208h-6.7864s-1.7137-8.5719-1.0965-11.208z" fill="#282005" stroke-width=".13803"/><path d="m8.133 6.5913 1.032-0.096568 0.0027435 10.218-1.0574-0.085329z" fill="#1d1703" stroke-width=".061852"/><g><path d="m8.3288 6.5845 0.63276-0.0967 0.016663 10.152-0.66332-0.0055z" fill="#6e611f" stroke-width=".048466"/><path d="m13.101 4.5375c0.4798 0.27556 1.2678 1.066 1.2851 1.5959 0.01728 0.52989 0.0065 1.5006-0.03656 1.5455-1.7529-0.022226-2.3299-0.58478-4.0821-0.58927-0.80559-0.0020619-3.4425-0.3021-4.3362-0.29536-0.89375 0.0067382-1.4346 0.2609-2.0388 0.25832-1.2665-0.0054025-1.2432 0.36081-1.395-0.33372-0.060404-1.1934 0.69283-1.6062 1.8932-2.033s2.7619 0.86544 4.2218 0.86899c1.6112 0.0039085 3.7275-1.4546 4.4887-1.0174z" fill="#352a06" stroke-width=".058869"/><path d="m8.6691 0.15724c1.849-0.014505 2.2354 2.6213 3.3782 4.3999 0 0-1.3245 0.93512-2.7669 1.0825-1.4424 0.14739-3.0027-0.49295-3.9548-0.98337 1.5382-1.4655 1.4751-4.4844 3.3435-4.4991z" fill="#352a06" stroke-width=".12382"/><path d="m8.6607 0.74024c0.99052 0.21392 1.6032 2.4261 2.5226 3.857 0 0-3.8441 0.46852-5.3134-0.045771 1.2375-1.179 1.6091-3.6028 2.7908-3.8113z" fill="#151102" stroke-width=".099617"/></g></g></svg>
