<?xml version="1.0" encoding="UTF-8"?>
<!-- Created with Inkscape (http://www.inkscape.org/) -->
<svg width="64" height="64" version="1.1" viewBox="0 0 16.933 16.933" xmlns="http://www.w3.org/2000/svg"><g stroke="#000"><path d="m2.1699 3.2923c0.23244-0.98777 2.1225-0.26429 3.1295 0 0.58284 0.15296 1.9833 1.7402 1.9833 1.7402l2.4224 0.036071s1.2705-1.6233 1.8533-1.7763c1.0071-0.26429 2.8147-0.96601 3.1295 0 1.0405 3.193-1.8383 13.011-1.8383 13.011h-9.1943s-2.3217-9.4574-1.4855-13.011z" fill="#090702" stroke-width=".18656"/><path d="m2.2015 3.8074c0.23244-0.98777 2.1225-0.26429 3.1295 0 0.58284 0.15296 1.9833 1.7402 1.9833 1.7402l2.4224 0.036071s1.2705-1.6233 1.8533-1.7763c1.0071-0.26429 2.8147-0.96601 3.1295 0 1.0405 3.193-1.8383 13.011-1.8383 13.011h-9.1943s-2.3217-9.4574-1.4855-13.011z" fill="#2c220a" stroke-width=".18656"/><g stroke-width=".11586"><path d="m3.5179 0.1765c0.32609-0.029558 0.8099-0.082819 1.1235-0.05118 0.42735 0.043108 0.90784 3.2986 0.90784 3.2986l-1.3168-0.45493s-1.7-2.7032-0.7146-2.7925z" fill="#090702"/><path d="m3.2848 0.11555c0.32609-0.029558 1.0151-0.05423 1.3288-0.022589 0.10684 0.010776 0.21414 0.20622 0.25467 0.62229 0.039229 0.40272-0.32046 0.38588-0.37283 0.94118-0.10475 1.1106-0.26292 2.2158-0.26292 2.2158h-1.3363s-0.59683-3.6673 0.38859-3.7567z" fill="#2c220a"/><path d="m13.311 0.31207c-0.32609-0.029558-0.8099-0.082819-1.1235-0.05118-0.42735 0.043108-0.87857 3.1659-0.87857 3.1659l1.3168-0.36015s1.6707-2.6653 0.68533-2.7546z" fill="#090702"/><path d="m13.544 0.25112c-0.32609-0.029558-1.0151-0.054229-1.3288-0.02259-0.10684 0.010769-0.21414 0.20622-0.25467 0.62229-0.03923 0.40273 0.32046 0.38588 0.37283 0.94118 0.10475 1.1106 0.26292 2.2158 0.26292 2.2158h1.3363s0.59683-3.6673-0.38859-3.7567z" fill="#2c220a"/></g><path d="m2.9664 5.6603c0.20428-0.50536 2.7743 1.1696 2.7743 1.1696l5.5008-3e-7s2.4499-1.6638 2.7265-1.1696c0.91445 1.6336-1.6917 4.7286-1.6917 4.7286h-8.0804s-1.9644-2.9104-1.2294-4.7286z" fill="#614912" stroke-width=".1251"/><path d="m3.5221 10.93c0.1837-0.50604 2.4947 1.1712 2.4947 1.1712h4.9465s2.203-1.666 2.4518-1.1712c0.82231 1.6358-1.5212 4.7349-1.5212 4.7349h-7.2662s-1.7664-2.9143-1.1055-4.7349z" fill="#614912" stroke-width=".11871"/><g fill="#2c220a" stroke-width=".026458"><g transform="translate(2.4632 -.2711)"><path d="m5.7292 7.4962 0.28023-0.28023"/><path d="m6.0094 7.4962-0.28023-0.28023"/></g><g transform="translate(2.1643 -.2711)"><path d="m5.7292 7.4962 0.28023-0.28023"/><path d="m6.0094 7.4962-0.28023-0.28023"/></g><g transform="translate(1.8653 -.2711)"><path d="m5.7292 7.4962 0.28023-0.28023"/><path d="m6.0094 7.4962-0.28023-0.28023"/></g><g transform="translate(1.5664 -.2711)"><path d="m5.7292 7.4962 0.28023-0.28023"/><path d="m6.0094 7.4962-0.28023-0.28023"/></g><g transform="translate(1.2674 -.2711)"><path d="m5.7292 7.4962 0.28023-0.28023"/><path d="m6.0094 7.4962-0.28023-0.28023"/></g><g transform="translate(.9685 -.2711)"><path d="m5.7292 7.4962 0.28023-0.28023"/><path d="m6.0094 7.4962-0.28023-0.28023"/></g><g transform="translate(.66956 -.2711)"><path d="m5.7292 7.4962 0.28023-0.28023"/><path d="m6.0094 7.4962-0.28023-0.28023"/></g><g transform="translate(.37062 -.2711)"><path d="m5.7292 7.4962 0.28023-0.28023"/><path d="m6.0094 7.4962-0.28023-0.28023"/></g><g transform="translate(2.735)"><g transform="translate(2.119 -.2711)"><path d="m5.7292 7.4962 0.28023-0.28023"/><path d="m6.0094 7.4962-0.28023-0.28023"/></g><g transform="translate(1.8201 -.2711)"><path d="m5.7292 7.4962 0.28023-0.28023"/><path d="m6.0094 7.4962-0.28023-0.28023"/></g><g transform="translate(1.5211 -.2711)"><path d="m5.7292 7.4962 0.28023-0.28023"/><path d="m6.0094 7.4962-0.28023-0.28023"/></g><g transform="translate(1.2222 -.2711)"><path d="m5.7292 7.4962 0.28023-0.28023"/><path d="m6.0094 7.4962-0.28023-0.28023"/></g><g transform="translate(.92326 -.2711)"><path d="m5.7292 7.4962 0.28023-0.28023"/><path d="m6.0094 7.4962-0.28023-0.28023"/></g><g transform="translate(.62432 -.2711)"><path d="m5.7292 7.4962 0.28023-0.28023"/><path d="m6.0094 7.4962-0.28023-0.28023"/></g><g transform="translate(.32538 -.2711)"><path d="m5.7292 7.4962 0.28023-0.28023"/><path d="m6.0094 7.4962-0.28023-0.28023"/></g><g transform="translate(.026435 -.2711)"><path d="m5.7292 7.4962 0.28023-0.28023"/><path d="m6.0094 7.4962-0.28023-0.28023"/></g></g></g><g transform="translate(0 .29565)" fill="#2c220a" stroke-width=".026458"><g transform="translate(3.9185 2.4977)"><path d="m5.7292 7.4962 0.28023-0.28023"/><path d="m6.0094 7.4962-0.28023-0.28023"/></g><g transform="translate(3.6195 2.4977)"><path d="m5.7292 7.4962 0.28023-0.28023"/><path d="m6.0094 7.4962-0.28023-0.28023"/></g><g transform="translate(3.3206 2.4977)"><path d="m5.7292 7.4962 0.28023-0.28023"/><path d="m6.0094 7.4962-0.28023-0.28023"/></g><g transform="translate(6.3093 2.4977)"><path d="m5.7292 7.4962 0.28023-0.28023"/><path d="m6.0094 7.4962-0.28023-0.28023"/></g><g transform="translate(6.0103 2.4977)"><path d="m5.7292 7.4962 0.28023-0.28023"/><path d="m6.0094 7.4962-0.28023-0.28023"/></g><g transform="translate(5.7114 2.4977)"><path d="m5.7292 7.4962 0.28023-0.28023"/><path d="m6.0094 7.4962-0.28023-0.28023"/></g><g transform="translate(5.4124 2.4977)"><path d="m5.7292 7.4962 0.28023-0.28023"/><path d="m6.0094 7.4962-0.28023-0.28023"/></g><g transform="translate(5.1135 2.4977)"><path d="m5.7292 7.4962 0.28023-0.28023"/><path d="m6.0094 7.4962-0.28023-0.28023"/></g><g transform="translate(4.8146 2.4977)"><path d="m5.7292 7.4962 0.28023-0.28023"/><path d="m6.0094 7.4962-0.28023-0.28023"/></g><g transform="translate(4.5156 2.4977)"><path d="m5.7292 7.4962 0.28023-0.28023"/><path d="m6.0094 7.4962-0.28023-0.28023"/></g><g transform="translate(4.2167 2.4977)"><path d="m5.7292 7.4962 0.28023-0.28023"/><path d="m6.0094 7.4962-0.28023-0.28023"/></g></g><g transform="translate(-1.4959 3.0626)" fill="#2c220a" stroke-width=".026458"><g transform="translate(2.119 -.2711)"><path d="m5.7292 7.4962 0.28023-0.28023"/><path d="m6.0094 7.4962-0.28023-0.28023"/></g><g transform="translate(1.8201 -.2711)"><path d="m5.7292 7.4962 0.28023-0.28023"/><path d="m6.0094 7.4962-0.28023-0.28023"/></g><g transform="translate(1.5211 -.2711)"><path d="m5.7292 7.4962 0.28023-0.28023"/><path d="m6.0094 7.4962-0.28023-0.28023"/></g><g transform="translate(1.2222 -.2711)"><path d="m5.7292 7.4962 0.28023-0.28023"/><path d="m6.0094 7.4962-0.28023-0.28023"/></g><g transform="translate(.92326 -.2711)"><path d="m5.7292 7.4962 0.28023-0.28023"/><path d="m6.0094 7.4962-0.28023-0.28023"/></g><g transform="translate(.62432 -.2711)"><path d="m5.7292 7.4962 0.28023-0.28023"/><path d="m6.0094 7.4962-0.28023-0.28023"/></g><g transform="translate(.32538 -.2711)"><path d="m5.7292 7.4962 0.28023-0.28023"/><path d="m6.0094 7.4962-0.28023-0.28023"/></g><g transform="translate(.026435 -.2711)"><path d="m5.7292 7.4962 0.28023-0.28023"/><path d="m6.0094 7.4962-0.28023-0.28023"/></g><g transform="translate(2.3908)"><g transform="translate(2.119 -.2711)"><path d="m5.7292 7.4962 0.28023-0.28023"/><path d="m6.0094 7.4962-0.28023-0.28023"/></g><g transform="translate(1.8201 -.2711)"><path d="m5.7292 7.4962 0.28023-0.28023"/><path d="m6.0094 7.4962-0.28023-0.28023"/></g><g transform="translate(1.5211 -.2711)"><path d="m5.7292 7.4962 0.28023-0.28023"/><path d="m6.0094 7.4962-0.28023-0.28023"/></g><g transform="translate(1.2222 -.2711)"><path d="m5.7292 7.4962 0.28023-0.28023"/><path d="m6.0094 7.4962-0.28023-0.28023"/></g><g transform="translate(.92326 -.2711)"><path d="m5.7292 7.4962 0.28023-0.28023"/><path d="m6.0094 7.4962-0.28023-0.28023"/></g><g transform="translate(.62432 -.2711)"><path d="m5.7292 7.4962 0.28023-0.28023"/><path d="m6.0094 7.4962-0.28023-0.28023"/></g><g transform="translate(.32538 -.2711)"><path d="m5.7292 7.4962 0.28023-0.28023"/><path d="m6.0094 7.4962-0.28023-0.28023"/></g><g transform="translate(.026435 -.2711)"><path d="m5.7292 7.4962 0.28023-0.28023"/><path d="m6.0094 7.4962-0.28023-0.28023"/></g></g></g><g transform="translate(-2.1406 -3.7083)" fill="#2c220a" stroke-width=".026458"><path d="m5.7292 7.4962 0.28023-0.28023"/><path d="m6.0094 7.4962-0.28023-0.28023"/></g><g transform="translate(-2.4396 -3.7083)" fill="#2c220a" stroke-width=".026458"><path d="m5.7292 7.4962 0.28023-0.28023"/><path d="m6.0094 7.4962-0.28023-0.28023"/></g><g transform="translate(7.5215 -3.5823)" fill="#2c220a" stroke-width=".026458"><path d="m5.7292 7.4962 0.28023-0.28023"/><path d="m6.0094 7.4962-0.28023-0.28023"/></g><g transform="translate(7.2226 -3.5823)" fill="#2c220a" stroke-width=".026458"><path d="m5.7292 7.4962 0.28023-0.28023"/><path d="m6.0094 7.4962-0.28023-0.28023"/></g><g transform="translate(3.9185 8.0508)" fill="#2c220a" stroke-width=".026458"><path d="m5.7292 7.4962 0.28023-0.28023"/><path d="m6.0094 7.4962-0.28023-0.28023"/></g><g transform="translate(3.6195 8.0508)" fill="#2c220a" stroke-width=".026458"><path d="m5.7292 7.4962 0.28023-0.28023"/><path d="m6.0094 7.4962-0.28023-0.28023"/></g><g transform="translate(3.3206 8.0508)" fill="#2c220a" stroke-width=".026458"><path d="m5.7292 7.4962 0.28023-0.28023"/><path d="m6.0094 7.4962-0.28023-0.28023"/></g><g transform="translate(5.7114 8.0508)" fill="#2c220a" stroke-width=".026458"><path d="m5.7292 7.4962 0.28023-0.28023"/><path d="m6.0094 7.4962-0.28023-0.28023"/></g><g transform="translate(5.4124 8.0508)" fill="#2c220a" stroke-width=".026458"><path d="m5.7292 7.4962 0.28023-0.28023"/><path d="m6.0094 7.4962-0.28023-0.28023"/></g><g transform="translate(5.1135 8.0508)" fill="#2c220a" stroke-width=".026458"><path d="m5.7292 7.4962 0.28023-0.28023"/><path d="m6.0094 7.4962-0.28023-0.28023"/></g><g transform="translate(4.8146 8.0508)" fill="#2c220a" stroke-width=".026458"><path d="m5.7292 7.4962 0.28023-0.28023"/><path d="m6.0094 7.4962-0.28023-0.28023"/></g><g transform="translate(4.5156 8.0508)" fill="#2c220a" stroke-width=".026458"><path d="m5.7292 7.4962 0.28023-0.28023"/><path d="m6.0094 7.4962-0.28023-0.28023"/></g><g transform="translate(4.2167 8.0508)" fill="#2c220a" stroke-width=".026458"><path d="m5.7292 7.4962 0.28023-0.28023"/><path d="m6.0094 7.4962-0.28023-0.28023"/></g><g transform="translate(.62315 8.049)" fill="#2c220a" stroke-width=".026458"><path d="m5.7292 7.4962 0.28023-0.28023"/><path d="m6.0094 7.4962-0.28023-0.28023"/></g><g transform="translate(.32421 8.049)" fill="#2c220a" stroke-width=".026458"><path d="m5.7292 7.4962 0.28023-0.28023"/><path d="m6.0094 7.4962-0.28023-0.28023"/></g><g transform="translate(.025268 8.049)" fill="#2c220a" stroke-width=".026458"><path d="m5.7292 7.4962 0.28023-0.28023"/><path d="m6.0094 7.4962-0.28023-0.28023"/></g><g transform="translate(-.27367 8.049)" fill="#2c220a" stroke-width=".026458"><path d="m5.7292 7.4962 0.28023-0.28023"/><path d="m6.0094 7.4962-0.28023-0.28023"/></g><g transform="translate(-.57261 8.049)" fill="#2c220a" stroke-width=".026458"><path d="m5.7292 7.4962 0.28023-0.28023"/><path d="m6.0094 7.4962-0.28023-0.28023"/></g><g transform="translate(-.87156 8.049)" fill="#2c220a" stroke-width=".026458"><path d="m5.7292 7.4962 0.28023-0.28023"/><path d="m6.0094 7.4962-0.28023-0.28023"/></g><g transform="translate(.89493 8.3201)" fill="#2c220a" stroke-width=".026458"><g transform="translate(2.119 -.2711)"><path d="m5.7292 7.4962 0.28023-0.28023"/><path d="m6.0094 7.4962-0.28023-0.28023"/></g><g transform="translate(1.8201 -.2711)"><path d="m5.7292 7.4962 0.28023-0.28023"/><path d="m6.0094 7.4962-0.28023-0.28023"/></g><g transform="translate(1.5211 -.2711)"><path d="m5.7292 7.4962 0.28023-0.28023"/><path d="m6.0094 7.4962-0.28023-0.28023"/></g><g transform="translate(1.2222 -.2711)"><path d="m5.7292 7.4962 0.28023-0.28023"/><path d="m6.0094 7.4962-0.28023-0.28023"/></g><g transform="translate(.92326 -.2711)"><path d="m5.7292 7.4962 0.28023-0.28023"/><path d="m6.0094 7.4962-0.28023-0.28023"/></g><g transform="translate(.62432 -.2711)"><path d="m5.7292 7.4962 0.28023-0.28023"/><path d="m6.0094 7.4962-0.28023-0.28023"/></g><g transform="translate(.32538 -.2711)"><path d="m5.7292 7.4962 0.28023-0.28023"/><path d="m6.0094 7.4962-0.28023-0.28023"/></g><g transform="translate(.026435 -.2711)"><path d="m5.7292 7.4962 0.28023-0.28023"/><path d="m6.0094 7.4962-0.28023-0.28023"/></g></g><g transform="translate(.015693 5.2727)" fill="#2c220a" stroke-width=".026458"><g transform="translate(2.4632 -.2711)"><path d="m5.7292 7.4962 0.28023-0.28023"/><path d="m6.0094 7.4962-0.28023-0.28023"/></g><g transform="translate(2.1643 -.2711)"><path d="m5.7292 7.4962 0.28023-0.28023"/><path d="m6.0094 7.4962-0.28023-0.28023"/></g><g transform="translate(1.8653 -.2711)"><path d="m5.7292 7.4962 0.28023-0.28023"/><path d="m6.0094 7.4962-0.28023-0.28023"/></g><g transform="translate(1.5664 -.2711)"><path d="m5.7292 7.4962 0.28023-0.28023"/><path d="m6.0094 7.4962-0.28023-0.28023"/></g><g transform="translate(1.2674 -.2711)"><path d="m5.7292 7.4962 0.28023-0.28023"/><path d="m6.0094 7.4962-0.28023-0.28023"/></g><g transform="translate(.9685 -.2711)"><path d="m5.7292 7.4962 0.28023-0.28023"/><path d="m6.0094 7.4962-0.28023-0.28023"/></g><g transform="translate(.66956 -.2711)"><path d="m5.7292 7.4962 0.28023-0.28023"/><path d="m6.0094 7.4962-0.28023-0.28023"/></g><g transform="translate(.37062 -.2711)"><path d="m5.7292 7.4962 0.28023-0.28023"/><path d="m6.0094 7.4962-0.28023-0.28023"/></g><g transform="translate(2.735)"><g transform="translate(2.119 -.2711)"><path d="m5.7292 7.4962 0.28023-0.28023"/><path d="m6.0094 7.4962-0.28023-0.28023"/></g><g transform="translate(1.8201 -.2711)"><path d="m5.7292 7.4962 0.28023-0.28023"/><path d="m6.0094 7.4962-0.28023-0.28023"/></g><g transform="translate(1.5211 -.2711)"><path d="m5.7292 7.4962 0.28023-0.28023"/><path d="m6.0094 7.4962-0.28023-0.28023"/></g><g transform="translate(1.2222 -.2711)"><path d="m5.7292 7.4962 0.28023-0.28023"/><path d="m6.0094 7.4962-0.28023-0.28023"/></g><g transform="translate(.92326 -.2711)"><path d="m5.7292 7.4962 0.28023-0.28023"/><path d="m6.0094 7.4962-0.28023-0.28023"/></g><g transform="translate(.62432 -.2711)"><path d="m5.7292 7.4962 0.28023-0.28023"/><path d="m6.0094 7.4962-0.28023-0.28023"/></g><g transform="translate(.32538 -.2711)"><path d="m5.7292 7.4962 0.28023-0.28023"/><path d="m6.0094 7.4962-0.28023-0.28023"/></g><g transform="translate(.026435 -.2711)"><path d="m5.7292 7.4962 0.28023-0.28023"/><path d="m6.0094 7.4962-0.28023-0.28023"/></g></g></g></g></svg>
