<?xml version="1.0" encoding="UTF-8"?>
<!-- Created with Inkscape (http://www.inkscape.org/) -->
<svg width="64" height="64" version="1.1" viewBox="0 0 16.933 16.933" xmlns="http://www.w3.org/2000/svg"><g transform="matrix(1.204 0 0 1.204 -2.054 -.93667)"><g fill="#fff" stroke="#000"><path d="m15.688 6.7366-2.146-2.0274-1.666 1.2 2.3485 1.8891z" stroke-width=".032216"/><rect transform="matrix(-.7509 -.66041 -.81142 .58447 0 0)" x="-14.362" y="-5.5813" width="3.0025" height="2.0532" stroke-width=".03263"/><rect x="6.0446" y="10.308" width="5.6475" height="3.173" stroke-width=".039688"/><path transform="matrix(.7509 -.66041 .81142 .58447 0 0)" d="m-4.5357 6.4011 2.9744-0.10785v2.0532l-2.9807-0.13585z" stroke-width=".03263"/><rect transform="matrix(.7509 -.66041 .81142 .58447 0 0)" x="-3.883" y="6.2593" width="3.0025" height="2.0532" stroke-width=".03263"/></g><g stroke="#000"><ellipse cx="8.8381" cy="4.0005" rx="2.3901" ry=".90109" fill="#ffd9d9" stroke-width=".04676"/><ellipse cx="8.8381" cy="4.2385" rx="2.2308" ry=".90187" fill="#282828" stroke-width=".045195"/><path d="m6.2112 3.5091 0.80976 0.7097 1.8231 0.43283 1.8605-0.57657 0.84718-0.84508 0.54082 2.5765-0.56306 2.5927 0.52263 4.9098-3.2251-2.7175-3.0243 2.7175 0.34937-4.8999-0.5079-2.1518z" fill="#ffd9d9" stroke-width=".044687"/></g><g fill="#fff"><path d="m5.8482 4.494 1.6495 0.21502 1.3844 0.53278 1.2456-0.55411 1.7622-0.17715-0.54341 2.003-1.1748-0.28108h-2.7651l-0.93506 0.23974z" stroke="#000" stroke-width=".039038"/><path d="m3.3778 4.8315c0.84218-0.88096 2.2198-1.3978 2.557-2.6439 0 0 1.2667 2.9181-0.11241 3.9177-0.64618 0.46837-1.6195 0.58058-2.1946 0.12654-0.37217-0.29381-0.24996-1.4004-0.24996-1.4004z" stroke="#050505" stroke-width=".045195"/><path d="m14.115 4.8315c-0.84218-0.88096-2.2198-1.3978-2.557-2.6439 0 0-1.2667 2.9181 0.11241 3.9177 0.64618 0.46837 1.6195 0.58058 2.1946 0.12654 0.37216-0.29381 0.24996-1.4004 0.24996-1.4004z" stroke="#050505" stroke-width=".045195"/><g stroke="#000"><path d="m5.8538 6.2542 0.43473 0.4381 1.1086-0.28517 2.6848 0.00826 1.2977 0.33477 0.38332-0.46291-0.43586 1.7632-1.1924-0.57025h-2.8066l-0.94907 0.52893z" stroke-width=".039327"/><rect x="7.3148" y="7.6055" width="2.7853" height=".45971" stroke-width=".025118"/><path d="m6.3039 8.699s1.7091 0.31658 2.5733 0.31658 2.5733-0.31658 2.5733-0.31658v3.6284l-2.6348-2.1406-2.5117 2.1406z" stroke-width=".039688"/></g></g><g fill="#ffd9d9" stroke="#000" stroke-width=".0089029"><path d="m6.4839 9.1161-0.096376-0.39339 0.32433 0.058609z"/><path d="m6.8141 9.1774-0.09638-0.39339 0.32433 0.058609z"/><path d="m7.1569 9.2334-0.11148-0.38938 0.32635 0.046054z"/><path d="m7.487 9.2793-0.11148-0.38938 0.32635 0.046054z"/><path d="m7.814 9.3232-0.11517-0.3883 0.32677 0.042959z"/><path d="m8.1664 9.3589-0.13362-0.38235 0.32845 0.027275z"/><path d="m8.5028 9.3872-0.13572-0.3816 0.3286 0.025462z"/><path d="m8.873 9.3952-0.1629-0.37082 0.32958 0.0016894z"/><path d="m9.2207 9.3842-0.182-0.36183 0.32922-0.015483z"/><path d="m9.5639 9.3651-0.1954-0.35477 0.32841-0.027779z"/><path d="m10.241 9.2829-0.21265-0.34471 0.32664-0.043934z"/><path d="m9.9004 9.3242-0.20344-0.35022 0.32769-0.035269z"/><path d="m10.575 9.2362-0.21741-0.34172 0.326-0.048464z"/><path d="m10.912 9.1777-0.22978-0.33353 0.324-0.060368z"/><path d="m11.237 9.1203-0.22466-0.337 0.32489-0.055412z"/></g></g></svg>
