<?xml version="1.0" encoding="UTF-8"?>
<!-- Created with Inkscape (http://www.inkscape.org/) -->
<svg width="64" height="64" version="1.1" viewBox="0 0 16.933 16.933" xmlns="http://www.w3.org/2000/svg"><g stroke="#000"><path d="m15.688 0.92709c0.70474 0.40475 0.79019 1.2584 0.88934 1.9729 0.09789 0.70545 0.02392 1.2436-0.03062 2.0089-0.05161 0.72414 0.05004 1.4963 0.04237 2.2857-0.01535 1.5788-0.13888 3.3109-0.33556 4.8116-0.19668 1.5007-0.26536 2.7701-0.65381 3.7455-0.38845 0.97541-0.87539 1.5764-1.466 1.5793-2.1724 0.01068-7.5177 0.09674-9.147 0.08979-1.7077-0.007281-5.0549-9.3804-4.7758-11.173 0.24618-1.5807 2.2161-4.2934 3.5829-5.1709 1.4455-0.92799 3.9152 0.54972 5.7505 0.51293 1.341 0.071778 5.1173-1.2526 6.1437-0.66313z" fill="#205759" stroke-width=".079375"/><path d="m3.3455 1.6289c0.23244-0.98777 2.1225-0.26429 3.1295 0 0.58284 0.15296 1.3466 1.3354 1.9833 1.7402 0.63667 0.40476 1.7857 0.44083 2.4224 0.036071 0.63667-0.40476 1.2705-1.6233 1.8533-1.7763 1.0071-0.26429 2.8147-0.96601 3.1295 0 1.0405 3.193-1.8383 13.011-1.8383 13.011h-9.1943s-2.3217-9.4574-1.4855-13.011z" fill="#231a06" stroke-width=".18656"/><path d="m3.3772 2.1441c0.23244-0.98777 2.1225-0.26429 3.1295 0 0.58284 0.15296 1.3466 1.3354 1.9833 1.7402 0.63667 0.40476 1.7857 0.44083 2.4224 0.036071 0.63667-0.40476 1.2705-1.6233 1.8533-1.7763 1.0071-0.26429 2.8147-0.96601 3.1295 0 1.0405 3.193-1.8383 15.111-1.8383 15.111h-9.1943s-2.3217-11.557-1.4855-15.111z" fill="#534917" stroke-width=".18656"/></g><g stroke="#000"><path d="m8.9492 3.5734h1.4179c0.08461 0 0.15273 0.081723 0.15273 0.18324v13.669c0 0.10151-0.06812 0.18324-0.15273 0.18324h-1.4179c-0.084611 0-0.15273-0.08172-0.15273-0.18324v-13.669c0-0.10151 0.068116-0.18324 0.15273-0.18324z" fill="#3b78a7" stroke-width=".084662"/><path d="m8.0756 2.9696 0.76294 0.62048s-2.2561 1.9553-3.0957 2.9928c-0.83963 1.0375-2.0359 3.2323-2.0359 3.2323l-0.13205-1.2291s0.92343-1.9919 1.6735-2.9279c0.75012-0.93608 2.8272-2.6885 2.8272-2.6885z" fill="#3b78a7" stroke-width=".052917"/><path d="m9.2023 3.5651h0.91171c0.05441 0 0.09821 0.081831 0.09821 0.18348v13.685c0 0.10165-0.0438 0.18348-0.09821 0.18348h-0.91171c-0.054406 0-0.098206-0.08183-0.098206-0.18348v-13.685c0-0.10165 0.0438-0.18348 0.098206-0.18348z" fill="#68c6ca" stroke-width=".067935"/><path d="m15.589 0.87583c1.2938 0.74309 0.7981 3.1688 0.68208 3.29-2.3635-0.029968-3.9775 0.13372-6.3401 0.14533-2.1724-0.00556-5.0918 0.037036-6.7211 0.030086-1.7076-0.0072842-3.0347 4.3126-3.0263 2.2251-0.081444-1.6092 2.0424-4.9149 3.6609-5.4904 1.6185-0.57549 3.7239 1.1669 5.6923 1.1717 2.1724 0.00527 5.0258-1.9612 6.0522-1.3718z" fill="#68c6ca" stroke-width=".079375"/></g><g fill="#9b9b9b" stroke="#000"><g stroke-width=".052917"><circle cx="9.6582" cy="11.508" r=".26659"/><circle cx="9.6582" cy="10.393" r=".26659"/><circle cx="9.6582" cy="9.2774" r=".26659"/><circle cx="9.6582" cy="8.1621" r=".26659"/><circle cx="9.6582" cy="7.0469" r=".26659"/><circle cx="9.6582" cy="5.9316" r=".26659"/><circle cx="9.6582" cy="4.8164" r=".26659"/></g><circle cx="3.8627" cy="9.0956" r=".13778" stroke-width=".027349"/><circle cx="3.8001" cy="8.6809" r=".13778" stroke-width=".027349"/><g stroke-width=".052917"><circle cx="9.6582" cy="14.822" r=".26659"/><circle cx="9.6582" cy="13.706" r=".26659"/><circle cx="9.6582" cy="12.591" r=".26659"/></g></g></svg>
