<?xml version="1.0" encoding="UTF-8"?>
<!-- Created with Inkscape (http://www.inkscape.org/) -->
<svg width="64" height="64" version="1.1" viewBox="0 0 16.933 16.933" xmlns="http://www.w3.org/2000/svg"><g transform="translate(-.093341 -.14148)" stroke="#000"><path d="m13.148 4.717c0.52268 0.30019 1.2605 1.3366 1.2651 1.8716-0.14672 2.993-0.3878 6.2279-1.3306 9.1233-0.2881 0.72342-0.64924 1.1691-1.0873 1.1713-1.6112 8e-3 -5.5756 0.07175-6.784 0.06659-1.2665-0.005396-2.3058-6.993-2.539-8.318-0.6149-3.4929 0.64064-3.1526 1.6543-3.8034 1.0813-0.37416 2.9037 0.40771 4.2649 0.38042 0.99458 0.053235 3.7953-0.92901 4.5565-0.49182z" fill="#121212" stroke-width=".058869"/><path d="m4.04 5.6195c0.17157-0.73261 1.5666-0.19602 2.3099 0 0.4302 0.11345 1.0642 0.66267 1.5341 0.96288 0.46993 0.3002 1.318 0.32696 1.788 0.026754 0.46993-0.3002 0.86753-0.87618 1.2977-0.98963 0.74332-0.19602 2.0776-0.71647 2.3099 0 0.76801 2.3682-1.3569 11.208-1.3569 11.208h-6.7864s-1.7137-8.5719-1.0965-11.208z" fill="#262626" stroke-width=".13803"/><path d="m3.9416 6.7778 9.1285 4.1254-0.11054 0.88258-8.9788-4.1594z" fill="#1a1a1a" stroke-width=".061128"/><path d="m13.074 4.679c0.4798 0.27556 1.0488 0.56097 1.2851 1.0356 0.26383 0.52989 0.70426 5.1745-1.048 5.1701-2.0595-0.064869-9.7995-4.484-10.655-4.6541-0.48165-0.095747 0.3842-1.1615 1.7078-1.4031 1.2533-0.22877 2.986 0.73096 4.4459 0.7345 1.6112 0.00391 3.5033-1.3201 4.2645-0.8829z" fill="#232323" stroke-width=".058869"/><path d="m8.6429 0.29872c1.849-0.014505 2.2354 2.6213 3.3782 4.3999 0 0-1.3245 0.93512-2.7669 1.0825-1.4424 0.14739-3.0165-0.78291-3.9548-0.98337 0.57167-1.6864 1.4751-4.4844 3.3435-4.4991z" fill="#232323" stroke-width=".12382"/><path d="m8.7312 2.0692c0.99052 0.21392 1.5065 1.2387 2.4259 2.6696-1.6007 0.77685-3.5403 0.39948-5.0097-0.11481 0.50571-1.6761 1.402-2.3464 2.5837-2.5548z" fill="#121212" stroke-width=".099617"/><g fill="#1a1a1a" stroke-width=".061128"><path d="m3.9305 8.1198 8.919 4.077-0.15888 0.86646-8.6887-4.1272z"/><path d="m4.1047 9.8167 8.4758 3.8595-0.15888 0.86646-8.2778-3.8774z"/><path d="m4.3006 11.555 8.0142 3.609-0.26459 0.82333-7.6137-3.5676z"/><path d="m4.5171 13.023 7.5065 3.2978-0.10859 0.44425-0.9381 0.0532-6.3159-2.9305z"/></g></g></svg>
