<?xml version="1.0" encoding="UTF-8"?>
<!-- Created with Inkscape (http://www.inkscape.org/) -->
<svg width="64" height="64" version="1.1" viewBox="0 0 16.933 16.933" xmlns="http://www.w3.org/2000/svg"><g transform="translate(.0037742 .00082139)" stroke="#000"><g><path d="m2.1699 3.2923c0.23244-0.98777 2.1225-0.26429 3.1295 0 0.58284 0.15296 1.9833 1.7402 1.9833 1.7402l2.4224 0.036071s1.2705-1.6233 1.8533-1.7763c1.0071-0.26429 2.8147-0.96601 3.1295 0 0.26013 0.79825 0.01433 2.0419-0.10923 3.4113-0.12357 1.3695-0.12491 2.8647-0.41972 4.2916-0.58964 2.8536-1.3093 5.3082-1.3093 5.3082h-9.1943s-0.58043-2.3643-1.0563-5.1729c-0.23795-1.4043-0.20057-2.9096-0.30063-4.296-0.10007-1.3864-0.33758-2.6537-0.12852-3.5422z" fill="#090702" stroke-width=".18656"/><path d="m2.2015 3.8074c0.23244-0.98777 2.1225-0.26429 3.1295 0 0.58284 0.15296 1.9833 1.7402 1.9833 1.7402l2.4224 0.036071s1.2705-1.6233 1.8533-1.7763c1.0071-0.26429 2.8147-0.96601 3.1295 0 0.26013 0.79825 0.02986 2.0106-0.0937 3.38-0.12357 1.3695-0.14044 2.8961-0.43526 4.3229-0.58964 2.8536-1.3093 5.3082-1.3093 5.3082h-9.1943s-0.58043-2.3643-1.0563-5.1729c-0.23795-1.4043-0.18185-2.9196-0.28192-4.306-0.10007-1.3864-0.35629-2.6438-0.14723-3.5322z" fill="#2c220a" stroke-width=".18656"/><g stroke-width=".11586"><path d="m3.5179 0.1765c0.32609-0.029558 0.8099-0.082819 1.1235-0.05118 0.42735 0.043108 0.90784 3.2986 0.90784 3.2986l-1.3168-0.45493s-1.7-2.7032-0.7146-2.7925z" fill="#090702"/><path d="m3.2848 0.11555c0.32609-0.029558 1.0151-0.05423 1.3288-0.022589 0.10684 0.010776 0.21414 0.20622 0.25467 0.62229 0.039229 0.40272-0.32046 0.38588-0.37283 0.94118-0.10475 1.1106-0.26292 2.8147-0.26292 2.8147h-1.3363s-0.59683-4.2663 0.38859-4.3556z" fill="#2c220a"/><path d="m13.311 0.31207c-0.32609-0.029558-0.8099-0.082819-1.1235-0.05118-0.42735 0.043108-0.87857 3.1659-0.87857 3.1659l1.3168-0.36015s1.6707-2.6653 0.68533-2.7546z" fill="#090702"/><path d="m13.544 0.25112c-0.32609-0.029558-1.0151-0.054229-1.3288-0.02259-0.10684 0.010769-0.21414 0.20622-0.25467 0.62229-0.03923 0.40273 0.32046 0.38588 0.37283 0.94118 0.10475 1.1106 0.26292 2.6159 0.26292 2.6159h1.3363s0.59683-4.0675-0.38859-4.1568z" fill="#2c220a"/></g><circle cx="3.5859" cy="4.0144" r=".23727" fill="#7d7d7d" stroke-width=".026458"/><circle cx="13.279" cy="4.0144" r=".23727" fill="#7d7d7d" stroke-width=".026458"/></g><g fill="#1e1707"><path d="m3.0867 6.2692 3.9116 0.026819c0.073288 5.025e-4 0.14522 0.060152 0.13229 0.13229l-0.52297 2.9178c-0.01293 0.07214-0.059002 0.13229-0.13229 0.13229h-2.7182c-0.07329 0-0.11602-0.060832-0.13229-0.13229l-0.67048-2.9446c-0.016272-0.071461 0.059004-0.13279 0.13229-0.13229z" stroke-width=".079375"/><g stroke-width=".061597"><rect transform="matrix(.99627 -.086263 .078954 .99688 0 0)" x="2.3734" y="10.786" width="3.9585" height="1.7601" rx=".14637" ry=".20033"/><rect transform="matrix(.99627 -.086263 .078954 .99688 0 0)" x="2.4251" y="12.968" width="3.9585" height="1.7601" rx=".14637" ry=".20033"/><rect transform="matrix(.99627 -.086263 .078954 .99688 0 0)" x="2.5115" y="15.086" width="3.9585" height="1.7601" rx=".14637" ry=".20033"/></g><path d="m13.529 6.2692-3.9116 0.026819c-0.073288 5.025e-4 -0.14522 0.060152-0.13229 0.13229l0.52297 2.9178c0.01293 0.07214 0.059 0.13229 0.13229 0.13229h2.7182c0.07329 0 0.11602-0.060832 0.13229-0.13229l0.67048-2.9446c0.01627-0.071461-0.059-0.13279-0.13229-0.13229z" stroke-width=".079375"/><g stroke-width=".061597"><rect transform="matrix(-.99627 -.086263 -.078954 .99688 0 0)" x="-14.19" y="9.3524" width="3.9585" height="1.7601" rx=".14637" ry=".20033"/><rect transform="matrix(-.99627 -.086263 -.078954 .99688 0 0)" x="-14.139" y="11.535" width="3.9585" height="1.7601" rx=".14637" ry=".20033"/><rect transform="matrix(-.99627 -.086263 -.078954 .99688 0 0)" x="-14.052" y="13.653" width="3.9585" height="1.7601" rx=".14637" ry=".20033"/></g></g><g fill="#7d7d7d" stroke-width=".026458"><circle cx="3.3983" cy="6.6341" r=".23727"/><circle cx="6.6888" cy="6.6345" r=".23727"/><circle cx="6.268" cy="9.1176" r=".23727"/><circle cx="3.9479" cy="9.1516" r=".23727"/><circle cx="9.8163" cy="6.6073" r=".23727"/><circle cx="13.256" cy="6.5869" r=".23727"/><circle cx="12.679" cy="9.1176" r=".23727"/><circle cx="10.339" cy="9.0972" r=".23727"/><circle cx="9.7755" cy="10.569" r=".23727"/><circle cx="13.025" cy="10.847" r=".23727"/><circle cx="12.727" cy="14.124" r=".23727"/><circle cx="9.4841" cy="13.812" r=".23727"/><circle cx="12.971" cy="11.939" r=".23727"/><circle cx="9.6671" cy="11.689" r=".23727"/><circle cx="9.5177" cy="12.72" r=".23727"/><circle cx="12.822" cy="12.998" r=".23727"/><circle cx="12.53" cy="15.122" r=".23727"/><circle cx="9.2735" cy="14.83" r=".23727"/><circle cx="9.226" cy="15.956" r=".23727"/><circle cx="12.455" cy="16.227" r=".23727"/><circle cx="7.3195" cy="14.85" r=".23727"/><circle cx="4.0566" cy="15.115" r=".23727"/><circle cx="4.1581" cy="16.207" r=".23727"/><circle cx="7.4078" cy="15.929" r=".23727"/><circle cx="7.1568" cy="13.86" r=".23727"/><circle cx="3.9139" cy="14.118" r=".23727"/><circle cx="3.7988" cy="13.025" r=".23727"/><circle cx="7.0485" cy="12.727" r=".23727"/><circle cx="6.9262" cy="11.675" r=".23727"/><circle cx="6.8515" cy="10.576" r=".23727"/><circle cx="3.5681" cy="10.834" r=".23727"/><circle cx="3.6493" cy="11.967" r=".23727"/></g></g></svg>
