<?xml version="1.0" encoding="UTF-8"?>
<!-- Created with Inkscape (http://www.inkscape.org/) -->
<svg width="64" height="64" version="1.1" viewBox="0 0 16.933 16.933" xmlns="http://www.w3.org/2000/svg"><g><path d="m4.5391 3.232s1.2304-2.0615 1.2889-2.8579c0.64499-0.59059 1.2911 0.49554 2.6538 0.49321 1.6468-0.00282 2.2084-1.078 2.6156-0.49566s0.66001 2.822 0.66001 2.822l1.8492 14.846h-9.1684z" fill="#252a39" stroke="#000" stroke-width=".13229"/><path d="m4.776 2.8984c0.39972-0.36829 0.72478-2.6085 1.1126-2.5817 0.14313 0.025725 2.4761 2.3735 1.4065 2.6654s0.018922 1.9854 0.018922 1.9854l-0.96307 12.781-3.1609-0.17825s-0.2085-13.019 1.5859-14.672z" fill="#2dab1a" stroke="#000" stroke-width=".14175"/><path d="m5.05 3.008c0.39972-0.36829 0.5238-2.1517 0.91159-2.1249 0.14313 0.025725 2.065 1.6609 0.99542 1.9528s6.505e-4 2.1681 6.505e-4 2.1681l-0.88084 12.397-2.6219-0.12344s-0.19936-12.617 1.5951-14.27z" fill="#8fec81"/><path d="m12.157 2.8984c-0.39972-0.36829-0.72478-2.6085-1.1126-2.5817-0.14313 0.025725-2.4761 2.3735-1.4065 2.6654s-0.018922 1.9854-0.018922 1.9854l0.96307 12.781 3.1609-0.17825s0.2085-13.019-1.5859-14.672z" fill="#2dab1a" stroke="#000" stroke-width=".14175"/><path d="m11.883 3.008c-0.39972-0.36829-0.5238-2.1517-0.91159-2.1249-0.14313 0.025725-2.065 1.6609-0.99542 1.9528 1.0696 0.29187-6.505e-4 2.1681-6.505e-4 2.1681l0.88084 12.397 2.6219-0.12344s0.19936-12.617-1.5951-14.27z" fill="#8fec81"/></g></svg>
