<?xml version="1.0" encoding="UTF-8"?>
<!-- Created with Inkscape (http://www.inkscape.org/) -->
<svg width="64" height="64" version="1.1" viewBox="0 0 16.933 16.933" xmlns="http://www.w3.org/2000/svg"><g transform="translate(-.13138 -.19518)" stroke="#000"><path d="m13.185 4.7707c0.52268 0.30019 1.2605 1.3366 1.2651 1.8716-0.14672 2.993-0.3878 6.2279-1.3306 9.1233-0.2881 0.72342-0.64924 1.1691-1.0873 1.1713-1.6112 8e-3 -5.5756 0.07175-6.784 0.06659-1.2665-0.005396-2.3058-6.993-2.539-8.318-0.6149-3.4929 0.67289-3.0365 1.6866-3.6873 1.0748-0.2516 2.8715 0.29159 4.2327 0.26431 0.99458 0.053235 3.7953-0.92901 4.5565-0.49182z" fill="#121212" stroke-width=".058869"/><path d="m4.0767 5.6731c0.17157-0.73261 1.5666-0.19602 2.3099 0 0.4302 0.11345 1.0642 0.66267 1.5341 0.96288 0.46993 0.3002 1.318 0.32696 1.788 0.026754 0.46993-0.3002 0.86753-0.87618 1.2977-0.98963 0.74332-0.19602 2.0776-0.71647 2.3099 0 0.76801 2.3682-1.3569 11.208-1.3569 11.208h-6.7864s-1.7137-8.5719-1.0965-11.208z" fill="#191919" stroke-width=".13803"/><path d="m13.111 4.7327c0.4798 0.27556 1.0488 0.56097 1.2851 1.0356 0.26383 0.52989 0.7034 5.2252-1.048 5.1701-1.0298-0.032435-6.0514-0.26707-8.3508-1.4012-2.2994-1.1342-2.1361-2.5816-2.2661-3.1664-0.10654-0.47938 0.3842-1.1615 1.7078-1.4031 1.2533-0.22877 2.9476 0.64446 4.4075 0.64801 1.6112 0.00391 3.5033-1.3201 4.2645-0.8829z" fill="#0e0e0e" stroke-width=".058869"/><path d="m8.6797 0.3524c1.8491-0.00412 2.2354 2.6213 3.3782 4.3999 0 0-1.3245 0.93512-2.7669 1.0825-1.4424 0.14739-3.2036-0.641-4.1419-0.84145 0.57167-1.6864 1.5868-4.6366 3.5305-4.641z" fill="#0e0e0e" stroke-width=".12382"/><path d="m8.768 2.1229c0.99052 0.21392 1.5065 1.2387 2.4259 2.6696-1.6007 0.77685-3.5403 0.39948-5.0097-0.11481 0.50571-1.6761 1.402-2.3464 2.5837-2.5548z" fill="#121212" stroke-width=".099617"/><path d="m5.684 13.708h5.5918l-0.26479 2.4436h-5.0622z" fill="#0e0e0e" stroke-width=".047079"/><path d="m5.6794 11.164h5.601l-0.26523 1.6101h-5.0706z" fill="#0e0e0e" stroke-width=".038247"/></g></svg>
