<?xml version="1.0" encoding="UTF-8"?>
<!-- Created with Inkscape (http://www.inkscape.org/) -->
<svg width="64" height="64" version="1.1" viewBox="0 0 16.933 16.933" xmlns="http://www.w3.org/2000/svg"><g transform="translate(0 .000918)"><g stroke="#000" stroke-width=".045195"><ellipse cx="8.599" cy="4.5129" rx="2.2308" ry=".90187" fill="#282828"/><path d="m16.655 7.5669-2.784-3.0652s-1.0598 1.0664-1.1298 1.8083c-0.06337 0.67191 0.26555 1.4041 0.69337 1.8589 0.46919 0.49871 1.1836 0.81994 1.8081 0.69146 0.58896-0.12116 1.4123-1.2934 1.4123-1.2934z" fill="#555"/><path d="m5.6739 3.6026s1.58 1.0834 2.931 1.0777c1.351-0.0056886 2.7074-1.1753 2.7074-1.1753l0.06142 10.31h-5.6255z" fill="#4f4f4f"/><path d="m0.27791 7.5669 2.784-3.0652s1.0598 1.0664 1.1298 1.8083c0.06337 0.67191-0.26555 1.4041-0.69337 1.8589-0.46919 0.49871-1.1836 0.81994-1.8081 0.69146-0.58896-0.12116-1.4123-1.2934-1.4123-1.2934z" fill="#555"/><path d="m4.7368 4.691s2.4876 0.82035 3.8439 0.81739c1.3563-0.00296 3.7557-0.81739 3.7557-0.81739l-1.0255 5.5489h-5.5488z" fill="#5c5c5c"/><path d="m5.1865 6.2672s2.3596-0.45279 2.8861 0.2138c0.46782 0.64578-0.45761 3.3878-0.45761 3.3878l-1.7614 0.055263z" fill="#696969"/><path d="m1.8006 4.7595 4.5863-1.6362s0.68421 1.8872 0.41014 2.7666c-0.24821 0.79638-0.96601 1.4056-1.663 1.6388-0.76445 0.25565-1.7201 0.1525-2.3609-0.39772-0.60437-0.51889-0.97249-2.3715-0.97249-2.3715z" fill="#6b6b6b"/><path d="m11.887 6.2672s-2.3596-0.45279-2.8861 0.2138c-0.46782 0.64578 0.45761 3.3878 0.45761 3.3878l1.7612 0.055263z" fill="#696969"/></g><g transform="matrix(1.5798 0 0 1.847 -.74581 -4.6183)" fill="#6b6b6b" stroke-width=".026458"><path d="m10.16 5.0774-2.9031-0.88587s-0.4331 1.0218-0.25962 1.4979c0.15711 0.43118 0.61148 0.76106 1.0527 0.88727 0.48389 0.13842 1.0888 0.082566 1.4945-0.21534 0.38256-0.28094 0.61558-1.284 0.61558-1.284z" fill="#6b6b6b" stroke="#000" stroke-width=".026458"/></g><path d="m5.8272 10.393h5.4187l-0.20913 3.0299h-5.0004z" fill="#696969" stroke="#000" stroke-width=".045195"/></g></svg>
