<?xml version="1.0" encoding="UTF-8"?>
<!-- Created with Inkscape (http://www.inkscape.org/) -->
<svg width="64" height="64" version="1.1" viewBox="0 0 16.933 16.933" xmlns="http://www.w3.org/2000/svg"><g transform="matrix(1.6272 0 0 1.7781 -.76069 -5.7321)" stroke="#000"><path d="m1.801 5.0751c0.14284-0.55551 1.3043-0.14864 1.9232 0 0.35818 0.086023 0.82758 0.75103 1.2188 0.97866 0.39126 0.22763 1.0974 0.24792 1.4887 0.020286 0.39126-0.22763 0.78078-0.91292 1.139-0.99894 0.61889-0.14864 1.7298-0.54327 1.9232 0 0.63944 1.7957-1.1297 7.3172-1.1297 7.3172h-5.6503s-1.4268-5.3187-0.9129-7.3172z" fill="#231a06" stroke-width=".10968"/><path d="m1.8204 5.3649c0.14284-0.55551 1.3043-0.14864 1.9232 0 0.35818 0.086023 0.82758 0.75103 1.2188 0.97866 0.39126 0.22763 1.0974 0.24792 1.4887 0.020286 0.39126-0.22763 0.78078-0.91292 1.139-0.99894 0.61889-0.14864 1.7298-0.54327 1.9232 0 0.63944 1.7957-1.1297 7.3172-1.1297 7.3172h-5.6503s-1.4268-5.3187-0.9129-7.3172z" fill="#41310c" stroke-width=".10968"/><g stroke-width=".068114"><path d="m2.6294 3.3229c0.2004-0.016623 0.49772-0.046576 0.69047-0.028783 0.26263 0.024244 0.55791 1.8551 0.55791 1.8551l-0.80923-0.25585s-1.0447-1.5202-0.43916-1.5705z" fill="#231a06"/><path d="m2.4861 3.2886c0.2004-0.016623 0.62386-0.030498 0.81661-0.012704 0.065657 0.00606 0.1316 0.11598 0.15651 0.34997 0.024108 0.22649-0.19694 0.21702-0.22912 0.5293-0.064374 0.62458-0.16158 1.2461-0.16158 1.2461h-0.82122s-0.36678-2.0625 0.23881-2.1127z" fill="#41310c"/><path d="m8.6476 3.3991c-0.2004-0.016623-0.49772-0.046576-0.69047-0.028783-0.26263 0.024243-0.53992 1.7805-0.53992 1.7805l0.80923-0.20255s1.0268-1.4989 0.42117-1.5491z" fill="#231a06"/><path d="m8.7909 3.3649c-0.2004-0.016623-0.62386-0.030498-0.81661-0.012704-0.065657 0.0060563-0.1316 0.11598-0.15651 0.34997-0.024108 0.22649 0.19694 0.21702 0.22912 0.5293 0.064374 0.62458 0.16158 1.2461 0.16158 1.2461h0.82122s0.36678-2.0625-0.23881-2.1127z" fill="#41310c"/></g><path d="m2.3041 7.4683c0.12504-0.52952 1.6835 0 1.6835 0l3.3669-3e-7s1.5141-0.51785 1.6835 0c0.55972 1.7117-1.0355 4.9545-1.0355 4.9545h-4.9459s-1.2023-3.0495-0.7525-4.9545z" fill="#614912" stroke-width=".10018"/></g></svg>
