<?xml version="1.0" encoding="UTF-8"?>
<!-- Created with Inkscape (http://www.inkscape.org/) -->
<svg width="64" height="64" version="1.1" viewBox="0 0 16.933 16.933" xmlns="http://www.w3.org/2000/svg"><g transform="matrix(.93597 0 0 .93597 .5399 .78761)" stroke="#000"><path d="m13.499 4.0471c0.55844 0.32072 1.3467 1.428 1.3516 1.9996-0.15675 3.1977-0.41432 6.6539-1.4216 9.7475-0.30781 0.77292-0.69366 1.2491-1.1617 1.2514-1.7214 0.0085-5.957 0.07666-7.2481 0.07115-1.3531-0.005769-2.4635-7.4714-2.7127-8.887-0.65696-3.7318 0.68446-3.3683 1.7675-4.0636 1.1553-0.39976 3.1024 0.4356 4.5567 0.40645 1.0626 0.056877 4.0549-0.99256 4.8682-0.52547z" fill="#261f05" stroke-width=".062897"/><path d="m3.7674 5.0113c0.1833-0.78273 1.6738-0.20943 2.468 0 0.45963 0.12121 1.062 1.0582 1.5641 1.379 0.50208 0.32074 1.4082 0.34932 1.9103 0.028584 0.50208-0.32074 1.0019-1.2863 1.4616-1.4076 0.79417-0.20943 2.2197-0.76549 2.468 0 0.82055 2.5302-1.4497 11.974-1.4497 11.974h-7.2507s-1.8309-9.1583-1.1715-11.974z" fill="#534917" stroke-width=".14748"/><path transform="rotate(40.64)" d="m12.647-4.4067 1.1013-0.11617-0.060828 13.235-0.9132-0.77212z" fill="#1d1703" stroke-width=".066083"/><g><path d="m13.42 4.0065c0.51262 0.29441 1.3545 1.139 1.373 1.7051 0.01846 0.56614-0.78656 0.85388-0.83252 0.90187-1.8729-0.023747-1.7399 0.65357-3.612 0.64877-0.8607-0.0022029-3.2812-0.52848-4.2361-0.52128-0.95489 0.0071991-1.856 0.014261-2.5015 0.011507-1.3531-0.0057721-1.3576 0.32672-1.5199-0.41533-0.064537-1.2751 0.74023-1.7161 2.0227-2.1721s2.9509 0.92465 4.5106 0.92844c1.7214 0.0041759 3.9825-1.5541 4.7958-1.087z" fill="#463708" stroke-width=".062897"/><path d="m8.6853-0.67349c1.9755-0.015498 2.3884 2.8007 3.6093 4.7009 0 0-1.4151 0.99909-2.9562 1.1566-1.5411 0.15747-3.2082-0.52668-4.2254-1.0506 1.6434-1.5657 1.576-4.7912 3.5722-4.8069z" fill="#463708" stroke-width=".13229"/><path d="m8.6764-0.050605c1.0583 0.22856 1.7129 2.5921 2.6952 4.1209 0 0-4.1071 0.50057-5.6769-0.048902 1.3222-1.2597 1.7192-3.8493 2.9818-4.072z" fill="#1d1703" stroke-width=".10643"/></g></g></svg>
