<?xml version="1.0" encoding="UTF-8"?>
<!-- Created with Inkscape (http://www.inkscape.org/) -->
<svg width="64" height="64" version="1.1" viewBox="0 0 16.933 16.933" xmlns="http://www.w3.org/2000/svg"><g transform="translate(-.11741 .00081606)"><g stroke-width=".026458"><g><path d="m16.416 6.581s-0.8405-1.2554-1.4236-1.6498c-0.58307-0.39436-2.0749-0.71637-2.0749-0.71637l-0.9428 2.2351 1.5417 0.69644 1.5698 1.2162z" fill="#909090" stroke="#050505"/><path d="m0.75189 6.581s0.8405-1.2554 1.4236-1.6498 2.0749-0.71637 2.0749-0.71637l0.9428 2.2351-1.5417 0.69644-1.5698 1.2162z" fill="#909090" stroke="#050505"/><ellipse cx="8.599" cy="4.5134" rx="2.2308" ry=".90187" fill="#282828" stroke="#000"/></g><path d="m5.6739 3.6031s1.58 1.0834 2.931 1.0777c1.351-0.00569 2.7074-1.1753 2.7074-1.1753l-0.044471 10.31h-5.4136z" fill="#4f4f4f" stroke="#000"/><path d="m4.7368 4.6914s2.5841 0.12981 3.7958 0.34666c1.1756-0.25273 3.8039-0.34666 3.8039-0.34666s-0.07797 1.8455-0.24817 2.7745c-0.1702 0.92902-0.77736 2.7745-0.77736 2.7745h-5.5488s-0.60651-1.8496-0.77741-2.7745c-0.1709-0.92482-0.24799-2.7745-0.24799-2.7745z" fill="#616161" stroke="#050505"/></g><g fill="#909090" stroke="#050505" stroke-width=".026458"><path d="m5.5475 5.6834c0.4402-0.57282 1.4806-0.70904 2.0534-0.26884 0.57282 0.4402 0.61219 2.2028 0.61219 2.2028l-2.7106 0.36604s-0.39518-1.7272 0.04502-2.3z"/><path d="m1.8006 4.7599s1.2994-1.1601 2.0637-1.4328c0.76439-0.27269 2.5226-0.20338 2.5226-0.20338l0.41014 2.7666-1.9216 0.3344-2.1024 0.90663z"/><path d="m11.526 5.6834c-0.4402-0.57282-1.4806-0.70904-2.0534-0.26884-0.57282 0.4402-0.61219 2.2028-0.61219 2.2028l2.7106 0.36604s0.39518-1.7272-0.04502-2.3z"/><path d="m15.368 4.7599s-1.2994-1.1601-2.0637-1.4328c-0.76439-0.27269-2.5226-0.20338-2.5226-0.20338l-0.41014 2.7666 1.9216 0.3344 2.1024 0.90663z"/><path d="m5.5941 8.2143 2.9597-0.43543 2.9244 0.41189-0.41189 1.5417-2.5714-0.36482-2.5949 0.36482z"/><g><rect x="6.2137" y="10.521" width="4.672" height=".55311"/><rect x="6.2137" y="11.68" width="4.672" height=".55311"/><rect x="6.2137" y="12.26" width="4.672" height=".55311"/><rect x="6.2137" y="12.839" width="4.672" height=".55311"/><rect x="6.2137" y="11.1" width="4.672" height=".55311"/></g></g><path d="m13.123 3.3328s0.29112 0.098543 0.45076 0.18301c0.15964 0.084465 0.50707 0.32378 0.50707 0.32378l-0.11966 0.16809-0.98598-0.49975z" fill="#fff" stroke-width=".026458"/><path d="m15.424 5.4902s0.1796 0.15822 0.26942 0.26741c0.08982 0.10919 0.26952 0.38771 0.26952 0.38771l-0.13318 0.088683-0.56103-0.65821z" fill="#fff" stroke-width=".020653"/></g></svg>
