<?xml version="1.0" encoding="UTF-8"?>
<!-- Created with Inkscape (http://www.inkscape.org/) -->
<svg width="64" height="64" version="1.1" viewBox="0 0 16.933 16.933" xmlns="http://www.w3.org/2000/svg" xmlns:xlink="http://www.w3.org/1999/xlink"><defs><linearGradient id="linearGradient1265" x1="7.8208" x2="8.3149" y1="-19.745" y2="36.654" gradientTransform="translate(.30736 .11651)" gradientUnits="userSpaceOnUse"><stop offset="0"/><stop stop-opacity="0" offset=".5"/><stop offset="1"/></linearGradient></defs><g transform="translate(.72255 11.96)" fill="#847844" stroke="#000" stroke-width=".052917"><path d="m1.0706 1.5471c0.58233 0.48323 1.0694 0.11898 1.1767 0.75724-0.050508 0.68087-0.51432 0.29754-1.1767 0.75724-0.36126 0.25072-0.79375-0.33773-0.79375-0.75724 0-0.41951 0.45535-1.0381 0.79375-0.75724z"/><ellipse cx="2.1822" cy="2.3694" rx=".24427" ry="1.3923"/></g><g transform="matrix(-1 0 0 1 16.211 11.96)" fill="#847844" stroke="#000" stroke-width=".052917"><path d="m1.0706 1.5471c0.58233 0.48323 1.0694 0.11898 1.1767 0.75724-0.050508 0.68087-0.51432 0.29754-1.1767 0.75724-0.36126 0.25072-0.79375-0.33773-0.79375-0.75724 0-0.41951 0.45535-1.0381 0.79375-0.75724z"/><ellipse cx="2.1822" cy="2.3694" rx=".24427" ry="1.3923"/></g><g transform="matrix(-1 0 0 1 16.211 .10219)" fill="#847844" stroke="#000" stroke-width=".052917"><path d="m1.0706 1.5471c0.58233 0.48323 1.0694 0.11898 1.1767 0.75724-0.050508 0.68087-0.51432 0.29754-1.1767 0.75724-0.36126 0.25072-0.79375-0.33773-0.79375-0.75724 0-0.41951 0.45535-1.0381 0.79375-0.75724z"/><ellipse cx="2.1822" cy="2.3694" rx=".24427" ry="1.3923"/></g><g transform="translate(.72255 .10219)" fill="#847844" stroke="#000" stroke-width=".052917"><path d="m1.0706 1.5471c0.58233 0.48323 1.0694 0.11898 1.1767 0.75724-0.050508 0.68087-0.51432 0.29754-1.1767 0.75724-0.36126 0.25072-0.79375-0.33773-0.79375-0.75724 0-0.41951 0.45535-1.0381 0.79375-0.75724z"/><ellipse cx="2.1822" cy="2.3694" rx=".24427" ry="1.3923"/></g><path d="m3.7748 2.1871h9.4563c0.43108 0 0.77813 0.35403 0.77813 0.79378 0 0-0.19345 3.9331-0.19345 5.9012 0 1.9681 0.19345 5.9012 0.19345 5.9012 0.01441 0.43952-0.34705 0.79378-0.77813 0.79378h-9.4563c-0.43108 0-0.77813-0.35403-0.77813-0.79378 0 0 0.24872-3.9324 0.24872-5.9012 0-1.9688-0.24872-5.9012-0.24872-5.9012-0.018518-0.43936 0.34705-0.79378 0.77813-0.79378z" fill="#c4c297" stroke="#000" stroke-width=".052394"/><g stroke-width=".052917"><path d="m2.9617 2.606 11.048-0.018754s-0.21716 3.6724-0.21716 5.5159 0.19474 5.5271 0.19474 5.5271l-10.92 0.02996s0.19385-3.6774 0.19474-5.5271c8.897e-4 -1.8497-0.2996-5.5271-0.2996-5.5271z" fill="url(#linearGradient1265)"/><path d="m3.7284 1.1246s3.1423 0.13043 4.7062 0.13028c1.5639-1.507e-4 4.6736-0.13028 4.6736-0.13028 0.71994 0.053134 0.9756 0.80827 0.97288 1.4195-0.0027 0.61127-0.28702 1.3328-0.97288 1.4521 0 0-3.1261-0.11399-4.6899-0.11399-1.5638 0-4.6899 0.11399-4.6899 0.11399-0.82997-0.057575-0.9053-0.78441-0.92403-1.4358s0.13403-1.3091 0.92403-1.4358z" fill="#c4c297" stroke="#000"/><path d="m3.7284 12.982s3.1423 0.13043 4.7062 0.13028c1.5639-1.51e-4 4.6736-0.13028 4.6736-0.13028 0.71994 0.05313 0.9756 0.80827 0.97288 1.4195-0.0027 0.61127-0.28702 1.3328-0.97288 1.4521 0 0-3.1261-0.11399-4.6899-0.11399-1.5638 0-4.6899 0.11399-4.6899 0.11399-0.82997-0.05757-0.9053-0.78441-0.92403-1.4358-0.018728-0.65142 0.13403-1.3091 0.92403-1.4358z" fill="#c4c297" stroke="#000"/></g></svg>
