<?xml version="1.0" encoding="UTF-8"?>
<!-- Created with Inkscape (http://www.inkscape.org/) -->
<svg width="64" height="64" version="1.1" viewBox="0 0 16.933 16.933" xmlns="http://www.w3.org/2000/svg"><g transform="matrix(1.6338 0 0 1.6338 -3.7606 -5.5942)"><path d="m12.435 10.927c0.26072 1.578-0.87782 1.1728-2.4231 1.1728-2.4254 0-2.7545-6.3103-3.1995-6.5088-0.91807-0.22572-2.9618 0.26707-2.0442-0.21789 3.4333-1.3654 3.8419 0.17396 4.318 0.79339 1.3553 1.7635 2.8735 1.8836 3.3488 4.7605z" fill="none" stroke="#000" stroke-width=".12697"/><circle cx="4.6012" cy="5.7818" r=".39" fill="none" stroke="#e2ff00" stroke-width=".063484"/><g transform="matrix(1.1997 0 0 1.1997 -.49598 -1.9994)"><g transform="matrix(.29276 0 0 .29276 1.8151 6.7725)"><path d="m3.7633 0.84859h9.15s0.50961 6.1393-3.0692 7.7849c3.6895 2.0883 3.0692 7.7849 3.0692 7.7849h-9.15s-0.84159-4.9217 3.0693-7.7849c-3.9847-2.3835-3.0693-7.7849-3.0693-7.7849z" fill="none" stroke="#000" stroke-width=".079375"/><path d="m4.1657 13.207c1.9066 0.08149 5.8164-0.50578 8.3384-0.04102 0.01846 1.3077 0.2449 2.0894 0.20887 2.7095-2.2355 0.12292-6.4226 0.32757-8.6593 0-0.14446-0.77085-0.043512-1.9224 0.11201-2.6685z" fill="#c1c364" stroke-width=".079375"/><path d="m4.0912 4.3453 8.3044 0.074807s0.0158 0.84824-0.62605 2.018c-0.4806 0.80931-0.78038 1.5723-2.9516 2.2012-0.35435 0.7295-0.25821 2.6535-0.15552 3.6295 0.10269 0.97592 1.6477 0.99005 1.6477 0.99005l-3.9024 0.06518s1.6057 0.13777 1.674-0.8961c0.068332-1.0339 0.076092-3.2394-0.22089-3.769-1.5405-0.31252-2.4919-1.4317-2.9305-2.2217-0.79402-1.1467-0.83915-2.0918-0.83915-2.0918z" fill="#c1c364"/><path d="m10.821 6.6916 0.8458-1.5687 0.37515 0.20227-0.8458 1.5687z" fill="#fff" stroke-width=".047246"/><path d="m10.864 10.48 0.8458 1.5687 0.37515-0.20228-0.8458-1.5687z" fill="#fff" stroke-width=".047246"/></g><rect x="2.4674" y="6.416" width="3.5625" height=".60528" fill="#5b5d13" stroke="#000" stroke-width=".052917"/><rect x="2.4674" y="11.414" width="3.5625" height=".60528" fill="#5b5d13" stroke="#000" stroke-width=".052917"/></g></g></svg>
