<?xml version="1.0" encoding="UTF-8"?>
<!-- Created with Inkscape (http://www.inkscape.org/) -->
<svg width="64" height="64" version="1.1" viewBox="0 0 16.933 16.933" xmlns="http://www.w3.org/2000/svg"><g transform="matrix(2.062 0 0 2.062 -7.3972 -7.6113)"><g fill="#f9f8e4" stroke="#000"><rect transform="matrix(.87605 -.48222 .87605 .48222 0 0)" x="-3.6784" y="8.8425" width="3.5636" height="3.5636" stroke-width=".057569"/><path d="m7.6964 11.256-3.0804-1.8705-0.1131-3.3018 3.1253 1.7028z" stroke-width=".052917"/><path d="m7.7368 11.258 3.1498-1.7672-0.096407-3.4107-3.1224 1.7156z" stroke-width=".052917"/></g><g><ellipse transform="rotate(-22.194)" cx="1.9656" cy="8.5684" rx=".22474" ry=".33363"/><ellipse transform="rotate(-22.194)" cx="2.2357" cy="10.119" rx=".22474" ry=".33363"/><ellipse transform="rotate(-22.194)" cx="2.5406" cy="11.72" rx=".22474" ry=".33363"/><ellipse transform="rotate(-22.194)" cx="3.2202" cy="10.196" rx=".22474" ry=".33363"/><ellipse transform="rotate(-22.194)" cx="1.3609" cy="10.267" rx=".22474" ry=".33363"/><ellipse transform="rotate(266.32)" cx="-6.3271" cy="7.217" rx=".22474" ry=".33363"/><ellipse transform="rotate(226.26)" cx="-13.062" cy="-.80833" rx=".22474" ry=".33363"/><ellipse transform="rotate(226.26)" cx="-12.778" cy=".72411" rx=".22474" ry=".33363"/><ellipse transform="rotate(226.26)" cx="-12.363" cy="2.3371" rx=".22474" ry=".33363"/></g></g></svg>
