<?xml version="1.0" encoding="UTF-8"?>
<!-- Created with Inkscape (http://www.inkscape.org/) -->
<svg width="64" height="64" version="1.1" viewBox="0 0 16.933 16.933" xmlns="http://www.w3.org/2000/svg"><g transform="matrix(1.4215 0 0 1.4215 -2.7487 -2.5506)" stroke="#000"><ellipse cx="7.8897" cy="7.7503" rx="5.4722" ry="5.3449" fill="#a8a8a8" stroke-width=".033723"/><ellipse cx="7.8897" cy="7.7503" rx="5.1906" ry="5.0699" fill="#969696" stroke-width=".031988"/><path d="m9.8552 8.6402q0 0.60629-0.47329 1.0092-0.47329 0.39897-1.24 0.47329v1.416h-0.46156v-1.3964q-0.51632-0.003905-0.97006-0.097788-0.45374-0.097788-0.78622-0.25034v-0.77448h0.062585q0.074318 0.054765 0.26598 0.16037 0.19166 0.1017 0.37159 0.1682 0.2034 0.074318 0.47329 0.14081 0.27381 0.062585 0.58282 0.074319v-1.6937q-0.15646-0.03129-0.28945-0.058675-0.13299-0.03129-0.24643-0.062585-0.63758-0.16037-0.9153-0.48112-0.27772-0.32466-0.27772-0.79795 0-0.57891 0.45374-0.97788 0.45765-0.39898 1.2752-0.46547v-1.0639h0.46156v1.0561q0.39506 0.00782 0.80969 0.093876 0.41462 0.086054 0.69625 0.19949v0.76666h-0.054764q-0.29336-0.17993-0.61411-0.31683-0.31683-0.14082-0.83707-0.17602v1.6859q0.11735 0.019556 0.25425 0.054763 0.1369 0.03129 0.2386 0.050846 0.58282 0.12517 0.89965 0.43027 0.32074 0.3051 0.32074 0.83315zm-2.1748-1.4355v-1.6155q-0.41853 0.03129-0.70407 0.23078-0.28554 0.19558-0.28554 0.54761 0 0.35595 0.21122 0.53588 0.21122 0.17993 0.77839 0.30119zm1.4355 1.5372q0-0.36768-0.23078-0.53588-0.22687-0.17211-0.74319-0.2699v1.6194q0.46938-0.046941 0.71972-0.2386 0.25425-0.19166 0.25425-0.57499z" fill="#474747" stroke-width=".12016" style="white-space:pre" aria-label="$"/></g></svg>
