<?xml version="1.0" encoding="UTF-8"?>
<!-- Created with Inkscape (http://www.inkscape.org/) -->
<svg width="64" height="64" version="1.1" viewBox="0 0 16.933 16.933" xmlns="http://www.w3.org/2000/svg"><g transform="matrix(1.2669 0 0 1.2669 -.82921 -1.6914)"><circle cx="6.6094" cy="5.7033" r="3.1832" fill="#aee2ff"/><g fill="#ebff4f" stroke="#000"><path d="m11.185 12.848a0.60444 0.60444 0 0 0-0.60442 0.60442 0.60444 0.60444 0 0 0 0.60442 0.60442 0.60444 0.60444 0 0 0 0.60447-0.60442 0.60444 0.60444 0 0 0-0.60447-0.60442zm0 0.08838a0.51607 0.51607 0 0 1 0.5161 0.51604 0.51607 0.51607 0 0 1-0.5161 0.5161 0.51607 0.51607 0 0 1-0.51604-0.5161 0.51607 0.51607 0 0 1 0.51604-0.51604z" stroke-width=".013737"/><path d="m11.163 5.3234a0.38832 0.38832 0 0 0-0.38831 0.38831 0.38832 0.38832 0 0 0 0.38831 0.38831 0.38832 0.38832 0 0 0 0.38834-0.38831 0.38832 0.38832 0 0 0-0.38834-0.38831zm0 0.056778a0.33155 0.33155 0 0 1 0.33156 0.33153 0.33155 0.33155 0 0 1-0.33156 0.33156 0.33155 0.33155 0 0 1-0.33153-0.33156 0.33155 0.33155 0 0 1 0.33153-0.33153z" stroke-width=".0088252"/><path d="m10.209 5.023v1.3606a0.68038 0.68038 0 0 0 0.0155 0 0.68038 0.68038 0 0 0 0.68058-0.68006 0.68038 0.68038 0 0 0-0.68058-0.68058 0.68038 0.68038 0 0 0-0.0155 0z" stroke-width=".052917"/></g><g><rect transform="rotate(26.38)" x="6.5321" y="-.62749" width=".21689" height="5.5173" fill="#fff"/><rect transform="matrix(.89179 .45244 -.43629 .89981 0 0)" x="6.9932" y="-.91548" width=".22905" height="5.9068" fill="#fff"/><path d="m6.6092 2.0144a3.689 3.689 0 0 0-3.6889 3.6889 3.689 3.689 0 0 0 3.6889 3.6889 3.689 3.689 0 0 0 3.6892-3.6889 3.689 3.689 0 0 0-3.6892-3.6889zm0 0.53938a3.1497 3.1497 0 0 1 3.1498 3.1495 3.1497 3.1497 0 0 1-3.1498 3.1498 3.1497 3.1497 0 0 1-3.1495-3.1498 3.1497 3.1497 0 0 1 3.1495-3.1495z" fill="#ebff4f" stroke="#000" stroke-width=".083839"/></g><path d="m8.6128 2.7026c0.17158 0.12218 0.47128 0.37758 0.33338 0.5368-0.14721 0.16997-0.43349-0.14191-0.618-0.27043-0.1606-0.11186-0.50338-0.25247-0.40725-0.42295 0.11614-0.20596 0.49926 0.019423 0.69187 0.15658z" fill="#fff" stroke-width=".037477"/><g fill="#ebff4f" stroke="#000" stroke-width=".0088252"><path d="m11.163 6.1088a0.38832 0.38832 0 0 0-0.38831 0.38831 0.38832 0.38832 0 0 0 0.38831 0.38831 0.38832 0.38832 0 0 0 0.38834-0.38831 0.38832 0.38832 0 0 0-0.38834-0.38831zm0 0.056778a0.33155 0.33155 0 0 1 0.33156 0.33153 0.33155 0.33155 0 0 1-0.33156 0.33156 0.33155 0.33155 0 0 1-0.33153-0.33156 0.33155 0.33155 0 0 1 0.33153-0.33153z"/><path d="m11.163 6.8942a0.38832 0.38832 0 0 0-0.38831 0.38831 0.38832 0.38832 0 0 0 0.38831 0.38831 0.38832 0.38832 0 0 0 0.38834-0.38831 0.38832 0.38832 0 0 0-0.38834-0.38831zm0 0.056778a0.33155 0.33155 0 0 1 0.33156 0.33153 0.33155 0.33155 0 0 1-0.33156 0.33156 0.33155 0.33155 0 0 1-0.33153-0.33156 0.33155 0.33155 0 0 1 0.33153-0.33153z"/><path d="m11.163 7.6797a0.38832 0.38832 0 0 0-0.38831 0.38831 0.38832 0.38832 0 0 0 0.38831 0.38831 0.38832 0.38832 0 0 0 0.38834-0.38831 0.38832 0.38832 0 0 0-0.38834-0.38831zm0 0.056778a0.33155 0.33155 0 0 1 0.33156 0.33153 0.33155 0.33155 0 0 1-0.33156 0.33156 0.33155 0.33155 0 0 1-0.33153-0.33156 0.33155 0.33155 0 0 1 0.33153-0.33153z"/><path d="m11.163 8.4651a0.38832 0.38832 0 0 0-0.38831 0.38831 0.38832 0.38832 0 0 0 0.38831 0.38831 0.38832 0.38832 0 0 0 0.38834-0.38831 0.38832 0.38832 0 0 0-0.38834-0.38831zm0 0.05678a0.33155 0.33155 0 0 1 0.33156 0.33153 0.33155 0.33155 0 0 1-0.33156 0.33156 0.33155 0.33155 0 0 1-0.33153-0.33156 0.33155 0.33155 0 0 1 0.33153-0.33153z"/><path d="m11.163 9.2487a0.38832 0.38832 0 0 0-0.38831 0.38831 0.38832 0.38832 0 0 0 0.38831 0.38831 0.38832 0.38832 0 0 0 0.38834-0.38831 0.38832 0.38832 0 0 0-0.38834-0.38831zm0 0.056778a0.33155 0.33155 0 0 1 0.33156 0.33153 0.33155 0.33155 0 0 1-0.33156 0.33156 0.33155 0.33155 0 0 1-0.33153-0.33156 0.33155 0.33155 0 0 1 0.33153-0.33153z"/><path d="m11.163 10.034a0.38832 0.38832 0 0 0-0.38831 0.38831 0.38832 0.38832 0 0 0 0.38831 0.38831 0.38832 0.38832 0 0 0 0.38834-0.38831 0.38832 0.38832 0 0 0-0.38834-0.38831zm0 0.05678a0.33155 0.33155 0 0 1 0.33156 0.33153 0.33155 0.33155 0 0 1-0.33156 0.33156 0.33155 0.33155 0 0 1-0.33153-0.33156 0.33155 0.33155 0 0 1 0.33153-0.33153z"/><path d="m11.163 10.82a0.38832 0.38832 0 0 0-0.38831 0.38831 0.38832 0.38832 0 0 0 0.38831 0.38831 0.38832 0.38832 0 0 0 0.38834-0.38831 0.38832 0.38832 0 0 0-0.38834-0.38831zm0 0.05678a0.33155 0.33155 0 0 1 0.33156 0.33153 0.33155 0.33155 0 0 1-0.33156 0.33156 0.33155 0.33155 0 0 1-0.33153-0.33156 0.33155 0.33155 0 0 1 0.33153-0.33153z"/><path d="m11.163 11.605a0.38832 0.38832 0 0 0-0.38831 0.38831 0.38832 0.38832 0 0 0 0.38831 0.38831 0.38832 0.38832 0 0 0 0.38834-0.38831 0.38832 0.38832 0 0 0-0.38834-0.38831zm0 0.05678a0.33155 0.33155 0 0 1 0.33156 0.33153 0.33155 0.33155 0 0 1-0.33156 0.33156 0.33155 0.33155 0 0 1-0.33153-0.33156 0.33155 0.33155 0 0 1 0.33153-0.33153z"/><path d="m11.163 12.39a0.38832 0.38832 0 0 0-0.38831 0.38831 0.38832 0.38832 0 0 0 0.38831 0.38831 0.38832 0.38832 0 0 0 0.38834-0.38831 0.38832 0.38832 0 0 0-0.38834-0.38831zm0 0.05678a0.33155 0.33155 0 0 1 0.33156 0.33153 0.33155 0.33155 0 0 1-0.33156 0.33156 0.33155 0.33155 0 0 1-0.33153-0.33156 0.33155 0.33155 0 0 1 0.33153-0.33153z"/></g></g></svg>
