<?xml version="1.0" encoding="UTF-8"?>
<!-- Created with Inkscape (http://www.inkscape.org/) -->
<svg width="64" height="64" version="1.1" viewBox="0 0 16.933 16.933" xmlns="http://www.w3.org/2000/svg"><g transform="matrix(1.3522 0 0 1.3522 -3.1028 -3.0559)" stroke="#000" stroke-width=".052917"><path d="m8.5249 11.54 2.0837-4.6267 2.3319-0.019848 1.4419 2.8811-3.7713 3.85z" fill="#580e69"/><path d="m6.1433 13.162c-1.1751-0.59312-2.3279-2.5315-2.3279-2.5315l3.1398 0.30823 1.529 0.61552 2.0921 2.0865s-3.2579 0.11437-4.433-0.47874z" fill="#420b4f"/><path d="m10.56 6.9128-2.0726 4.6027-1.5148-0.61639-0.66184-1.6066 0.35261-3.6486 2.0541 1.2682z" fill="#3c0948"/><path d="m9.973 6.8924-1.2288-0.017858-2.0388-1.2669 6.1352-1.7 0.07243 2.9538z" fill="#721387"/><path d="m6.2838 9.3142 0.62843 1.5763-3.1337-0.3024-1.0658-4.438c1.1245 0.81728 3.571 3.1641 3.571 3.1641z" fill="#4e0d5d"/><path d="m12.922 6.8239 1.4938 2.9346-1.5272-5.8658z" fill="#350a3e"/><path d="m2.705 6.0853 0.91553-2.6759 2.999 2.189-0.32533 3.7077z" fill="#75138b"/></g></svg>
