<?xml version="1.0" encoding="UTF-8"?>
<!-- Created with Inkscape (http://www.inkscape.org/) -->
<svg width="64" height="64" version="1.1" viewBox="0 0 16.933 16.933" xml:space="preserve" xmlns="http://www.w3.org/2000/svg"><g><g fill="#fff"><ellipse cx="8.5992" cy="4.5103" rx="2.2308" ry=".90189"/><path d="m16.655 7.5644-2.7841-3.0653s-1.0598 1.0664-1.1298 1.8083c-0.06337 0.67192 0.26556 1.4041 0.69338 1.8589 0.4692 0.49872 1.1836 0.81996 1.8081 0.69147 0.58897-0.12116 1.4123-1.2934 1.4123-1.2934z"/><path d="m5.6741 3.6s1.58 1.0834 2.9311 1.0777c1.351-0.00569 2.7075-1.1753 2.7075-1.1753l0.06142 10.31h-5.6256z"/><path d="m0.27796 7.5644 2.7841-3.0653s1.0598 1.0664 1.1298 1.8083c0.06337 0.67192-0.26556 1.4041-0.69338 1.8589-0.4692 0.49872-1.1836 0.81996-1.8081 0.69147-0.58897-0.12116-1.4123-1.2934-1.4123-1.2934z"/><path d="m4.7369 4.6884s2.4876 0.82037 3.844 0.81741 3.7558-0.81741 3.7558-0.81741l-1.0255 5.549h-5.5489z"/><path d="m1.8007 4.7569 4.5864-1.6362s0.68422 1.8872 0.41015 2.7667c-0.24822 0.7964-0.96603 1.4056-1.663 1.6388-0.76446 0.25566-1.7201 0.1525-2.3609-0.39773-0.60438-0.5189-0.97251-2.3715-0.97251-2.3715z"/><path d="m15.305 4.7571-4.5864-1.6362s-0.68422 1.8873-0.41016 2.7667c0.24821 0.79641 0.96604 1.4057 1.6631 1.6388 0.76446 0.25567 1.7201 0.1525 2.3611-0.39774 0.60438-0.51891 0.97251-2.3716 0.97251-2.3716z"/></g></g><style>.filled { cursor: pointer;					transition: fill 0.3s; }
.filled:hover,#g2187 { fill: #7711AA; }
.filled.built { fill: #7711AA; }
.filled.built:hover { fill: inherit; }
</style></svg>
